%TF.GenerationSoftware,KiCad,Pcbnew,(6.0.7)*%
%TF.CreationDate,2022-08-24T15:08:17+02:00*%
%TF.ProjectId,diff-probe,64696666-2d70-4726-9f62-652e6b696361,rev?*%
%TF.SameCoordinates,Original*%
%TF.FileFunction,Soldermask,Top*%
%TF.FilePolarity,Negative*%
%FSLAX46Y46*%
G04 Gerber Fmt 4.6, Leading zero omitted, Abs format (unit mm)*
G04 Created by KiCad (PCBNEW (6.0.7)) date 2022-08-24 15:08:17*
%MOMM*%
%LPD*%
G01*
G04 APERTURE LIST*
G04 Aperture macros list*
%AMRoundRect*
0 Rectangle with rounded corners*
0 $1 Rounding radius*
0 $2 $3 $4 $5 $6 $7 $8 $9 X,Y pos of 4 corners*
0 Add a 4 corners polygon primitive as box body*
4,1,4,$2,$3,$4,$5,$6,$7,$8,$9,$2,$3,0*
0 Add four circle primitives for the rounded corners*
1,1,$1+$1,$2,$3*
1,1,$1+$1,$4,$5*
1,1,$1+$1,$6,$7*
1,1,$1+$1,$8,$9*
0 Add four rect primitives between the rounded corners*
20,1,$1+$1,$2,$3,$4,$5,0*
20,1,$1+$1,$4,$5,$6,$7,0*
20,1,$1+$1,$6,$7,$8,$9,0*
20,1,$1+$1,$8,$9,$2,$3,0*%
G04 Aperture macros list end*
%ADD10C,0.800000*%
%ADD11C,0.100000*%
%ADD12C,0.750000*%
%ADD13RoundRect,0.150800X0.000000X-0.424264X0.424264X0.000000X0.000000X0.424264X-0.424264X0.000000X0*%
%ADD14RoundRect,0.150800X0.000000X0.424264X-0.424264X0.000000X0.000000X-0.424264X0.424264X0.000000X0*%
%ADD15RoundRect,0.050800X-1.500000X-0.500000X1.500000X-0.500000X1.500000X0.500000X-1.500000X0.500000X0*%
%ADD16RoundRect,0.150800X-0.300000X-0.300000X0.300000X-0.300000X0.300000X0.300000X-0.300000X0.300000X0*%
%ADD17RoundRect,0.150800X0.300000X0.300000X-0.300000X0.300000X-0.300000X-0.300000X0.300000X-0.300000X0*%
%ADD18RoundRect,0.150800X-0.424264X0.000000X0.000000X-0.424264X0.424264X0.000000X0.000000X0.424264X0*%
%ADD19RoundRect,0.150800X0.424264X0.000000X0.000000X0.424264X-0.424264X0.000000X0.000000X-0.424264X0*%
%ADD20RoundRect,0.050800X-1.104900X0.304800X-1.104900X-0.304800X1.104900X-0.304800X1.104900X0.304800X0*%
%ADD21RoundRect,0.150800X0.300000X-0.300000X0.300000X0.300000X-0.300000X0.300000X-0.300000X-0.300000X0*%
%ADD22RoundRect,0.150800X-0.300000X0.300000X-0.300000X-0.300000X0.300000X-0.300000X0.300000X0.300000X0*%
%ADD23R,5.080000X1.500000*%
%ADD24R,5.080000X2.420000*%
%ADD25RoundRect,0.050800X0.550000X-0.500000X0.550000X0.500000X-0.550000X0.500000X-0.550000X-0.500000X0*%
%ADD26RoundRect,0.050800X-0.500000X-0.550000X0.500000X-0.550000X0.500000X0.550000X-0.500000X0.550000X0*%
G04 APERTURE END LIST*
D10*
X156300000Y-100000000D02*
X155500000Y-99200000D01*
X165400000Y-98100000D02*
X163500000Y-100000000D01*
X163500000Y-100000000D02*
X156300000Y-100000000D01*
X131100000Y-100900000D02*
X134400000Y-100900000D01*
D11*
X166500000Y-98000000D02*
X166300000Y-97900000D01*
X130500000Y-100300000D02*
X131100000Y-100900000D01*
D10*
X155500000Y-99200000D02*
X154600000Y-99200000D01*
D12*
X134400000Y-95900000D02*
X130600000Y-95900000D01*
D10*
X167900000Y-98000000D02*
X165500000Y-98000000D01*
D13*
%TO.C,R28*%
X129436008Y-96740242D03*
D14*
X130319892Y-95856358D03*
%TD*%
D15*
%TO.C,J3*%
X126679050Y-99300000D03*
X126679050Y-96760000D03*
%TD*%
D16*
%TO.C,C19*%
X132631100Y-96878600D03*
D17*
X133881100Y-96878600D03*
%TD*%
D16*
%TO.C,C20*%
X132631100Y-98128600D03*
D17*
X133881100Y-98128600D03*
%TD*%
%TO.C,C24*%
X151575000Y-101878600D03*
D16*
X150325000Y-101878600D03*
%TD*%
D18*
%TO.C,R20*%
X129536008Y-99284458D03*
D19*
X130419892Y-100168342D03*
%TD*%
D20*
%TO.C,IC3*%
X135764900Y-98598600D03*
X135764900Y-99868600D03*
X135764900Y-101138600D03*
X135764900Y-102408600D03*
X140997300Y-102408600D03*
X140997300Y-101138600D03*
X140997300Y-99868600D03*
X140997300Y-98598600D03*
%TD*%
D16*
%TO.C,R26*%
X144131100Y-102378600D03*
D17*
X145381100Y-102378600D03*
%TD*%
D16*
%TO.C,R30*%
X153275000Y-99200000D03*
D17*
X154525000Y-99200000D03*
%TD*%
D16*
%TO.C,C22*%
X132631100Y-103128600D03*
D17*
X133881100Y-103128600D03*
%TD*%
D16*
%TO.C,C18*%
X153275000Y-97753600D03*
D17*
X154525000Y-97753600D03*
%TD*%
D16*
%TO.C,C17*%
X153275000Y-96300000D03*
D17*
X154525000Y-96300000D03*
%TD*%
D21*
%TO.C,C16*%
X142881100Y-99878600D03*
D22*
X142881100Y-98628600D03*
%TD*%
D16*
%TO.C,R22*%
X142881100Y-101128600D03*
D17*
X144131100Y-101128600D03*
%TD*%
D16*
%TO.C,C21*%
X132631100Y-101878600D03*
D17*
X133881100Y-101878600D03*
%TD*%
D21*
%TO.C,C13*%
X142881100Y-94628600D03*
D22*
X142881100Y-93378600D03*
%TD*%
D20*
%TO.C,IC5*%
X135764900Y-93348600D03*
X135764900Y-94618600D03*
X135764900Y-95888600D03*
X135764900Y-97158600D03*
X140997300Y-97158600D03*
X140997300Y-95888600D03*
X140997300Y-94618600D03*
X140997300Y-93348600D03*
%TD*%
D21*
%TO.C,C14*%
X144131100Y-94628600D03*
D22*
X144131100Y-93378600D03*
%TD*%
D23*
%TO.C,X2*%
X170530000Y-98000000D03*
D24*
X170530000Y-102380000D03*
X170530000Y-93620000D03*
%TD*%
D25*
%TO.C,C54*%
X146300000Y-93950000D03*
X146300000Y-92250000D03*
%TD*%
D26*
%TO.C,C52*%
X153250000Y-94600000D03*
X154950000Y-94600000D03*
%TD*%
D20*
%TO.C,IC4*%
X146014900Y-96598600D03*
X146014900Y-97868600D03*
X146014900Y-99138600D03*
X146014900Y-100408600D03*
X151247300Y-100408600D03*
X151247300Y-99138600D03*
X151247300Y-97868600D03*
X151247300Y-96598600D03*
%TD*%
D21*
%TO.C,C15*%
X144131100Y-99128600D03*
D22*
X144131100Y-97878600D03*
%TD*%
D16*
%TO.C,C23*%
X147825000Y-101878600D03*
D17*
X149075000Y-101878600D03*
%TD*%
D16*
%TO.C,R32*%
X142881100Y-95878600D03*
D17*
X144131100Y-95878600D03*
%TD*%
M02*
