%TF.GenerationSoftware,KiCad,Pcbnew,(6.0.7)*%
%TF.CreationDate,2022-08-24T15:08:17+02:00*%
%TF.ProjectId,diff-probe,64696666-2d70-4726-9f62-652e6b696361,rev?*%
%TF.SameCoordinates,Original*%
%TF.FileFunction,Legend,Bot*%
%TF.FilePolarity,Positive*%
%FSLAX46Y46*%
G04 Gerber Fmt 4.6, Leading zero omitted, Abs format (unit mm)*
G04 Created by KiCad (PCBNEW (6.0.7)) date 2022-08-24 15:08:17*
%MOMM*%
%LPD*%
G01*
G04 APERTURE LIST*
%ADD10C,0.150000*%
%ADD11C,0.200000*%
%ADD12C,0.120000*%
G04 APERTURE END LIST*
D10*
%TO.C,J4*%
X155052380Y-97666666D02*
X155766666Y-97666666D01*
X155909523Y-97619047D01*
X156004761Y-97523809D01*
X156052380Y-97380952D01*
X156052380Y-97285714D01*
X155385714Y-98571428D02*
X156052380Y-98571428D01*
X155004761Y-98333333D02*
X155719047Y-98095238D01*
X155719047Y-98714285D01*
D11*
%TO.C,C1*%
X155125000Y-102850000D02*
X153875000Y-102850000D01*
X155125000Y-100350000D02*
X155125000Y-102850000D01*
X153875000Y-102850000D02*
X153875000Y-100350000D01*
X153875000Y-100350000D02*
X155125000Y-100350000D01*
D12*
%TO.C,J4*%
X158740000Y-91890000D02*
X158740000Y-94240000D01*
X160440000Y-91890000D02*
X158740000Y-91890000D01*
X165910000Y-93810000D02*
X165910000Y-102190000D01*
X158740000Y-104110000D02*
X158740000Y-101760000D01*
X160440000Y-104110000D02*
X158740000Y-104110000D01*
X158740000Y-94240000D02*
X156800000Y-94240000D01*
D11*
%TO.C,R27*%
X137131100Y-100503600D02*
X139631100Y-100503600D01*
X139631100Y-100503600D02*
X139631100Y-101753600D01*
X137131100Y-101753600D02*
X137131100Y-100503600D01*
X139631100Y-101753600D02*
X137131100Y-101753600D01*
%TO.C,R37*%
X137131100Y-95253600D02*
X139631100Y-95253600D01*
X137131100Y-96503600D02*
X137131100Y-95253600D01*
X139631100Y-95253600D02*
X139631100Y-96503600D01*
X139631100Y-96503600D02*
X137131100Y-96503600D01*
%TO.C,R38*%
X147381100Y-97878600D02*
X149881100Y-97878600D01*
X147381100Y-99128600D02*
X147381100Y-97878600D01*
X149881100Y-99128600D02*
X147381100Y-99128600D01*
X149881100Y-97878600D02*
X149881100Y-99128600D01*
%TD*%
M02*
