%TF.GenerationSoftware,KiCad,Pcbnew,(6.0.7)*%
%TF.CreationDate,2022-08-24T15:08:17+02:00*%
%TF.ProjectId,diff-probe,64696666-2d70-4726-9f62-652e6b696361,rev?*%
%TF.SameCoordinates,Original*%
%TF.FileFunction,Copper,L1,Top*%
%TF.FilePolarity,Positive*%
%FSLAX46Y46*%
G04 Gerber Fmt 4.6, Leading zero omitted, Abs format (unit mm)*
G04 Created by KiCad (PCBNEW (6.0.7)) date 2022-08-24 15:08:17*
%MOMM*%
%LPD*%
G01*
G04 APERTURE LIST*
G04 Aperture macros list*
%AMRoundRect*
0 Rectangle with rounded corners*
0 $1 Rounding radius*
0 $2 $3 $4 $5 $6 $7 $8 $9 X,Y pos of 4 corners*
0 Add a 4 corners polygon primitive as box body*
4,1,4,$2,$3,$4,$5,$6,$7,$8,$9,$2,$3,0*
0 Add four circle primitives for the rounded corners*
1,1,$1+$1,$2,$3*
1,1,$1+$1,$4,$5*
1,1,$1+$1,$6,$7*
1,1,$1+$1,$8,$9*
0 Add four rect primitives between the rounded corners*
20,1,$1+$1,$2,$3,$4,$5,0*
20,1,$1+$1,$4,$5,$6,$7,0*
20,1,$1+$1,$6,$7,$8,$9,0*
20,1,$1+$1,$8,$9,$2,$3,0*%
G04 Aperture macros list end*
%TA.AperFunction,NonConductor*%
%ADD10C,0.200000*%
%TD*%
%TA.AperFunction,SMDPad,CuDef*%
%ADD11RoundRect,0.100000X0.000000X-0.424264X0.424264X0.000000X0.000000X0.424264X-0.424264X0.000000X0*%
%TD*%
%TA.AperFunction,SMDPad,CuDef*%
%ADD12RoundRect,0.100000X0.000000X0.424264X-0.424264X0.000000X0.000000X-0.424264X0.424264X0.000000X0*%
%TD*%
%TA.AperFunction,SMDPad,CuDef*%
%ADD13R,3.000000X1.000000*%
%TD*%
%TA.AperFunction,SMDPad,CuDef*%
%ADD14RoundRect,0.100000X-0.300000X-0.300000X0.300000X-0.300000X0.300000X0.300000X-0.300000X0.300000X0*%
%TD*%
%TA.AperFunction,SMDPad,CuDef*%
%ADD15RoundRect,0.100000X0.300000X0.300000X-0.300000X0.300000X-0.300000X-0.300000X0.300000X-0.300000X0*%
%TD*%
%TA.AperFunction,SMDPad,CuDef*%
%ADD16RoundRect,0.100000X-0.424264X0.000000X0.000000X-0.424264X0.424264X0.000000X0.000000X0.424264X0*%
%TD*%
%TA.AperFunction,SMDPad,CuDef*%
%ADD17RoundRect,0.100000X0.424264X0.000000X0.000000X0.424264X-0.424264X0.000000X0.000000X-0.424264X0*%
%TD*%
%TA.AperFunction,SMDPad,CuDef*%
%ADD18R,2.209800X0.609600*%
%TD*%
%TA.AperFunction,SMDPad,CuDef*%
%ADD19RoundRect,0.100000X0.300000X-0.300000X0.300000X0.300000X-0.300000X0.300000X-0.300000X-0.300000X0*%
%TD*%
%TA.AperFunction,SMDPad,CuDef*%
%ADD20RoundRect,0.100000X-0.300000X0.300000X-0.300000X-0.300000X0.300000X-0.300000X0.300000X0.300000X0*%
%TD*%
%TA.AperFunction,SMDPad,CuDef*%
%ADD21R,5.080000X1.500000*%
%TD*%
%TA.AperFunction,SMDPad,CuDef*%
%ADD22R,5.080000X2.420000*%
%TD*%
%TA.AperFunction,SMDPad,CuDef*%
%ADD23R,0.950000X0.460000*%
%TD*%
%TA.AperFunction,ComponentPad*%
%ADD24C,0.970000*%
%TD*%
%TA.AperFunction,SMDPad,CuDef*%
%ADD25R,1.100000X1.000000*%
%TD*%
%TA.AperFunction,SMDPad,CuDef*%
%ADD26R,1.000000X1.100000*%
%TD*%
%TA.AperFunction,ViaPad*%
%ADD27C,0.800000*%
%TD*%
%TA.AperFunction,Conductor*%
%ADD28C,0.250000*%
%TD*%
%TA.AperFunction,Conductor*%
%ADD29C,0.254000*%
%TD*%
%TA.AperFunction,Conductor*%
%ADD30C,0.400000*%
%TD*%
%TA.AperFunction,Conductor*%
%ADD31C,0.600000*%
%TD*%
G04 APERTURE END LIST*
D10*
X168027148Y-98674985D02*
G75*
G03*
X166627136Y-98103349I-1616548J-1958915D01*
G01*
X168100000Y-98425000D02*
X167950000Y-98475000D01*
X167750000Y-97625000D02*
X168025000Y-97525000D01*
X168050000Y-98175000D02*
X167625000Y-98300000D01*
X166650000Y-97900000D02*
G75*
G03*
X168025000Y-97350000I-345900J2858500D01*
G01*
X167400000Y-98175000D02*
X168050000Y-98175000D01*
X167625000Y-98300000D02*
X168100000Y-98425000D01*
X168300000Y-97750000D02*
X167750000Y-97625000D01*
X167450000Y-97750000D02*
X168300000Y-97750000D01*
D11*
%TO.P,R28,P$1,1*%
%TO.N,/NegPad*%
X129436008Y-96740242D03*
D12*
%TO.P,R28,P$2,2*%
%TO.N,/NEGIN*%
X130319892Y-95856358D03*
%TD*%
D13*
%TO.P,J3,P$1,1*%
%TO.N,/PosPad*%
X126679050Y-99300000D03*
%TO.P,J3,P$2,2*%
%TO.N,/NegPad*%
X126679050Y-96760000D03*
%TD*%
D14*
%TO.P,C19,P$1,1*%
%TO.N,GND*%
X132631100Y-96878600D03*
D15*
%TO.P,C19,P$2,2*%
%TO.N,V-*%
X133881100Y-96878600D03*
%TD*%
D14*
%TO.P,C20,P$1,1*%
%TO.N,GND*%
X132631100Y-98128600D03*
D15*
%TO.P,C20,P$2,2*%
%TO.N,V-*%
X133881100Y-98128600D03*
%TD*%
%TO.P,C24,P$1,1*%
%TO.N,GND*%
X151575000Y-101878600D03*
D14*
%TO.P,C24,P$2,2*%
%TO.N,V-*%
X150325000Y-101878600D03*
%TD*%
D16*
%TO.P,R20,P$1,1*%
%TO.N,/PosPad*%
X129536008Y-99284458D03*
D17*
%TO.P,R20,P$2,2*%
%TO.N,/POSIN*%
X130419892Y-100168342D03*
%TD*%
D18*
%TO.P,IC3,1,C*%
%TO.N,unconnected-(IC3-Pad1)*%
X135764900Y-98598600D03*
%TO.P,IC3,2,-IN*%
%TO.N,Net-(IC3-Pad2)*%
X135764900Y-99868600D03*
%TO.P,IC3,3,+IN*%
%TO.N,/POSIN*%
X135764900Y-101138600D03*
%TO.P,IC3,4,-VS1*%
%TO.N,V-*%
X135764900Y-102408600D03*
%TO.P,IC3,5,-VS2*%
%TO.N,unconnected-(IC3-Pad5)*%
X140997300Y-102408600D03*
%TO.P,IC3,6,OUT*%
%TO.N,/PosIn1*%
X140997300Y-101138600D03*
%TO.P,IC3,7,+VS1*%
%TO.N,V+*%
X140997300Y-99868600D03*
%TO.P,IC3,8,A*%
%TO.N,unconnected-(IC3-Pad8)*%
X140997300Y-98598600D03*
%TD*%
D14*
%TO.P,R26,P$1,1*%
%TO.N,/POSMID*%
X144131100Y-102378600D03*
D15*
%TO.P,R26,P$2,2*%
%TO.N,/offset*%
X145381100Y-102378600D03*
%TD*%
D14*
%TO.P,R30,P$1,1*%
%TO.N,/OUT*%
X153275000Y-99200000D03*
D15*
%TO.P,R30,P$2,2*%
%TO.N,/OutPad*%
X154525000Y-99200000D03*
%TD*%
D14*
%TO.P,C22,P$1,1*%
%TO.N,GND*%
X132631100Y-103128600D03*
D15*
%TO.P,C22,P$2,2*%
%TO.N,V-*%
X133881100Y-103128600D03*
%TD*%
D14*
%TO.P,C18,P$1,1*%
%TO.N,V+*%
X153275000Y-97753600D03*
D15*
%TO.P,C18,P$2,2*%
%TO.N,GND*%
X154525000Y-97753600D03*
%TD*%
D14*
%TO.P,C17,P$1,1*%
%TO.N,V+*%
X153275000Y-96300000D03*
D15*
%TO.P,C17,P$2,2*%
%TO.N,GND*%
X154525000Y-96300000D03*
%TD*%
D19*
%TO.P,C16,P$1,1*%
%TO.N,V+*%
X142881100Y-99878600D03*
D20*
%TO.P,C16,P$2,2*%
%TO.N,GND*%
X142881100Y-98628600D03*
%TD*%
D14*
%TO.P,R22,P$1,1*%
%TO.N,/PosIn1*%
X142881100Y-101128600D03*
D15*
%TO.P,R22,P$2,2*%
%TO.N,/POSMID*%
X144131100Y-101128600D03*
%TD*%
D14*
%TO.P,C21,P$1,1*%
%TO.N,GND*%
X132631100Y-101878600D03*
D15*
%TO.P,C21,P$2,2*%
%TO.N,V-*%
X133881100Y-101878600D03*
%TD*%
D19*
%TO.P,C13,P$1,1*%
%TO.N,V+*%
X142881100Y-94628600D03*
D20*
%TO.P,C13,P$2,2*%
%TO.N,GND*%
X142881100Y-93378600D03*
%TD*%
D18*
%TO.P,IC5,1,C*%
%TO.N,unconnected-(IC5-Pad1)*%
X135764900Y-93348600D03*
%TO.P,IC5,2,-IN*%
%TO.N,Net-(IC5-Pad2)*%
X135764900Y-94618600D03*
%TO.P,IC5,3,+IN*%
%TO.N,/NEGIN*%
X135764900Y-95888600D03*
%TO.P,IC5,4,-VS1*%
%TO.N,V-*%
X135764900Y-97158600D03*
%TO.P,IC5,5,-VS2*%
%TO.N,unconnected-(IC5-Pad5)*%
X140997300Y-97158600D03*
%TO.P,IC5,6,OUT*%
%TO.N,/NegIn1*%
X140997300Y-95888600D03*
%TO.P,IC5,7,+VS1*%
%TO.N,V+*%
X140997300Y-94618600D03*
%TO.P,IC5,8,A*%
%TO.N,unconnected-(IC5-Pad8)*%
X140997300Y-93348600D03*
%TD*%
D19*
%TO.P,C14,P$1,1*%
%TO.N,V+*%
X144131100Y-94628600D03*
D20*
%TO.P,C14,P$2,2*%
%TO.N,GND*%
X144131100Y-93378600D03*
%TD*%
D21*
%TO.P,X2,1,1*%
%TO.N,/OutPad*%
X170530000Y-98000000D03*
D22*
%TO.P,X2,2,2*%
%TO.N,GND*%
X170530000Y-102380000D03*
X170530000Y-93620000D03*
D23*
X167540000Y-93620000D03*
D24*
X167090000Y-102380000D03*
X167090000Y-93620000D03*
D23*
X167540000Y-102380000D03*
%TD*%
D25*
%TO.P,C54,1,1*%
%TO.N,GND*%
X146300000Y-93950000D03*
%TO.P,C54,2,2*%
%TO.N,V-*%
X146300000Y-92250000D03*
%TD*%
D26*
%TO.P,C52,1,1*%
%TO.N,V+*%
X153250000Y-94600000D03*
%TO.P,C52,2,2*%
%TO.N,GND*%
X154950000Y-94600000D03*
%TD*%
D18*
%TO.P,IC4,1,C*%
%TO.N,unconnected-(IC4-Pad1)*%
X146014900Y-96598600D03*
%TO.P,IC4,2,-IN*%
%TO.N,/NEGMID*%
X146014900Y-97868600D03*
%TO.P,IC4,3,+IN*%
%TO.N,/POSMID*%
X146014900Y-99138600D03*
%TO.P,IC4,4,-VS1*%
%TO.N,V-*%
X146014900Y-100408600D03*
%TO.P,IC4,5,-VS2*%
%TO.N,unconnected-(IC4-Pad5)*%
X151247300Y-100408600D03*
%TO.P,IC4,6,OUT*%
%TO.N,/OUT*%
X151247300Y-99138600D03*
%TO.P,IC4,7,+VS1*%
%TO.N,V+*%
X151247300Y-97868600D03*
%TO.P,IC4,8,A*%
%TO.N,unconnected-(IC4-Pad8)*%
X151247300Y-96598600D03*
%TD*%
D19*
%TO.P,C15,P$1,1*%
%TO.N,V+*%
X144131100Y-99128600D03*
D20*
%TO.P,C15,P$2,2*%
%TO.N,GND*%
X144131100Y-97878600D03*
%TD*%
D14*
%TO.P,C23,P$1,1*%
%TO.N,GND*%
X147825000Y-101878600D03*
D15*
%TO.P,C23,P$2,2*%
%TO.N,V-*%
X149075000Y-101878600D03*
%TD*%
D14*
%TO.P,R32,P$1,1*%
%TO.N,/NegIn1*%
X142881100Y-95878600D03*
D15*
%TO.P,R32,P$2,2*%
%TO.N,/NEGMID*%
X144131100Y-95878600D03*
%TD*%
D27*
%TO.N,Net-(IC3-Pad2)*%
X137006000Y-99878600D03*
%TO.N,GND*%
X140900000Y-106000000D03*
X150800000Y-89800000D03*
X133700000Y-95000000D03*
X143506000Y-93378600D03*
X164000000Y-95100000D03*
X147100000Y-94000000D03*
X132600000Y-99600000D03*
X151300000Y-93400000D03*
X133175000Y-93225000D03*
X166400000Y-96900000D03*
X147200000Y-101879000D03*
X135700000Y-91800000D03*
X132631000Y-102504000D03*
X143600000Y-97400000D03*
X132631000Y-97503600D03*
X152200000Y-101879000D03*
X138500000Y-102400000D03*
X156200000Y-106000000D03*
X146100000Y-89800000D03*
X132300000Y-91800000D03*
X133700000Y-99600000D03*
X153300000Y-100200000D03*
X164900000Y-100200000D03*
X153500000Y-104200000D03*
X132525000Y-94550000D03*
X137700000Y-91800000D03*
X155600000Y-94600000D03*
X161600000Y-89800000D03*
X164300000Y-97700000D03*
X150800000Y-106000000D03*
X133700000Y-91800000D03*
X135800000Y-89800000D03*
X166700000Y-106000000D03*
X140900000Y-89800000D03*
X161700000Y-106000000D03*
X142881000Y-98003600D03*
X148600000Y-96800000D03*
X149000000Y-93600000D03*
X166100000Y-89800000D03*
X143000000Y-102400000D03*
X166400000Y-99300000D03*
X156200000Y-89800000D03*
X155200000Y-96300000D03*
X155146000Y-97753600D03*
X162700000Y-98700000D03*
X160800000Y-101200000D03*
X132600000Y-105000000D03*
X162800000Y-101200000D03*
X146100000Y-106000000D03*
X133900000Y-105000000D03*
X158700000Y-103600000D03*
%TO.N,V+*%
X138631000Y-99868600D03*
X145400000Y-95300000D03*
X156600000Y-93300000D03*
%TO.N,V-*%
X135600000Y-104000000D03*
X137851000Y-97158600D03*
X161400000Y-97100000D03*
%TO.N,/NEGMID*%
X147256000Y-97878600D03*
%TO.N,/OUT*%
X149881000Y-99128600D03*
%TO.N,Net-(IC5-Pad2)*%
X137131000Y-94628600D03*
%TO.N,/PosIn1*%
X139631000Y-101129000D03*
%TO.N,/NegIn1*%
X139631000Y-95878600D03*
%TO.N,/offset*%
X146200000Y-102700000D03*
%TD*%
D28*
%TO.N,Net-(IC3-Pad2)*%
X135767500Y-99871100D02*
X135765000Y-99868600D01*
D29*
X135770000Y-99873600D02*
X135767500Y-99871100D01*
D28*
X135767400Y-99871100D02*
X135764900Y-99868600D01*
X135770000Y-99873600D02*
X135767500Y-99871100D01*
D29*
X135767500Y-99871100D02*
X135765000Y-99868600D01*
X137006000Y-99878600D02*
X135775000Y-99878600D01*
D28*
X135767500Y-99871100D02*
X135767400Y-99871100D01*
D29*
X135775000Y-99878600D02*
X135770000Y-99873600D01*
D28*
%TO.N,/POSIN*%
X130419950Y-100184400D02*
X130419950Y-100180400D01*
X130419850Y-100180300D02*
X130419850Y-100168300D01*
X135765000Y-101139000D02*
X135764500Y-101139000D01*
X130419950Y-100180400D02*
X130419950Y-100176400D01*
D30*
X134700000Y-100900000D02*
X131100000Y-100900000D01*
X131121950Y-100886400D02*
X130419950Y-100184400D01*
D28*
X130419950Y-100180400D02*
X130419850Y-100180300D01*
X135764500Y-101139000D02*
X135764900Y-101138600D01*
%TO.N,GND*%
X132631100Y-102034900D02*
X132631100Y-101878600D01*
X154975000Y-94600000D02*
X154950000Y-94600000D01*
D29*
X132631000Y-97816100D02*
X132631000Y-97503600D01*
D28*
X167540000Y-93620000D02*
X170530000Y-93620000D01*
D30*
X132631000Y-102191000D02*
X132631000Y-102192000D01*
D28*
X132631000Y-97191000D02*
X132631000Y-97034800D01*
X132631000Y-102035000D02*
X132631000Y-101879000D01*
X144130900Y-97878500D02*
X144131000Y-97878500D01*
X144130300Y-97877900D02*
X144130700Y-97878200D01*
X144125200Y-97872700D02*
X144128100Y-97875700D01*
D30*
X132631000Y-102035000D02*
X132631000Y-102191000D01*
D29*
X143506000Y-93378600D02*
X144131000Y-93378600D01*
D30*
X132631000Y-101879000D02*
X132631000Y-102035000D01*
D28*
X167090000Y-102380000D02*
X167540000Y-102380000D01*
D29*
X144130900Y-97878500D02*
X144130800Y-97878400D01*
X144107600Y-97855100D02*
X144084200Y-97831700D01*
D28*
X144128100Y-97875700D02*
X144129600Y-97877100D01*
D29*
X144084200Y-97831700D02*
X144037500Y-97784800D01*
D31*
X147050000Y-93950000D02*
X147100000Y-94000000D01*
D28*
X144119300Y-97866900D02*
X144125200Y-97872700D01*
X151575400Y-101879000D02*
X151575000Y-101878600D01*
D29*
X144128100Y-97875700D02*
X144125200Y-97872700D01*
X147825000Y-101879000D02*
X147824600Y-101879000D01*
D28*
X167540000Y-102380000D02*
X170530000Y-102380000D01*
X132631000Y-97191100D02*
X132631000Y-97191000D01*
X132631000Y-97972400D02*
X132631000Y-98128600D01*
X144130800Y-97878400D02*
X144130900Y-97878500D01*
X144131000Y-93378600D02*
X144131100Y-93378600D01*
D29*
X151575400Y-101879000D02*
X151575000Y-101879000D01*
D28*
X132631000Y-97816200D02*
X132631000Y-97972400D01*
D29*
X143756000Y-97503600D02*
X143756000Y-97378600D01*
D28*
X142881000Y-98472400D02*
X142881100Y-98472500D01*
D31*
X143600000Y-97400000D02*
X143652000Y-97400000D01*
D28*
X132631000Y-102973000D02*
X132631000Y-103129000D01*
D31*
X154975000Y-94600000D02*
X155600000Y-94600000D01*
D28*
X142881100Y-98472500D02*
X142881100Y-98628600D01*
D29*
X144130700Y-97878200D02*
X144130300Y-97877900D01*
X142881000Y-98472400D02*
X142881000Y-98628600D01*
D28*
X143944000Y-97691100D02*
X144037500Y-97784800D01*
D29*
X144131000Y-97878600D02*
X144131000Y-97878500D01*
D31*
X146300000Y-93950000D02*
X147050000Y-93950000D01*
D29*
X132631000Y-102504000D02*
X132631000Y-102816000D01*
D28*
X132631000Y-97034800D02*
X132631000Y-96878600D01*
D29*
X144119300Y-97866900D02*
X144107600Y-97855100D01*
D28*
X132631000Y-97816100D02*
X132631000Y-97816200D01*
X144131000Y-97878500D02*
X144131000Y-97878600D01*
D30*
X154525000Y-97753600D02*
X155146000Y-97753600D01*
D31*
X147100000Y-94000000D02*
X146150000Y-94000000D01*
D29*
X144130800Y-97878400D02*
X144130700Y-97878200D01*
X132631000Y-98128600D02*
X132631000Y-97972400D01*
D28*
X142881000Y-98316100D02*
X142881000Y-98316200D01*
D29*
X142881000Y-98316100D02*
X142881000Y-98316200D01*
X147824600Y-101879000D02*
X147200000Y-101879000D01*
D28*
X132631000Y-102035000D02*
X132631100Y-102034900D01*
X144037500Y-97784800D02*
X144084200Y-97831700D01*
D29*
X132631000Y-97034800D02*
X132631000Y-96878600D01*
X144130300Y-97877900D02*
X144129600Y-97877100D01*
X132631000Y-102973000D02*
X132631000Y-103129000D01*
X132631000Y-97191100D02*
X132631000Y-97191000D01*
D28*
X132631100Y-97972500D02*
X132631100Y-98128600D01*
X144131000Y-97878600D02*
X144131100Y-97878600D01*
D29*
X144129600Y-97877100D02*
X144128100Y-97875700D01*
D28*
X132631000Y-97034800D02*
X132631100Y-97034700D01*
D29*
X142881000Y-98003600D02*
X142881000Y-98316100D01*
D28*
X144107600Y-97855100D02*
X144119300Y-97866900D01*
X132631100Y-97034700D02*
X132631100Y-96878600D01*
X132631000Y-102817000D02*
X132631000Y-102973000D01*
X132631000Y-102973000D02*
X132631100Y-102973100D01*
X132631100Y-102973100D02*
X132631100Y-103128600D01*
D31*
X143506000Y-93378600D02*
X142881100Y-93378600D01*
D28*
X144130700Y-97878200D02*
X144130800Y-97878400D01*
X142881000Y-98316200D02*
X142881000Y-98472400D01*
X147824600Y-101879000D02*
X147825000Y-101878600D01*
D29*
X132631000Y-97816200D02*
X132631000Y-97816100D01*
X132631000Y-102817000D02*
X132631000Y-102973000D01*
X132631000Y-102816000D02*
X132631000Y-102817000D01*
X144131000Y-97878500D02*
X144130900Y-97878500D01*
D28*
X132631000Y-97972400D02*
X132631100Y-97972500D01*
X144129600Y-97877100D02*
X144130300Y-97877900D01*
X142881000Y-98472400D02*
X142881000Y-98628600D01*
D29*
X144037500Y-97784800D02*
X143944000Y-97691100D01*
X143944000Y-97691100D02*
X143756000Y-97503600D01*
D28*
X132631000Y-102192000D02*
X132631000Y-102191000D01*
X132631000Y-102816000D02*
X132631000Y-102817000D01*
X167090000Y-93620000D02*
X167540000Y-93620000D01*
D29*
X132631000Y-97972400D02*
X132631000Y-97816200D01*
X144125200Y-97872700D02*
X144119300Y-97866900D01*
D30*
X154525000Y-96300000D02*
X155200000Y-96300000D01*
D28*
X144084200Y-97831700D02*
X144107600Y-97855100D01*
D29*
X132631000Y-97191000D02*
X132631000Y-97034800D01*
D30*
X132631000Y-102192000D02*
X132631000Y-102504000D01*
D28*
X132631000Y-102191000D02*
X132631000Y-102035000D01*
D29*
X142881000Y-98316200D02*
X142881000Y-98472400D01*
X132631000Y-97503600D02*
X132631000Y-97191100D01*
D31*
X143652000Y-97400000D02*
X144131000Y-97878600D01*
D29*
X152200000Y-101879000D02*
X151575400Y-101879000D01*
D31*
%TO.N,V+*%
X153275000Y-96300000D02*
X153275000Y-94625000D01*
D28*
X144131100Y-99213500D02*
X144131100Y-99128600D01*
D31*
X151300000Y-95300000D02*
X152000000Y-94600000D01*
X153074000Y-97811100D02*
X153131000Y-97753600D01*
X153275000Y-94625000D02*
X153250000Y-94600000D01*
X140997000Y-94602700D02*
X142855000Y-94602700D01*
X144729000Y-94628600D02*
X145400000Y-95300000D01*
X142881000Y-94628600D02*
X142881100Y-94628600D01*
X140997000Y-94614700D02*
X140997000Y-94610900D01*
X140997000Y-94618600D02*
X140997000Y-94614700D01*
X142855000Y-94602700D02*
X142881000Y-94628600D01*
X153300000Y-97753600D02*
X153300000Y-96325000D01*
X153250000Y-93650000D02*
X153600000Y-93300000D01*
X143721000Y-99878600D02*
X144131000Y-99468900D01*
X140997000Y-94610600D02*
X140997000Y-94602700D01*
X144131000Y-99298600D02*
X144131000Y-99213600D01*
D28*
X140997300Y-94615000D02*
X140997300Y-94618600D01*
X144131000Y-99213600D02*
X144131100Y-99213500D01*
X153074000Y-97811100D02*
X153218000Y-97811100D01*
D31*
X153300000Y-96325000D02*
X153275000Y-96300000D01*
D28*
X140997000Y-94610600D02*
X140997000Y-94610900D01*
D31*
X153250000Y-94600000D02*
X153250000Y-93650000D01*
X140997300Y-99868600D02*
X138631000Y-99868600D01*
X144131100Y-94628600D02*
X144729000Y-94628600D01*
X144131000Y-99468900D02*
X144131000Y-99298700D01*
X144131000Y-99213600D02*
X144131000Y-99128600D01*
X144131000Y-99298700D02*
X144131000Y-99298600D01*
D28*
X140997000Y-94614700D02*
X140997000Y-94618600D01*
D31*
X145400000Y-95300000D02*
X151300000Y-95300000D01*
D28*
X144131000Y-99298600D02*
X144131000Y-99213600D01*
D31*
X153600000Y-93300000D02*
X156600000Y-93300000D01*
X142881100Y-94628600D02*
X144131100Y-94628600D01*
X153016000Y-97868600D02*
X153074000Y-97811100D01*
X140997000Y-94610900D02*
X140997000Y-94610600D01*
X142881100Y-99878600D02*
X142881000Y-99878600D01*
D28*
X153218000Y-97811100D02*
X153275000Y-97753600D01*
X144131000Y-99213600D02*
X144131000Y-99128600D01*
X153275000Y-97753600D02*
X153300000Y-97753600D01*
D31*
X151247300Y-97868600D02*
X153016000Y-97868600D01*
X142871000Y-99868600D02*
X140997300Y-99868600D01*
D28*
X144131000Y-99298700D02*
X144131000Y-99298600D01*
D31*
X152000000Y-94600000D02*
X153250000Y-94600000D01*
X142881000Y-99878600D02*
X142871000Y-99868600D01*
X142881100Y-99878600D02*
X143721000Y-99878600D01*
D28*
X140997000Y-94614700D02*
X140997300Y-94615000D01*
X140997000Y-94610900D02*
X140997000Y-94614700D01*
D31*
%TO.N,V-*%
X149075000Y-101879000D02*
X149075000Y-101878600D01*
X135764500Y-102409000D02*
X135764000Y-102409000D01*
D28*
X133881100Y-103039100D02*
X133881100Y-103128600D01*
D31*
X158800000Y-92100000D02*
X161400000Y-94700000D01*
D30*
X133881000Y-102409000D02*
X133881000Y-101879000D01*
D28*
X133881000Y-97886100D02*
X133881100Y-97886200D01*
X134161000Y-97158600D02*
X133881100Y-96878700D01*
D31*
X135764000Y-102409000D02*
X134209000Y-102409000D01*
D28*
X146014900Y-100408600D02*
X146015000Y-100408700D01*
X133881100Y-97886200D02*
X133881100Y-98128600D01*
D30*
X149075000Y-101878600D02*
X149075000Y-101879000D01*
D28*
X146015000Y-100408700D02*
X146015000Y-100409000D01*
D31*
X135600000Y-104000000D02*
X134752500Y-104000000D01*
X149075000Y-101879000D02*
X150325000Y-101879000D01*
X137851000Y-97158600D02*
X138381000Y-96628600D01*
D30*
X134209000Y-102409000D02*
X134045000Y-102409000D01*
X148709000Y-100409000D02*
X149072000Y-100772000D01*
D28*
X133881000Y-101878700D02*
X133881000Y-101879000D01*
X135764500Y-102409000D02*
X135764900Y-102408600D01*
D31*
X139500000Y-92100000D02*
X146300000Y-92100000D01*
D28*
X133881100Y-96878700D02*
X133881000Y-96878600D01*
X134045000Y-102409000D02*
X133881000Y-102573000D01*
D31*
X134752500Y-104000000D02*
X133881100Y-103128600D01*
X149100000Y-103200000D02*
X149100000Y-101903600D01*
D30*
X133881000Y-97886100D02*
X133881000Y-98128600D01*
D28*
X135764500Y-102409000D02*
X135765000Y-102409000D01*
D30*
X134045000Y-102409000D02*
X133881000Y-102409000D01*
X133881000Y-97643700D02*
X133881000Y-97886100D01*
X133881000Y-97643600D02*
X133881000Y-97643700D01*
D31*
X133881100Y-103128600D02*
X133881100Y-101879100D01*
D28*
X150325000Y-101878600D02*
X150325000Y-101879000D01*
D30*
X134161000Y-97158600D02*
X133881000Y-97158600D01*
D28*
X133881000Y-97643700D02*
X133881000Y-97886100D01*
D31*
X146054000Y-100409000D02*
X146015000Y-100409000D01*
D28*
X135764000Y-102409000D02*
X135764500Y-102409000D01*
X133881000Y-103039000D02*
X133881000Y-103129000D01*
D31*
X148300000Y-104000000D02*
X149100000Y-103200000D01*
X135599000Y-104000000D02*
X148300000Y-104000000D01*
D28*
X133881000Y-97643600D02*
X133881000Y-97643700D01*
D31*
X149075000Y-100792000D02*
X148691000Y-100409000D01*
D30*
X135764900Y-97158600D02*
X134161000Y-97158600D01*
D31*
X146300000Y-92100000D02*
X158800000Y-92100000D01*
D28*
X133881100Y-101878600D02*
X133881000Y-101878700D01*
D30*
X148691000Y-100409000D02*
X148709000Y-100409000D01*
D31*
X138381000Y-96628600D02*
X138381000Y-93628600D01*
D29*
X138381000Y-96628600D02*
X138381000Y-93628600D01*
D28*
X133881000Y-102573000D02*
X133881000Y-102949000D01*
D30*
X146054000Y-100409000D02*
X148691000Y-100409000D01*
D31*
X161400000Y-94700000D02*
X161400000Y-97100000D01*
D28*
X133881000Y-102949000D02*
X133881000Y-103039000D01*
D30*
X133881000Y-97158600D02*
X133881000Y-97643600D01*
D31*
X149100000Y-101903600D02*
X149075000Y-101878600D01*
X148709000Y-100409000D02*
X148691000Y-100409000D01*
X133881100Y-101879100D02*
X133881000Y-101879000D01*
D30*
X135765000Y-97158600D02*
X135764900Y-97158600D01*
D31*
X138381000Y-93218900D02*
X139500000Y-92100000D01*
X138381000Y-93628600D02*
X138381000Y-93218900D01*
X135765000Y-102409000D02*
X135764500Y-102409000D01*
D30*
X149075000Y-100792000D02*
X149075000Y-101878600D01*
D31*
X149075000Y-101878600D02*
X149075000Y-100792000D01*
D28*
X133881000Y-97886100D02*
X133881000Y-98128600D01*
D31*
X135765000Y-97158600D02*
X137851000Y-97158600D01*
D28*
X133881100Y-96878700D02*
X133881100Y-96878600D01*
D31*
X148691000Y-100409000D02*
X146054000Y-100409000D01*
D28*
X133881000Y-103039000D02*
X133881100Y-103039100D01*
X146300000Y-92250000D02*
X146300000Y-92100000D01*
%TO.N,/NEGMID*%
X144131000Y-96253600D02*
X144131000Y-96253500D01*
D29*
X146322500Y-97868600D02*
X146630000Y-97868600D01*
X147246000Y-97868600D02*
X147256000Y-97878600D01*
X146630000Y-97868600D02*
X147246000Y-97868600D01*
X144131000Y-96066000D02*
X144131000Y-96253500D01*
X144131000Y-96253500D02*
X144131000Y-96253600D01*
X145900000Y-97753600D02*
X146015000Y-97868600D01*
D28*
X144131000Y-96066000D02*
X144131100Y-96065900D01*
X146322500Y-97868600D02*
X146015000Y-97868600D01*
X144131000Y-96253500D02*
X144131000Y-96066000D01*
D29*
X144131000Y-95878600D02*
X144131000Y-96066000D01*
D28*
X144131100Y-96065900D02*
X144131100Y-95878600D01*
X146630000Y-97868600D02*
X146322500Y-97868600D01*
D29*
X145256000Y-97753600D02*
X145900000Y-97753600D01*
D28*
X146015000Y-97868600D02*
X146014900Y-97868600D01*
D29*
X146015000Y-97868600D02*
X146322500Y-97868600D01*
X144131000Y-96628600D02*
X145256000Y-97753600D01*
D28*
X144131000Y-96066000D02*
X144131000Y-95878600D01*
D29*
X144131000Y-96253600D02*
X144131000Y-96628600D01*
D28*
%TO.N,/POSMID*%
X144131000Y-102129000D02*
X144131000Y-102379000D01*
X144131000Y-101129000D02*
X144131100Y-101128900D01*
D29*
X144131000Y-102129000D02*
X144131000Y-101879000D01*
X146005000Y-99128600D02*
X146015000Y-99138500D01*
D28*
X144131000Y-101879000D02*
X144131000Y-102129000D01*
X146015000Y-99138500D02*
X146015000Y-99138600D01*
X144131100Y-101128900D02*
X144131100Y-101128600D01*
D29*
X144131000Y-101879000D02*
X144131000Y-101129000D01*
X144131000Y-102379000D02*
X144131000Y-102129000D01*
D28*
X144131000Y-102129000D02*
X144131100Y-102129100D01*
X146015000Y-99138500D02*
X146014900Y-99138600D01*
D29*
X146015000Y-99138500D02*
X146015000Y-99138600D01*
X144131000Y-101129000D02*
X144131000Y-100379000D01*
D28*
X144131100Y-102129100D02*
X144131100Y-102378600D01*
D29*
X144131000Y-100379000D02*
X145381000Y-99128600D01*
X145381000Y-99128600D02*
X146005000Y-99128600D01*
D30*
%TO.N,/OUT*%
X152781000Y-99138600D02*
X153121000Y-99138600D01*
X151247300Y-99138600D02*
X149891000Y-99138600D01*
X153214000Y-99138600D02*
X153275000Y-99200000D01*
X153121000Y-99138600D02*
X152781000Y-99138600D01*
X153131000Y-99128600D02*
X153121000Y-99138600D01*
X153121000Y-99138600D02*
X153214000Y-99138600D01*
X152781000Y-99138600D02*
X151247300Y-99138600D01*
X149891000Y-99138600D02*
X149881000Y-99128600D01*
D29*
%TO.N,Net-(IC5-Pad2)*%
X137121000Y-94618600D02*
X137131000Y-94628600D01*
X135765000Y-94618600D02*
X137121000Y-94618600D01*
D28*
X135765000Y-94618600D02*
X135764900Y-94618600D01*
%TO.N,/NEGIN*%
X130348950Y-95885700D02*
X130319950Y-95856400D01*
X130627950Y-95856400D02*
X130657950Y-95885700D01*
D30*
X130300000Y-95900000D02*
X136555900Y-95900000D01*
D28*
X130319850Y-95856400D02*
X130319950Y-95856400D01*
X130657950Y-95885700D02*
X130348950Y-95885700D01*
X135764900Y-95888600D02*
X135765000Y-95888600D01*
D30*
%TO.N,/OutPad*%
X165500000Y-98000000D02*
X163500000Y-100000000D01*
X170530000Y-98000000D02*
X165500000Y-98000000D01*
X156300000Y-100000000D02*
X155500000Y-99200000D01*
X155500000Y-99200000D02*
X154525000Y-99200000D01*
X163500000Y-100000000D02*
X156300000Y-100000000D01*
D28*
%TO.N,/PosPad*%
X129536050Y-99284500D02*
X129535950Y-99284500D01*
D30*
X126679050Y-99300000D02*
X129520950Y-99300000D01*
D28*
X129520950Y-99300000D02*
X129535950Y-99284500D01*
%TO.N,/NegPad*%
X129425950Y-96750100D02*
X129435950Y-96740200D01*
X129425950Y-96750100D02*
X129426150Y-96750100D01*
D30*
X126679050Y-96760000D02*
X129415950Y-96760000D01*
D28*
X129426150Y-96750100D02*
X129436050Y-96740200D01*
X129415950Y-96760000D02*
X129425950Y-96750100D01*
%TO.N,/PosIn1*%
X140993000Y-101134000D02*
X140995000Y-101136500D01*
X140995000Y-101136500D02*
X140997000Y-101139000D01*
X140995200Y-101136500D02*
X140997300Y-101138600D01*
X140992000Y-101134000D02*
X140993000Y-101134000D01*
D29*
X140992000Y-101134000D02*
X140997000Y-101139000D01*
X140997000Y-101139000D02*
X142871000Y-101139000D01*
D28*
X140995000Y-101136500D02*
X140995200Y-101136500D01*
D29*
X140987000Y-101129000D02*
X140992000Y-101134000D01*
X139631000Y-101129000D02*
X140987000Y-101129000D01*
D28*
X142881000Y-101128700D02*
X142881000Y-101129000D01*
X142881100Y-101128600D02*
X142881000Y-101128700D01*
D29*
X142871000Y-101139000D02*
X142881000Y-101129000D01*
D28*
%TO.N,/NegIn1*%
X142878500Y-95881100D02*
X142878600Y-95881100D01*
X142878600Y-95881100D02*
X142881100Y-95878600D01*
D29*
X139641000Y-95888600D02*
X139631000Y-95878600D01*
X142824000Y-95883600D02*
X142881000Y-95878600D01*
D28*
X142876000Y-95883600D02*
X142878500Y-95881100D01*
D29*
X142766000Y-95888600D02*
X142824000Y-95883600D01*
D28*
X142824000Y-95883600D02*
X142876000Y-95883600D01*
D29*
X140997300Y-95888600D02*
X142766000Y-95888600D01*
D28*
X142878500Y-95881100D02*
X142881000Y-95878600D01*
D29*
X140997300Y-95888600D02*
X139641000Y-95888600D01*
D30*
%TO.N,/offset*%
X145381000Y-102379000D02*
X145381500Y-102379000D01*
D28*
X145381500Y-102379000D02*
X145381100Y-102378600D01*
X145381500Y-102379000D02*
X145381000Y-102379000D01*
D30*
X145879000Y-102379000D02*
X146200000Y-102700000D01*
X145381500Y-102379000D02*
X145382000Y-102379000D01*
X145382000Y-102379000D02*
X145879000Y-102379000D01*
D28*
X145382000Y-102379000D02*
X145381500Y-102379000D01*
%TD*%
%TA.AperFunction,NonConductor*%
G36*
X170132638Y-87951746D02*
G01*
X170144265Y-87954420D01*
X170144266Y-87954420D01*
X170149641Y-87955656D01*
X170155022Y-87954439D01*
X170160539Y-87954448D01*
X170160539Y-87954454D01*
X170172486Y-87954062D01*
X170234890Y-87963946D01*
X170249466Y-87968682D01*
X170277451Y-87982941D01*
X170319126Y-88004175D01*
X170331529Y-88013186D01*
X170386814Y-88068471D01*
X170395824Y-88080873D01*
X170431299Y-88150496D01*
X170431317Y-88150532D01*
X170436055Y-88165112D01*
X170445877Y-88227127D01*
X170445476Y-88238747D01*
X170445590Y-88238747D01*
X170445581Y-88244263D01*
X170444344Y-88249641D01*
X170448292Y-88267087D01*
X170449500Y-88277902D01*
X170449500Y-90721657D01*
X170448254Y-90732637D01*
X170444344Y-90749641D01*
X170446583Y-90759537D01*
X170446737Y-90760217D01*
X170447709Y-90766228D01*
X170457353Y-90864140D01*
X170459636Y-90887322D01*
X170499691Y-91019367D01*
X170500823Y-91021486D01*
X170500824Y-91021487D01*
X170548279Y-91110267D01*
X170564738Y-91141060D01*
X170652275Y-91247725D01*
X170758940Y-91335262D01*
X170761059Y-91336395D01*
X170761061Y-91336396D01*
X170878513Y-91399176D01*
X170880633Y-91400309D01*
X171012678Y-91440364D01*
X171015066Y-91440599D01*
X171015070Y-91440600D01*
X171076170Y-91446617D01*
X171132346Y-91452150D01*
X171138595Y-91453177D01*
X171149282Y-91455655D01*
X171150000Y-91455656D01*
X171167224Y-91451727D01*
X171178122Y-91450500D01*
X173321657Y-91450500D01*
X173332638Y-91451746D01*
X173344265Y-91454420D01*
X173344266Y-91454420D01*
X173349641Y-91455656D01*
X173355022Y-91454439D01*
X173360539Y-91454448D01*
X173360539Y-91454454D01*
X173372486Y-91454062D01*
X173434890Y-91463946D01*
X173449466Y-91468682D01*
X173519126Y-91504175D01*
X173531529Y-91513186D01*
X173586814Y-91568471D01*
X173595824Y-91580873D01*
X173624266Y-91636693D01*
X173631317Y-91650532D01*
X173636054Y-91665110D01*
X173638364Y-91679690D01*
X173645877Y-91727127D01*
X173645476Y-91738747D01*
X173645590Y-91738747D01*
X173645581Y-91744263D01*
X173644344Y-91749641D01*
X173648292Y-91767087D01*
X173649500Y-91777902D01*
X173649500Y-104221634D01*
X173648253Y-104232617D01*
X173644344Y-104249600D01*
X173645561Y-104254983D01*
X173645550Y-104260501D01*
X173645545Y-104260501D01*
X173645934Y-104272451D01*
X173636040Y-104334853D01*
X173631302Y-104349429D01*
X173595797Y-104419097D01*
X173586788Y-104431496D01*
X173531496Y-104486788D01*
X173519097Y-104495797D01*
X173449429Y-104531302D01*
X173434853Y-104536040D01*
X173372835Y-104545873D01*
X173361216Y-104545474D01*
X173361216Y-104545588D01*
X173355696Y-104545580D01*
X173350318Y-104544344D01*
X173344936Y-104545563D01*
X173344935Y-104545563D01*
X173339629Y-104546765D01*
X173333153Y-104548232D01*
X173332901Y-104548289D01*
X173322077Y-104549500D01*
X171178587Y-104549500D01*
X171167513Y-104548232D01*
X171153467Y-104544973D01*
X171153465Y-104544973D01*
X171150759Y-104544345D01*
X171150041Y-104544344D01*
X171139415Y-104546766D01*
X171133328Y-104547755D01*
X171100439Y-104550988D01*
X171015097Y-104559378D01*
X171015093Y-104559379D01*
X171012701Y-104559614D01*
X171010403Y-104560311D01*
X171010397Y-104560312D01*
X170882941Y-104598958D01*
X170882937Y-104598960D01*
X170880637Y-104599657D01*
X170758925Y-104664701D01*
X170652246Y-104752246D01*
X170564701Y-104858925D01*
X170499657Y-104980637D01*
X170498960Y-104982937D01*
X170498958Y-104982941D01*
X170460312Y-105110397D01*
X170460311Y-105110403D01*
X170459614Y-105112701D01*
X170459379Y-105115093D01*
X170459378Y-105115097D01*
X170447848Y-105232379D01*
X170446819Y-105238642D01*
X170444345Y-105249323D01*
X170444344Y-105250041D01*
X170444961Y-105252742D01*
X170448271Y-105267240D01*
X170449500Y-105278147D01*
X170449500Y-107721634D01*
X170448253Y-107732617D01*
X170444344Y-107749600D01*
X170445561Y-107754983D01*
X170445550Y-107760501D01*
X170445545Y-107760501D01*
X170445934Y-107772451D01*
X170436040Y-107834853D01*
X170431302Y-107849429D01*
X170395797Y-107919097D01*
X170386788Y-107931496D01*
X170331496Y-107986788D01*
X170319097Y-107995797D01*
X170249429Y-108031302D01*
X170234853Y-108036040D01*
X170172835Y-108045873D01*
X170161216Y-108045474D01*
X170161216Y-108045588D01*
X170155696Y-108045580D01*
X170150318Y-108044344D01*
X170144936Y-108045563D01*
X170144935Y-108045563D01*
X170143280Y-108045938D01*
X170133056Y-108048254D01*
X170132901Y-108048289D01*
X170122077Y-108049500D01*
X133878343Y-108049500D01*
X133867362Y-108048254D01*
X133855735Y-108045580D01*
X133855734Y-108045580D01*
X133850359Y-108044344D01*
X133844978Y-108045561D01*
X133839461Y-108045552D01*
X133839461Y-108045546D01*
X133827514Y-108045938D01*
X133765110Y-108036054D01*
X133750534Y-108031318D01*
X133680873Y-107995824D01*
X133668471Y-107986814D01*
X133613186Y-107931529D01*
X133604175Y-107919126D01*
X133595344Y-107901794D01*
X133568682Y-107849466D01*
X133563945Y-107834889D01*
X133554153Y-107773065D01*
X133554751Y-107756184D01*
X133554711Y-107756179D01*
X133554770Y-107755670D01*
X133554817Y-107754332D01*
X133555029Y-107753419D01*
X133555029Y-107753418D01*
X133555655Y-107750718D01*
X133555656Y-107750000D01*
X133551727Y-107732776D01*
X133550500Y-107721878D01*
X133550500Y-107578560D01*
X133551766Y-107567495D01*
X133555029Y-107553420D01*
X133555029Y-107553417D01*
X133555655Y-107550718D01*
X133555656Y-107550000D01*
X133555042Y-107547307D01*
X133555041Y-107547301D01*
X133553234Y-107539382D01*
X133552242Y-107533285D01*
X133540600Y-107415070D01*
X133540599Y-107415066D01*
X133540364Y-107412678D01*
X133500309Y-107280633D01*
X133491389Y-107263945D01*
X133436396Y-107161061D01*
X133436395Y-107161059D01*
X133435262Y-107158940D01*
X133347725Y-107052275D01*
X133241060Y-106964738D01*
X133238941Y-106963605D01*
X133238939Y-106963604D01*
X133121487Y-106900824D01*
X133121486Y-106900823D01*
X133119367Y-106899691D01*
X132987322Y-106859636D01*
X132984934Y-106859401D01*
X132984930Y-106859400D01*
X132923830Y-106853383D01*
X132867654Y-106847850D01*
X132861405Y-106846823D01*
X132850718Y-106844345D01*
X132850000Y-106844344D01*
X132847304Y-106844959D01*
X132832776Y-106848273D01*
X132821878Y-106849500D01*
X131785906Y-106849500D01*
X131751258Y-106835148D01*
X131736906Y-106800500D01*
X131736906Y-101873313D01*
X131748208Y-101842010D01*
X131820078Y-101755458D01*
X131823949Y-101751311D01*
X132003750Y-101579744D01*
X132008074Y-101576071D01*
X132199332Y-101431841D01*
X132206514Y-101426425D01*
X132211233Y-101423278D01*
X132409170Y-101307229D01*
X132433953Y-101300500D01*
X133315912Y-101300500D01*
X133350560Y-101314852D01*
X133364912Y-101349500D01*
X133350590Y-101384118D01*
X133328859Y-101405887D01*
X133283594Y-101508273D01*
X133280600Y-101533954D01*
X133280600Y-102223246D01*
X133283718Y-102249446D01*
X133285208Y-102252801D01*
X133285209Y-102252804D01*
X133294743Y-102274267D01*
X133329161Y-102351753D01*
X133332361Y-102354947D01*
X133332362Y-102354949D01*
X133366218Y-102388745D01*
X133380600Y-102423424D01*
X133380600Y-102583785D01*
X133366278Y-102618403D01*
X133328859Y-102655887D01*
X133327029Y-102660025D01*
X133327029Y-102660026D01*
X133322736Y-102669736D01*
X133283594Y-102758273D01*
X133280600Y-102783954D01*
X133280600Y-103473246D01*
X133280770Y-103474671D01*
X133280770Y-103474678D01*
X133281431Y-103480230D01*
X133283718Y-103499446D01*
X133285208Y-103502801D01*
X133285209Y-103502804D01*
X133327324Y-103597618D01*
X133329161Y-103601753D01*
X133332362Y-103604948D01*
X133332363Y-103604950D01*
X133368663Y-103641187D01*
X133408387Y-103680841D01*
X133510773Y-103726106D01*
X133514429Y-103726532D01*
X133514432Y-103726533D01*
X133523824Y-103727628D01*
X133536454Y-103729100D01*
X133753490Y-103729100D01*
X133788138Y-103743452D01*
X134355050Y-104310364D01*
X134361843Y-104318865D01*
X134367430Y-104327720D01*
X134392011Y-104349429D01*
X134408881Y-104364328D01*
X134411093Y-104366407D01*
X134424007Y-104379321D01*
X134425403Y-104380367D01*
X134434661Y-104387306D01*
X134437709Y-104389788D01*
X134474888Y-104422623D01*
X134478045Y-104424105D01*
X134478046Y-104424106D01*
X134488804Y-104429157D01*
X134497364Y-104434300D01*
X134506885Y-104441436D01*
X134506888Y-104441438D01*
X134509676Y-104443527D01*
X134512941Y-104444751D01*
X134512943Y-104444752D01*
X134556131Y-104460942D01*
X134559756Y-104462469D01*
X134576349Y-104470260D01*
X134604663Y-104483553D01*
X134617666Y-104485577D01*
X134619859Y-104485919D01*
X134629519Y-104488454D01*
X134640648Y-104492626D01*
X134640652Y-104492627D01*
X134643920Y-104493852D01*
X134647400Y-104494111D01*
X134647402Y-104494111D01*
X134693397Y-104497529D01*
X134697302Y-104497977D01*
X134713509Y-104500500D01*
X134731571Y-104500500D01*
X134735202Y-104500635D01*
X134783405Y-104504217D01*
X134783406Y-104504217D01*
X134786892Y-104504476D01*
X134800458Y-104501580D01*
X134810688Y-104500500D01*
X135249201Y-104500500D01*
X135279030Y-104510626D01*
X135294609Y-104522580D01*
X135294613Y-104522582D01*
X135297159Y-104524536D01*
X135300126Y-104525765D01*
X135350290Y-104546544D01*
X135376809Y-104573063D01*
X135376809Y-104610565D01*
X135346762Y-104638389D01*
X135285982Y-104658255D01*
X135074414Y-104768390D01*
X135072806Y-104769598D01*
X135072805Y-104769598D01*
X134987427Y-104833702D01*
X134883675Y-104911602D01*
X134842739Y-104954439D01*
X134720275Y-105082589D01*
X134720272Y-105082593D01*
X134718887Y-105084042D01*
X134717759Y-105085695D01*
X134717757Y-105085698D01*
X134595984Y-105264211D01*
X134584475Y-105281082D01*
X134583630Y-105282903D01*
X134583628Y-105282906D01*
X134484899Y-105495600D01*
X134484897Y-105495605D01*
X134484051Y-105497428D01*
X134420309Y-105727272D01*
X134394963Y-105964440D01*
X134396169Y-105985347D01*
X134408694Y-106202562D01*
X134409137Y-106204526D01*
X134409137Y-106204529D01*
X134432360Y-106307577D01*
X134461131Y-106435245D01*
X134550867Y-106656239D01*
X134551917Y-106657952D01*
X134668288Y-106847851D01*
X134675493Y-106859609D01*
X134729273Y-106921695D01*
X134830348Y-107038380D01*
X134830352Y-107038383D01*
X134831660Y-107039894D01*
X134848810Y-107054132D01*
X134975052Y-107158940D01*
X135015176Y-107192252D01*
X135016906Y-107193263D01*
X135016909Y-107193265D01*
X135114327Y-107250191D01*
X135221112Y-107312591D01*
X135443937Y-107397680D01*
X135445910Y-107398081D01*
X135445912Y-107398082D01*
X135675694Y-107444832D01*
X135675697Y-107444832D01*
X135677666Y-107445233D01*
X135679672Y-107445307D01*
X135679676Y-107445307D01*
X135822181Y-107450532D01*
X135916025Y-107453973D01*
X136152609Y-107423665D01*
X136381068Y-107355125D01*
X136466676Y-107313186D01*
X136593458Y-107251076D01*
X136593460Y-107251075D01*
X136595264Y-107250191D01*
X136616343Y-107235156D01*
X136787809Y-107112850D01*
X136789445Y-107111683D01*
X136790866Y-107110267D01*
X136956973Y-106944740D01*
X136956978Y-106944734D01*
X136958397Y-106943320D01*
X136959569Y-106941688D01*
X136959574Y-106941683D01*
X137096406Y-106751260D01*
X137096408Y-106751257D01*
X137097582Y-106749623D01*
X137203263Y-106535795D01*
X137272600Y-106307577D01*
X137303733Y-106071099D01*
X137305471Y-106000000D01*
X137285927Y-105762284D01*
X137257217Y-105647983D01*
X137228311Y-105532902D01*
X137228310Y-105532900D01*
X137227821Y-105530952D01*
X137132712Y-105312216D01*
X137110672Y-105278147D01*
X137004247Y-105113638D01*
X137004243Y-105113633D01*
X137003155Y-105111951D01*
X136842629Y-104935536D01*
X136841056Y-104934294D01*
X136841052Y-104934290D01*
X136657024Y-104788954D01*
X136655445Y-104787707D01*
X136648135Y-104783672D01*
X136448391Y-104673407D01*
X136448385Y-104673405D01*
X136446631Y-104672436D01*
X136229904Y-104595689D01*
X136202034Y-104570595D01*
X136200072Y-104533143D01*
X136225166Y-104505273D01*
X136246261Y-104500500D01*
X148238420Y-104500500D01*
X148249233Y-104501708D01*
X148259447Y-104504019D01*
X148262929Y-104503803D01*
X148314649Y-104500594D01*
X148317683Y-104500500D01*
X148335940Y-104500500D01*
X148349111Y-104498614D01*
X148353017Y-104498213D01*
X148402538Y-104495141D01*
X148405817Y-104493957D01*
X148405823Y-104493956D01*
X148417006Y-104489919D01*
X148426696Y-104487503D01*
X148438462Y-104485818D01*
X148438463Y-104485818D01*
X148441918Y-104485323D01*
X148453181Y-104480202D01*
X148487083Y-104464788D01*
X148490726Y-104463305D01*
X148534100Y-104447647D01*
X148534102Y-104447646D01*
X148537387Y-104446460D01*
X148549801Y-104437391D01*
X148558423Y-104432353D01*
X148569250Y-104427430D01*
X148569255Y-104427427D01*
X148572428Y-104425984D01*
X148575068Y-104423709D01*
X148575070Y-104423708D01*
X148610018Y-104393594D01*
X148613080Y-104391162D01*
X148626336Y-104381478D01*
X148639101Y-104368713D01*
X148641764Y-104366240D01*
X148678391Y-104334680D01*
X148681037Y-104332400D01*
X148688586Y-104320753D01*
X148695053Y-104312761D01*
X149410361Y-103597452D01*
X149418862Y-103590659D01*
X149424770Y-103586931D01*
X149427720Y-103585070D01*
X149464336Y-103543610D01*
X149466415Y-103541398D01*
X149479320Y-103528493D01*
X149487300Y-103517845D01*
X149489784Y-103514795D01*
X149520311Y-103480230D01*
X149520311Y-103480229D01*
X149522623Y-103477612D01*
X149529159Y-103463690D01*
X149534303Y-103455130D01*
X149541432Y-103445618D01*
X149543526Y-103442824D01*
X149553974Y-103414956D01*
X149560941Y-103396371D01*
X149562468Y-103392748D01*
X149582070Y-103350996D01*
X149582070Y-103350995D01*
X149583553Y-103347837D01*
X149585919Y-103332642D01*
X149588454Y-103322982D01*
X149592626Y-103311852D01*
X149592627Y-103311848D01*
X149593852Y-103308580D01*
X149595693Y-103283816D01*
X149597529Y-103259103D01*
X149597977Y-103255198D01*
X149600209Y-103240859D01*
X149600500Y-103238991D01*
X149600500Y-103220929D01*
X149600635Y-103217298D01*
X149604217Y-103169095D01*
X149604217Y-103169094D01*
X149604476Y-103165608D01*
X149601580Y-103152041D01*
X149600500Y-103141812D01*
X149600500Y-103132613D01*
X166624268Y-103132613D01*
X166626006Y-103136809D01*
X166642982Y-103149143D01*
X166647409Y-103151699D01*
X166812672Y-103225278D01*
X166817523Y-103226854D01*
X166994474Y-103264467D01*
X166999547Y-103265000D01*
X167180453Y-103265000D01*
X167185526Y-103264467D01*
X167362477Y-103226854D01*
X167367328Y-103225278D01*
X167532591Y-103151699D01*
X167537018Y-103149143D01*
X167551885Y-103138342D01*
X167555783Y-103131981D01*
X167554722Y-103127565D01*
X167096893Y-102669736D01*
X167090000Y-102666881D01*
X167083107Y-102669736D01*
X166627123Y-103125720D01*
X166624268Y-103132613D01*
X149600500Y-103132613D01*
X149600500Y-102428500D01*
X149614852Y-102393852D01*
X149649500Y-102379500D01*
X149780584Y-102379500D01*
X149815202Y-102393821D01*
X149848777Y-102427337D01*
X149852287Y-102430841D01*
X149954673Y-102476106D01*
X149958329Y-102476532D01*
X149958332Y-102476533D01*
X149967724Y-102477628D01*
X149980354Y-102479100D01*
X150669646Y-102479100D01*
X150671071Y-102478930D01*
X150671078Y-102478930D01*
X150692200Y-102476416D01*
X150692201Y-102476416D01*
X150695846Y-102475982D01*
X150699201Y-102474492D01*
X150699204Y-102474491D01*
X150794018Y-102432376D01*
X150794019Y-102432375D01*
X150798153Y-102430539D01*
X150801348Y-102427338D01*
X150801350Y-102427337D01*
X150846058Y-102382550D01*
X166200393Y-102382550D01*
X166219303Y-102562464D01*
X166220364Y-102567455D01*
X166276266Y-102739503D01*
X166278344Y-102744171D01*
X166333734Y-102840110D01*
X166339651Y-102844650D01*
X166342940Y-102844217D01*
X166800264Y-102386893D01*
X166803119Y-102380000D01*
X167376881Y-102380000D01*
X167379736Y-102386893D01*
X167834500Y-102841657D01*
X167841393Y-102844512D01*
X167844457Y-102843243D01*
X167901656Y-102744171D01*
X167903734Y-102739503D01*
X167959636Y-102567455D01*
X167960697Y-102562464D01*
X167979607Y-102382550D01*
X167979607Y-102377450D01*
X167960697Y-102197536D01*
X167959636Y-102192545D01*
X167903734Y-102020497D01*
X167901656Y-102015829D01*
X167846266Y-101919890D01*
X167840349Y-101915350D01*
X167837060Y-101915783D01*
X167379736Y-102373107D01*
X167376881Y-102380000D01*
X166803119Y-102380000D01*
X166800264Y-102373107D01*
X166345500Y-101918343D01*
X166338607Y-101915488D01*
X166335543Y-101916757D01*
X166278344Y-102015829D01*
X166276266Y-102020497D01*
X166220364Y-102192545D01*
X166219303Y-102197536D01*
X166200393Y-102377450D01*
X166200393Y-102382550D01*
X150846058Y-102382550D01*
X150849103Y-102379500D01*
X150877241Y-102351313D01*
X150922506Y-102248927D01*
X150925500Y-102223246D01*
X150925500Y-101628019D01*
X166624219Y-101628019D01*
X166625279Y-101632436D01*
X167083107Y-102090264D01*
X167090000Y-102093119D01*
X167096893Y-102090264D01*
X167552877Y-101634280D01*
X167555732Y-101627387D01*
X167553994Y-101623191D01*
X167537018Y-101610857D01*
X167532591Y-101608301D01*
X167367328Y-101534722D01*
X167362477Y-101533146D01*
X167185526Y-101495533D01*
X167180453Y-101495000D01*
X166999547Y-101495000D01*
X166994474Y-101495533D01*
X166817523Y-101533146D01*
X166812672Y-101534722D01*
X166647412Y-101608300D01*
X166642980Y-101610859D01*
X166628116Y-101621659D01*
X166624219Y-101628019D01*
X150925500Y-101628019D01*
X150925500Y-101533954D01*
X150924034Y-101521631D01*
X150922816Y-101511400D01*
X150922816Y-101511399D01*
X150922382Y-101507754D01*
X150920892Y-101504399D01*
X150920891Y-101504396D01*
X150878776Y-101409582D01*
X150878775Y-101409581D01*
X150876939Y-101405447D01*
X150873738Y-101402252D01*
X150873737Y-101402250D01*
X150820894Y-101349500D01*
X150797713Y-101326359D01*
X150695327Y-101281094D01*
X150691671Y-101280668D01*
X150691668Y-101280667D01*
X150682276Y-101279572D01*
X150669646Y-101278100D01*
X149980354Y-101278100D01*
X149978929Y-101278270D01*
X149978922Y-101278270D01*
X149957800Y-101280784D01*
X149957799Y-101280784D01*
X149954154Y-101281218D01*
X149950799Y-101282708D01*
X149950796Y-101282709D01*
X149855982Y-101324824D01*
X149855981Y-101324825D01*
X149851847Y-101326661D01*
X149848652Y-101329862D01*
X149848650Y-101329863D01*
X149814455Y-101364118D01*
X149779777Y-101378500D01*
X149624500Y-101378500D01*
X149589852Y-101364148D01*
X149575500Y-101329500D01*
X149575500Y-100853215D01*
X149576694Y-100842462D01*
X149578306Y-100835296D01*
X149579071Y-100831895D01*
X149575598Y-100777072D01*
X149575500Y-100773974D01*
X149575500Y-100756060D01*
X149573564Y-100742539D01*
X149573167Y-100738692D01*
X149572816Y-100733148D01*
X149941900Y-100733148D01*
X149953533Y-100791631D01*
X149956215Y-100795645D01*
X149968514Y-100814052D01*
X149997848Y-100857952D01*
X150064169Y-100902267D01*
X150122652Y-100913900D01*
X152371948Y-100913900D01*
X152430431Y-100902267D01*
X152496752Y-100857952D01*
X152526086Y-100814052D01*
X152538385Y-100795645D01*
X152541067Y-100791631D01*
X152552700Y-100733148D01*
X152552700Y-100084052D01*
X152541067Y-100025569D01*
X152496752Y-99959248D01*
X152430431Y-99914933D01*
X152371948Y-99903300D01*
X150122652Y-99903300D01*
X150064169Y-99914933D01*
X149997848Y-99959248D01*
X149953533Y-100025569D01*
X149941900Y-100084052D01*
X149941900Y-100733148D01*
X149572816Y-100733148D01*
X149570228Y-100692300D01*
X149570228Y-100692298D01*
X149570007Y-100688816D01*
X149568818Y-100685536D01*
X149568817Y-100685531D01*
X149564890Y-100674699D01*
X149562451Y-100664944D01*
X149560818Y-100653539D01*
X149560323Y-100650082D01*
X149539636Y-100604583D01*
X149538177Y-100601005D01*
X149522340Y-100557313D01*
X149522339Y-100557311D01*
X149521150Y-100554031D01*
X149512277Y-100541919D01*
X149507199Y-100533242D01*
X149506279Y-100531218D01*
X149500984Y-100519572D01*
X149468360Y-100481711D01*
X149465952Y-100478682D01*
X149457168Y-100466690D01*
X149457166Y-100466687D01*
X149456052Y-100465167D01*
X149454720Y-100463839D01*
X149454717Y-100463835D01*
X149443512Y-100452660D01*
X149440994Y-100449951D01*
X149409678Y-100413607D01*
X149407400Y-100410963D01*
X149395446Y-100403214D01*
X149387501Y-100396794D01*
X149237209Y-100246894D01*
X149136859Y-100146805D01*
X149130021Y-100138259D01*
X149105948Y-100100105D01*
X149094070Y-100081280D01*
X148986612Y-99986377D01*
X148983454Y-99984894D01*
X148983452Y-99984893D01*
X148859994Y-99926929D01*
X148859993Y-99926929D01*
X148856837Y-99925447D01*
X148853394Y-99924911D01*
X148853391Y-99924910D01*
X148810409Y-99918218D01*
X148805620Y-99916965D01*
X148805618Y-99916973D01*
X148802207Y-99916228D01*
X148798937Y-99915007D01*
X148783701Y-99913895D01*
X148779732Y-99913442D01*
X148749857Y-99908790D01*
X148749850Y-99908789D01*
X148747991Y-99908500D01*
X148711587Y-99908500D01*
X148708019Y-99908370D01*
X148659431Y-99904823D01*
X148655951Y-99904569D01*
X148642741Y-99907407D01*
X148632449Y-99908500D01*
X147170513Y-99908500D01*
X147160956Y-99907558D01*
X147139548Y-99903300D01*
X145187899Y-99903300D01*
X145153251Y-99888948D01*
X145138899Y-99854300D01*
X145153245Y-99819657D01*
X145177004Y-99795891D01*
X145257849Y-99715020D01*
X145314594Y-99658257D01*
X145349248Y-99643900D01*
X147139548Y-99643900D01*
X147198031Y-99632267D01*
X147264352Y-99587952D01*
X147293686Y-99544052D01*
X147305985Y-99525645D01*
X147308667Y-99521631D01*
X147320300Y-99463148D01*
X147320300Y-99128600D01*
X149275318Y-99128600D01*
X149295956Y-99285362D01*
X149297183Y-99288324D01*
X149297184Y-99288328D01*
X149355235Y-99428475D01*
X149356464Y-99431441D01*
X149452718Y-99556882D01*
X149578159Y-99653136D01*
X149581122Y-99654363D01*
X149581125Y-99654365D01*
X149721272Y-99712416D01*
X149721276Y-99712417D01*
X149724238Y-99713644D01*
X149727419Y-99714063D01*
X149727420Y-99714063D01*
X149877817Y-99733863D01*
X149881000Y-99734282D01*
X149884183Y-99733863D01*
X150034580Y-99714063D01*
X150034581Y-99714063D01*
X150037762Y-99713644D01*
X150040724Y-99712417D01*
X150040728Y-99712416D01*
X150180874Y-99654365D01*
X150183841Y-99653136D01*
X150186388Y-99651181D01*
X150187631Y-99650464D01*
X150212130Y-99643900D01*
X152371948Y-99643900D01*
X152430431Y-99632267D01*
X152496752Y-99587952D01*
X152514843Y-99560877D01*
X152546026Y-99540042D01*
X152555585Y-99539100D01*
X152632112Y-99539100D01*
X152666760Y-99553452D01*
X152677030Y-99571107D01*
X152677618Y-99570846D01*
X152721027Y-99668573D01*
X152723061Y-99673153D01*
X152726262Y-99676348D01*
X152726263Y-99676350D01*
X152762393Y-99712416D01*
X152802287Y-99752241D01*
X152904673Y-99797506D01*
X152908329Y-99797932D01*
X152908332Y-99797933D01*
X152917724Y-99799028D01*
X152930354Y-99800500D01*
X153619646Y-99800500D01*
X153621071Y-99800330D01*
X153621078Y-99800330D01*
X153642200Y-99797816D01*
X153642201Y-99797816D01*
X153645846Y-99797382D01*
X153649201Y-99795892D01*
X153649204Y-99795891D01*
X153744018Y-99753776D01*
X153744019Y-99753775D01*
X153748153Y-99751939D01*
X153751348Y-99748738D01*
X153751350Y-99748737D01*
X153823610Y-99676350D01*
X153827241Y-99672713D01*
X153846308Y-99629585D01*
X153855172Y-99609536D01*
X153882309Y-99583650D01*
X153919801Y-99584533D01*
X153944769Y-99609458D01*
X153947165Y-99614852D01*
X153971027Y-99668573D01*
X153973061Y-99673153D01*
X153976262Y-99676348D01*
X153976263Y-99676350D01*
X154012393Y-99712416D01*
X154052287Y-99752241D01*
X154154673Y-99797506D01*
X154158329Y-99797932D01*
X154158332Y-99797933D01*
X154167724Y-99799028D01*
X154180354Y-99800500D01*
X154869646Y-99800500D01*
X154871071Y-99800330D01*
X154871078Y-99800330D01*
X154892200Y-99797816D01*
X154892201Y-99797816D01*
X154895846Y-99797382D01*
X154899201Y-99795892D01*
X154899204Y-99795891D01*
X154994018Y-99753776D01*
X154994019Y-99753775D01*
X154998153Y-99751939D01*
X155001348Y-99748738D01*
X155001350Y-99748737D01*
X155073610Y-99676350D01*
X155077241Y-99672713D01*
X155089979Y-99643900D01*
X155096263Y-99629687D01*
X155123400Y-99603801D01*
X155141079Y-99600500D01*
X155313811Y-99600500D01*
X155348459Y-99614852D01*
X156039091Y-100305484D01*
X156039095Y-100305487D01*
X156061658Y-100328050D01*
X156065095Y-100329801D01*
X156065099Y-100329804D01*
X156086656Y-100340788D01*
X156093212Y-100344805D01*
X156112792Y-100359031D01*
X156112796Y-100359033D01*
X156115911Y-100361296D01*
X156121799Y-100363209D01*
X156142594Y-100369966D01*
X156149697Y-100372909D01*
X156171259Y-100383895D01*
X156171260Y-100383895D01*
X156174696Y-100385646D01*
X156178499Y-100386248D01*
X156178501Y-100386249D01*
X156202407Y-100390035D01*
X156209883Y-100391830D01*
X156232900Y-100399309D01*
X156232903Y-100399309D01*
X156236567Y-100400500D01*
X163563433Y-100400500D01*
X163567097Y-100399309D01*
X163567100Y-100399309D01*
X163590117Y-100391830D01*
X163597593Y-100390035D01*
X163621499Y-100386249D01*
X163621501Y-100386248D01*
X163625304Y-100385646D01*
X163628740Y-100383895D01*
X163628741Y-100383895D01*
X163650301Y-100372910D01*
X163657404Y-100369967D01*
X163678202Y-100363209D01*
X163684090Y-100361296D01*
X163687208Y-100359031D01*
X163706789Y-100344804D01*
X163713346Y-100340787D01*
X163734901Y-100329804D01*
X163734905Y-100329801D01*
X163738342Y-100328050D01*
X163760905Y-100305487D01*
X163760909Y-100305484D01*
X165651540Y-98414852D01*
X165686188Y-98400500D01*
X166568868Y-98400500D01*
X166581460Y-98402146D01*
X166601121Y-98407374D01*
X166605394Y-98406992D01*
X166605396Y-98406992D01*
X166616287Y-98406018D01*
X166627282Y-98406274D01*
X166635336Y-98407374D01*
X166822536Y-98432943D01*
X166827378Y-98433854D01*
X166934615Y-98459700D01*
X167041847Y-98485544D01*
X167046581Y-98486941D01*
X167254745Y-98559937D01*
X167259314Y-98561802D01*
X167459105Y-98655379D01*
X167463442Y-98657684D01*
X167652803Y-98770882D01*
X167656892Y-98773614D01*
X167771968Y-98859213D01*
X167814950Y-98891185D01*
X167822981Y-98898697D01*
X167832921Y-98910348D01*
X167925127Y-98962580D01*
X167929352Y-98963289D01*
X167929354Y-98963290D01*
X168025412Y-98979417D01*
X168025414Y-98979417D01*
X168029637Y-98980126D01*
X168124587Y-98962580D01*
X168129631Y-98961648D01*
X168129632Y-98961648D01*
X168133846Y-98960869D01*
X168139966Y-98957268D01*
X168164815Y-98950500D01*
X173089748Y-98950500D01*
X173148231Y-98938867D01*
X173214552Y-98894552D01*
X173258867Y-98828231D01*
X173270500Y-98769748D01*
X173270500Y-97230252D01*
X173258867Y-97171769D01*
X173214552Y-97105448D01*
X173148231Y-97061133D01*
X173089748Y-97049500D01*
X168065738Y-97049500D01*
X168054468Y-97048186D01*
X168053478Y-97047952D01*
X168042548Y-97045369D01*
X168012347Y-97048919D01*
X168010250Y-97049165D01*
X168004530Y-97049500D01*
X167970252Y-97049500D01*
X167911769Y-97061133D01*
X167907755Y-97063815D01*
X167857076Y-97097678D01*
X167851872Y-97100710D01*
X167842630Y-97105359D01*
X167839692Y-97108477D01*
X167832320Y-97116301D01*
X167823863Y-97123451D01*
X167779745Y-97152900D01*
X167624473Y-97256543D01*
X167620105Y-97259141D01*
X167387304Y-97381686D01*
X167382691Y-97383815D01*
X167260550Y-97432672D01*
X167138443Y-97481515D01*
X167133620Y-97483159D01*
X166880539Y-97554967D01*
X166875583Y-97556099D01*
X166779585Y-97572819D01*
X166639416Y-97597232D01*
X166628358Y-97597887D01*
X166618920Y-97597376D01*
X166613344Y-97597074D01*
X166609243Y-97598320D01*
X166604985Y-97598835D01*
X166604942Y-97598480D01*
X166598080Y-97599500D01*
X165436567Y-97599500D01*
X165432903Y-97600691D01*
X165432900Y-97600691D01*
X165409883Y-97608170D01*
X165402407Y-97609965D01*
X165378501Y-97613751D01*
X165378499Y-97613752D01*
X165374696Y-97614354D01*
X165371260Y-97616105D01*
X165371259Y-97616105D01*
X165349699Y-97627090D01*
X165342596Y-97630033D01*
X165315910Y-97638704D01*
X165312796Y-97640966D01*
X165312791Y-97640969D01*
X165293208Y-97655197D01*
X165286653Y-97659214D01*
X165278381Y-97663429D01*
X165261658Y-97671950D01*
X165239091Y-97694517D01*
X163348459Y-99585148D01*
X163313811Y-99599500D01*
X156486189Y-99599500D01*
X156451541Y-99585148D01*
X155760909Y-98894516D01*
X155760905Y-98894513D01*
X155738342Y-98871950D01*
X155734905Y-98870199D01*
X155734901Y-98870196D01*
X155713346Y-98859213D01*
X155706789Y-98855196D01*
X155687205Y-98840967D01*
X155687204Y-98840966D01*
X155684090Y-98838704D01*
X155657404Y-98830033D01*
X155650301Y-98827090D01*
X155628741Y-98816105D01*
X155628740Y-98816105D01*
X155625304Y-98814354D01*
X155621501Y-98813752D01*
X155621499Y-98813751D01*
X155597593Y-98809965D01*
X155590117Y-98808170D01*
X155567100Y-98800691D01*
X155567097Y-98800691D01*
X155563433Y-98799500D01*
X155141061Y-98799500D01*
X155106413Y-98785148D01*
X155096280Y-98770391D01*
X155095995Y-98769748D01*
X155076939Y-98726847D01*
X155073738Y-98723652D01*
X155073737Y-98723650D01*
X155027648Y-98677642D01*
X154997713Y-98647759D01*
X154990455Y-98644550D01*
X154965008Y-98633300D01*
X154895327Y-98602494D01*
X154891671Y-98602068D01*
X154891668Y-98602067D01*
X154882276Y-98600972D01*
X154869646Y-98599500D01*
X154180354Y-98599500D01*
X154178929Y-98599670D01*
X154178922Y-98599670D01*
X154157800Y-98602184D01*
X154157799Y-98602184D01*
X154154154Y-98602618D01*
X154150799Y-98604108D01*
X154150796Y-98604109D01*
X154055982Y-98646224D01*
X154055981Y-98646225D01*
X154051847Y-98648061D01*
X154048652Y-98651262D01*
X154048650Y-98651263D01*
X154019124Y-98680841D01*
X153972759Y-98727287D01*
X153959060Y-98758273D01*
X153944828Y-98790464D01*
X153917691Y-98816350D01*
X153880199Y-98815467D01*
X153855231Y-98790542D01*
X153855197Y-98790464D01*
X153837150Y-98749835D01*
X153828776Y-98730982D01*
X153828775Y-98730981D01*
X153826939Y-98726847D01*
X153823738Y-98723652D01*
X153823737Y-98723650D01*
X153777648Y-98677642D01*
X153747713Y-98647759D01*
X153740455Y-98644550D01*
X153715008Y-98633300D01*
X153645327Y-98602494D01*
X153641671Y-98602068D01*
X153641668Y-98602067D01*
X153632276Y-98600972D01*
X153619646Y-98599500D01*
X152930354Y-98599500D01*
X152928929Y-98599670D01*
X152928922Y-98599670D01*
X152907800Y-98602184D01*
X152907799Y-98602184D01*
X152904154Y-98602618D01*
X152900799Y-98604108D01*
X152900796Y-98604109D01*
X152805982Y-98646224D01*
X152805981Y-98646225D01*
X152801847Y-98648061D01*
X152798652Y-98651262D01*
X152798650Y-98651263D01*
X152726322Y-98723718D01*
X152691644Y-98738100D01*
X152555585Y-98738100D01*
X152520937Y-98723748D01*
X152514843Y-98716323D01*
X152502842Y-98698362D01*
X152496752Y-98689248D01*
X152442030Y-98652683D01*
X152434445Y-98647615D01*
X152430431Y-98644933D01*
X152371948Y-98633300D01*
X150238575Y-98633300D01*
X150208748Y-98623176D01*
X150183841Y-98604064D01*
X150180878Y-98602837D01*
X150180875Y-98602835D01*
X150040728Y-98544784D01*
X150040724Y-98544783D01*
X150037762Y-98543556D01*
X150034581Y-98543137D01*
X150034580Y-98543137D01*
X149884183Y-98523337D01*
X149881000Y-98522918D01*
X149877817Y-98523337D01*
X149727420Y-98543137D01*
X149727419Y-98543137D01*
X149724238Y-98543556D01*
X149721276Y-98544783D01*
X149721272Y-98544784D01*
X149581125Y-98602835D01*
X149581122Y-98602837D01*
X149578159Y-98604064D01*
X149575610Y-98606020D01*
X149476101Y-98682376D01*
X149452718Y-98700318D01*
X149450762Y-98702867D01*
X149429189Y-98730982D01*
X149356464Y-98825759D01*
X149355237Y-98828722D01*
X149355235Y-98828725D01*
X149297184Y-98968872D01*
X149297183Y-98968876D01*
X149295956Y-98971838D01*
X149295537Y-98975019D01*
X149295537Y-98975020D01*
X149275737Y-99125417D01*
X149275318Y-99128600D01*
X147320300Y-99128600D01*
X147320300Y-98814052D01*
X147308667Y-98755569D01*
X147287385Y-98723718D01*
X147270442Y-98698362D01*
X147264352Y-98689248D01*
X147209630Y-98652683D01*
X147202045Y-98647615D01*
X147198031Y-98644933D01*
X147139548Y-98633300D01*
X144890252Y-98633300D01*
X144831769Y-98644933D01*
X144827755Y-98647615D01*
X144775291Y-98682671D01*
X144765448Y-98689248D01*
X144764856Y-98688362D01*
X144735003Y-98700728D01*
X144700355Y-98686376D01*
X144690222Y-98671618D01*
X144684877Y-98659583D01*
X144684875Y-98659579D01*
X144683039Y-98655447D01*
X144679838Y-98652252D01*
X144679837Y-98652250D01*
X144630118Y-98602618D01*
X144603813Y-98576359D01*
X144501427Y-98531094D01*
X144497771Y-98530668D01*
X144497768Y-98530667D01*
X144488376Y-98529572D01*
X144475746Y-98528100D01*
X143786454Y-98528100D01*
X143785029Y-98528270D01*
X143785022Y-98528270D01*
X143763900Y-98530784D01*
X143763899Y-98530784D01*
X143760254Y-98531218D01*
X143756899Y-98532708D01*
X143756896Y-98532709D01*
X143662082Y-98574824D01*
X143662081Y-98574825D01*
X143657947Y-98576661D01*
X143654752Y-98579862D01*
X143654750Y-98579863D01*
X143630592Y-98604064D01*
X143578859Y-98655887D01*
X143533594Y-98758273D01*
X143530600Y-98783954D01*
X143530600Y-99329100D01*
X143516248Y-99363748D01*
X143481600Y-99378100D01*
X143425915Y-99378100D01*
X143391297Y-99363778D01*
X143384243Y-99356736D01*
X143353813Y-99326359D01*
X143251427Y-99281094D01*
X143247771Y-99280668D01*
X143247768Y-99280667D01*
X143238376Y-99279572D01*
X143225746Y-99278100D01*
X142536454Y-99278100D01*
X142535029Y-99278270D01*
X142535022Y-99278270D01*
X142513900Y-99280784D01*
X142513899Y-99280784D01*
X142510254Y-99281218D01*
X142506899Y-99282708D01*
X142506896Y-99282709D01*
X142412082Y-99324824D01*
X142412081Y-99324825D01*
X142407947Y-99326661D01*
X142404752Y-99329862D01*
X142404750Y-99329863D01*
X142380937Y-99353718D01*
X142346259Y-99368100D01*
X142150903Y-99368100D01*
X142141343Y-99367158D01*
X142121948Y-99363300D01*
X139872652Y-99363300D01*
X139853257Y-99367158D01*
X139843697Y-99368100D01*
X138981799Y-99368100D01*
X138951970Y-99357974D01*
X138936391Y-99346020D01*
X138936387Y-99346018D01*
X138933841Y-99344064D01*
X138899557Y-99329863D01*
X138790728Y-99284784D01*
X138790724Y-99284783D01*
X138787762Y-99283556D01*
X138784581Y-99283137D01*
X138784580Y-99283137D01*
X138634183Y-99263337D01*
X138631000Y-99262918D01*
X138627817Y-99263337D01*
X138477420Y-99283137D01*
X138477419Y-99283137D01*
X138474238Y-99283556D01*
X138471276Y-99284783D01*
X138471272Y-99284784D01*
X138331125Y-99342835D01*
X138331122Y-99342837D01*
X138328159Y-99344064D01*
X138202718Y-99440318D01*
X138106464Y-99565759D01*
X138105237Y-99568722D01*
X138105235Y-99568725D01*
X138047184Y-99708872D01*
X138047183Y-99708876D01*
X138045956Y-99711838D01*
X138045537Y-99715019D01*
X138045537Y-99715020D01*
X138043056Y-99733863D01*
X138025318Y-99868600D01*
X138025737Y-99871783D01*
X138040824Y-99986377D01*
X138045956Y-100025362D01*
X138047183Y-100028324D01*
X138047184Y-100028328D01*
X138094648Y-100142915D01*
X138106464Y-100171441D01*
X138202718Y-100296882D01*
X138205267Y-100298838D01*
X138243337Y-100328050D01*
X138328159Y-100393136D01*
X138331122Y-100394363D01*
X138331125Y-100394365D01*
X138471272Y-100452416D01*
X138471276Y-100452417D01*
X138474238Y-100453644D01*
X138477419Y-100454063D01*
X138477420Y-100454063D01*
X138627817Y-100473863D01*
X138631000Y-100474282D01*
X138634183Y-100473863D01*
X138784580Y-100454063D01*
X138784581Y-100454063D01*
X138787762Y-100453644D01*
X138790724Y-100452417D01*
X138790728Y-100452416D01*
X138916063Y-100400500D01*
X138933841Y-100393136D01*
X138936387Y-100391182D01*
X138936391Y-100391180D01*
X138951970Y-100379226D01*
X138981799Y-100369100D01*
X139843697Y-100369100D01*
X139853256Y-100370042D01*
X139872652Y-100373900D01*
X142121948Y-100373900D01*
X142141344Y-100370042D01*
X142150903Y-100369100D01*
X142326267Y-100369100D01*
X142360883Y-100383420D01*
X142408387Y-100430841D01*
X142439523Y-100444606D01*
X142471564Y-100458772D01*
X142497450Y-100485909D01*
X142496567Y-100523401D01*
X142471642Y-100548369D01*
X142458895Y-100554031D01*
X142412082Y-100574824D01*
X142412081Y-100574825D01*
X142407947Y-100576661D01*
X142404752Y-100579862D01*
X142404750Y-100579863D01*
X142378242Y-100606418D01*
X142328859Y-100655887D01*
X142327029Y-100660026D01*
X142327027Y-100660029D01*
X142321960Y-100671490D01*
X142294824Y-100697376D01*
X142257331Y-100696491D01*
X142246756Y-100689243D01*
X142246752Y-100689248D01*
X142184445Y-100647615D01*
X142180431Y-100644933D01*
X142121948Y-100633300D01*
X139988053Y-100633300D01*
X139958226Y-100623175D01*
X139933841Y-100604464D01*
X139930878Y-100603237D01*
X139930875Y-100603235D01*
X139790728Y-100545184D01*
X139790724Y-100545183D01*
X139787762Y-100543956D01*
X139784581Y-100543537D01*
X139784580Y-100543537D01*
X139634183Y-100523737D01*
X139631000Y-100523318D01*
X139627817Y-100523737D01*
X139477420Y-100543537D01*
X139477419Y-100543537D01*
X139474238Y-100543956D01*
X139471276Y-100545183D01*
X139471272Y-100545184D01*
X139331125Y-100603235D01*
X139331122Y-100603237D01*
X139328159Y-100604464D01*
X139325610Y-100606420D01*
X139213689Y-100692300D01*
X139202718Y-100700718D01*
X139200762Y-100703267D01*
X139161579Y-100754331D01*
X139106464Y-100826159D01*
X139105237Y-100829122D01*
X139105235Y-100829125D01*
X139047184Y-100969272D01*
X139047183Y-100969276D01*
X139045956Y-100972238D01*
X139025318Y-101129000D01*
X139045956Y-101285762D01*
X139047183Y-101288724D01*
X139047184Y-101288728D01*
X139102917Y-101423278D01*
X139106464Y-101431841D01*
X139202718Y-101557282D01*
X139328159Y-101653536D01*
X139331122Y-101654763D01*
X139331125Y-101654765D01*
X139471272Y-101712816D01*
X139471276Y-101712817D01*
X139474238Y-101714044D01*
X139477419Y-101714463D01*
X139477420Y-101714463D01*
X139627817Y-101734263D01*
X139631000Y-101734682D01*
X139634183Y-101734263D01*
X139784580Y-101714463D01*
X139784581Y-101714463D01*
X139787762Y-101714044D01*
X139790724Y-101712817D01*
X139790728Y-101712816D01*
X139925456Y-101657009D01*
X139933841Y-101653536D01*
X139936394Y-101651577D01*
X139938318Y-101650466D01*
X139962821Y-101643900D01*
X142121948Y-101643900D01*
X142180431Y-101632267D01*
X142186789Y-101628019D01*
X142232286Y-101597618D01*
X142246752Y-101587952D01*
X142249036Y-101584534D01*
X142283348Y-101570321D01*
X142317996Y-101584673D01*
X142324466Y-101594094D01*
X142324762Y-101593890D01*
X142327324Y-101597618D01*
X142329161Y-101601753D01*
X142332362Y-101604948D01*
X142332363Y-101604950D01*
X142360672Y-101633209D01*
X142408387Y-101680841D01*
X142510773Y-101726106D01*
X142514429Y-101726532D01*
X142514432Y-101726533D01*
X142523824Y-101727628D01*
X142536454Y-101729100D01*
X143225746Y-101729100D01*
X143227171Y-101728930D01*
X143227178Y-101728930D01*
X143248300Y-101726416D01*
X143248301Y-101726416D01*
X143251946Y-101725982D01*
X143255301Y-101724492D01*
X143255304Y-101724491D01*
X143350118Y-101682376D01*
X143350119Y-101682375D01*
X143354253Y-101680539D01*
X143357448Y-101677338D01*
X143357450Y-101677337D01*
X143400431Y-101634280D01*
X143433341Y-101601313D01*
X143447106Y-101570177D01*
X143461272Y-101538136D01*
X143488409Y-101512250D01*
X143525901Y-101513133D01*
X143550869Y-101538058D01*
X143558276Y-101554733D01*
X143577127Y-101597173D01*
X143579161Y-101601753D01*
X143582362Y-101604948D01*
X143582363Y-101604950D01*
X143610672Y-101633209D01*
X143658387Y-101680841D01*
X143689523Y-101694606D01*
X143721564Y-101708772D01*
X143747450Y-101735909D01*
X143746567Y-101773401D01*
X143721642Y-101798369D01*
X143662082Y-101824824D01*
X143662081Y-101824825D01*
X143657947Y-101826661D01*
X143654752Y-101829862D01*
X143654750Y-101829863D01*
X143625165Y-101859500D01*
X143578859Y-101905887D01*
X143533594Y-102008273D01*
X143533168Y-102011929D01*
X143533167Y-102011932D01*
X143532072Y-102021324D01*
X143530600Y-102033954D01*
X143530600Y-102723246D01*
X143530770Y-102724671D01*
X143530770Y-102724678D01*
X143531778Y-102733148D01*
X143533718Y-102749446D01*
X143535208Y-102752801D01*
X143535209Y-102752804D01*
X143577324Y-102847618D01*
X143579161Y-102851753D01*
X143582362Y-102854948D01*
X143582363Y-102854950D01*
X143588055Y-102860632D01*
X143658387Y-102930841D01*
X143760773Y-102976106D01*
X143764429Y-102976532D01*
X143764432Y-102976533D01*
X143773824Y-102977628D01*
X143786454Y-102979100D01*
X144475746Y-102979100D01*
X144477171Y-102978930D01*
X144477178Y-102978930D01*
X144498300Y-102976416D01*
X144498301Y-102976416D01*
X144501946Y-102975982D01*
X144505301Y-102974492D01*
X144505304Y-102974491D01*
X144600118Y-102932376D01*
X144600119Y-102932375D01*
X144604253Y-102930539D01*
X144607448Y-102927338D01*
X144607450Y-102927337D01*
X144674038Y-102860632D01*
X144683341Y-102851313D01*
X144707952Y-102795645D01*
X144711272Y-102788136D01*
X144738409Y-102762250D01*
X144775901Y-102763133D01*
X144800869Y-102788058D01*
X144802456Y-102791631D01*
X144827127Y-102847173D01*
X144829161Y-102851753D01*
X144832362Y-102854948D01*
X144832363Y-102854950D01*
X144838055Y-102860632D01*
X144908387Y-102930841D01*
X145010773Y-102976106D01*
X145014429Y-102976532D01*
X145014432Y-102976533D01*
X145023824Y-102977628D01*
X145036454Y-102979100D01*
X145633951Y-102979100D01*
X145668599Y-102993452D01*
X145675065Y-103001877D01*
X145675464Y-103002841D01*
X145771718Y-103128282D01*
X145897159Y-103224536D01*
X145900122Y-103225763D01*
X145900125Y-103225765D01*
X146040272Y-103283816D01*
X146040276Y-103283817D01*
X146043238Y-103285044D01*
X146046419Y-103285463D01*
X146046420Y-103285463D01*
X146196817Y-103305263D01*
X146200000Y-103305682D01*
X146203183Y-103305263D01*
X146353580Y-103285463D01*
X146353581Y-103285463D01*
X146356762Y-103285044D01*
X146359724Y-103283817D01*
X146359728Y-103283816D01*
X146499875Y-103225765D01*
X146499878Y-103225763D01*
X146502841Y-103224536D01*
X146628282Y-103128282D01*
X146724536Y-103002841D01*
X146725765Y-102999875D01*
X146783816Y-102859728D01*
X146783817Y-102859724D01*
X146785044Y-102856762D01*
X146785704Y-102851753D01*
X146805263Y-102703183D01*
X146805682Y-102700000D01*
X146800419Y-102660026D01*
X146785463Y-102546420D01*
X146785463Y-102546419D01*
X146785044Y-102543238D01*
X146783817Y-102540276D01*
X146783816Y-102540272D01*
X146725765Y-102400125D01*
X146725763Y-102400122D01*
X146724536Y-102397159D01*
X146676409Y-102334439D01*
X146630238Y-102274267D01*
X146628282Y-102271718D01*
X146599257Y-102249446D01*
X146505390Y-102177420D01*
X146502841Y-102175464D01*
X146499878Y-102174237D01*
X146499875Y-102174235D01*
X146359728Y-102116184D01*
X146359724Y-102116183D01*
X146356762Y-102114956D01*
X146353581Y-102114537D01*
X146353580Y-102114537D01*
X146203183Y-102094737D01*
X146200000Y-102094318D01*
X146189239Y-102095735D01*
X146153015Y-102086029D01*
X146148195Y-102081802D01*
X146139909Y-102073516D01*
X146139905Y-102073513D01*
X146117342Y-102050950D01*
X146113905Y-102049199D01*
X146113901Y-102049196D01*
X146092346Y-102038213D01*
X146085789Y-102034196D01*
X146066205Y-102019967D01*
X146066204Y-102019966D01*
X146063090Y-102017704D01*
X146036404Y-102009033D01*
X146029301Y-102006090D01*
X146007741Y-101995105D01*
X146007740Y-101995105D01*
X146004304Y-101993354D01*
X146000499Y-101992751D01*
X146000498Y-101992751D01*
X145995951Y-101992031D01*
X145963975Y-101972435D01*
X145958836Y-101963525D01*
X145934876Y-101909582D01*
X145934875Y-101909581D01*
X145933039Y-101905447D01*
X145929838Y-101902252D01*
X145929837Y-101902250D01*
X145857323Y-101829863D01*
X145853813Y-101826359D01*
X145751427Y-101781094D01*
X145747771Y-101780668D01*
X145747768Y-101780667D01*
X145738376Y-101779572D01*
X145725746Y-101778100D01*
X145036454Y-101778100D01*
X145035029Y-101778270D01*
X145035022Y-101778270D01*
X145013900Y-101780784D01*
X145013899Y-101780784D01*
X145010254Y-101781218D01*
X145006899Y-101782708D01*
X145006896Y-101782709D01*
X144912082Y-101824824D01*
X144912081Y-101824825D01*
X144907947Y-101826661D01*
X144904752Y-101829862D01*
X144904750Y-101829863D01*
X144875165Y-101859500D01*
X144828859Y-101905887D01*
X144823674Y-101917615D01*
X144800928Y-101969064D01*
X144773791Y-101994950D01*
X144736299Y-101994067D01*
X144711331Y-101969142D01*
X144711297Y-101969064D01*
X144694224Y-101930627D01*
X144684876Y-101909582D01*
X144684875Y-101909581D01*
X144683039Y-101905447D01*
X144679838Y-101902252D01*
X144679837Y-101902250D01*
X144607323Y-101829863D01*
X144603813Y-101826359D01*
X144572677Y-101812594D01*
X144540636Y-101798428D01*
X144514750Y-101771291D01*
X144515633Y-101733799D01*
X144540558Y-101708831D01*
X144600118Y-101682376D01*
X144600119Y-101682375D01*
X144604253Y-101680539D01*
X144607448Y-101677338D01*
X144607450Y-101677337D01*
X144650431Y-101634280D01*
X144683341Y-101601313D01*
X144728606Y-101498927D01*
X144731600Y-101473246D01*
X144731600Y-100927009D01*
X144745952Y-100892361D01*
X144780600Y-100878009D01*
X144807823Y-100886267D01*
X144827754Y-100899585D01*
X144827757Y-100899586D01*
X144831769Y-100902267D01*
X144890252Y-100913900D01*
X147139548Y-100913900D01*
X147156933Y-100910442D01*
X147166492Y-100909500D01*
X148463809Y-100909500D01*
X148498412Y-100923807D01*
X148560103Y-100985337D01*
X148574500Y-101020030D01*
X148574500Y-101333785D01*
X148560178Y-101368403D01*
X148522759Y-101405887D01*
X148477494Y-101508273D01*
X148474500Y-101533954D01*
X148474500Y-102223246D01*
X148477618Y-102249446D01*
X148479108Y-102252801D01*
X148479109Y-102252804D01*
X148488643Y-102274267D01*
X148523061Y-102351753D01*
X148526262Y-102354948D01*
X148526263Y-102354950D01*
X148585118Y-102413702D01*
X148599500Y-102448380D01*
X148599500Y-102972390D01*
X148585148Y-103007038D01*
X148107038Y-103485148D01*
X148072390Y-103499500D01*
X135950799Y-103499500D01*
X135920970Y-103489374D01*
X135905391Y-103477420D01*
X135905387Y-103477418D01*
X135902841Y-103475464D01*
X135863448Y-103459147D01*
X135759728Y-103416184D01*
X135759724Y-103416183D01*
X135756762Y-103414956D01*
X135753581Y-103414537D01*
X135753580Y-103414537D01*
X135603183Y-103394737D01*
X135600000Y-103394318D01*
X135596817Y-103394737D01*
X135446420Y-103414537D01*
X135446419Y-103414537D01*
X135443238Y-103414956D01*
X135440276Y-103416183D01*
X135440272Y-103416184D01*
X135336552Y-103459147D01*
X135297159Y-103475464D01*
X135294613Y-103477418D01*
X135294609Y-103477420D01*
X135279030Y-103489374D01*
X135249201Y-103499500D01*
X134980110Y-103499500D01*
X134945462Y-103485148D01*
X134495952Y-103035638D01*
X134481600Y-103000990D01*
X134481600Y-102958500D01*
X134495952Y-102923852D01*
X134530600Y-102909500D01*
X134613308Y-102909500D01*
X134622867Y-102910442D01*
X134640252Y-102913900D01*
X136889548Y-102913900D01*
X136948031Y-102902267D01*
X137014352Y-102857952D01*
X137058667Y-102791631D01*
X137070300Y-102733148D01*
X139691900Y-102733148D01*
X139703533Y-102791631D01*
X139747848Y-102857952D01*
X139814169Y-102902267D01*
X139872652Y-102913900D01*
X142121948Y-102913900D01*
X142180431Y-102902267D01*
X142246752Y-102857952D01*
X142291067Y-102791631D01*
X142302700Y-102733148D01*
X142302700Y-102084052D01*
X142291067Y-102025569D01*
X142246752Y-101959248D01*
X142187850Y-101919890D01*
X142184445Y-101917615D01*
X142180431Y-101914933D01*
X142121948Y-101903300D01*
X139872652Y-101903300D01*
X139814169Y-101914933D01*
X139810155Y-101917615D01*
X139806750Y-101919890D01*
X139747848Y-101959248D01*
X139703533Y-102025569D01*
X139691900Y-102084052D01*
X139691900Y-102733148D01*
X137070300Y-102733148D01*
X137070300Y-102084052D01*
X137058667Y-102025569D01*
X137014352Y-101959248D01*
X136955450Y-101919890D01*
X136952045Y-101917615D01*
X136948031Y-101914933D01*
X136889548Y-101903300D01*
X134640252Y-101903300D01*
X134618844Y-101907558D01*
X134609287Y-101908500D01*
X134530600Y-101908500D01*
X134495952Y-101894148D01*
X134481600Y-101859500D01*
X134481600Y-101657009D01*
X134495952Y-101622361D01*
X134530600Y-101608009D01*
X134557823Y-101616267D01*
X134577754Y-101629585D01*
X134577757Y-101629586D01*
X134581769Y-101632267D01*
X134640252Y-101643900D01*
X136889548Y-101643900D01*
X136948031Y-101632267D01*
X136954389Y-101628019D01*
X136999886Y-101597618D01*
X137014352Y-101587952D01*
X137058667Y-101521631D01*
X137070300Y-101463148D01*
X137070300Y-100814052D01*
X137058667Y-100755569D01*
X137051572Y-100744950D01*
X137017032Y-100693259D01*
X137014352Y-100689248D01*
X136959630Y-100652683D01*
X136952045Y-100647615D01*
X136948031Y-100644933D01*
X136889548Y-100633300D01*
X135019988Y-100633300D01*
X134985340Y-100618948D01*
X134938342Y-100571950D01*
X134934909Y-100570201D01*
X134934908Y-100570200D01*
X134879148Y-100541789D01*
X134825304Y-100514354D01*
X134821499Y-100513751D01*
X134821498Y-100513751D01*
X134792316Y-100509129D01*
X134731519Y-100499500D01*
X132721106Y-100499500D01*
X132692216Y-100490078D01*
X132464042Y-100323522D01*
X132460712Y-100320861D01*
X132314379Y-100193148D01*
X134459500Y-100193148D01*
X134471133Y-100251631D01*
X134515448Y-100317952D01*
X134581769Y-100362267D01*
X134640252Y-100373900D01*
X136648425Y-100373900D01*
X136678252Y-100384024D01*
X136703159Y-100403136D01*
X136706122Y-100404363D01*
X136706125Y-100404365D01*
X136846272Y-100462416D01*
X136846276Y-100462417D01*
X136849238Y-100463644D01*
X136852419Y-100464063D01*
X136852420Y-100464063D01*
X137002817Y-100483863D01*
X137006000Y-100484282D01*
X137009183Y-100483863D01*
X137159580Y-100464063D01*
X137159581Y-100464063D01*
X137162762Y-100463644D01*
X137165724Y-100462417D01*
X137165728Y-100462416D01*
X137305875Y-100404365D01*
X137305878Y-100404363D01*
X137308841Y-100403136D01*
X137434282Y-100306882D01*
X137530536Y-100181441D01*
X137531765Y-100178475D01*
X137589816Y-100038328D01*
X137589817Y-100038324D01*
X137591044Y-100035362D01*
X137592780Y-100022180D01*
X137611263Y-99881783D01*
X137611682Y-99878600D01*
X137610785Y-99871783D01*
X137591463Y-99725020D01*
X137591463Y-99725019D01*
X137591044Y-99721838D01*
X137589817Y-99718876D01*
X137589816Y-99718872D01*
X137531765Y-99578725D01*
X137531763Y-99578722D01*
X137530536Y-99575759D01*
X137482409Y-99513038D01*
X137436238Y-99452867D01*
X137434282Y-99450318D01*
X137308841Y-99354064D01*
X137305878Y-99352837D01*
X137305875Y-99352835D01*
X137165728Y-99294784D01*
X137165724Y-99294783D01*
X137162762Y-99293556D01*
X137159581Y-99293137D01*
X137159580Y-99293137D01*
X137009183Y-99273337D01*
X137006000Y-99272918D01*
X137002817Y-99273337D01*
X136852420Y-99293137D01*
X136852419Y-99293137D01*
X136849238Y-99293556D01*
X136846276Y-99294783D01*
X136846272Y-99294784D01*
X136727301Y-99344064D01*
X136703159Y-99354064D01*
X136700612Y-99356019D01*
X136699369Y-99356736D01*
X136674870Y-99363300D01*
X134640252Y-99363300D01*
X134581769Y-99374933D01*
X134515448Y-99419248D01*
X134512768Y-99423259D01*
X134484534Y-99465514D01*
X134471133Y-99485569D01*
X134459500Y-99544052D01*
X134459500Y-100193148D01*
X132314379Y-100193148D01*
X132239397Y-100127707D01*
X132236311Y-100124768D01*
X132103128Y-99986377D01*
X132032606Y-99913098D01*
X132029790Y-99909904D01*
X132028891Y-99908790D01*
X131845256Y-99681339D01*
X131842727Y-99677912D01*
X131839526Y-99673153D01*
X131740343Y-99525724D01*
X131731999Y-99498499D01*
X131724689Y-96666119D01*
X131738547Y-96631846D01*
X131776636Y-96592647D01*
X131780667Y-96588938D01*
X131949232Y-96450453D01*
X131953657Y-96447215D01*
X132136656Y-96328429D01*
X132141417Y-96325704D01*
X132148270Y-96322277D01*
X132164385Y-96314217D01*
X132181465Y-96305675D01*
X132203383Y-96300500D01*
X133315912Y-96300500D01*
X133350560Y-96314852D01*
X133364912Y-96349500D01*
X133350590Y-96384118D01*
X133328859Y-96405887D01*
X133283594Y-96508273D01*
X133280600Y-96533954D01*
X133280600Y-97223246D01*
X133280770Y-97224671D01*
X133280770Y-97224678D01*
X133281848Y-97233733D01*
X133283718Y-97249446D01*
X133285208Y-97252801D01*
X133285209Y-97252804D01*
X133327324Y-97347618D01*
X133329161Y-97351753D01*
X133332362Y-97354948D01*
X133332363Y-97354950D01*
X133351438Y-97373991D01*
X133408387Y-97430841D01*
X133412527Y-97432671D01*
X133412528Y-97432672D01*
X133451312Y-97449818D01*
X133477199Y-97476954D01*
X133480500Y-97494634D01*
X133480500Y-97512583D01*
X133466148Y-97547231D01*
X133451392Y-97557363D01*
X133435402Y-97564466D01*
X133412082Y-97574824D01*
X133412081Y-97574825D01*
X133407947Y-97576661D01*
X133404752Y-97579862D01*
X133404750Y-97579863D01*
X133376493Y-97608170D01*
X133328859Y-97655887D01*
X133327029Y-97660025D01*
X133327029Y-97660026D01*
X133320552Y-97674676D01*
X133283594Y-97758273D01*
X133280600Y-97783954D01*
X133280600Y-98473246D01*
X133280770Y-98474671D01*
X133280770Y-98474678D01*
X133282132Y-98486122D01*
X133283718Y-98499446D01*
X133285208Y-98502801D01*
X133285209Y-98502804D01*
X133327324Y-98597618D01*
X133329161Y-98601753D01*
X133332362Y-98604948D01*
X133332363Y-98604950D01*
X133333432Y-98606017D01*
X133408387Y-98680841D01*
X133510773Y-98726106D01*
X133514429Y-98726532D01*
X133514432Y-98726533D01*
X133523824Y-98727628D01*
X133536454Y-98729100D01*
X134225746Y-98729100D01*
X134227171Y-98728930D01*
X134227178Y-98728930D01*
X134248300Y-98726416D01*
X134248301Y-98726416D01*
X134251946Y-98725982D01*
X134255301Y-98724492D01*
X134255304Y-98724491D01*
X134350118Y-98682376D01*
X134350119Y-98682375D01*
X134354253Y-98680539D01*
X134375823Y-98658931D01*
X134410457Y-98644550D01*
X134445118Y-98658871D01*
X134459500Y-98693550D01*
X134459500Y-98923148D01*
X134471133Y-98981631D01*
X134515448Y-99047952D01*
X134581769Y-99092267D01*
X134640252Y-99103900D01*
X136889548Y-99103900D01*
X136948031Y-99092267D01*
X137014352Y-99047952D01*
X137058667Y-98981631D01*
X137070300Y-98923148D01*
X139691900Y-98923148D01*
X139703533Y-98981631D01*
X139747848Y-99047952D01*
X139814169Y-99092267D01*
X139872652Y-99103900D01*
X142121948Y-99103900D01*
X142180431Y-99092267D01*
X142246752Y-99047952D01*
X142291067Y-98981631D01*
X142302700Y-98923148D01*
X142302700Y-98274052D01*
X142291067Y-98215569D01*
X142277667Y-98195514D01*
X142249432Y-98153259D01*
X142246752Y-98149248D01*
X142180431Y-98104933D01*
X142121948Y-98093300D01*
X139872652Y-98093300D01*
X139814169Y-98104933D01*
X139747848Y-98149248D01*
X139745168Y-98153259D01*
X139716934Y-98195514D01*
X139703533Y-98215569D01*
X139691900Y-98274052D01*
X139691900Y-98923148D01*
X137070300Y-98923148D01*
X137070300Y-98274052D01*
X137058667Y-98215569D01*
X137045267Y-98195514D01*
X137017032Y-98153259D01*
X137014352Y-98149248D01*
X136948031Y-98104933D01*
X136889548Y-98093300D01*
X134640252Y-98093300D01*
X134581769Y-98104933D01*
X134577757Y-98107614D01*
X134577754Y-98107615D01*
X134557823Y-98120933D01*
X134521040Y-98128249D01*
X134489858Y-98107414D01*
X134481600Y-98080191D01*
X134481600Y-97783954D01*
X134478482Y-97757754D01*
X134476992Y-97754399D01*
X134476991Y-97754396D01*
X134435223Y-97660364D01*
X134434274Y-97622873D01*
X134460113Y-97595692D01*
X134497604Y-97594743D01*
X134513547Y-97605106D01*
X134515448Y-97607952D01*
X134581769Y-97652267D01*
X134640252Y-97663900D01*
X136889548Y-97663900D01*
X136908944Y-97660042D01*
X136918503Y-97659100D01*
X137500201Y-97659100D01*
X137530030Y-97669226D01*
X137545609Y-97681180D01*
X137545613Y-97681182D01*
X137548159Y-97683136D01*
X137575635Y-97694517D01*
X137691272Y-97742416D01*
X137691276Y-97742417D01*
X137694238Y-97743644D01*
X137697419Y-97744063D01*
X137697420Y-97744063D01*
X137847817Y-97763863D01*
X137851000Y-97764282D01*
X137854183Y-97763863D01*
X138004580Y-97744063D01*
X138004581Y-97744063D01*
X138007762Y-97743644D01*
X138010724Y-97742417D01*
X138010728Y-97742416D01*
X138150875Y-97684365D01*
X138150878Y-97684363D01*
X138153841Y-97683136D01*
X138230210Y-97624536D01*
X138276733Y-97588838D01*
X138279282Y-97586882D01*
X138358880Y-97483148D01*
X139691900Y-97483148D01*
X139703533Y-97541631D01*
X139747848Y-97607952D01*
X139814169Y-97652267D01*
X139872652Y-97663900D01*
X142121948Y-97663900D01*
X142180431Y-97652267D01*
X142246752Y-97607952D01*
X142291067Y-97541631D01*
X142302700Y-97483148D01*
X142302700Y-96834052D01*
X142291067Y-96775569D01*
X142246752Y-96709248D01*
X142180431Y-96664933D01*
X142121948Y-96653300D01*
X139872652Y-96653300D01*
X139814169Y-96664933D01*
X139747848Y-96709248D01*
X139703533Y-96775569D01*
X139691900Y-96834052D01*
X139691900Y-97483148D01*
X138358880Y-97483148D01*
X138375536Y-97461441D01*
X138376765Y-97458475D01*
X138434816Y-97318328D01*
X138434817Y-97318324D01*
X138436044Y-97315362D01*
X138439027Y-97292706D01*
X138452960Y-97264454D01*
X138691364Y-97026050D01*
X138699865Y-97019257D01*
X138705770Y-97015531D01*
X138708720Y-97013670D01*
X138745328Y-96972219D01*
X138747407Y-96970007D01*
X138760320Y-96957094D01*
X138761363Y-96955703D01*
X138761372Y-96955692D01*
X138768304Y-96946442D01*
X138770787Y-96943392D01*
X138773543Y-96940272D01*
X138803623Y-96906212D01*
X138810160Y-96892289D01*
X138815300Y-96883735D01*
X138824526Y-96871424D01*
X138832761Y-96849459D01*
X138841939Y-96824975D01*
X138843466Y-96821350D01*
X138863071Y-96779594D01*
X138863071Y-96779592D01*
X138864553Y-96776437D01*
X138866334Y-96765002D01*
X138866919Y-96761242D01*
X138869454Y-96751579D01*
X138869641Y-96751081D01*
X138874852Y-96737181D01*
X138877649Y-96699551D01*
X138878529Y-96687705D01*
X138878977Y-96683800D01*
X138881209Y-96669460D01*
X138881500Y-96667591D01*
X138881500Y-96649530D01*
X138881635Y-96645899D01*
X138881836Y-96643201D01*
X138885476Y-96594209D01*
X138882580Y-96580642D01*
X138881500Y-96570413D01*
X138881500Y-95878600D01*
X139025318Y-95878600D01*
X139025737Y-95881783D01*
X139032454Y-95932800D01*
X139045956Y-96035362D01*
X139047183Y-96038324D01*
X139047184Y-96038328D01*
X139105235Y-96178475D01*
X139106464Y-96181441D01*
X139108420Y-96183990D01*
X139172680Y-96267735D01*
X139202718Y-96306882D01*
X139205267Y-96308838D01*
X139228850Y-96326934D01*
X139328159Y-96403136D01*
X139331122Y-96404363D01*
X139331125Y-96404365D01*
X139471272Y-96462416D01*
X139471276Y-96462417D01*
X139474238Y-96463644D01*
X139477419Y-96464063D01*
X139477420Y-96464063D01*
X139627817Y-96483863D01*
X139631000Y-96484282D01*
X139634183Y-96483863D01*
X139784580Y-96464063D01*
X139784581Y-96464063D01*
X139787762Y-96463644D01*
X139790724Y-96462417D01*
X139790728Y-96462416D01*
X139930874Y-96404365D01*
X139933841Y-96403136D01*
X139936388Y-96401181D01*
X139937631Y-96400464D01*
X139962130Y-96393900D01*
X142121948Y-96393900D01*
X142180431Y-96382267D01*
X142246752Y-96337952D01*
X142249036Y-96334534D01*
X142283348Y-96320321D01*
X142317996Y-96334673D01*
X142324466Y-96344094D01*
X142324762Y-96343890D01*
X142327324Y-96347618D01*
X142329161Y-96351753D01*
X142332362Y-96354948D01*
X142332363Y-96354950D01*
X142368663Y-96391187D01*
X142408387Y-96430841D01*
X142510773Y-96476106D01*
X142514429Y-96476532D01*
X142514432Y-96476533D01*
X142521340Y-96477338D01*
X142536454Y-96479100D01*
X143225746Y-96479100D01*
X143227171Y-96478930D01*
X143227178Y-96478930D01*
X143248300Y-96476416D01*
X143248301Y-96476416D01*
X143251946Y-96475982D01*
X143255301Y-96474492D01*
X143255304Y-96474491D01*
X143350118Y-96432376D01*
X143350119Y-96432375D01*
X143354253Y-96430539D01*
X143357448Y-96427338D01*
X143357450Y-96427337D01*
X143400593Y-96384118D01*
X143433341Y-96351313D01*
X143449447Y-96314882D01*
X143461272Y-96288136D01*
X143488409Y-96262250D01*
X143525901Y-96263133D01*
X143550869Y-96288058D01*
X143552683Y-96292143D01*
X143577127Y-96347173D01*
X143579161Y-96351753D01*
X143582362Y-96354948D01*
X143582363Y-96354950D01*
X143618663Y-96391187D01*
X143658387Y-96430841D01*
X143662525Y-96432671D01*
X143662526Y-96432671D01*
X143757404Y-96474617D01*
X143757407Y-96474618D01*
X143760773Y-96476106D01*
X143764432Y-96476533D01*
X143767387Y-96477338D01*
X143797041Y-96500297D01*
X143803500Y-96524613D01*
X143803500Y-96612158D01*
X143803313Y-96616429D01*
X143800086Y-96653311D01*
X143800086Y-96653316D01*
X143799713Y-96657584D01*
X143800822Y-96661722D01*
X143800822Y-96661724D01*
X143810402Y-96697475D01*
X143811328Y-96701648D01*
X143816980Y-96733700D01*
X143818503Y-96742339D01*
X143820644Y-96746048D01*
X143820645Y-96746050D01*
X143822595Y-96749428D01*
X143827488Y-96761240D01*
X143829606Y-96769143D01*
X143853298Y-96802978D01*
X143855595Y-96806584D01*
X143876250Y-96842360D01*
X143879532Y-96845114D01*
X143879533Y-96845115D01*
X143907895Y-96868913D01*
X143911047Y-96871801D01*
X144695148Y-97655903D01*
X144709500Y-97690551D01*
X144709500Y-98193148D01*
X144721133Y-98251631D01*
X144723815Y-98255645D01*
X144736114Y-98274052D01*
X144765448Y-98317952D01*
X144769459Y-98320632D01*
X144823842Y-98356970D01*
X144831769Y-98362267D01*
X144890252Y-98373900D01*
X146898425Y-98373900D01*
X146928252Y-98384024D01*
X146953159Y-98403136D01*
X146956122Y-98404363D01*
X146956125Y-98404365D01*
X147096272Y-98462416D01*
X147096276Y-98462417D01*
X147099238Y-98463644D01*
X147102419Y-98464063D01*
X147102420Y-98464063D01*
X147252817Y-98483863D01*
X147256000Y-98484282D01*
X147259183Y-98483863D01*
X147409580Y-98464063D01*
X147409581Y-98464063D01*
X147412762Y-98463644D01*
X147415724Y-98462417D01*
X147415728Y-98462416D01*
X147555875Y-98404365D01*
X147555878Y-98404363D01*
X147558841Y-98403136D01*
X147684282Y-98306882D01*
X147687770Y-98302337D01*
X147778580Y-98183990D01*
X147780536Y-98181441D01*
X147781765Y-98178475D01*
X147839816Y-98038328D01*
X147839817Y-98038324D01*
X147841044Y-98035362D01*
X147861682Y-97878600D01*
X147846577Y-97763863D01*
X147841463Y-97725020D01*
X147841463Y-97725019D01*
X147841044Y-97721838D01*
X147839817Y-97718876D01*
X147839816Y-97718872D01*
X147781765Y-97578725D01*
X147781763Y-97578722D01*
X147780536Y-97575759D01*
X147707624Y-97480738D01*
X147686238Y-97452867D01*
X147684282Y-97450318D01*
X147558841Y-97354064D01*
X147555878Y-97352837D01*
X147555875Y-97352835D01*
X147415728Y-97294784D01*
X147415724Y-97294783D01*
X147412762Y-97293556D01*
X147409581Y-97293137D01*
X147409580Y-97293137D01*
X147259183Y-97273337D01*
X147256000Y-97272918D01*
X147252817Y-97273337D01*
X147102420Y-97293137D01*
X147102419Y-97293137D01*
X147099238Y-97293556D01*
X147096276Y-97294783D01*
X147096272Y-97294784D01*
X146968721Y-97347618D01*
X146953159Y-97354064D01*
X146950612Y-97356019D01*
X146949369Y-97356736D01*
X146924870Y-97363300D01*
X145349151Y-97363300D01*
X145314503Y-97348948D01*
X145153103Y-97187548D01*
X145138751Y-97152900D01*
X145153103Y-97118252D01*
X145187751Y-97103900D01*
X147139548Y-97103900D01*
X147198031Y-97092267D01*
X147264352Y-97047952D01*
X147308667Y-96981631D01*
X147320300Y-96923148D01*
X149941900Y-96923148D01*
X149953533Y-96981631D01*
X149997848Y-97047952D01*
X150064169Y-97092267D01*
X150122652Y-97103900D01*
X152371948Y-97103900D01*
X152430431Y-97092267D01*
X152496752Y-97047952D01*
X152541067Y-96981631D01*
X152552700Y-96923148D01*
X152552700Y-96274052D01*
X152541067Y-96215569D01*
X152496752Y-96149248D01*
X152430431Y-96104933D01*
X152371948Y-96093300D01*
X150122652Y-96093300D01*
X150064169Y-96104933D01*
X149997848Y-96149248D01*
X149953533Y-96215569D01*
X149941900Y-96274052D01*
X149941900Y-96923148D01*
X147320300Y-96923148D01*
X147320300Y-96274052D01*
X147308667Y-96215569D01*
X147264352Y-96149248D01*
X147198031Y-96104933D01*
X147139548Y-96093300D01*
X144890252Y-96093300D01*
X144831769Y-96104933D01*
X144827757Y-96107614D01*
X144827754Y-96107615D01*
X144807823Y-96120933D01*
X144771040Y-96128249D01*
X144739858Y-96107414D01*
X144731600Y-96080191D01*
X144731600Y-95533954D01*
X144729268Y-95514354D01*
X144728916Y-95511400D01*
X144728916Y-95511399D01*
X144728482Y-95507754D01*
X144726992Y-95504399D01*
X144726991Y-95504396D01*
X144698395Y-95440017D01*
X144697446Y-95402526D01*
X144723285Y-95375345D01*
X144760776Y-95374396D01*
X144777835Y-95385489D01*
X144798029Y-95405696D01*
X144811951Y-95433937D01*
X144814956Y-95456762D01*
X144816183Y-95459724D01*
X144816184Y-95459728D01*
X144874235Y-95599875D01*
X144875464Y-95602841D01*
X144971718Y-95728282D01*
X145097159Y-95824536D01*
X145100122Y-95825763D01*
X145100125Y-95825765D01*
X145240272Y-95883816D01*
X145240276Y-95883817D01*
X145243238Y-95885044D01*
X145246419Y-95885463D01*
X145246420Y-95885463D01*
X145396817Y-95905263D01*
X145400000Y-95905682D01*
X145403183Y-95905263D01*
X145553580Y-95885463D01*
X145553581Y-95885463D01*
X145556762Y-95885044D01*
X145559724Y-95883817D01*
X145559728Y-95883816D01*
X145687279Y-95830982D01*
X145702841Y-95824536D01*
X145705387Y-95822582D01*
X145705391Y-95822580D01*
X145720970Y-95810626D01*
X145750799Y-95800500D01*
X151238420Y-95800500D01*
X151249233Y-95801708D01*
X151259447Y-95804019D01*
X151262929Y-95803803D01*
X151314649Y-95800594D01*
X151317683Y-95800500D01*
X151335940Y-95800500D01*
X151349111Y-95798614D01*
X151353017Y-95798213D01*
X151402538Y-95795141D01*
X151405817Y-95793957D01*
X151405823Y-95793956D01*
X151417006Y-95789919D01*
X151426696Y-95787503D01*
X151438462Y-95785818D01*
X151438463Y-95785818D01*
X151441918Y-95785323D01*
X151463527Y-95775498D01*
X151487083Y-95764788D01*
X151490726Y-95763305D01*
X151534100Y-95747647D01*
X151534102Y-95747646D01*
X151537387Y-95746460D01*
X151549801Y-95737391D01*
X151558423Y-95732353D01*
X151569250Y-95727430D01*
X151569255Y-95727427D01*
X151572428Y-95725984D01*
X151575068Y-95723709D01*
X151575070Y-95723708D01*
X151610018Y-95693594D01*
X151613080Y-95691162D01*
X151626336Y-95681478D01*
X151639101Y-95668713D01*
X151641764Y-95666240D01*
X151678391Y-95634680D01*
X151681037Y-95632400D01*
X151688586Y-95620753D01*
X151695053Y-95612761D01*
X152192962Y-95114852D01*
X152227610Y-95100500D01*
X152500500Y-95100500D01*
X152535148Y-95114852D01*
X152549500Y-95149500D01*
X152549500Y-95169748D01*
X152561133Y-95228231D01*
X152605448Y-95294552D01*
X152611249Y-95298428D01*
X152660159Y-95331109D01*
X152671769Y-95338867D01*
X152730252Y-95350500D01*
X152730742Y-95350500D01*
X152763381Y-95367951D01*
X152774500Y-95399032D01*
X152774500Y-95755185D01*
X152760178Y-95789803D01*
X152722759Y-95827287D01*
X152677494Y-95929673D01*
X152674500Y-95955354D01*
X152674500Y-96644646D01*
X152674670Y-96646071D01*
X152674670Y-96646078D01*
X152676101Y-96658100D01*
X152677618Y-96670846D01*
X152679108Y-96674201D01*
X152679109Y-96674204D01*
X152717770Y-96761242D01*
X152723061Y-96773153D01*
X152726262Y-96776348D01*
X152726263Y-96776350D01*
X152785118Y-96835102D01*
X152799500Y-96869780D01*
X152799500Y-97183741D01*
X152785178Y-97218359D01*
X152722759Y-97280887D01*
X152720929Y-97285025D01*
X152720929Y-97285026D01*
X152697106Y-97338913D01*
X152669970Y-97364799D01*
X152652290Y-97368100D01*
X152400903Y-97368100D01*
X152391343Y-97367158D01*
X152371948Y-97363300D01*
X150122652Y-97363300D01*
X150064169Y-97374933D01*
X149997848Y-97419248D01*
X149953533Y-97485569D01*
X149941900Y-97544052D01*
X149941900Y-98193148D01*
X149953533Y-98251631D01*
X149956215Y-98255645D01*
X149968514Y-98274052D01*
X149997848Y-98317952D01*
X150001859Y-98320632D01*
X150056242Y-98356970D01*
X150064169Y-98362267D01*
X150122652Y-98373900D01*
X152371948Y-98373900D01*
X152391344Y-98370042D01*
X152400903Y-98369100D01*
X152953221Y-98369100D01*
X152964242Y-98370355D01*
X152973266Y-98372438D01*
X152976750Y-98372237D01*
X153029716Y-98369181D01*
X153032538Y-98369100D01*
X153051940Y-98369100D01*
X153053661Y-98368854D01*
X153053668Y-98368853D01*
X153063932Y-98367383D01*
X153068055Y-98366969D01*
X153112912Y-98364381D01*
X153112913Y-98364381D01*
X153116394Y-98364180D01*
X153132018Y-98358616D01*
X153141504Y-98356273D01*
X153146643Y-98355538D01*
X153153227Y-98354595D01*
X153160171Y-98354100D01*
X153619646Y-98354100D01*
X153621071Y-98353930D01*
X153621078Y-98353930D01*
X153642200Y-98351416D01*
X153642201Y-98351416D01*
X153645846Y-98350982D01*
X153649201Y-98349492D01*
X153649204Y-98349491D01*
X153744018Y-98307376D01*
X153744019Y-98307375D01*
X153748153Y-98305539D01*
X153751348Y-98302338D01*
X153751350Y-98302337D01*
X153806696Y-98246894D01*
X153827241Y-98226313D01*
X153872506Y-98123927D01*
X153875500Y-98098246D01*
X153875500Y-97408954D01*
X153872382Y-97382754D01*
X153870892Y-97379399D01*
X153870891Y-97379396D01*
X153828776Y-97284582D01*
X153828775Y-97284581D01*
X153826939Y-97280447D01*
X153823738Y-97277252D01*
X153823737Y-97277250D01*
X153814882Y-97268411D01*
X153800500Y-97233733D01*
X153800500Y-96819773D01*
X153814821Y-96785155D01*
X153824046Y-96775914D01*
X153824047Y-96775913D01*
X153827241Y-96772713D01*
X153872506Y-96670327D01*
X153873046Y-96665701D01*
X153874491Y-96653300D01*
X153875500Y-96644646D01*
X153875500Y-95955354D01*
X153872382Y-95929154D01*
X153870892Y-95925799D01*
X153870891Y-95925796D01*
X153828776Y-95830982D01*
X153828775Y-95830981D01*
X153826939Y-95826847D01*
X153823739Y-95823653D01*
X153823738Y-95823651D01*
X153789882Y-95789855D01*
X153775500Y-95755176D01*
X153775500Y-95389569D01*
X153789852Y-95354921D01*
X153814940Y-95341511D01*
X153823498Y-95339809D01*
X153823500Y-95339808D01*
X153828231Y-95338867D01*
X153894552Y-95294552D01*
X153938867Y-95228231D01*
X153950500Y-95169748D01*
X153950500Y-94030252D01*
X153938867Y-93971769D01*
X153894552Y-93905448D01*
X153871795Y-93890242D01*
X153850959Y-93859059D01*
X153858276Y-93822277D01*
X153889459Y-93801441D01*
X153899018Y-93800500D01*
X156249201Y-93800500D01*
X156279030Y-93810626D01*
X156294609Y-93822580D01*
X156294613Y-93822582D01*
X156297159Y-93824536D01*
X156300124Y-93825764D01*
X156440272Y-93883816D01*
X156440276Y-93883817D01*
X156443238Y-93885044D01*
X156446419Y-93885463D01*
X156446420Y-93885463D01*
X156596817Y-93905263D01*
X156600000Y-93905682D01*
X156603183Y-93905263D01*
X156753580Y-93885463D01*
X156753581Y-93885463D01*
X156756762Y-93885044D01*
X156759724Y-93883817D01*
X156759728Y-93883816D01*
X156899875Y-93825765D01*
X156899878Y-93825763D01*
X156902841Y-93824536D01*
X157018686Y-93735645D01*
X157025733Y-93730238D01*
X157028282Y-93728282D01*
X157124536Y-93602841D01*
X157127866Y-93594802D01*
X157183816Y-93459728D01*
X157183817Y-93459724D01*
X157185044Y-93456762D01*
X157190954Y-93411875D01*
X157205263Y-93303183D01*
X157205682Y-93300000D01*
X157187236Y-93159890D01*
X157185463Y-93146420D01*
X157185463Y-93146419D01*
X157185044Y-93143238D01*
X157183817Y-93140276D01*
X157183816Y-93140272D01*
X157125765Y-93000125D01*
X157125763Y-93000122D01*
X157124536Y-92997159D01*
X157050788Y-92901048D01*
X157030238Y-92874267D01*
X157028282Y-92871718D01*
X156902841Y-92775464D01*
X156899878Y-92774237D01*
X156899875Y-92774235D01*
X156759728Y-92716184D01*
X156759724Y-92716183D01*
X156756762Y-92714956D01*
X156753581Y-92714537D01*
X156753580Y-92714537D01*
X156628583Y-92698081D01*
X156600592Y-92681920D01*
X156599669Y-92684148D01*
X156571417Y-92698081D01*
X156446420Y-92714537D01*
X156446419Y-92714537D01*
X156443238Y-92714956D01*
X156440276Y-92716183D01*
X156440272Y-92716184D01*
X156329002Y-92762274D01*
X156297159Y-92775464D01*
X156294613Y-92777418D01*
X156294609Y-92777420D01*
X156279030Y-92789374D01*
X156249201Y-92799500D01*
X153661580Y-92799500D01*
X153650766Y-92798292D01*
X153640553Y-92795981D01*
X153637071Y-92796197D01*
X153585351Y-92799406D01*
X153582317Y-92799500D01*
X153564060Y-92799500D01*
X153550889Y-92801386D01*
X153546983Y-92801787D01*
X153497462Y-92804859D01*
X153494183Y-92806043D01*
X153494177Y-92806044D01*
X153482994Y-92810081D01*
X153473304Y-92812497D01*
X153461538Y-92814182D01*
X153461537Y-92814182D01*
X153458082Y-92814677D01*
X153454904Y-92816122D01*
X153412917Y-92835212D01*
X153409274Y-92836695D01*
X153365900Y-92852353D01*
X153365898Y-92852354D01*
X153362613Y-92853540D01*
X153357035Y-92857615D01*
X153350199Y-92862609D01*
X153341577Y-92867647D01*
X153330750Y-92872570D01*
X153330745Y-92872573D01*
X153327572Y-92874016D01*
X153324932Y-92876291D01*
X153324930Y-92876292D01*
X153289982Y-92906406D01*
X153286920Y-92908838D01*
X153273664Y-92918522D01*
X153260899Y-92931287D01*
X153258236Y-92933760D01*
X153223425Y-92963755D01*
X153218963Y-92967600D01*
X153211414Y-92979247D01*
X153204947Y-92987239D01*
X152939636Y-93252550D01*
X152931135Y-93259343D01*
X152922280Y-93264930D01*
X152889065Y-93302539D01*
X152885672Y-93306381D01*
X152883593Y-93308593D01*
X152870680Y-93321506D01*
X152869637Y-93322897D01*
X152869628Y-93322908D01*
X152862696Y-93332158D01*
X152860214Y-93335207D01*
X152827377Y-93372388D01*
X152825893Y-93375548D01*
X152825892Y-93375550D01*
X152820840Y-93386311D01*
X152815700Y-93394865D01*
X152806474Y-93407176D01*
X152805250Y-93410442D01*
X152805249Y-93410443D01*
X152789059Y-93453629D01*
X152787532Y-93457252D01*
X152786370Y-93459728D01*
X152766447Y-93502163D01*
X152765911Y-93505608D01*
X152764081Y-93517358D01*
X152761546Y-93527018D01*
X152757374Y-93538148D01*
X152757373Y-93538152D01*
X152756148Y-93541420D01*
X152755890Y-93544897D01*
X152755889Y-93544900D01*
X152752471Y-93590897D01*
X152752023Y-93594802D01*
X152749500Y-93611009D01*
X152749500Y-93629071D01*
X152749365Y-93632702D01*
X152746360Y-93673148D01*
X152745524Y-93684392D01*
X152746254Y-93687812D01*
X152748420Y-93697959D01*
X152749500Y-93708188D01*
X152749500Y-93805459D01*
X152735148Y-93840107D01*
X152710063Y-93853516D01*
X152671769Y-93861133D01*
X152605448Y-93905448D01*
X152561133Y-93971769D01*
X152549500Y-94030252D01*
X152549500Y-94050500D01*
X152535148Y-94085148D01*
X152500500Y-94099500D01*
X152061575Y-94099500D01*
X152050761Y-94098292D01*
X152048282Y-94097731D01*
X152040552Y-94095982D01*
X152037070Y-94096198D01*
X151985359Y-94099406D01*
X151982325Y-94099500D01*
X151964060Y-94099500D01*
X151950874Y-94101388D01*
X151946991Y-94101786D01*
X151897461Y-94104859D01*
X151882994Y-94110082D01*
X151873305Y-94112497D01*
X151858082Y-94114677D01*
X151854906Y-94116121D01*
X151854903Y-94116122D01*
X151812918Y-94135212D01*
X151809275Y-94136695D01*
X151798200Y-94140693D01*
X151762613Y-94153540D01*
X151750199Y-94162609D01*
X151741577Y-94167647D01*
X151730750Y-94172570D01*
X151730745Y-94172573D01*
X151727572Y-94174016D01*
X151724931Y-94176292D01*
X151689980Y-94206407D01*
X151686902Y-94208851D01*
X151675191Y-94217407D01*
X151675188Y-94217410D01*
X151673664Y-94218523D01*
X151660906Y-94231281D01*
X151658243Y-94233754D01*
X151618963Y-94267600D01*
X151617066Y-94270527D01*
X151617065Y-94270528D01*
X151611413Y-94279248D01*
X151604943Y-94287244D01*
X151107038Y-94785148D01*
X151072390Y-94799500D01*
X145750799Y-94799500D01*
X145720970Y-94789374D01*
X145705391Y-94777420D01*
X145705387Y-94777418D01*
X145702841Y-94775464D01*
X145643203Y-94750761D01*
X145559728Y-94716184D01*
X145559724Y-94716183D01*
X145556762Y-94714956D01*
X145553581Y-94714537D01*
X145553580Y-94714537D01*
X145534278Y-94711996D01*
X145506015Y-94698053D01*
X145491816Y-94683845D01*
X145439785Y-94631783D01*
X145126481Y-94318292D01*
X145119701Y-94309803D01*
X145115934Y-94303833D01*
X145115931Y-94303830D01*
X145114070Y-94300880D01*
X145072672Y-94264318D01*
X145070470Y-94262249D01*
X145057607Y-94249378D01*
X145056210Y-94248330D01*
X145056205Y-94248326D01*
X145046892Y-94241341D01*
X145043866Y-94238878D01*
X145006612Y-94205977D01*
X145003454Y-94204494D01*
X145003452Y-94204493D01*
X144992767Y-94199476D01*
X144984195Y-94194324D01*
X144974752Y-94187242D01*
X144974749Y-94187240D01*
X144971956Y-94185146D01*
X144968686Y-94183919D01*
X144968684Y-94183918D01*
X144925423Y-94167686D01*
X144921811Y-94166163D01*
X144920553Y-94165572D01*
X144876837Y-94145047D01*
X144865746Y-94143320D01*
X144861720Y-94142693D01*
X144852046Y-94140153D01*
X144840998Y-94136008D01*
X144840999Y-94136008D01*
X144837728Y-94134781D01*
X144834246Y-94134521D01*
X144834245Y-94134521D01*
X144788180Y-94131084D01*
X144784288Y-94130637D01*
X144774357Y-94129091D01*
X144767991Y-94128100D01*
X144750006Y-94128100D01*
X144746360Y-94127964D01*
X144694759Y-94124114D01*
X144685247Y-94126142D01*
X144648370Y-94119330D01*
X144640417Y-94112899D01*
X144603813Y-94076359D01*
X144501427Y-94031094D01*
X144497771Y-94030668D01*
X144497768Y-94030667D01*
X144488376Y-94029572D01*
X144475746Y-94028100D01*
X143786454Y-94028100D01*
X143785029Y-94028270D01*
X143785022Y-94028270D01*
X143763900Y-94030784D01*
X143763899Y-94030784D01*
X143760254Y-94031218D01*
X143756899Y-94032708D01*
X143756896Y-94032709D01*
X143662082Y-94074824D01*
X143662081Y-94074825D01*
X143657947Y-94076661D01*
X143654753Y-94079861D01*
X143654751Y-94079862D01*
X143631819Y-94102835D01*
X143621775Y-94112897D01*
X143620955Y-94113718D01*
X143586276Y-94128100D01*
X143425915Y-94128100D01*
X143391297Y-94113778D01*
X143390818Y-94113300D01*
X143353813Y-94076359D01*
X143251427Y-94031094D01*
X143247771Y-94030668D01*
X143247768Y-94030667D01*
X143238376Y-94029572D01*
X143225746Y-94028100D01*
X142536454Y-94028100D01*
X142535029Y-94028270D01*
X142535022Y-94028270D01*
X142513900Y-94030784D01*
X142513899Y-94030784D01*
X142510254Y-94031218D01*
X142506899Y-94032708D01*
X142506896Y-94032709D01*
X142412082Y-94074824D01*
X142412081Y-94074825D01*
X142407947Y-94076661D01*
X142396808Y-94087820D01*
X142362131Y-94102200D01*
X141005266Y-94102200D01*
X141004967Y-94102199D01*
X140931865Y-94101752D01*
X140931863Y-94101752D01*
X140928376Y-94101731D01*
X140925021Y-94102690D01*
X140925020Y-94102690D01*
X140917432Y-94104859D01*
X140895477Y-94111134D01*
X140888957Y-94112526D01*
X140886995Y-94112807D01*
X140880058Y-94113300D01*
X139872652Y-94113300D01*
X139814169Y-94124933D01*
X139810155Y-94127615D01*
X139799820Y-94134521D01*
X139747848Y-94169248D01*
X139703533Y-94235569D01*
X139691900Y-94294052D01*
X139691900Y-94943148D01*
X139703533Y-95001631D01*
X139747848Y-95067952D01*
X139814169Y-95112267D01*
X139872652Y-95123900D01*
X142121948Y-95123900D01*
X142180431Y-95112267D01*
X142184446Y-95109584D01*
X142188904Y-95107738D01*
X142189462Y-95109085D01*
X142208865Y-95103200D01*
X142310340Y-95103200D01*
X142344958Y-95117522D01*
X142408387Y-95180841D01*
X142429446Y-95190151D01*
X142471564Y-95208772D01*
X142497450Y-95235909D01*
X142496567Y-95273401D01*
X142471642Y-95298369D01*
X142412082Y-95324824D01*
X142412081Y-95324825D01*
X142407947Y-95326661D01*
X142404752Y-95329862D01*
X142404750Y-95329863D01*
X142380592Y-95354064D01*
X142328859Y-95405887D01*
X142327029Y-95410026D01*
X142327027Y-95410029D01*
X142321960Y-95421490D01*
X142294824Y-95447376D01*
X142257331Y-95446491D01*
X142246756Y-95439243D01*
X142246752Y-95439248D01*
X142184445Y-95397615D01*
X142180431Y-95394933D01*
X142121948Y-95383300D01*
X139988575Y-95383300D01*
X139958748Y-95373176D01*
X139933841Y-95354064D01*
X139930878Y-95352837D01*
X139930875Y-95352835D01*
X139790728Y-95294784D01*
X139790724Y-95294783D01*
X139787762Y-95293556D01*
X139784581Y-95293137D01*
X139784580Y-95293137D01*
X139634183Y-95273337D01*
X139631000Y-95272918D01*
X139627817Y-95273337D01*
X139477420Y-95293137D01*
X139477419Y-95293137D01*
X139474238Y-95293556D01*
X139471276Y-95294783D01*
X139471272Y-95294784D01*
X139331125Y-95352835D01*
X139331122Y-95352837D01*
X139328159Y-95354064D01*
X139325610Y-95356020D01*
X139216143Y-95440017D01*
X139202718Y-95450318D01*
X139106464Y-95575759D01*
X139105237Y-95578722D01*
X139105235Y-95578725D01*
X139047184Y-95718872D01*
X139047183Y-95718876D01*
X139045956Y-95721838D01*
X139045537Y-95725019D01*
X139045537Y-95725020D01*
X139025737Y-95875417D01*
X139025318Y-95878600D01*
X138881500Y-95878600D01*
X138881500Y-93673148D01*
X139691900Y-93673148D01*
X139703533Y-93731631D01*
X139747848Y-93797952D01*
X139814169Y-93842267D01*
X139872652Y-93853900D01*
X142121948Y-93853900D01*
X142180431Y-93842267D01*
X142246752Y-93797952D01*
X142291067Y-93731631D01*
X142302700Y-93673148D01*
X142302700Y-93024052D01*
X142291067Y-92965569D01*
X142287172Y-92959739D01*
X142253170Y-92908853D01*
X142246752Y-92899248D01*
X142199459Y-92867647D01*
X142184445Y-92857615D01*
X142180431Y-92854933D01*
X142121948Y-92843300D01*
X139872652Y-92843300D01*
X139814169Y-92854933D01*
X139810155Y-92857615D01*
X139795141Y-92867647D01*
X139747848Y-92899248D01*
X139741430Y-92908853D01*
X139707429Y-92959739D01*
X139703533Y-92965569D01*
X139691900Y-93024052D01*
X139691900Y-93673148D01*
X138881500Y-93673148D01*
X138881500Y-93446525D01*
X138895853Y-93411875D01*
X138900553Y-93407176D01*
X139363323Y-92944447D01*
X139692950Y-92614850D01*
X139727597Y-92600500D01*
X145500500Y-92600500D01*
X145535148Y-92614852D01*
X145549500Y-92649500D01*
X145549500Y-92769748D01*
X145561133Y-92828231D01*
X145563815Y-92832245D01*
X145571202Y-92843300D01*
X145605448Y-92894552D01*
X145625107Y-92907688D01*
X145662356Y-92932577D01*
X145671769Y-92938867D01*
X145730252Y-92950500D01*
X146869748Y-92950500D01*
X146928231Y-92938867D01*
X146937645Y-92932577D01*
X146974893Y-92907688D01*
X146994552Y-92894552D01*
X147028798Y-92843300D01*
X147036185Y-92832245D01*
X147038867Y-92828231D01*
X147050500Y-92769748D01*
X147050500Y-92649500D01*
X147064852Y-92614852D01*
X147099500Y-92600500D01*
X156565021Y-92600500D01*
X156599669Y-92614852D01*
X156600939Y-92617919D01*
X156605150Y-92610626D01*
X156634979Y-92600500D01*
X158572390Y-92600500D01*
X158607038Y-92614852D01*
X160885148Y-94892962D01*
X160899500Y-94927610D01*
X160899500Y-96749201D01*
X160889374Y-96779030D01*
X160877420Y-96794609D01*
X160877418Y-96794613D01*
X160875464Y-96797159D01*
X160871560Y-96806584D01*
X160816184Y-96940272D01*
X160816183Y-96940276D01*
X160814956Y-96943238D01*
X160814537Y-96946419D01*
X160814537Y-96946420D01*
X160800966Y-97049500D01*
X160794318Y-97100000D01*
X160794737Y-97103183D01*
X160810544Y-97223246D01*
X160814956Y-97256762D01*
X160816183Y-97259724D01*
X160816184Y-97259728D01*
X160874235Y-97399875D01*
X160875464Y-97402841D01*
X160891131Y-97423259D01*
X160935833Y-97481515D01*
X160971718Y-97528282D01*
X160974267Y-97530238D01*
X161011881Y-97559100D01*
X161097159Y-97624536D01*
X161100122Y-97625763D01*
X161100125Y-97625765D01*
X161240272Y-97683816D01*
X161240276Y-97683817D01*
X161243238Y-97685044D01*
X161246419Y-97685463D01*
X161246420Y-97685463D01*
X161396817Y-97705263D01*
X161400000Y-97705682D01*
X161403183Y-97705263D01*
X161553580Y-97685463D01*
X161553581Y-97685463D01*
X161556762Y-97685044D01*
X161559724Y-97683817D01*
X161559728Y-97683816D01*
X161699875Y-97625765D01*
X161699878Y-97625763D01*
X161702841Y-97624536D01*
X161788119Y-97559100D01*
X161825733Y-97530238D01*
X161828282Y-97528282D01*
X161864168Y-97481515D01*
X161908869Y-97423259D01*
X161924536Y-97402841D01*
X161925765Y-97399875D01*
X161983816Y-97259728D01*
X161983817Y-97259724D01*
X161985044Y-97256762D01*
X161989457Y-97223246D01*
X162005263Y-97103183D01*
X162005682Y-97100000D01*
X161999034Y-97049500D01*
X161985463Y-96946420D01*
X161985463Y-96946419D01*
X161985044Y-96943238D01*
X161983817Y-96940276D01*
X161983816Y-96940272D01*
X161928440Y-96806584D01*
X161924536Y-96797159D01*
X161922582Y-96794613D01*
X161922580Y-96794609D01*
X161910626Y-96779030D01*
X161900500Y-96749201D01*
X161900500Y-94761575D01*
X161901708Y-94750761D01*
X161903248Y-94743954D01*
X161904018Y-94740552D01*
X161900594Y-94685360D01*
X161900500Y-94682326D01*
X161900500Y-94664060D01*
X161898612Y-94650874D01*
X161898213Y-94646980D01*
X161897271Y-94631783D01*
X161895141Y-94597462D01*
X161893957Y-94594183D01*
X161893956Y-94594177D01*
X161889919Y-94582994D01*
X161887503Y-94573304D01*
X161885818Y-94561538D01*
X161885818Y-94561537D01*
X161885323Y-94558082D01*
X161864788Y-94512917D01*
X161863305Y-94509274D01*
X161847647Y-94465900D01*
X161847646Y-94465898D01*
X161846460Y-94462613D01*
X161837391Y-94450199D01*
X161832353Y-94441577D01*
X161827430Y-94430750D01*
X161827427Y-94430745D01*
X161825984Y-94427572D01*
X161823709Y-94424932D01*
X161823708Y-94424930D01*
X161793594Y-94389982D01*
X161791162Y-94386920D01*
X161781478Y-94373664D01*
X161780427Y-94372613D01*
X166624268Y-94372613D01*
X166626006Y-94376809D01*
X166642982Y-94389143D01*
X166647409Y-94391699D01*
X166812672Y-94465278D01*
X166817523Y-94466854D01*
X166994474Y-94504467D01*
X166999547Y-94505000D01*
X167180453Y-94505000D01*
X167185526Y-94504467D01*
X167362477Y-94466854D01*
X167367328Y-94465278D01*
X167532591Y-94391699D01*
X167537018Y-94389143D01*
X167551885Y-94378342D01*
X167555783Y-94371981D01*
X167554722Y-94367565D01*
X167096893Y-93909736D01*
X167090000Y-93906881D01*
X167083107Y-93909736D01*
X166627123Y-94365720D01*
X166624268Y-94372613D01*
X161780427Y-94372613D01*
X161768713Y-94360899D01*
X161766240Y-94358236D01*
X161734680Y-94321609D01*
X161732400Y-94318963D01*
X161720753Y-94311414D01*
X161712761Y-94304947D01*
X161030364Y-93622550D01*
X166200393Y-93622550D01*
X166219303Y-93802464D01*
X166220364Y-93807455D01*
X166276266Y-93979503D01*
X166278344Y-93984171D01*
X166333734Y-94080110D01*
X166339651Y-94084650D01*
X166342940Y-94084217D01*
X166800264Y-93626893D01*
X166803119Y-93620000D01*
X167376881Y-93620000D01*
X167379736Y-93626893D01*
X167834500Y-94081657D01*
X167841393Y-94084512D01*
X167844457Y-94083243D01*
X167901656Y-93984171D01*
X167903734Y-93979503D01*
X167959636Y-93807455D01*
X167960697Y-93802464D01*
X167979607Y-93622550D01*
X167979607Y-93617450D01*
X167960697Y-93437536D01*
X167959636Y-93432545D01*
X167903734Y-93260497D01*
X167901656Y-93255829D01*
X167846266Y-93159890D01*
X167840349Y-93155350D01*
X167837060Y-93155783D01*
X167379736Y-93613107D01*
X167376881Y-93620000D01*
X166803119Y-93620000D01*
X166800264Y-93613107D01*
X166345500Y-93158343D01*
X166338607Y-93155488D01*
X166335543Y-93156757D01*
X166278344Y-93255829D01*
X166276266Y-93260497D01*
X166220364Y-93432545D01*
X166219303Y-93437536D01*
X166200393Y-93617450D01*
X166200393Y-93622550D01*
X161030364Y-93622550D01*
X160275833Y-92868019D01*
X166624219Y-92868019D01*
X166625279Y-92872436D01*
X167083107Y-93330264D01*
X167090000Y-93333119D01*
X167096893Y-93330264D01*
X167552877Y-92874280D01*
X167555732Y-92867387D01*
X167553994Y-92863191D01*
X167537018Y-92850857D01*
X167532591Y-92848301D01*
X167367328Y-92774722D01*
X167362477Y-92773146D01*
X167185526Y-92735533D01*
X167180453Y-92735000D01*
X166999547Y-92735000D01*
X166994474Y-92735533D01*
X166817523Y-92773146D01*
X166812672Y-92774722D01*
X166647412Y-92848300D01*
X166642980Y-92850859D01*
X166628116Y-92861659D01*
X166624219Y-92868019D01*
X160275833Y-92868019D01*
X159197450Y-91789636D01*
X159190657Y-91781135D01*
X159186931Y-91775230D01*
X159185070Y-91772280D01*
X159143619Y-91735672D01*
X159141407Y-91733593D01*
X159128494Y-91720680D01*
X159127103Y-91719637D01*
X159127092Y-91719628D01*
X159117842Y-91712696D01*
X159114792Y-91710213D01*
X159080231Y-91679690D01*
X159077612Y-91677377D01*
X159074452Y-91675893D01*
X159074450Y-91675892D01*
X159063689Y-91670840D01*
X159055135Y-91665700D01*
X159042824Y-91656474D01*
X159039558Y-91655250D01*
X159039557Y-91655249D01*
X158996371Y-91639059D01*
X158992748Y-91637532D01*
X158950996Y-91617930D01*
X158950995Y-91617930D01*
X158947837Y-91616447D01*
X158938682Y-91615022D01*
X158932642Y-91614081D01*
X158922982Y-91611546D01*
X158911852Y-91607374D01*
X158911848Y-91607373D01*
X158908580Y-91606148D01*
X158905103Y-91605890D01*
X158905100Y-91605889D01*
X158859103Y-91602471D01*
X158855198Y-91602023D01*
X158838991Y-91599500D01*
X158820929Y-91599500D01*
X158817298Y-91599365D01*
X158769095Y-91595783D01*
X158769094Y-91595783D01*
X158765608Y-91595524D01*
X158762188Y-91596254D01*
X158752041Y-91598420D01*
X158741812Y-91599500D01*
X147000514Y-91599500D01*
X146973291Y-91591242D01*
X146932245Y-91563815D01*
X146932244Y-91563815D01*
X146928231Y-91561133D01*
X146869748Y-91549500D01*
X145730252Y-91549500D01*
X145671769Y-91561133D01*
X145667756Y-91563815D01*
X145667755Y-91563815D01*
X145626709Y-91591242D01*
X145599486Y-91599500D01*
X139561589Y-91599500D01*
X139550772Y-91598291D01*
X139543981Y-91596754D01*
X139543982Y-91596754D01*
X139540575Y-91595983D01*
X139537091Y-91596199D01*
X139537090Y-91596199D01*
X139485367Y-91599406D01*
X139482335Y-91599500D01*
X139464060Y-91599500D01*
X139450890Y-91601386D01*
X139446991Y-91601785D01*
X139397484Y-91604855D01*
X139384467Y-91609554D01*
X139383008Y-91610080D01*
X139373320Y-91612495D01*
X139366140Y-91613523D01*
X139362244Y-91614081D01*
X139358082Y-91614677D01*
X139354903Y-91616122D01*
X139354904Y-91616122D01*
X139312921Y-91635210D01*
X139309276Y-91636693D01*
X139265921Y-91652342D01*
X139265920Y-91652343D01*
X139262633Y-91653529D01*
X139250200Y-91662611D01*
X139241583Y-91667646D01*
X139227572Y-91674016D01*
X139189990Y-91706399D01*
X139186918Y-91708838D01*
X139183247Y-91711520D01*
X139173681Y-91718508D01*
X139160898Y-91731290D01*
X139158249Y-91733749D01*
X139118963Y-91767600D01*
X139117064Y-91770530D01*
X139117063Y-91770531D01*
X139111423Y-91779232D01*
X139104953Y-91787229D01*
X138602433Y-92289705D01*
X138070644Y-92821446D01*
X138062145Y-92828236D01*
X138056232Y-92831967D01*
X138056230Y-92831969D01*
X138053280Y-92833830D01*
X138019184Y-92872436D01*
X138016678Y-92875274D01*
X138014615Y-92877470D01*
X138001694Y-92890390D01*
X138000649Y-92891785D01*
X138000644Y-92891790D01*
X137993705Y-92901048D01*
X137991233Y-92904085D01*
X137958377Y-92941288D01*
X137951845Y-92955201D01*
X137946704Y-92963755D01*
X137939579Y-92973260D01*
X137939577Y-92973263D01*
X137937484Y-92976056D01*
X137936258Y-92979327D01*
X137936257Y-92979328D01*
X137920060Y-93022530D01*
X137918534Y-93026150D01*
X137897447Y-93071063D01*
X137896910Y-93074510D01*
X137896910Y-93074511D01*
X137895083Y-93086246D01*
X137892547Y-93095909D01*
X137888380Y-93107022D01*
X137888379Y-93107028D01*
X137887153Y-93110297D01*
X137886894Y-93113782D01*
X137883473Y-93159785D01*
X137883025Y-93163689D01*
X137881571Y-93173030D01*
X137880500Y-93179909D01*
X137880500Y-93197953D01*
X137880365Y-93201585D01*
X137876522Y-93253269D01*
X137878065Y-93260497D01*
X137879421Y-93266851D01*
X137880500Y-93277079D01*
X137880500Y-96400990D01*
X137866148Y-96435638D01*
X137745146Y-96556640D01*
X137716894Y-96570573D01*
X137697420Y-96573137D01*
X137694238Y-96573556D01*
X137691276Y-96574783D01*
X137691272Y-96574784D01*
X137580002Y-96620874D01*
X137548159Y-96634064D01*
X137545613Y-96636018D01*
X137545609Y-96636020D01*
X137530030Y-96647974D01*
X137500201Y-96658100D01*
X136918503Y-96658100D01*
X136908943Y-96657158D01*
X136889548Y-96653300D01*
X134640252Y-96653300D01*
X134581769Y-96664933D01*
X134577757Y-96667614D01*
X134577754Y-96667615D01*
X134557823Y-96680933D01*
X134521040Y-96688249D01*
X134489858Y-96667414D01*
X134481600Y-96640191D01*
X134481600Y-96533954D01*
X134480489Y-96524613D01*
X134478916Y-96511400D01*
X134478916Y-96511399D01*
X134478482Y-96507754D01*
X134476992Y-96504399D01*
X134476991Y-96504396D01*
X134434876Y-96409582D01*
X134434875Y-96409581D01*
X134433039Y-96405447D01*
X134429838Y-96402252D01*
X134429837Y-96402250D01*
X134411733Y-96384178D01*
X134397351Y-96349543D01*
X134411673Y-96314882D01*
X134446351Y-96300500D01*
X134464232Y-96300500D01*
X134498880Y-96314852D01*
X134504974Y-96322277D01*
X134515448Y-96337952D01*
X134581769Y-96382267D01*
X134640252Y-96393900D01*
X136889548Y-96393900D01*
X136948031Y-96382267D01*
X137014352Y-96337952D01*
X137058667Y-96271631D01*
X137070300Y-96213148D01*
X137070300Y-95564052D01*
X137058667Y-95505569D01*
X137051572Y-95494950D01*
X137031034Y-95464214D01*
X137014352Y-95439248D01*
X136959395Y-95402526D01*
X136952045Y-95397615D01*
X136948031Y-95394933D01*
X136889548Y-95383300D01*
X134640252Y-95383300D01*
X134581769Y-95394933D01*
X134577755Y-95397615D01*
X134570405Y-95402526D01*
X134515448Y-95439248D01*
X134489739Y-95477724D01*
X134458556Y-95498559D01*
X134448997Y-95499500D01*
X132563822Y-95499500D01*
X132535087Y-95490190D01*
X132517869Y-95477724D01*
X132349764Y-95356020D01*
X132316858Y-95332197D01*
X132313934Y-95329906D01*
X132077847Y-95130055D01*
X132075105Y-95127550D01*
X132070925Y-95123429D01*
X131888066Y-94943148D01*
X134459500Y-94943148D01*
X134471133Y-95001631D01*
X134515448Y-95067952D01*
X134581769Y-95112267D01*
X134640252Y-95123900D01*
X136773425Y-95123900D01*
X136803252Y-95134024D01*
X136828159Y-95153136D01*
X136831122Y-95154363D01*
X136831125Y-95154365D01*
X136971272Y-95212416D01*
X136971276Y-95212417D01*
X136974238Y-95213644D01*
X136977419Y-95214063D01*
X136977420Y-95214063D01*
X137127817Y-95233863D01*
X137131000Y-95234282D01*
X137134183Y-95233863D01*
X137284580Y-95214063D01*
X137284581Y-95214063D01*
X137287762Y-95213644D01*
X137290724Y-95212417D01*
X137290728Y-95212416D01*
X137430875Y-95154365D01*
X137430878Y-95154363D01*
X137433841Y-95153136D01*
X137559282Y-95056882D01*
X137655536Y-94931441D01*
X137657123Y-94927610D01*
X137714816Y-94788328D01*
X137714817Y-94788324D01*
X137716044Y-94785362D01*
X137721496Y-94743954D01*
X137736263Y-94631783D01*
X137736682Y-94628600D01*
X137716044Y-94471838D01*
X137714817Y-94468876D01*
X137714816Y-94468872D01*
X137656765Y-94328725D01*
X137656763Y-94328722D01*
X137655536Y-94325759D01*
X137559282Y-94200318D01*
X137551471Y-94194324D01*
X137447027Y-94114182D01*
X137433841Y-94104064D01*
X137430878Y-94102837D01*
X137430875Y-94102835D01*
X137290728Y-94044784D01*
X137290724Y-94044783D01*
X137287762Y-94043556D01*
X137284581Y-94043137D01*
X137284580Y-94043137D01*
X137134183Y-94023337D01*
X137131000Y-94022918D01*
X137127817Y-94023337D01*
X136977420Y-94043137D01*
X136977419Y-94043137D01*
X136974238Y-94043556D01*
X136971276Y-94044783D01*
X136971272Y-94044784D01*
X136832659Y-94102200D01*
X136828159Y-94104064D01*
X136825612Y-94106019D01*
X136824369Y-94106736D01*
X136799870Y-94113300D01*
X134640252Y-94113300D01*
X134581769Y-94124933D01*
X134577755Y-94127615D01*
X134567420Y-94134521D01*
X134515448Y-94169248D01*
X134471133Y-94235569D01*
X134459500Y-94294052D01*
X134459500Y-94943148D01*
X131888066Y-94943148D01*
X131854823Y-94910374D01*
X131852309Y-94907701D01*
X131799185Y-94846722D01*
X131731765Y-94769333D01*
X131719711Y-94737272D01*
X131716965Y-93673148D01*
X134459500Y-93673148D01*
X134471133Y-93731631D01*
X134515448Y-93797952D01*
X134581769Y-93842267D01*
X134640252Y-93853900D01*
X136889548Y-93853900D01*
X136948031Y-93842267D01*
X137014352Y-93797952D01*
X137058667Y-93731631D01*
X137070300Y-93673148D01*
X137070300Y-93024052D01*
X137058667Y-92965569D01*
X137054772Y-92959739D01*
X137020770Y-92908853D01*
X137014352Y-92899248D01*
X136967059Y-92867647D01*
X136952045Y-92857615D01*
X136948031Y-92854933D01*
X136889548Y-92843300D01*
X134640252Y-92843300D01*
X134581769Y-92854933D01*
X134577755Y-92857615D01*
X134562741Y-92867647D01*
X134515448Y-92899248D01*
X134509030Y-92908853D01*
X134475029Y-92959739D01*
X134471133Y-92965569D01*
X134459500Y-93024052D01*
X134459500Y-93673148D01*
X131716965Y-93673148D01*
X131707393Y-89964440D01*
X167394963Y-89964440D01*
X167396169Y-89985347D01*
X167408694Y-90202562D01*
X167409137Y-90204526D01*
X167409137Y-90204529D01*
X167432360Y-90307577D01*
X167461131Y-90435245D01*
X167550867Y-90656239D01*
X167551917Y-90657952D01*
X167669279Y-90849468D01*
X167675493Y-90859609D01*
X167701492Y-90889623D01*
X167830348Y-91038380D01*
X167830352Y-91038383D01*
X167831660Y-91039894D01*
X168015176Y-91192252D01*
X168016906Y-91193263D01*
X168016909Y-91193265D01*
X168112715Y-91249249D01*
X168221112Y-91312591D01*
X168443937Y-91397680D01*
X168445910Y-91398081D01*
X168445912Y-91398082D01*
X168675694Y-91444832D01*
X168675697Y-91444832D01*
X168677666Y-91445233D01*
X168679672Y-91445307D01*
X168679676Y-91445307D01*
X168834993Y-91451002D01*
X168916025Y-91453973D01*
X169152609Y-91423665D01*
X169381068Y-91355125D01*
X169382877Y-91354239D01*
X169593458Y-91251076D01*
X169593460Y-91251075D01*
X169595264Y-91250191D01*
X169598722Y-91247725D01*
X169787809Y-91112850D01*
X169789445Y-91111683D01*
X169801479Y-91099691D01*
X169956973Y-90944740D01*
X169956978Y-90944734D01*
X169958397Y-90943320D01*
X169959569Y-90941688D01*
X169959574Y-90941683D01*
X170096406Y-90751260D01*
X170096408Y-90751257D01*
X170097582Y-90749623D01*
X170203263Y-90535795D01*
X170272600Y-90307577D01*
X170303733Y-90071099D01*
X170305471Y-90000000D01*
X170285927Y-89762284D01*
X170257217Y-89647983D01*
X170228311Y-89532902D01*
X170228310Y-89532900D01*
X170227821Y-89530952D01*
X170132712Y-89312216D01*
X170101656Y-89264211D01*
X170004247Y-89113638D01*
X170004243Y-89113633D01*
X170003155Y-89111951D01*
X169842629Y-88935536D01*
X169841056Y-88934294D01*
X169841052Y-88934290D01*
X169657024Y-88788954D01*
X169655445Y-88787707D01*
X169648135Y-88783672D01*
X169448391Y-88673407D01*
X169448385Y-88673405D01*
X169446631Y-88672436D01*
X169221794Y-88592817D01*
X169219821Y-88592466D01*
X169219819Y-88592465D01*
X168988950Y-88551340D01*
X168988946Y-88551340D01*
X168986972Y-88550988D01*
X168984964Y-88550963D01*
X168984959Y-88550963D01*
X168858166Y-88549414D01*
X168748471Y-88548074D01*
X168746479Y-88548379D01*
X168746477Y-88548379D01*
X168630584Y-88566114D01*
X168512698Y-88584153D01*
X168285982Y-88658255D01*
X168074414Y-88768390D01*
X168072806Y-88769598D01*
X168072805Y-88769598D01*
X168003419Y-88821695D01*
X167883675Y-88911602D01*
X167882281Y-88913061D01*
X167720275Y-89082589D01*
X167720272Y-89082593D01*
X167718887Y-89084042D01*
X167717759Y-89085695D01*
X167717757Y-89085698D01*
X167595984Y-89264211D01*
X167584475Y-89281082D01*
X167583630Y-89282903D01*
X167583628Y-89282906D01*
X167484899Y-89495600D01*
X167484897Y-89495605D01*
X167484051Y-89497428D01*
X167420309Y-89727272D01*
X167394963Y-89964440D01*
X131707393Y-89964440D01*
X131705419Y-89199626D01*
X131719681Y-89164941D01*
X131754419Y-89150500D01*
X132821462Y-89150500D01*
X132832517Y-89151763D01*
X132846627Y-89155031D01*
X132846630Y-89155031D01*
X132849323Y-89155655D01*
X132850041Y-89155656D01*
X132860648Y-89153234D01*
X132866744Y-89152242D01*
X132886875Y-89150256D01*
X132987345Y-89140342D01*
X133119370Y-89100275D01*
X133241045Y-89035227D01*
X133347696Y-88947696D01*
X133435227Y-88841045D01*
X133500275Y-88719370D01*
X133540342Y-88587345D01*
X133552149Y-88467692D01*
X133553179Y-88461435D01*
X133555028Y-88453464D01*
X133555028Y-88453460D01*
X133555655Y-88450759D01*
X133555656Y-88450041D01*
X133551725Y-88432792D01*
X133550500Y-88421904D01*
X133550500Y-88278317D01*
X133551744Y-88267346D01*
X133551768Y-88267240D01*
X133555656Y-88250318D01*
X133554437Y-88244934D01*
X133554445Y-88239419D01*
X133554452Y-88239419D01*
X133554058Y-88227470D01*
X133554113Y-88227127D01*
X133563930Y-88165080D01*
X133568667Y-88150496D01*
X133604150Y-88080843D01*
X133613163Y-88068437D01*
X133668437Y-88013163D01*
X133680843Y-88004150D01*
X133750496Y-87968667D01*
X133765080Y-87963930D01*
X133827086Y-87954119D01*
X133838706Y-87954522D01*
X133838706Y-87954407D01*
X133844221Y-87954418D01*
X133849600Y-87955656D01*
X133854983Y-87954439D01*
X133855125Y-87954407D01*
X133867073Y-87951706D01*
X133877877Y-87950500D01*
X170121657Y-87950500D01*
X170132638Y-87951746D01*
G37*
%TD.AperFunction*%
M02*
