%TF.GenerationSoftware,KiCad,Pcbnew,(6.0.7)*%
%TF.CreationDate,2022-08-24T15:08:17+02:00*%
%TF.ProjectId,diff-probe,64696666-2d70-4726-9f62-652e6b696361,rev?*%
%TF.SameCoordinates,Original*%
%TF.FileFunction,Paste,Top*%
%TF.FilePolarity,Positive*%
%FSLAX46Y46*%
G04 Gerber Fmt 4.6, Leading zero omitted, Abs format (unit mm)*
G04 Created by KiCad (PCBNEW (6.0.7)) date 2022-08-24 15:08:17*
%MOMM*%
%LPD*%
G01*
G04 APERTURE LIST*
G04 Aperture macros list*
%AMRoundRect*
0 Rectangle with rounded corners*
0 $1 Rounding radius*
0 $2 $3 $4 $5 $6 $7 $8 $9 X,Y pos of 4 corners*
0 Add a 4 corners polygon primitive as box body*
4,1,4,$2,$3,$4,$5,$6,$7,$8,$9,$2,$3,0*
0 Add four circle primitives for the rounded corners*
1,1,$1+$1,$2,$3*
1,1,$1+$1,$4,$5*
1,1,$1+$1,$6,$7*
1,1,$1+$1,$8,$9*
0 Add four rect primitives between the rounded corners*
20,1,$1+$1,$2,$3,$4,$5,0*
20,1,$1+$1,$4,$5,$6,$7,0*
20,1,$1+$1,$6,$7,$8,$9,0*
20,1,$1+$1,$8,$9,$2,$3,0*%
G04 Aperture macros list end*
%ADD10RoundRect,0.100000X0.000000X-0.424264X0.424264X0.000000X0.000000X0.424264X-0.424264X0.000000X0*%
%ADD11RoundRect,0.100000X0.000000X0.424264X-0.424264X0.000000X0.000000X-0.424264X0.424264X0.000000X0*%
%ADD12R,3.000000X1.000000*%
%ADD13RoundRect,0.100000X-0.300000X-0.300000X0.300000X-0.300000X0.300000X0.300000X-0.300000X0.300000X0*%
%ADD14RoundRect,0.100000X0.300000X0.300000X-0.300000X0.300000X-0.300000X-0.300000X0.300000X-0.300000X0*%
%ADD15RoundRect,0.100000X-0.424264X0.000000X0.000000X-0.424264X0.424264X0.000000X0.000000X0.424264X0*%
%ADD16RoundRect,0.100000X0.424264X0.000000X0.000000X0.424264X-0.424264X0.000000X0.000000X-0.424264X0*%
%ADD17R,2.209800X0.609600*%
%ADD18RoundRect,0.100000X0.300000X-0.300000X0.300000X0.300000X-0.300000X0.300000X-0.300000X-0.300000X0*%
%ADD19RoundRect,0.100000X-0.300000X0.300000X-0.300000X-0.300000X0.300000X-0.300000X0.300000X0.300000X0*%
%ADD20R,5.080000X1.500000*%
%ADD21R,5.080000X2.420000*%
%ADD22R,1.100000X1.000000*%
%ADD23R,1.000000X1.100000*%
G04 APERTURE END LIST*
D10*
%TO.C,R28*%
X129436008Y-96740242D03*
D11*
X130319892Y-95856358D03*
%TD*%
D12*
%TO.C,J3*%
X126679050Y-99300000D03*
X126679050Y-96760000D03*
%TD*%
D13*
%TO.C,C19*%
X132631100Y-96878600D03*
D14*
X133881100Y-96878600D03*
%TD*%
D13*
%TO.C,C20*%
X132631100Y-98128600D03*
D14*
X133881100Y-98128600D03*
%TD*%
%TO.C,C24*%
X151575000Y-101878600D03*
D13*
X150325000Y-101878600D03*
%TD*%
D15*
%TO.C,R20*%
X129536008Y-99284458D03*
D16*
X130419892Y-100168342D03*
%TD*%
D17*
%TO.C,IC3*%
X135764900Y-98598600D03*
X135764900Y-99868600D03*
X135764900Y-101138600D03*
X135764900Y-102408600D03*
X140997300Y-102408600D03*
X140997300Y-101138600D03*
X140997300Y-99868600D03*
X140997300Y-98598600D03*
%TD*%
D13*
%TO.C,R26*%
X144131100Y-102378600D03*
D14*
X145381100Y-102378600D03*
%TD*%
D13*
%TO.C,R30*%
X153275000Y-99200000D03*
D14*
X154525000Y-99200000D03*
%TD*%
D13*
%TO.C,C22*%
X132631100Y-103128600D03*
D14*
X133881100Y-103128600D03*
%TD*%
D13*
%TO.C,C18*%
X153275000Y-97753600D03*
D14*
X154525000Y-97753600D03*
%TD*%
D13*
%TO.C,C17*%
X153275000Y-96300000D03*
D14*
X154525000Y-96300000D03*
%TD*%
D18*
%TO.C,C16*%
X142881100Y-99878600D03*
D19*
X142881100Y-98628600D03*
%TD*%
D13*
%TO.C,R22*%
X142881100Y-101128600D03*
D14*
X144131100Y-101128600D03*
%TD*%
D13*
%TO.C,C21*%
X132631100Y-101878600D03*
D14*
X133881100Y-101878600D03*
%TD*%
D18*
%TO.C,C13*%
X142881100Y-94628600D03*
D19*
X142881100Y-93378600D03*
%TD*%
D17*
%TO.C,IC5*%
X135764900Y-93348600D03*
X135764900Y-94618600D03*
X135764900Y-95888600D03*
X135764900Y-97158600D03*
X140997300Y-97158600D03*
X140997300Y-95888600D03*
X140997300Y-94618600D03*
X140997300Y-93348600D03*
%TD*%
D18*
%TO.C,C14*%
X144131100Y-94628600D03*
D19*
X144131100Y-93378600D03*
%TD*%
D20*
%TO.C,X2*%
X170530000Y-98000000D03*
D21*
X170530000Y-102380000D03*
X170530000Y-93620000D03*
%TD*%
D22*
%TO.C,C54*%
X146300000Y-93950000D03*
X146300000Y-92250000D03*
%TD*%
D23*
%TO.C,C52*%
X153250000Y-94600000D03*
X154950000Y-94600000D03*
%TD*%
D17*
%TO.C,IC4*%
X146014900Y-96598600D03*
X146014900Y-97868600D03*
X146014900Y-99138600D03*
X146014900Y-100408600D03*
X151247300Y-100408600D03*
X151247300Y-99138600D03*
X151247300Y-97868600D03*
X151247300Y-96598600D03*
%TD*%
D18*
%TO.C,C15*%
X144131100Y-99128600D03*
D19*
X144131100Y-97878600D03*
%TD*%
D13*
%TO.C,C23*%
X147825000Y-101878600D03*
D14*
X149075000Y-101878600D03*
%TD*%
D13*
%TO.C,R32*%
X142881100Y-95878600D03*
D14*
X144131100Y-95878600D03*
%TD*%
M02*
