M48
INCH
T1C0.0157
T2C0.0181
%
G90
G05
T1
X5.2087Y-3.6142
X5.2175Y-3.7224
X5.2205Y-3.9213
X5.2205Y-4.1339
X5.2217Y-3.8387
X5.2217Y-4.0356
X5.2431Y-3.6703
X5.2638Y-3.6142
X5.2638Y-3.7402
X5.2638Y-3.9213
X5.2717Y-4.1339
X5.3386Y-4.0945
X5.3425Y-3.6142
X5.3465Y-3.5354
X5.3939Y-3.9322
X5.3989Y-3.7255
X5.4213Y-3.6142
X5.4272Y-3.8251
X5.4528Y-4.0315
X5.4579Y-3.9318
X5.4973Y-3.7747
X5.4973Y-3.9815
X5.5472Y-3.5354
X5.5472Y-4.1732
X5.6252Y-3.8584
X5.6299Y-4.0315
X5.6498Y-3.6763
X5.6535Y-3.8346
X5.7244Y-3.752
X5.752Y-3.5354
X5.752Y-4.1732
X5.7559Y-4.0433
X5.7913Y-3.7008
X5.7953Y-4.011
X5.7975Y-3.8535
X5.8504Y-3.811
X5.8661Y-3.685
X5.9008Y-3.9027
X5.937Y-3.5354
X5.937Y-4.1732
X5.9567Y-3.6772
X5.9921Y-4.011
X6.0354Y-3.9449
X6.0433Y-4.1024
X6.1081Y-3.8486
X6.1102Y-3.7913
X6.126Y-3.7244
X6.1496Y-3.5354
X6.1496Y-4.1732
X6.1654Y-3.6732
X6.248Y-4.0787
X6.3307Y-3.9843
X6.3543Y-3.8228
X6.3622Y-3.5354
X6.3661Y-4.1732
X6.4055Y-3.8858
X6.4094Y-3.9843
X6.4567Y-3.7441
X6.4685Y-3.8465
X6.4921Y-3.9449
X6.5394Y-3.5354
X6.5512Y-3.815
X6.5512Y-3.9094
X6.563Y-4.1732
T2
X6.5783Y-3.6858
X6.5783Y-4.0307
T0
M30
