%TF.GenerationSoftware,KiCad,Pcbnew,(6.0.7)*%
%TF.CreationDate,2022-08-24T15:08:17+02:00*%
%TF.ProjectId,diff-probe,64696666-2d70-4726-9f62-652e6b696361,rev?*%
%TF.SameCoordinates,Original*%
%TF.FileFunction,Copper,L2,Bot*%
%TF.FilePolarity,Positive*%
%FSLAX46Y46*%
G04 Gerber Fmt 4.6, Leading zero omitted, Abs format (unit mm)*
G04 Created by KiCad (PCBNEW (6.0.7)) date 2022-08-24 15:08:17*
%MOMM*%
%LPD*%
G01*
G04 APERTURE LIST*
G04 Aperture macros list*
%AMRoundRect*
0 Rectangle with rounded corners*
0 $1 Rounding radius*
0 $2 $3 $4 $5 $6 $7 $8 $9 X,Y pos of 4 corners*
0 Add a 4 corners polygon primitive as box body*
4,1,4,$2,$3,$4,$5,$6,$7,$8,$9,$2,$3,0*
0 Add four circle primitives for the rounded corners*
1,1,$1+$1,$2,$3*
1,1,$1+$1,$4,$5*
1,1,$1+$1,$6,$7*
1,1,$1+$1,$8,$9*
0 Add four rect primitives between the rounded corners*
20,1,$1+$1,$2,$3,$4,$5,0*
20,1,$1+$1,$4,$5,$6,$7,0*
20,1,$1+$1,$6,$7,$8,$9,0*
20,1,$1+$1,$8,$9,$2,$3,0*%
G04 Aperture macros list end*
%TA.AperFunction,SMDPad,CuDef*%
%ADD10R,5.080000X2.420000*%
%TD*%
%TA.AperFunction,SMDPad,CuDef*%
%ADD11R,0.950000X0.460000*%
%TD*%
%TA.AperFunction,ComponentPad*%
%ADD12C,0.970000*%
%TD*%
%TA.AperFunction,SMDPad,CuDef*%
%ADD13RoundRect,0.100000X-0.300000X0.300000X-0.300000X-0.300000X0.300000X-0.300000X0.300000X0.300000X0*%
%TD*%
%TA.AperFunction,SMDPad,CuDef*%
%ADD14RoundRect,0.100000X0.300000X-0.300000X0.300000X0.300000X-0.300000X0.300000X-0.300000X-0.300000X0*%
%TD*%
%TA.AperFunction,SMDPad,CuDef*%
%ADD15RoundRect,0.250000X-1.100000X0.250000X-1.100000X-0.250000X1.100000X-0.250000X1.100000X0.250000X0*%
%TD*%
%TA.AperFunction,SMDPad,CuDef*%
%ADD16RoundRect,0.250000X-1.650000X0.650000X-1.650000X-0.650000X1.650000X-0.650000X1.650000X0.650000X0*%
%TD*%
%TA.AperFunction,SMDPad,CuDef*%
%ADD17RoundRect,0.100000X-0.300000X-0.300000X0.300000X-0.300000X0.300000X0.300000X-0.300000X0.300000X0*%
%TD*%
%TA.AperFunction,SMDPad,CuDef*%
%ADD18RoundRect,0.100000X0.300000X0.300000X-0.300000X0.300000X-0.300000X-0.300000X0.300000X-0.300000X0*%
%TD*%
%TA.AperFunction,ViaPad*%
%ADD19C,0.800000*%
%TD*%
%TA.AperFunction,Conductor*%
%ADD20C,0.250000*%
%TD*%
%TA.AperFunction,Conductor*%
%ADD21C,0.254000*%
%TD*%
%TA.AperFunction,Conductor*%
%ADD22C,0.600000*%
%TD*%
%TA.AperFunction,Conductor*%
%ADD23C,0.400000*%
%TD*%
%TA.AperFunction,Conductor*%
%ADD24C,0.200000*%
%TD*%
G04 APERTURE END LIST*
D10*
%TO.P,X2,2,2*%
%TO.N,GND*%
X170530000Y-93620000D03*
D11*
X167540000Y-93620000D03*
D10*
X170530000Y-102380000D03*
D11*
X167540000Y-102380000D03*
D12*
X167090000Y-102380000D03*
X167090000Y-93620000D03*
%TD*%
D13*
%TO.P,C1,P$1,1*%
%TO.N,/offset*%
X154500000Y-100975000D03*
D14*
%TO.P,C1,P$2,2*%
%TO.N,GND*%
X154500000Y-102225000D03*
%TD*%
D15*
%TO.P,J4,1,Pin_1*%
%TO.N,V+*%
X158150000Y-95000000D03*
%TO.P,J4,2,Pin_2*%
%TO.N,GND*%
X158150000Y-97000000D03*
%TO.P,J4,3,Pin_3*%
%TO.N,V-*%
X158150000Y-99000000D03*
%TO.P,J4,4,Pin_4*%
%TO.N,/offset*%
X158150000Y-101000000D03*
D16*
%TO.P,J4,MP*%
%TO.N,N/C*%
X162600000Y-103350000D03*
X162600000Y-92650000D03*
%TD*%
D17*
%TO.P,R27,P$1,1*%
%TO.N,Net-(IC3-Pad2)*%
X137756100Y-101128600D03*
D18*
%TO.P,R27,P$2,2*%
%TO.N,/PosIn1*%
X139006100Y-101128600D03*
%TD*%
D17*
%TO.P,R37,P$1,1*%
%TO.N,Net-(IC5-Pad2)*%
X137756100Y-95878600D03*
D18*
%TO.P,R37,P$2,2*%
%TO.N,/NegIn1*%
X139006100Y-95878600D03*
%TD*%
D17*
%TO.P,R38,P$1,1*%
%TO.N,/NEGMID*%
X148006100Y-98503600D03*
D18*
%TO.P,R38,P$2,2*%
%TO.N,/OUT*%
X149256100Y-98503600D03*
%TD*%
D19*
%TO.N,Net-(IC3-Pad2)*%
X137006000Y-99878600D03*
%TO.N,GND*%
X140900000Y-106000000D03*
X150800000Y-89800000D03*
X133700000Y-95000000D03*
X143506000Y-93378600D03*
X164000000Y-95100000D03*
X147100000Y-94000000D03*
X132600000Y-99600000D03*
X151300000Y-93400000D03*
X133175000Y-93225000D03*
X166400000Y-96900000D03*
X147200000Y-101879000D03*
X135700000Y-91800000D03*
X132631000Y-102504000D03*
X143600000Y-97400000D03*
X132631000Y-97503600D03*
X152200000Y-101879000D03*
X138500000Y-102400000D03*
X156200000Y-106000000D03*
X146100000Y-89800000D03*
X132300000Y-91800000D03*
X133700000Y-99600000D03*
X153300000Y-100200000D03*
X164900000Y-100200000D03*
X153500000Y-104200000D03*
X132525000Y-94550000D03*
X137700000Y-91800000D03*
X155600000Y-94600000D03*
X161600000Y-89800000D03*
X164300000Y-97700000D03*
X150800000Y-106000000D03*
X133700000Y-91800000D03*
X135800000Y-89800000D03*
X166700000Y-106000000D03*
X140900000Y-89800000D03*
X161700000Y-106000000D03*
X142881000Y-98003600D03*
X148600000Y-96800000D03*
X149000000Y-93600000D03*
X166100000Y-89800000D03*
X143000000Y-102400000D03*
X166400000Y-99300000D03*
X156200000Y-89800000D03*
X155200000Y-96300000D03*
X155146000Y-97753600D03*
X162700000Y-98700000D03*
X160800000Y-101200000D03*
X132600000Y-105000000D03*
X162800000Y-101200000D03*
X146100000Y-106000000D03*
X133900000Y-105000000D03*
X158700000Y-103600000D03*
%TO.N,V+*%
X138631000Y-99868600D03*
X145400000Y-95300000D03*
X156600000Y-93300000D03*
%TO.N,V-*%
X135600000Y-104000000D03*
X137851000Y-97158600D03*
X161400000Y-97100000D03*
%TO.N,/NEGMID*%
X147256000Y-97878600D03*
%TO.N,/OUT*%
X149881000Y-99128600D03*
%TO.N,Net-(IC5-Pad2)*%
X137131000Y-94628600D03*
%TO.N,/PosIn1*%
X139631000Y-101129000D03*
%TO.N,/NegIn1*%
X139631000Y-95878600D03*
%TO.N,/offset*%
X146200000Y-102700000D03*
%TD*%
D20*
%TO.N,Net-(IC3-Pad2)*%
X137756100Y-101128600D02*
X137756000Y-101128700D01*
X137729000Y-100601000D02*
X137006000Y-99878600D01*
X137729000Y-101129000D02*
X137729000Y-100601000D01*
X137756000Y-101128700D02*
X137756000Y-101129000D01*
X137756000Y-101129000D02*
X137729000Y-101129000D01*
D21*
%TO.N,GND*%
X170501000Y-102254000D02*
X171251000Y-102754000D01*
X171251000Y-93253600D02*
X170501000Y-93753600D01*
X170501000Y-92753600D02*
X171251000Y-93253600D01*
X171251000Y-102754000D02*
X170501000Y-103254000D01*
D22*
%TO.N,V+*%
X158150000Y-95000000D02*
X157900000Y-94750000D01*
X141800000Y-95900000D02*
X138631000Y-99068600D01*
X145400000Y-95300000D02*
X144800000Y-95900000D01*
X157900000Y-93300000D02*
X156600000Y-93300000D01*
X138631000Y-99068600D02*
X138631000Y-99868600D01*
X157900000Y-94750000D02*
X157900000Y-93300000D01*
X144800000Y-95900000D02*
X141800000Y-95900000D01*
%TO.N,V-*%
X160700000Y-99000000D02*
X161400000Y-98300000D01*
X135600000Y-99500000D02*
X135600000Y-104000000D01*
X137851000Y-97158600D02*
X137851000Y-97248900D01*
X161400000Y-98300000D02*
X161400000Y-97100000D01*
X158150000Y-99000000D02*
X160700000Y-99000000D01*
X137851000Y-97248900D02*
X135600000Y-99500000D01*
D20*
%TO.N,/NEGMID*%
X148006100Y-98503600D02*
X148006000Y-98503600D01*
D21*
X147381000Y-97878600D02*
X148006000Y-98503600D01*
X147256000Y-97878600D02*
X147381000Y-97878600D01*
D23*
%TO.N,/OUT*%
X149256000Y-98503600D02*
X149256100Y-98503600D01*
X149256000Y-98503700D02*
X149256000Y-98503600D01*
X149881000Y-99128600D02*
X149256000Y-98503700D01*
X149256000Y-98503700D02*
X149256000Y-98503600D01*
D21*
%TO.N,Net-(IC5-Pad2)*%
X137131000Y-94628600D02*
X137756000Y-95253600D01*
X137756000Y-95253600D02*
X137756000Y-95878600D01*
D20*
X137756100Y-95878600D02*
X137756000Y-95878600D01*
D21*
%TO.N,/PosIn1*%
X139006000Y-101129000D02*
X139006500Y-101129000D01*
X139006500Y-101129000D02*
X139631000Y-101129000D01*
D20*
X139006500Y-101129000D02*
X139006100Y-101128600D01*
D21*
%TO.N,/NegIn1*%
X139631000Y-95878600D02*
X139006100Y-95878600D01*
D20*
%TO.N,/offset*%
X146200000Y-102400000D02*
X146200000Y-102700000D01*
D22*
X154525000Y-100975000D02*
X158125000Y-100975000D01*
X154525000Y-100975000D02*
X154600000Y-100900000D01*
D24*
X154600000Y-100900000D02*
X146700000Y-100900000D01*
D22*
X158125000Y-100975000D02*
X158150000Y-101000000D01*
D24*
X146200000Y-101400000D02*
X146200000Y-102400000D01*
X146700000Y-100900000D02*
X146200000Y-101400000D01*
D22*
X154500000Y-100975000D02*
X154525000Y-100975000D01*
%TD*%
%TA.AperFunction,NonConductor*%
G36*
X170132638Y-87951746D02*
G01*
X170144265Y-87954420D01*
X170144266Y-87954420D01*
X170149641Y-87955656D01*
X170155022Y-87954439D01*
X170160539Y-87954448D01*
X170160539Y-87954454D01*
X170172486Y-87954062D01*
X170234890Y-87963946D01*
X170249466Y-87968682D01*
X170277451Y-87982941D01*
X170319126Y-88004175D01*
X170331529Y-88013186D01*
X170386814Y-88068471D01*
X170395824Y-88080873D01*
X170431299Y-88150496D01*
X170431317Y-88150532D01*
X170436055Y-88165112D01*
X170445877Y-88227127D01*
X170445476Y-88238747D01*
X170445590Y-88238747D01*
X170445581Y-88244263D01*
X170444344Y-88249641D01*
X170448292Y-88267087D01*
X170449500Y-88277902D01*
X170449500Y-90721657D01*
X170448254Y-90732637D01*
X170444344Y-90749641D01*
X170446583Y-90759537D01*
X170446737Y-90760217D01*
X170447709Y-90766228D01*
X170457353Y-90864140D01*
X170459636Y-90887322D01*
X170499691Y-91019367D01*
X170500823Y-91021486D01*
X170500824Y-91021487D01*
X170548279Y-91110267D01*
X170564738Y-91141060D01*
X170652275Y-91247725D01*
X170758940Y-91335262D01*
X170761059Y-91336395D01*
X170761061Y-91336396D01*
X170878513Y-91399176D01*
X170880633Y-91400309D01*
X171012678Y-91440364D01*
X171015066Y-91440599D01*
X171015070Y-91440600D01*
X171076170Y-91446617D01*
X171132346Y-91452150D01*
X171138595Y-91453177D01*
X171149282Y-91455655D01*
X171150000Y-91455656D01*
X171167224Y-91451727D01*
X171178122Y-91450500D01*
X173321657Y-91450500D01*
X173332638Y-91451746D01*
X173344265Y-91454420D01*
X173344266Y-91454420D01*
X173349641Y-91455656D01*
X173355022Y-91454439D01*
X173360539Y-91454448D01*
X173360539Y-91454454D01*
X173372486Y-91454062D01*
X173434890Y-91463946D01*
X173449466Y-91468682D01*
X173519126Y-91504175D01*
X173531529Y-91513186D01*
X173586814Y-91568471D01*
X173595824Y-91580873D01*
X173612030Y-91612678D01*
X173631317Y-91650532D01*
X173636055Y-91665112D01*
X173645877Y-91727127D01*
X173645476Y-91738747D01*
X173645590Y-91738747D01*
X173645581Y-91744263D01*
X173644344Y-91749641D01*
X173648292Y-91767087D01*
X173649500Y-91777902D01*
X173649500Y-104221634D01*
X173648253Y-104232617D01*
X173644344Y-104249600D01*
X173645561Y-104254983D01*
X173645550Y-104260501D01*
X173645545Y-104260501D01*
X173645934Y-104272451D01*
X173636040Y-104334853D01*
X173631302Y-104349429D01*
X173595797Y-104419097D01*
X173586788Y-104431496D01*
X173531496Y-104486788D01*
X173519097Y-104495797D01*
X173449429Y-104531302D01*
X173434853Y-104536040D01*
X173372835Y-104545873D01*
X173361216Y-104545474D01*
X173361216Y-104545588D01*
X173355696Y-104545580D01*
X173350318Y-104544344D01*
X173344936Y-104545563D01*
X173344935Y-104545563D01*
X173339629Y-104546765D01*
X173333153Y-104548232D01*
X173332901Y-104548289D01*
X173322077Y-104549500D01*
X171178587Y-104549500D01*
X171167513Y-104548232D01*
X171153467Y-104544973D01*
X171153465Y-104544973D01*
X171150759Y-104544345D01*
X171150041Y-104544344D01*
X171139415Y-104546766D01*
X171133328Y-104547755D01*
X171100439Y-104550988D01*
X171015097Y-104559378D01*
X171015093Y-104559379D01*
X171012701Y-104559614D01*
X171010403Y-104560311D01*
X171010397Y-104560312D01*
X170882941Y-104598958D01*
X170882937Y-104598960D01*
X170880637Y-104599657D01*
X170758925Y-104664701D01*
X170652246Y-104752246D01*
X170564701Y-104858925D01*
X170499657Y-104980637D01*
X170498960Y-104982937D01*
X170498958Y-104982941D01*
X170460312Y-105110397D01*
X170460311Y-105110403D01*
X170459614Y-105112701D01*
X170459379Y-105115093D01*
X170459378Y-105115097D01*
X170447848Y-105232379D01*
X170446819Y-105238642D01*
X170444345Y-105249323D01*
X170444344Y-105250041D01*
X170444961Y-105252742D01*
X170448271Y-105267240D01*
X170449500Y-105278147D01*
X170449500Y-107721634D01*
X170448253Y-107732617D01*
X170444344Y-107749600D01*
X170445561Y-107754983D01*
X170445550Y-107760501D01*
X170445545Y-107760501D01*
X170445934Y-107772451D01*
X170436040Y-107834853D01*
X170431302Y-107849429D01*
X170395797Y-107919097D01*
X170386788Y-107931496D01*
X170331496Y-107986788D01*
X170319097Y-107995797D01*
X170249429Y-108031302D01*
X170234853Y-108036040D01*
X170172835Y-108045873D01*
X170161216Y-108045474D01*
X170161216Y-108045588D01*
X170155696Y-108045580D01*
X170150318Y-108044344D01*
X170144936Y-108045563D01*
X170144935Y-108045563D01*
X170143280Y-108045938D01*
X170133056Y-108048254D01*
X170132901Y-108048289D01*
X170122077Y-108049500D01*
X133878343Y-108049500D01*
X133867362Y-108048254D01*
X133855735Y-108045580D01*
X133855734Y-108045580D01*
X133850359Y-108044344D01*
X133844978Y-108045561D01*
X133839461Y-108045552D01*
X133839461Y-108045546D01*
X133827514Y-108045938D01*
X133765110Y-108036054D01*
X133750534Y-108031318D01*
X133680873Y-107995824D01*
X133668471Y-107986814D01*
X133613186Y-107931529D01*
X133604175Y-107919126D01*
X133595344Y-107901794D01*
X133568682Y-107849466D01*
X133563945Y-107834889D01*
X133554153Y-107773065D01*
X133554751Y-107756184D01*
X133554711Y-107756179D01*
X133554770Y-107755670D01*
X133554817Y-107754332D01*
X133555029Y-107753419D01*
X133555029Y-107753418D01*
X133555655Y-107750718D01*
X133555656Y-107750000D01*
X133551727Y-107732776D01*
X133550500Y-107721878D01*
X133550500Y-107578560D01*
X133551766Y-107567495D01*
X133555029Y-107553420D01*
X133555029Y-107553417D01*
X133555655Y-107550718D01*
X133555656Y-107550000D01*
X133555042Y-107547307D01*
X133555041Y-107547301D01*
X133553234Y-107539382D01*
X133552242Y-107533285D01*
X133540600Y-107415070D01*
X133540599Y-107415066D01*
X133540364Y-107412678D01*
X133500309Y-107280633D01*
X133491389Y-107263945D01*
X133436396Y-107161061D01*
X133436395Y-107161059D01*
X133435262Y-107158940D01*
X133347725Y-107052275D01*
X133241060Y-106964738D01*
X133238941Y-106963605D01*
X133238939Y-106963604D01*
X133121487Y-106900824D01*
X133121486Y-106900823D01*
X133119367Y-106899691D01*
X132987322Y-106859636D01*
X132984934Y-106859401D01*
X132984930Y-106859400D01*
X132923830Y-106853383D01*
X132867654Y-106847850D01*
X132861405Y-106846823D01*
X132850718Y-106844345D01*
X132850000Y-106844344D01*
X132847304Y-106844959D01*
X132832776Y-106848273D01*
X132821878Y-106849500D01*
X131760997Y-106849500D01*
X131736906Y-106839521D01*
X131736906Y-105964440D01*
X134394963Y-105964440D01*
X134396169Y-105985347D01*
X134408694Y-106202562D01*
X134409137Y-106204526D01*
X134409137Y-106204529D01*
X134432360Y-106307577D01*
X134461131Y-106435245D01*
X134550867Y-106656239D01*
X134551917Y-106657952D01*
X134668288Y-106847851D01*
X134675493Y-106859609D01*
X134729273Y-106921695D01*
X134830348Y-107038380D01*
X134830352Y-107038383D01*
X134831660Y-107039894D01*
X134848810Y-107054132D01*
X134975052Y-107158940D01*
X135015176Y-107192252D01*
X135016906Y-107193263D01*
X135016909Y-107193265D01*
X135114327Y-107250191D01*
X135221112Y-107312591D01*
X135443937Y-107397680D01*
X135445910Y-107398081D01*
X135445912Y-107398082D01*
X135675694Y-107444832D01*
X135675697Y-107444832D01*
X135677666Y-107445233D01*
X135679672Y-107445307D01*
X135679676Y-107445307D01*
X135822181Y-107450532D01*
X135916025Y-107453973D01*
X136152609Y-107423665D01*
X136381068Y-107355125D01*
X136466676Y-107313186D01*
X136593458Y-107251076D01*
X136593460Y-107251075D01*
X136595264Y-107250191D01*
X136616343Y-107235156D01*
X136787809Y-107112850D01*
X136789445Y-107111683D01*
X136790866Y-107110267D01*
X136956973Y-106944740D01*
X136956978Y-106944734D01*
X136958397Y-106943320D01*
X136959569Y-106941688D01*
X136959574Y-106941683D01*
X137096406Y-106751260D01*
X137096408Y-106751257D01*
X137097582Y-106749623D01*
X137203263Y-106535795D01*
X137272600Y-106307577D01*
X137303733Y-106071099D01*
X137305471Y-106000000D01*
X137285927Y-105762284D01*
X137257217Y-105647983D01*
X137228311Y-105532902D01*
X137228310Y-105532900D01*
X137227821Y-105530952D01*
X137132712Y-105312216D01*
X137110672Y-105278147D01*
X137004247Y-105113638D01*
X137004243Y-105113633D01*
X137003155Y-105111951D01*
X136842629Y-104935536D01*
X136841056Y-104934294D01*
X136841052Y-104934290D01*
X136657024Y-104788954D01*
X136655445Y-104787707D01*
X136648135Y-104783672D01*
X136448391Y-104673407D01*
X136448385Y-104673405D01*
X136446631Y-104672436D01*
X136221794Y-104592817D01*
X136219821Y-104592466D01*
X136219819Y-104592465D01*
X136110898Y-104573063D01*
X136000089Y-104553325D01*
X135968495Y-104533119D01*
X135960442Y-104496491D01*
X135978853Y-104466210D01*
X136028282Y-104428282D01*
X136124536Y-104302841D01*
X136137124Y-104272451D01*
X136183816Y-104159728D01*
X136183817Y-104159724D01*
X136185044Y-104156762D01*
X136198595Y-104053834D01*
X160499500Y-104053834D01*
X160502481Y-104085369D01*
X160547366Y-104213184D01*
X160627850Y-104322150D01*
X160736816Y-104402634D01*
X160740277Y-104403849D01*
X160740278Y-104403850D01*
X160815410Y-104430234D01*
X160864631Y-104447519D01*
X160867603Y-104447800D01*
X160895020Y-104450392D01*
X160895027Y-104450392D01*
X160896166Y-104450500D01*
X164303834Y-104450500D01*
X164304973Y-104450392D01*
X164304980Y-104450392D01*
X164332397Y-104447800D01*
X164335369Y-104447519D01*
X164384590Y-104430234D01*
X164459722Y-104403850D01*
X164459723Y-104403849D01*
X164463184Y-104402634D01*
X164572150Y-104322150D01*
X164652634Y-104213184D01*
X164697519Y-104085369D01*
X164700500Y-104053834D01*
X164700500Y-103132613D01*
X166624268Y-103132613D01*
X166626006Y-103136809D01*
X166642982Y-103149143D01*
X166647409Y-103151699D01*
X166812672Y-103225278D01*
X166817523Y-103226854D01*
X166994474Y-103264467D01*
X166999547Y-103265000D01*
X167180453Y-103265000D01*
X167185526Y-103264467D01*
X167362477Y-103226854D01*
X167367328Y-103225278D01*
X167532591Y-103151699D01*
X167537018Y-103149143D01*
X167551885Y-103138342D01*
X167555783Y-103131981D01*
X167554722Y-103127565D01*
X167096893Y-102669736D01*
X167090000Y-102666881D01*
X167083107Y-102669736D01*
X166627123Y-103125720D01*
X166624268Y-103132613D01*
X164700500Y-103132613D01*
X164700500Y-102646166D01*
X164697519Y-102614631D01*
X164680952Y-102567455D01*
X164653850Y-102490278D01*
X164653849Y-102490277D01*
X164652634Y-102486816D01*
X164578829Y-102386893D01*
X164575621Y-102382550D01*
X166200393Y-102382550D01*
X166219303Y-102562464D01*
X166220364Y-102567455D01*
X166276266Y-102739503D01*
X166278344Y-102744171D01*
X166333734Y-102840110D01*
X166339651Y-102844650D01*
X166342940Y-102844217D01*
X166800264Y-102386893D01*
X166803119Y-102380000D01*
X167376881Y-102380000D01*
X167379736Y-102386893D01*
X167834500Y-102841657D01*
X167841393Y-102844512D01*
X167844457Y-102843243D01*
X167901656Y-102744171D01*
X167903734Y-102739503D01*
X167959636Y-102567455D01*
X167960697Y-102562464D01*
X167979607Y-102382550D01*
X167979607Y-102377450D01*
X167960697Y-102197536D01*
X167959636Y-102192545D01*
X167903734Y-102020497D01*
X167901656Y-102015829D01*
X167846266Y-101919890D01*
X167840349Y-101915350D01*
X167837060Y-101915783D01*
X167379736Y-102373107D01*
X167376881Y-102380000D01*
X166803119Y-102380000D01*
X166800264Y-102373107D01*
X166345500Y-101918343D01*
X166338607Y-101915488D01*
X166335543Y-101916757D01*
X166278344Y-102015829D01*
X166276266Y-102020497D01*
X166220364Y-102192545D01*
X166219303Y-102197536D01*
X166200393Y-102377450D01*
X166200393Y-102382550D01*
X164575621Y-102382550D01*
X164574326Y-102380796D01*
X164572150Y-102377850D01*
X164463184Y-102297366D01*
X164459723Y-102296151D01*
X164459722Y-102296150D01*
X164338188Y-102253471D01*
X164335369Y-102252481D01*
X164332397Y-102252200D01*
X164304980Y-102249608D01*
X164304973Y-102249608D01*
X164303834Y-102249500D01*
X160896166Y-102249500D01*
X160895027Y-102249608D01*
X160895020Y-102249608D01*
X160867603Y-102252200D01*
X160864631Y-102252481D01*
X160861812Y-102253471D01*
X160740278Y-102296150D01*
X160740277Y-102296151D01*
X160736816Y-102297366D01*
X160627850Y-102377850D01*
X160625674Y-102380796D01*
X160621171Y-102386893D01*
X160547366Y-102486816D01*
X160546151Y-102490277D01*
X160546150Y-102490278D01*
X160519048Y-102567455D01*
X160502481Y-102614631D01*
X160499500Y-102646166D01*
X160499500Y-104053834D01*
X136198595Y-104053834D01*
X136205682Y-104000000D01*
X136185044Y-103843238D01*
X136183817Y-103840276D01*
X136183816Y-103840272D01*
X136125764Y-103700124D01*
X136124536Y-103697159D01*
X136122582Y-103694613D01*
X136122580Y-103694609D01*
X136110626Y-103679030D01*
X136100500Y-103649201D01*
X136100500Y-102700000D01*
X145594318Y-102700000D01*
X145614956Y-102856762D01*
X145616183Y-102859724D01*
X145616184Y-102859728D01*
X145674235Y-102999875D01*
X145675464Y-103002841D01*
X145771718Y-103128282D01*
X145897159Y-103224536D01*
X145900122Y-103225763D01*
X145900125Y-103225765D01*
X146040272Y-103283816D01*
X146040276Y-103283817D01*
X146043238Y-103285044D01*
X146046419Y-103285463D01*
X146046420Y-103285463D01*
X146196817Y-103305263D01*
X146200000Y-103305682D01*
X146203183Y-103305263D01*
X146353580Y-103285463D01*
X146353581Y-103285463D01*
X146356762Y-103285044D01*
X146359724Y-103283817D01*
X146359728Y-103283816D01*
X146499875Y-103225765D01*
X146499878Y-103225763D01*
X146502841Y-103224536D01*
X146628282Y-103128282D01*
X146724536Y-103002841D01*
X146725765Y-102999875D01*
X146783816Y-102859728D01*
X146783817Y-102859724D01*
X146785044Y-102856762D01*
X146805682Y-102700000D01*
X146785044Y-102543238D01*
X146783817Y-102540276D01*
X146783816Y-102540272D01*
X146725765Y-102400125D01*
X146725763Y-102400122D01*
X146724536Y-102397159D01*
X146647029Y-102296150D01*
X146630238Y-102274267D01*
X146628282Y-102271718D01*
X146525102Y-102192545D01*
X146519671Y-102188378D01*
X146500919Y-102155900D01*
X146500500Y-102149504D01*
X146500500Y-101544767D01*
X146514852Y-101510119D01*
X146810119Y-101214852D01*
X146844767Y-101200500D01*
X153850500Y-101200500D01*
X153885148Y-101214852D01*
X153899500Y-101249500D01*
X153899500Y-101319646D01*
X153899670Y-101321071D01*
X153899670Y-101321078D01*
X153901996Y-101340622D01*
X153902618Y-101345846D01*
X153904108Y-101349201D01*
X153904109Y-101349204D01*
X153946224Y-101444018D01*
X153948061Y-101448153D01*
X153951262Y-101451348D01*
X153951263Y-101451350D01*
X153959650Y-101459722D01*
X154027287Y-101527241D01*
X154031425Y-101529071D01*
X154031426Y-101529071D01*
X154044208Y-101534722D01*
X154129673Y-101572506D01*
X154133329Y-101572932D01*
X154133332Y-101572933D01*
X154142724Y-101574028D01*
X154155354Y-101575500D01*
X154844646Y-101575500D01*
X154846071Y-101575330D01*
X154846078Y-101575330D01*
X154867200Y-101572816D01*
X154867201Y-101572816D01*
X154870846Y-101572382D01*
X154874201Y-101570892D01*
X154874204Y-101570891D01*
X154969018Y-101528776D01*
X154969019Y-101528775D01*
X154973153Y-101526939D01*
X154976347Y-101523739D01*
X154976349Y-101523738D01*
X155002917Y-101497123D01*
X155010145Y-101489882D01*
X155044824Y-101475500D01*
X156631739Y-101475500D01*
X156666387Y-101489852D01*
X156671150Y-101495384D01*
X156727850Y-101572150D01*
X156730796Y-101574326D01*
X156733159Y-101576071D01*
X156836816Y-101652634D01*
X156840277Y-101653849D01*
X156840278Y-101653850D01*
X156922350Y-101682671D01*
X156964631Y-101697519D01*
X156967603Y-101697800D01*
X156995020Y-101700392D01*
X156995027Y-101700392D01*
X156996166Y-101700500D01*
X159303834Y-101700500D01*
X159304973Y-101700392D01*
X159304980Y-101700392D01*
X159332397Y-101697800D01*
X159335369Y-101697519D01*
X159377650Y-101682671D01*
X159459722Y-101653850D01*
X159459723Y-101653849D01*
X159463184Y-101652634D01*
X159496510Y-101628019D01*
X166624219Y-101628019D01*
X166625279Y-101632436D01*
X167083107Y-102090264D01*
X167090000Y-102093119D01*
X167096893Y-102090264D01*
X167552877Y-101634280D01*
X167555732Y-101627387D01*
X167553994Y-101623191D01*
X167537018Y-101610857D01*
X167532591Y-101608301D01*
X167367328Y-101534722D01*
X167362477Y-101533146D01*
X167185526Y-101495533D01*
X167180453Y-101495000D01*
X166999547Y-101495000D01*
X166994474Y-101495533D01*
X166817523Y-101533146D01*
X166812672Y-101534722D01*
X166647412Y-101608300D01*
X166642980Y-101610859D01*
X166628116Y-101621659D01*
X166624219Y-101628019D01*
X159496510Y-101628019D01*
X159566841Y-101576071D01*
X159569204Y-101574326D01*
X159572150Y-101572150D01*
X159652634Y-101463184D01*
X159657913Y-101448153D01*
X159696529Y-101338188D01*
X159697519Y-101335369D01*
X159699142Y-101318201D01*
X159700392Y-101304980D01*
X159700392Y-101304973D01*
X159700500Y-101303834D01*
X159700500Y-100696166D01*
X159698738Y-100677520D01*
X159697800Y-100667603D01*
X159697519Y-100664631D01*
X159679726Y-100613963D01*
X159653850Y-100540278D01*
X159653849Y-100540277D01*
X159652634Y-100536816D01*
X159572150Y-100427850D01*
X159463184Y-100347366D01*
X159459723Y-100346151D01*
X159459722Y-100346150D01*
X159338188Y-100303471D01*
X159335369Y-100302481D01*
X159332397Y-100302200D01*
X159304980Y-100299608D01*
X159304973Y-100299608D01*
X159303834Y-100299500D01*
X156996166Y-100299500D01*
X156995027Y-100299608D01*
X156995020Y-100299608D01*
X156967603Y-100302200D01*
X156964631Y-100302481D01*
X156961812Y-100303471D01*
X156840278Y-100346150D01*
X156840277Y-100346151D01*
X156836816Y-100347366D01*
X156727850Y-100427850D01*
X156725674Y-100430796D01*
X156708083Y-100454612D01*
X156675954Y-100473955D01*
X156668669Y-100474500D01*
X155044815Y-100474500D01*
X155010197Y-100460178D01*
X155003652Y-100453644D01*
X154972713Y-100422759D01*
X154870327Y-100377494D01*
X154866671Y-100377068D01*
X154866668Y-100377067D01*
X154857276Y-100375972D01*
X154844646Y-100374500D01*
X154155354Y-100374500D01*
X154153929Y-100374670D01*
X154153922Y-100374670D01*
X154132800Y-100377184D01*
X154132799Y-100377184D01*
X154129154Y-100377618D01*
X154125799Y-100379108D01*
X154125796Y-100379109D01*
X154030982Y-100421224D01*
X154030981Y-100421225D01*
X154026847Y-100423061D01*
X154023652Y-100426262D01*
X154023650Y-100426263D01*
X153993716Y-100456250D01*
X153947759Y-100502287D01*
X153921598Y-100561463D01*
X153917685Y-100570313D01*
X153890549Y-100596199D01*
X153872869Y-100599500D01*
X146755626Y-100599500D01*
X146748805Y-100598999D01*
X146744658Y-100597575D01*
X146694280Y-100599466D01*
X146692442Y-100599500D01*
X146672052Y-100599500D01*
X146669831Y-100599914D01*
X146668362Y-100600049D01*
X146663074Y-100600637D01*
X146637317Y-100601604D01*
X146637316Y-100601604D01*
X146632792Y-100601774D01*
X146628633Y-100603561D01*
X146628632Y-100603561D01*
X146617106Y-100608513D01*
X146606736Y-100611664D01*
X146594392Y-100613963D01*
X146594391Y-100613963D01*
X146589947Y-100614791D01*
X146586098Y-100617163D01*
X146586094Y-100617165D01*
X146564151Y-100630691D01*
X146557783Y-100634000D01*
X146544703Y-100639620D01*
X146529937Y-100645964D01*
X146525051Y-100649977D01*
X146516550Y-100658478D01*
X146507614Y-100665542D01*
X146494652Y-100673532D01*
X146491149Y-100678139D01*
X146474935Y-100699461D01*
X146470579Y-100704449D01*
X146026850Y-101148179D01*
X146021673Y-101152648D01*
X146017731Y-101154575D01*
X146014655Y-101157891D01*
X145983440Y-101191541D01*
X145982164Y-101192865D01*
X145967752Y-101207277D01*
X145966478Y-101209134D01*
X145965533Y-101210271D01*
X145962210Y-101214427D01*
X145941599Y-101236646D01*
X145939925Y-101240841D01*
X145939921Y-101240848D01*
X145935269Y-101252509D01*
X145930166Y-101262067D01*
X145920508Y-101276146D01*
X145913938Y-101303834D01*
X145913512Y-101305628D01*
X145911347Y-101312473D01*
X145901401Y-101337403D01*
X145900117Y-101340622D01*
X145899500Y-101346915D01*
X145899500Y-101358936D01*
X145898176Y-101370250D01*
X145894660Y-101385066D01*
X145895271Y-101389553D01*
X145899052Y-101417338D01*
X145899500Y-101423946D01*
X145899500Y-102149504D01*
X145885148Y-102184152D01*
X145880329Y-102188378D01*
X145874899Y-102192545D01*
X145771718Y-102271718D01*
X145769762Y-102274267D01*
X145752971Y-102296150D01*
X145675464Y-102397159D01*
X145674237Y-102400122D01*
X145674235Y-102400125D01*
X145616184Y-102540272D01*
X145616183Y-102540276D01*
X145614956Y-102543238D01*
X145594318Y-102700000D01*
X136100500Y-102700000D01*
X136100500Y-99878600D01*
X136400318Y-99878600D01*
X136400737Y-99881783D01*
X136419221Y-100022180D01*
X136420956Y-100035362D01*
X136422183Y-100038324D01*
X136422184Y-100038328D01*
X136480235Y-100178475D01*
X136481464Y-100181441D01*
X136577718Y-100306882D01*
X136703159Y-100403136D01*
X136706122Y-100404363D01*
X136706125Y-100404365D01*
X136846272Y-100462416D01*
X136846276Y-100462417D01*
X136849238Y-100463644D01*
X136852419Y-100464063D01*
X136852420Y-100464063D01*
X137002817Y-100483863D01*
X137006000Y-100484282D01*
X137110765Y-100470489D01*
X137146989Y-100480196D01*
X137151786Y-100484400D01*
X137228915Y-100561466D01*
X137243280Y-100596106D01*
X137228960Y-100630743D01*
X137203859Y-100655887D01*
X137202029Y-100660025D01*
X137202029Y-100660026D01*
X137198679Y-100667603D01*
X137158594Y-100758273D01*
X137155600Y-100783954D01*
X137155600Y-101473246D01*
X137158718Y-101499446D01*
X137160208Y-101502801D01*
X137160209Y-101502804D01*
X137202324Y-101597618D01*
X137204161Y-101601753D01*
X137207362Y-101604948D01*
X137207363Y-101604950D01*
X137236745Y-101634280D01*
X137283387Y-101680841D01*
X137385773Y-101726106D01*
X137389429Y-101726532D01*
X137389432Y-101726533D01*
X137398824Y-101727628D01*
X137411454Y-101729100D01*
X138100746Y-101729100D01*
X138102171Y-101728930D01*
X138102178Y-101728930D01*
X138123300Y-101726416D01*
X138123301Y-101726416D01*
X138126946Y-101725982D01*
X138130301Y-101724492D01*
X138130304Y-101724491D01*
X138225118Y-101682376D01*
X138225119Y-101682375D01*
X138229253Y-101680539D01*
X138232448Y-101677338D01*
X138232450Y-101677337D01*
X138277272Y-101632436D01*
X138308341Y-101601313D01*
X138322536Y-101569204D01*
X138336272Y-101538136D01*
X138363409Y-101512250D01*
X138400901Y-101513133D01*
X138425869Y-101538058D01*
X138428849Y-101544767D01*
X138452127Y-101597173D01*
X138454161Y-101601753D01*
X138457362Y-101604948D01*
X138457363Y-101604950D01*
X138486745Y-101634280D01*
X138533387Y-101680841D01*
X138635773Y-101726106D01*
X138639429Y-101726532D01*
X138639432Y-101726533D01*
X138648824Y-101727628D01*
X138661454Y-101729100D01*
X139350746Y-101729100D01*
X139352171Y-101728930D01*
X139352178Y-101728930D01*
X139373300Y-101726416D01*
X139373301Y-101726416D01*
X139376946Y-101725982D01*
X139380301Y-101724492D01*
X139380304Y-101724491D01*
X139418584Y-101707487D01*
X139457226Y-101706998D01*
X139471269Y-101712815D01*
X139471273Y-101712816D01*
X139474238Y-101714044D01*
X139477419Y-101714463D01*
X139477420Y-101714463D01*
X139627817Y-101734263D01*
X139631000Y-101734682D01*
X139634183Y-101734263D01*
X139784580Y-101714463D01*
X139784581Y-101714463D01*
X139787762Y-101714044D01*
X139790724Y-101712817D01*
X139790728Y-101712816D01*
X139930875Y-101654765D01*
X139930878Y-101654763D01*
X139933841Y-101653536D01*
X140059282Y-101557282D01*
X140155536Y-101431841D01*
X140158488Y-101424715D01*
X140214816Y-101288728D01*
X140214817Y-101288724D01*
X140216044Y-101285762D01*
X140228265Y-101192938D01*
X140236263Y-101132183D01*
X140236682Y-101129000D01*
X140222219Y-101019140D01*
X140216463Y-100975420D01*
X140216463Y-100975419D01*
X140216044Y-100972238D01*
X140214817Y-100969276D01*
X140214816Y-100969272D01*
X140156765Y-100829125D01*
X140156763Y-100829122D01*
X140155536Y-100826159D01*
X140073359Y-100719064D01*
X140061238Y-100703267D01*
X140059282Y-100700718D01*
X139933841Y-100604464D01*
X139930878Y-100603237D01*
X139930875Y-100603235D01*
X139790728Y-100545184D01*
X139790724Y-100545183D01*
X139787762Y-100543956D01*
X139784581Y-100543537D01*
X139784580Y-100543537D01*
X139634183Y-100523737D01*
X139631000Y-100523318D01*
X139627817Y-100523737D01*
X139477420Y-100543537D01*
X139477419Y-100543537D01*
X139474238Y-100543956D01*
X139471273Y-100545184D01*
X139471270Y-100545185D01*
X139458139Y-100550624D01*
X139419575Y-100550170D01*
X139405519Y-100543956D01*
X139376427Y-100531094D01*
X139372771Y-100530668D01*
X139372768Y-100530667D01*
X139363376Y-100529572D01*
X139350746Y-100528100D01*
X138854349Y-100528100D01*
X138819701Y-100513748D01*
X138805349Y-100479100D01*
X138819701Y-100444452D01*
X138835598Y-100433830D01*
X138930872Y-100394366D01*
X138930873Y-100394365D01*
X138933841Y-100393136D01*
X139046250Y-100306882D01*
X139056733Y-100298838D01*
X139059282Y-100296882D01*
X139155536Y-100171441D01*
X139156765Y-100168475D01*
X139214816Y-100028328D01*
X139214817Y-100028324D01*
X139216044Y-100025362D01*
X139231026Y-99911566D01*
X139236263Y-99871783D01*
X139236682Y-99868600D01*
X139218119Y-99727602D01*
X139216463Y-99715020D01*
X139216463Y-99715019D01*
X139216044Y-99711838D01*
X139214817Y-99708876D01*
X139214816Y-99708872D01*
X139159678Y-99575759D01*
X139155536Y-99565759D01*
X139153582Y-99563213D01*
X139153580Y-99563209D01*
X139141626Y-99547630D01*
X139131500Y-99517801D01*
X139131500Y-99296230D01*
X139145854Y-99261580D01*
X140529009Y-97878600D01*
X146650318Y-97878600D01*
X146670956Y-98035362D01*
X146672183Y-98038324D01*
X146672184Y-98038328D01*
X146722748Y-98160399D01*
X146731464Y-98181441D01*
X146827718Y-98306882D01*
X146953159Y-98403136D01*
X146956122Y-98404363D01*
X146956125Y-98404365D01*
X147096272Y-98462416D01*
X147096276Y-98462417D01*
X147099238Y-98463644D01*
X147102419Y-98464063D01*
X147102420Y-98464063D01*
X147252817Y-98483863D01*
X147256000Y-98484282D01*
X147259183Y-98483863D01*
X147350204Y-98471880D01*
X147386429Y-98481587D01*
X147405181Y-98514065D01*
X147405600Y-98520461D01*
X147405600Y-98848246D01*
X147408718Y-98874446D01*
X147410208Y-98877801D01*
X147410209Y-98877804D01*
X147452324Y-98972618D01*
X147454161Y-98976753D01*
X147457362Y-98979948D01*
X147457363Y-98979950D01*
X147490856Y-99013384D01*
X147533387Y-99055841D01*
X147635773Y-99101106D01*
X147639429Y-99101532D01*
X147639432Y-99101533D01*
X147648176Y-99102552D01*
X147661454Y-99104100D01*
X148350746Y-99104100D01*
X148352171Y-99103930D01*
X148352178Y-99103930D01*
X148373300Y-99101416D01*
X148373301Y-99101416D01*
X148376946Y-99100982D01*
X148380301Y-99099492D01*
X148380304Y-99099491D01*
X148475118Y-99057376D01*
X148475119Y-99057375D01*
X148479253Y-99055539D01*
X148482448Y-99052338D01*
X148482450Y-99052337D01*
X148554710Y-98979950D01*
X148558341Y-98976313D01*
X148582900Y-98920763D01*
X148586272Y-98913136D01*
X148613409Y-98887250D01*
X148650901Y-98888133D01*
X148675869Y-98913058D01*
X148677889Y-98917606D01*
X148702127Y-98972173D01*
X148704161Y-98976753D01*
X148707362Y-98979948D01*
X148707363Y-98979950D01*
X148740856Y-99013384D01*
X148783387Y-99055841D01*
X148885773Y-99101106D01*
X148889429Y-99101532D01*
X148889432Y-99101533D01*
X148898176Y-99102552D01*
X148911454Y-99104100D01*
X149229120Y-99104100D01*
X149263768Y-99118452D01*
X149277701Y-99146704D01*
X149295537Y-99282180D01*
X149295956Y-99285362D01*
X149297183Y-99288324D01*
X149297184Y-99288328D01*
X149355235Y-99428475D01*
X149356464Y-99431441D01*
X149452718Y-99556882D01*
X149455267Y-99558838D01*
X149477319Y-99575759D01*
X149578159Y-99653136D01*
X149581122Y-99654363D01*
X149581125Y-99654365D01*
X149721272Y-99712416D01*
X149721276Y-99712417D01*
X149724238Y-99713644D01*
X149727419Y-99714063D01*
X149727420Y-99714063D01*
X149877817Y-99733863D01*
X149881000Y-99734282D01*
X149884183Y-99733863D01*
X150034580Y-99714063D01*
X150034581Y-99714063D01*
X150037762Y-99713644D01*
X150040724Y-99712417D01*
X150040728Y-99712416D01*
X150180875Y-99654365D01*
X150180878Y-99654363D01*
X150183841Y-99653136D01*
X150284681Y-99575759D01*
X150306733Y-99558838D01*
X150309282Y-99556882D01*
X150405536Y-99431441D01*
X150406765Y-99428475D01*
X150458393Y-99303834D01*
X156599500Y-99303834D01*
X156599608Y-99304973D01*
X156599608Y-99304980D01*
X156601100Y-99320757D01*
X156602481Y-99335369D01*
X156647366Y-99463184D01*
X156699993Y-99534435D01*
X156725320Y-99568724D01*
X156727850Y-99572150D01*
X156836816Y-99652634D01*
X156840277Y-99653849D01*
X156840278Y-99653850D01*
X156841745Y-99654365D01*
X156964631Y-99697519D01*
X156967603Y-99697800D01*
X156995020Y-99700392D01*
X156995027Y-99700392D01*
X156996166Y-99700500D01*
X159303834Y-99700500D01*
X159304973Y-99700392D01*
X159304980Y-99700392D01*
X159332397Y-99697800D01*
X159335369Y-99697519D01*
X159458255Y-99654365D01*
X159459722Y-99653850D01*
X159459723Y-99653849D01*
X159463184Y-99652634D01*
X159572150Y-99572150D01*
X159610383Y-99520388D01*
X159642511Y-99501045D01*
X159649796Y-99500500D01*
X160638420Y-99500500D01*
X160649233Y-99501708D01*
X160659447Y-99504019D01*
X160662929Y-99503803D01*
X160714649Y-99500594D01*
X160717683Y-99500500D01*
X160735940Y-99500500D01*
X160749111Y-99498614D01*
X160753017Y-99498213D01*
X160802538Y-99495141D01*
X160805817Y-99493957D01*
X160805823Y-99493956D01*
X160817006Y-99489919D01*
X160826696Y-99487503D01*
X160838462Y-99485818D01*
X160838463Y-99485818D01*
X160841918Y-99485323D01*
X160884120Y-99466135D01*
X160887083Y-99464788D01*
X160890726Y-99463305D01*
X160934100Y-99447647D01*
X160934102Y-99447646D01*
X160937387Y-99446460D01*
X160949801Y-99437391D01*
X160958423Y-99432353D01*
X160969250Y-99427430D01*
X160969255Y-99427427D01*
X160972428Y-99425984D01*
X160975068Y-99423709D01*
X160975070Y-99423708D01*
X161010018Y-99393594D01*
X161013080Y-99391162D01*
X161026336Y-99381478D01*
X161039101Y-99368713D01*
X161041764Y-99366240D01*
X161078391Y-99334680D01*
X161081037Y-99332400D01*
X161088586Y-99320753D01*
X161095053Y-99312761D01*
X161710364Y-98697450D01*
X161718865Y-98690657D01*
X161724770Y-98686931D01*
X161727720Y-98685070D01*
X161764328Y-98643619D01*
X161766407Y-98641407D01*
X161779320Y-98628494D01*
X161780363Y-98627103D01*
X161780372Y-98627092D01*
X161787304Y-98617842D01*
X161789787Y-98614792D01*
X161820310Y-98580231D01*
X161822623Y-98577612D01*
X161829160Y-98563689D01*
X161834300Y-98555135D01*
X161843526Y-98542824D01*
X161845779Y-98536816D01*
X161860939Y-98496375D01*
X161862466Y-98492750D01*
X161882071Y-98450994D01*
X161882071Y-98450992D01*
X161883553Y-98447837D01*
X161885919Y-98432642D01*
X161888454Y-98422979D01*
X161893852Y-98408581D01*
X161894166Y-98404365D01*
X161897529Y-98359105D01*
X161897977Y-98355200D01*
X161900209Y-98340860D01*
X161900500Y-98338991D01*
X161900500Y-98320930D01*
X161900635Y-98317299D01*
X161904217Y-98269096D01*
X161904217Y-98269095D01*
X161904476Y-98265609D01*
X161901580Y-98252042D01*
X161900500Y-98241813D01*
X161900500Y-97450799D01*
X161910626Y-97420970D01*
X161922580Y-97405391D01*
X161922582Y-97405387D01*
X161924536Y-97402841D01*
X161945249Y-97352835D01*
X161983816Y-97259728D01*
X161983817Y-97259724D01*
X161985044Y-97256762D01*
X162005682Y-97100000D01*
X161992368Y-96998872D01*
X161985463Y-96946420D01*
X161985463Y-96946419D01*
X161985044Y-96943238D01*
X161983817Y-96940276D01*
X161983816Y-96940272D01*
X161925765Y-96800125D01*
X161925763Y-96800122D01*
X161924536Y-96797159D01*
X161828282Y-96671718D01*
X161825521Y-96669599D01*
X161705390Y-96577420D01*
X161702841Y-96575464D01*
X161699878Y-96574237D01*
X161699875Y-96574235D01*
X161559728Y-96516184D01*
X161559724Y-96516183D01*
X161556762Y-96514956D01*
X161553581Y-96514537D01*
X161553580Y-96514537D01*
X161403183Y-96494737D01*
X161400000Y-96494318D01*
X161396817Y-96494737D01*
X161246420Y-96514537D01*
X161246419Y-96514537D01*
X161243238Y-96514956D01*
X161240276Y-96516183D01*
X161240272Y-96516184D01*
X161100125Y-96574235D01*
X161100122Y-96574237D01*
X161097159Y-96575464D01*
X161094610Y-96577420D01*
X160974480Y-96669599D01*
X160971718Y-96671718D01*
X160875464Y-96797159D01*
X160874237Y-96800122D01*
X160874235Y-96800125D01*
X160816184Y-96940272D01*
X160816183Y-96940276D01*
X160814956Y-96943238D01*
X160814537Y-96946419D01*
X160814537Y-96946420D01*
X160807632Y-96998872D01*
X160794318Y-97100000D01*
X160814956Y-97256762D01*
X160816183Y-97259724D01*
X160816184Y-97259728D01*
X160854751Y-97352835D01*
X160875464Y-97402841D01*
X160877418Y-97405387D01*
X160877420Y-97405391D01*
X160889374Y-97420970D01*
X160899500Y-97450799D01*
X160899500Y-98072391D01*
X160885148Y-98107039D01*
X160507038Y-98485148D01*
X160472390Y-98499500D01*
X159649796Y-98499500D01*
X159615148Y-98485148D01*
X159610382Y-98479612D01*
X159608257Y-98476734D01*
X159572150Y-98427850D01*
X159463184Y-98347366D01*
X159459723Y-98346151D01*
X159459722Y-98346150D01*
X159338188Y-98303471D01*
X159335369Y-98302481D01*
X159332397Y-98302200D01*
X159304980Y-98299608D01*
X159304973Y-98299608D01*
X159303834Y-98299500D01*
X156996166Y-98299500D01*
X156995027Y-98299608D01*
X156995020Y-98299608D01*
X156967603Y-98302200D01*
X156964631Y-98302481D01*
X156961812Y-98303471D01*
X156840278Y-98346150D01*
X156840277Y-98346151D01*
X156836816Y-98347366D01*
X156727850Y-98427850D01*
X156647366Y-98536816D01*
X156646151Y-98540277D01*
X156646150Y-98540278D01*
X156619983Y-98614792D01*
X156602481Y-98664631D01*
X156602200Y-98667603D01*
X156599745Y-98693577D01*
X156599500Y-98696166D01*
X156599500Y-99303834D01*
X150458393Y-99303834D01*
X150464816Y-99288328D01*
X150464817Y-99288324D01*
X150466044Y-99285362D01*
X150467286Y-99275932D01*
X150486263Y-99131783D01*
X150486682Y-99128600D01*
X150485761Y-99121601D01*
X150466463Y-98975020D01*
X150466463Y-98975019D01*
X150466044Y-98971838D01*
X150464817Y-98968876D01*
X150464816Y-98968872D01*
X150406765Y-98828725D01*
X150406763Y-98828722D01*
X150405536Y-98825759D01*
X150357409Y-98763038D01*
X150311238Y-98702867D01*
X150309282Y-98700318D01*
X150302378Y-98695020D01*
X150186390Y-98606020D01*
X150183841Y-98604064D01*
X150180878Y-98602837D01*
X150180875Y-98602835D01*
X150040728Y-98544784D01*
X150040724Y-98544783D01*
X150037762Y-98543556D01*
X150034581Y-98543137D01*
X150034580Y-98543137D01*
X149986566Y-98536816D01*
X149899203Y-98525314D01*
X149866726Y-98506563D01*
X149856600Y-98476734D01*
X149856600Y-98158954D01*
X149853482Y-98132754D01*
X149851992Y-98129399D01*
X149851991Y-98129396D01*
X149809876Y-98034582D01*
X149809875Y-98034581D01*
X149808039Y-98030447D01*
X149804838Y-98027252D01*
X149804837Y-98027250D01*
X149732323Y-97954863D01*
X149728813Y-97951359D01*
X149626427Y-97906094D01*
X149622771Y-97905668D01*
X149622768Y-97905667D01*
X149613376Y-97904572D01*
X149600746Y-97903100D01*
X148911454Y-97903100D01*
X148910029Y-97903270D01*
X148910022Y-97903270D01*
X148888900Y-97905784D01*
X148888899Y-97905784D01*
X148885254Y-97906218D01*
X148881899Y-97907708D01*
X148881896Y-97907709D01*
X148787082Y-97949824D01*
X148787081Y-97949825D01*
X148782947Y-97951661D01*
X148779752Y-97954862D01*
X148779750Y-97954863D01*
X148743513Y-97991163D01*
X148703859Y-98030887D01*
X148690094Y-98062023D01*
X148675928Y-98094064D01*
X148648791Y-98119950D01*
X148611299Y-98119067D01*
X148586331Y-98094142D01*
X148586297Y-98094064D01*
X148560222Y-98035362D01*
X148559876Y-98034582D01*
X148559875Y-98034581D01*
X148558039Y-98030447D01*
X148554838Y-98027252D01*
X148554837Y-98027250D01*
X148482323Y-97954863D01*
X148478813Y-97951359D01*
X148376427Y-97906094D01*
X148372771Y-97905668D01*
X148372768Y-97905667D01*
X148363376Y-97904572D01*
X148350746Y-97903100D01*
X147907880Y-97903100D01*
X147873232Y-97888748D01*
X147859299Y-97860496D01*
X147841463Y-97725020D01*
X147841463Y-97725019D01*
X147841044Y-97721838D01*
X147839817Y-97718876D01*
X147839816Y-97718872D01*
X147781765Y-97578725D01*
X147781763Y-97578722D01*
X147780536Y-97575759D01*
X147684282Y-97450318D01*
X147558841Y-97354064D01*
X147555878Y-97352837D01*
X147555875Y-97352835D01*
X147415728Y-97294784D01*
X147415724Y-97294783D01*
X147412762Y-97293556D01*
X147409581Y-97293137D01*
X147409580Y-97293137D01*
X147259183Y-97273337D01*
X147256000Y-97272918D01*
X147252817Y-97273337D01*
X147102420Y-97293137D01*
X147102419Y-97293137D01*
X147099238Y-97293556D01*
X147096276Y-97294783D01*
X147096272Y-97294784D01*
X146956125Y-97352835D01*
X146956122Y-97352837D01*
X146953159Y-97354064D01*
X146827718Y-97450318D01*
X146731464Y-97575759D01*
X146730237Y-97578722D01*
X146730235Y-97578725D01*
X146672184Y-97718872D01*
X146672183Y-97718876D01*
X146670956Y-97721838D01*
X146650318Y-97878600D01*
X140529009Y-97878600D01*
X140959301Y-97448362D01*
X141992943Y-96414850D01*
X142027589Y-96400500D01*
X144738420Y-96400500D01*
X144749233Y-96401708D01*
X144759447Y-96404019D01*
X144762929Y-96403803D01*
X144814649Y-96400594D01*
X144817683Y-96400500D01*
X144835940Y-96400500D01*
X144849111Y-96398614D01*
X144853017Y-96398213D01*
X144902538Y-96395141D01*
X144905817Y-96393957D01*
X144905823Y-96393956D01*
X144917006Y-96389919D01*
X144926696Y-96387503D01*
X144938462Y-96385818D01*
X144938463Y-96385818D01*
X144941918Y-96385323D01*
X144953181Y-96380202D01*
X144987083Y-96364788D01*
X144990726Y-96363305D01*
X145034100Y-96347647D01*
X145034102Y-96347646D01*
X145037387Y-96346460D01*
X145049801Y-96337391D01*
X145058423Y-96332353D01*
X145069250Y-96327430D01*
X145069255Y-96327427D01*
X145072428Y-96325984D01*
X145075068Y-96323709D01*
X145075070Y-96323708D01*
X145110018Y-96293594D01*
X145113080Y-96291162D01*
X145126336Y-96281478D01*
X145139101Y-96268713D01*
X145141764Y-96266240D01*
X145178391Y-96234680D01*
X145181037Y-96232400D01*
X145188586Y-96220753D01*
X145195053Y-96212761D01*
X145505854Y-95901960D01*
X145534106Y-95888027D01*
X145553580Y-95885463D01*
X145556762Y-95885044D01*
X145559724Y-95883817D01*
X145559728Y-95883816D01*
X145699875Y-95825765D01*
X145699878Y-95825763D01*
X145702841Y-95824536D01*
X145828282Y-95728282D01*
X145924536Y-95602841D01*
X145925765Y-95599875D01*
X145983816Y-95459728D01*
X145983818Y-95459722D01*
X145985044Y-95456762D01*
X146000655Y-95338188D01*
X146005263Y-95303183D01*
X146005682Y-95300000D01*
X146004834Y-95293556D01*
X145985463Y-95146420D01*
X145985463Y-95146419D01*
X145985044Y-95143238D01*
X145983817Y-95140276D01*
X145983816Y-95140272D01*
X145925765Y-95000125D01*
X145925763Y-95000122D01*
X145924536Y-94997159D01*
X145828282Y-94871718D01*
X145702841Y-94775464D01*
X145699878Y-94774237D01*
X145699875Y-94774235D01*
X145559728Y-94716184D01*
X145559724Y-94716183D01*
X145556762Y-94714956D01*
X145553581Y-94714537D01*
X145553580Y-94714537D01*
X145403183Y-94694737D01*
X145400000Y-94694318D01*
X145396817Y-94694737D01*
X145246420Y-94714537D01*
X145246419Y-94714537D01*
X145243238Y-94714956D01*
X145240276Y-94716183D01*
X145240272Y-94716184D01*
X145100125Y-94774235D01*
X145100122Y-94774237D01*
X145097159Y-94775464D01*
X144971718Y-94871718D01*
X144875464Y-94997159D01*
X144874237Y-95000122D01*
X144874235Y-95000125D01*
X144816184Y-95140272D01*
X144816183Y-95140276D01*
X144814956Y-95143238D01*
X144814537Y-95146420D01*
X144811973Y-95165894D01*
X144798040Y-95194146D01*
X144607038Y-95385148D01*
X144572390Y-95399500D01*
X141861594Y-95399500D01*
X141850777Y-95398291D01*
X141843991Y-95396755D01*
X141843990Y-95396755D01*
X141840584Y-95395984D01*
X141837098Y-95396200D01*
X141785374Y-95399406D01*
X141782343Y-95399500D01*
X141764060Y-95399500D01*
X141762336Y-95399747D01*
X141762334Y-95399747D01*
X141759971Y-95400086D01*
X141750893Y-95401385D01*
X141746998Y-95401784D01*
X141697493Y-95404853D01*
X141684390Y-95409582D01*
X141683013Y-95410079D01*
X141673329Y-95412493D01*
X141667563Y-95413319D01*
X141658082Y-95414677D01*
X141654905Y-95416121D01*
X141654903Y-95416122D01*
X141612931Y-95435206D01*
X141609289Y-95436688D01*
X141562641Y-95453525D01*
X141559824Y-95455583D01*
X141550209Y-95462606D01*
X141541589Y-95467642D01*
X141530752Y-95472569D01*
X141530746Y-95472573D01*
X141527572Y-95474016D01*
X141489989Y-95506399D01*
X141486912Y-95508842D01*
X141475217Y-95517384D01*
X141475208Y-95517392D01*
X141473688Y-95518502D01*
X141472361Y-95519829D01*
X141472355Y-95519834D01*
X141460897Y-95531292D01*
X141458257Y-95533741D01*
X141418963Y-95567600D01*
X141411423Y-95579232D01*
X141404956Y-95587226D01*
X140317777Y-96674267D01*
X138320649Y-98671142D01*
X138312152Y-98677932D01*
X138303280Y-98683530D01*
X138266690Y-98724961D01*
X138264611Y-98727173D01*
X138251700Y-98740083D01*
X138243707Y-98750746D01*
X138241236Y-98753781D01*
X138208377Y-98790988D01*
X138206894Y-98794147D01*
X138201848Y-98804894D01*
X138196701Y-98813458D01*
X138187489Y-98825748D01*
X138186264Y-98829015D01*
X138186263Y-98829017D01*
X138170066Y-98872215D01*
X138168540Y-98875837D01*
X138151065Y-98913058D01*
X138147447Y-98920763D01*
X138146910Y-98924212D01*
X138146909Y-98924215D01*
X138145082Y-98935944D01*
X138142547Y-98945606D01*
X138137155Y-98959988D01*
X138136896Y-98963467D01*
X138136896Y-98963468D01*
X138133474Y-99009480D01*
X138133026Y-99013384D01*
X138130500Y-99029609D01*
X138130500Y-99047653D01*
X138130365Y-99051287D01*
X138126522Y-99102960D01*
X138127251Y-99106376D01*
X138129421Y-99116545D01*
X138130500Y-99126771D01*
X138130500Y-99517801D01*
X138120374Y-99547630D01*
X138108420Y-99563209D01*
X138108418Y-99563213D01*
X138106464Y-99565759D01*
X138102322Y-99575759D01*
X138047184Y-99708872D01*
X138047183Y-99708876D01*
X138045956Y-99711838D01*
X138045537Y-99715019D01*
X138045537Y-99715020D01*
X138043881Y-99727602D01*
X138025318Y-99868600D01*
X138025737Y-99871783D01*
X138030975Y-99911566D01*
X138045956Y-100025362D01*
X138047183Y-100028324D01*
X138047184Y-100028328D01*
X138105235Y-100168475D01*
X138106464Y-100171441D01*
X138202718Y-100296882D01*
X138205267Y-100298838D01*
X138215750Y-100306882D01*
X138328159Y-100393136D01*
X138331122Y-100394363D01*
X138331125Y-100394365D01*
X138471272Y-100452416D01*
X138471276Y-100452417D01*
X138474238Y-100453644D01*
X138477419Y-100454063D01*
X138477420Y-100454063D01*
X138560614Y-100465016D01*
X138593092Y-100483768D01*
X138602799Y-100519993D01*
X138584047Y-100552471D01*
X138574112Y-100558376D01*
X138532947Y-100576661D01*
X138529752Y-100579862D01*
X138529750Y-100579863D01*
X138509013Y-100600637D01*
X138453859Y-100655887D01*
X138447108Y-100671158D01*
X138425928Y-100719064D01*
X138398791Y-100744950D01*
X138361299Y-100744067D01*
X138336331Y-100719142D01*
X138336297Y-100719064D01*
X138325312Y-100694333D01*
X138309876Y-100659582D01*
X138309875Y-100659581D01*
X138308039Y-100655447D01*
X138304838Y-100652252D01*
X138304837Y-100652250D01*
X138250066Y-100597575D01*
X138228813Y-100576359D01*
X138215138Y-100570313D01*
X138169575Y-100550170D01*
X138126427Y-100531094D01*
X138122771Y-100530668D01*
X138122768Y-100530667D01*
X138113376Y-100529572D01*
X138100746Y-100528100D01*
X138087718Y-100528100D01*
X138053070Y-100513748D01*
X138041673Y-100495860D01*
X138040333Y-100492178D01*
X138039588Y-100487955D01*
X138035503Y-100480880D01*
X138030613Y-100469080D01*
X138029607Y-100465332D01*
X138028496Y-100461192D01*
X138026037Y-100457683D01*
X138004984Y-100427643D01*
X138002676Y-100424021D01*
X137992227Y-100405922D01*
X137982194Y-100388545D01*
X137950693Y-100362112D01*
X137947556Y-100359239D01*
X137611910Y-100023871D01*
X137597544Y-99989228D01*
X137597963Y-99982813D01*
X137611263Y-99881784D01*
X137611263Y-99881783D01*
X137611682Y-99878600D01*
X137610785Y-99871783D01*
X137591463Y-99725020D01*
X137591463Y-99725019D01*
X137591044Y-99721838D01*
X137589817Y-99718876D01*
X137589816Y-99718872D01*
X137531765Y-99578725D01*
X137531763Y-99578722D01*
X137530536Y-99575759D01*
X137443936Y-99462899D01*
X137436238Y-99452867D01*
X137434282Y-99450318D01*
X137410870Y-99432353D01*
X137326251Y-99367423D01*
X137308841Y-99354064D01*
X137305878Y-99352837D01*
X137305875Y-99352835D01*
X137165728Y-99294784D01*
X137165724Y-99294783D01*
X137162762Y-99293556D01*
X137159581Y-99293137D01*
X137159580Y-99293137D01*
X137009183Y-99273337D01*
X137006000Y-99272918D01*
X137002817Y-99273337D01*
X136852420Y-99293137D01*
X136852419Y-99293137D01*
X136849238Y-99293556D01*
X136846276Y-99294783D01*
X136846272Y-99294784D01*
X136706125Y-99352835D01*
X136706122Y-99352837D01*
X136703159Y-99354064D01*
X136685749Y-99367423D01*
X136601131Y-99432353D01*
X136577718Y-99450318D01*
X136575762Y-99452867D01*
X136568064Y-99462899D01*
X136481464Y-99575759D01*
X136480237Y-99578722D01*
X136480235Y-99578725D01*
X136422184Y-99718872D01*
X136422183Y-99718876D01*
X136420956Y-99721838D01*
X136420537Y-99725019D01*
X136420537Y-99725020D01*
X136401215Y-99871783D01*
X136400318Y-99878600D01*
X136100500Y-99878600D01*
X136100500Y-99727602D01*
X136114851Y-99692955D01*
X136126464Y-99681342D01*
X138097000Y-97710718D01*
X138112895Y-97700097D01*
X138129991Y-97693015D01*
X138150875Y-97684365D01*
X138150878Y-97684364D01*
X138153841Y-97683136D01*
X138279282Y-97586882D01*
X138375536Y-97461441D01*
X138376765Y-97458475D01*
X138434816Y-97318328D01*
X138434817Y-97318324D01*
X138436044Y-97315362D01*
X138456682Y-97158600D01*
X138436044Y-97001838D01*
X138434817Y-96998876D01*
X138434816Y-96998872D01*
X138376765Y-96858725D01*
X138376763Y-96858722D01*
X138375536Y-96855759D01*
X138327409Y-96793038D01*
X138281238Y-96732867D01*
X138279282Y-96730318D01*
X138153841Y-96634064D01*
X138150878Y-96632837D01*
X138150875Y-96632835D01*
X138007762Y-96573556D01*
X138008469Y-96571849D01*
X137983383Y-96552598D01*
X137978490Y-96515415D01*
X138001322Y-96485663D01*
X138025820Y-96479100D01*
X138100746Y-96479100D01*
X138102171Y-96478930D01*
X138102178Y-96478930D01*
X138123300Y-96476416D01*
X138123301Y-96476416D01*
X138126946Y-96475982D01*
X138130301Y-96474492D01*
X138130304Y-96474491D01*
X138225118Y-96432376D01*
X138225119Y-96432375D01*
X138229253Y-96430539D01*
X138232448Y-96427338D01*
X138232450Y-96427337D01*
X138295703Y-96363973D01*
X138308341Y-96351313D01*
X138333859Y-96293594D01*
X138336272Y-96288136D01*
X138363409Y-96262250D01*
X138400901Y-96263133D01*
X138425869Y-96288058D01*
X138428328Y-96293594D01*
X138452127Y-96347173D01*
X138454161Y-96351753D01*
X138457362Y-96354948D01*
X138457363Y-96354950D01*
X138488285Y-96385818D01*
X138533387Y-96430841D01*
X138635773Y-96476106D01*
X138639429Y-96476532D01*
X138639432Y-96476533D01*
X138648824Y-96477628D01*
X138661454Y-96479100D01*
X139350746Y-96479100D01*
X139352171Y-96478930D01*
X139352178Y-96478930D01*
X139373300Y-96476416D01*
X139373301Y-96476416D01*
X139376946Y-96475982D01*
X139380301Y-96474492D01*
X139380304Y-96474491D01*
X139419050Y-96457280D01*
X139457692Y-96456791D01*
X139471269Y-96462415D01*
X139471273Y-96462416D01*
X139474238Y-96463644D01*
X139477419Y-96464063D01*
X139477420Y-96464063D01*
X139627817Y-96483863D01*
X139631000Y-96484282D01*
X139634183Y-96483863D01*
X139784580Y-96464063D01*
X139784581Y-96464063D01*
X139787762Y-96463644D01*
X139790724Y-96462417D01*
X139790728Y-96462416D01*
X139930875Y-96404365D01*
X139930878Y-96404363D01*
X139933841Y-96403136D01*
X140023383Y-96334428D01*
X140056733Y-96308838D01*
X140059282Y-96306882D01*
X140155536Y-96181441D01*
X140168900Y-96149178D01*
X140214816Y-96038328D01*
X140214817Y-96038324D01*
X140216044Y-96035362D01*
X140226662Y-95954714D01*
X140236263Y-95881783D01*
X140236682Y-95878600D01*
X140236263Y-95875417D01*
X140216463Y-95725020D01*
X140216463Y-95725019D01*
X140216044Y-95721838D01*
X140214817Y-95718876D01*
X140214816Y-95718872D01*
X140156765Y-95578725D01*
X140156763Y-95578722D01*
X140155536Y-95575759D01*
X140059282Y-95450318D01*
X139933841Y-95354064D01*
X139930878Y-95352837D01*
X139930875Y-95352835D01*
X139790728Y-95294784D01*
X139790724Y-95294783D01*
X139787762Y-95293556D01*
X139784581Y-95293137D01*
X139784580Y-95293137D01*
X139634183Y-95273337D01*
X139631000Y-95272918D01*
X139627817Y-95273337D01*
X139477420Y-95293137D01*
X139477419Y-95293137D01*
X139474238Y-95293556D01*
X139471274Y-95294784D01*
X139471273Y-95294784D01*
X139457671Y-95300418D01*
X139419108Y-95299963D01*
X139379795Y-95282583D01*
X139376427Y-95281094D01*
X139372771Y-95280668D01*
X139372768Y-95280667D01*
X139363376Y-95279572D01*
X139350746Y-95278100D01*
X138661454Y-95278100D01*
X138660029Y-95278270D01*
X138660022Y-95278270D01*
X138638900Y-95280784D01*
X138638899Y-95280784D01*
X138635254Y-95281218D01*
X138631899Y-95282708D01*
X138631896Y-95282709D01*
X138537082Y-95324824D01*
X138537081Y-95324825D01*
X138532947Y-95326661D01*
X138529752Y-95329862D01*
X138529750Y-95329863D01*
X138505592Y-95354064D01*
X138453859Y-95405887D01*
X138450192Y-95414182D01*
X138425928Y-95469064D01*
X138398791Y-95494950D01*
X138361299Y-95494067D01*
X138336331Y-95469142D01*
X138336297Y-95469064D01*
X138321917Y-95436690D01*
X138309876Y-95409582D01*
X138309875Y-95409581D01*
X138308039Y-95405447D01*
X138304838Y-95402252D01*
X138304837Y-95402250D01*
X138255335Y-95352835D01*
X138228813Y-95326359D01*
X138126427Y-95281094D01*
X138122805Y-95280672D01*
X138093164Y-95257721D01*
X138087764Y-95233117D01*
X138087287Y-95233159D01*
X138086965Y-95229475D01*
X138086891Y-95229140D01*
X138086913Y-95228886D01*
X138086913Y-95228882D01*
X138087286Y-95224615D01*
X138076596Y-95184721D01*
X138075671Y-95180551D01*
X138071054Y-95154365D01*
X138068497Y-95139861D01*
X138064402Y-95132768D01*
X138059512Y-95120960D01*
X138058504Y-95117199D01*
X138057394Y-95113057D01*
X138033694Y-95079210D01*
X138031407Y-95075619D01*
X138012894Y-95043554D01*
X138010750Y-95039840D01*
X138007466Y-95037084D01*
X138007463Y-95037081D01*
X137979105Y-95013286D01*
X137975953Y-95010398D01*
X137737188Y-94771633D01*
X137722836Y-94736985D01*
X137723255Y-94730589D01*
X137736263Y-94631783D01*
X137736682Y-94628600D01*
X137725054Y-94540278D01*
X137716463Y-94475020D01*
X137716463Y-94475019D01*
X137716044Y-94471838D01*
X137714817Y-94468876D01*
X137714816Y-94468872D01*
X137656765Y-94328725D01*
X137656763Y-94328722D01*
X137655536Y-94325759D01*
X137559282Y-94200318D01*
X137433841Y-94104064D01*
X137430878Y-94102837D01*
X137430875Y-94102835D01*
X137290728Y-94044784D01*
X137290724Y-94044783D01*
X137287762Y-94043556D01*
X137284581Y-94043137D01*
X137284580Y-94043137D01*
X137134183Y-94023337D01*
X137131000Y-94022918D01*
X137127817Y-94023337D01*
X136977420Y-94043137D01*
X136977419Y-94043137D01*
X136974238Y-94043556D01*
X136971276Y-94044783D01*
X136971272Y-94044784D01*
X136831125Y-94102835D01*
X136831122Y-94102837D01*
X136828159Y-94104064D01*
X136702718Y-94200318D01*
X136606464Y-94325759D01*
X136605237Y-94328722D01*
X136605235Y-94328725D01*
X136547184Y-94468872D01*
X136547183Y-94468876D01*
X136545956Y-94471838D01*
X136545537Y-94475019D01*
X136545537Y-94475020D01*
X136536946Y-94540278D01*
X136525318Y-94628600D01*
X136525737Y-94631783D01*
X136544149Y-94771633D01*
X136545956Y-94785362D01*
X136547183Y-94788324D01*
X136547184Y-94788328D01*
X136605235Y-94928475D01*
X136606464Y-94931441D01*
X136702718Y-95056882D01*
X136828159Y-95153136D01*
X136831122Y-95154363D01*
X136831125Y-95154365D01*
X136971272Y-95212416D01*
X136971276Y-95212417D01*
X136974238Y-95213644D01*
X136977419Y-95214063D01*
X136977420Y-95214063D01*
X137127817Y-95233863D01*
X137131000Y-95234282D01*
X137159257Y-95230562D01*
X137232989Y-95220855D01*
X137269214Y-95230562D01*
X137274033Y-95234788D01*
X137291050Y-95251805D01*
X137305402Y-95286453D01*
X137291050Y-95321101D01*
X137285990Y-95325309D01*
X137282947Y-95326661D01*
X137203859Y-95405887D01*
X137158594Y-95508273D01*
X137155600Y-95533954D01*
X137155600Y-96223246D01*
X137155770Y-96224671D01*
X137155770Y-96224678D01*
X137158284Y-96245800D01*
X137158718Y-96249446D01*
X137160208Y-96252801D01*
X137160209Y-96252804D01*
X137202324Y-96347618D01*
X137204161Y-96351753D01*
X137207362Y-96354948D01*
X137207363Y-96354950D01*
X137238285Y-96385818D01*
X137283387Y-96430841D01*
X137385773Y-96476106D01*
X137389429Y-96476532D01*
X137389432Y-96476533D01*
X137398824Y-96477628D01*
X137411454Y-96479100D01*
X137676180Y-96479100D01*
X137710828Y-96493452D01*
X137725180Y-96528100D01*
X137710828Y-96562748D01*
X137693827Y-96572565D01*
X137694238Y-96573556D01*
X137551125Y-96632835D01*
X137551122Y-96632837D01*
X137548159Y-96634064D01*
X137422718Y-96730318D01*
X137420762Y-96732867D01*
X137374591Y-96793038D01*
X137326464Y-96855759D01*
X137325237Y-96858722D01*
X137325235Y-96858725D01*
X137267184Y-96998872D01*
X137267183Y-96998876D01*
X137265956Y-97001838D01*
X137265537Y-97005019D01*
X137265537Y-97005020D01*
X137249281Y-97128498D01*
X137235349Y-97156748D01*
X136670285Y-97721838D01*
X135289631Y-99102552D01*
X135281131Y-99109344D01*
X135275239Y-99113062D01*
X135275234Y-99113066D01*
X135272280Y-99114930D01*
X135269968Y-99117548D01*
X135235662Y-99156393D01*
X135233582Y-99158605D01*
X135220672Y-99171515D01*
X135212687Y-99182170D01*
X135210227Y-99185193D01*
X135177377Y-99222388D01*
X135170836Y-99236319D01*
X135165701Y-99244866D01*
X135156468Y-99257186D01*
X135155243Y-99260455D01*
X135155242Y-99260456D01*
X135139055Y-99303637D01*
X135137534Y-99307250D01*
X135116447Y-99352163D01*
X135115910Y-99355610D01*
X135115910Y-99355611D01*
X135114080Y-99367366D01*
X135111545Y-99377027D01*
X135106146Y-99391430D01*
X135105887Y-99394911D01*
X135105887Y-99394913D01*
X135102472Y-99440887D01*
X135102024Y-99444794D01*
X135100285Y-99455967D01*
X135099500Y-99461009D01*
X135099500Y-99479081D01*
X135099365Y-99482711D01*
X135095525Y-99534403D01*
X135096255Y-99537821D01*
X135098420Y-99547963D01*
X135099500Y-99558194D01*
X135099500Y-103649201D01*
X135089374Y-103679030D01*
X135077420Y-103694609D01*
X135077418Y-103694613D01*
X135075464Y-103697159D01*
X135074236Y-103700124D01*
X135016184Y-103840272D01*
X135016183Y-103840276D01*
X135014956Y-103843238D01*
X134994318Y-104000000D01*
X135014956Y-104156762D01*
X135016183Y-104159724D01*
X135016184Y-104159728D01*
X135062876Y-104272451D01*
X135075464Y-104302841D01*
X135171718Y-104428282D01*
X135174267Y-104430238D01*
X135195498Y-104446529D01*
X135297159Y-104524536D01*
X135300127Y-104525765D01*
X135300128Y-104525766D01*
X135350290Y-104546544D01*
X135376809Y-104573063D01*
X135376809Y-104610565D01*
X135346762Y-104638389D01*
X135285982Y-104658255D01*
X135074414Y-104768390D01*
X135072806Y-104769598D01*
X135072805Y-104769598D01*
X134987427Y-104833702D01*
X134883675Y-104911602D01*
X134842739Y-104954439D01*
X134720275Y-105082589D01*
X134720272Y-105082593D01*
X134718887Y-105084042D01*
X134717759Y-105085695D01*
X134717757Y-105085698D01*
X134595984Y-105264211D01*
X134584475Y-105281082D01*
X134583630Y-105282903D01*
X134583628Y-105282906D01*
X134484899Y-105495600D01*
X134484897Y-105495605D01*
X134484051Y-105497428D01*
X134420309Y-105727272D01*
X134394963Y-105964440D01*
X131736906Y-105964440D01*
X131736906Y-101855621D01*
X131820078Y-101755458D01*
X131823949Y-101751311D01*
X132003750Y-101579744D01*
X132008074Y-101576071D01*
X132199332Y-101431841D01*
X132206514Y-101426425D01*
X132211233Y-101423278D01*
X132425636Y-101297575D01*
X132430688Y-101294994D01*
X132658177Y-101194918D01*
X132663493Y-101192938D01*
X132808909Y-101148179D01*
X132881254Y-101125911D01*
X132893494Y-101123792D01*
X132898583Y-101123567D01*
X132899979Y-101123505D01*
X132899980Y-101123505D01*
X132904802Y-101123291D01*
X132986081Y-101085323D01*
X132989339Y-101081763D01*
X133043385Y-101022700D01*
X133043386Y-101022698D01*
X133046642Y-101019140D01*
X133059077Y-100984903D01*
X133075619Y-100939359D01*
X133075619Y-100939356D01*
X133077267Y-100934820D01*
X133075475Y-100894411D01*
X133076825Y-100884053D01*
X133076636Y-100884033D01*
X133077153Y-100879232D01*
X133078595Y-100874630D01*
X133070620Y-100785275D01*
X133068385Y-100780999D01*
X133068384Y-100780997D01*
X133031293Y-100710051D01*
X133029057Y-100705774D01*
X132996005Y-100678139D01*
X132963936Y-100651326D01*
X132963935Y-100651326D01*
X132960234Y-100648231D01*
X132948137Y-100644440D01*
X132937449Y-100639620D01*
X132704875Y-100499088D01*
X132701326Y-100496728D01*
X132464042Y-100323522D01*
X132460712Y-100320861D01*
X132239397Y-100127707D01*
X132236311Y-100124768D01*
X132099698Y-99982813D01*
X132032606Y-99913098D01*
X132029790Y-99909904D01*
X132007086Y-99881783D01*
X131845256Y-99681339D01*
X131842727Y-99677912D01*
X131826540Y-99653850D01*
X131732037Y-99513378D01*
X131724637Y-96646160D01*
X131776636Y-96592647D01*
X131780667Y-96588938D01*
X131949232Y-96450453D01*
X131953657Y-96447215D01*
X132136656Y-96328429D01*
X132141417Y-96325704D01*
X132227621Y-96282591D01*
X132255369Y-96268713D01*
X132336534Y-96228120D01*
X132341569Y-96225945D01*
X132470908Y-96178475D01*
X132546383Y-96150774D01*
X132551620Y-96149180D01*
X132743380Y-96102302D01*
X132755632Y-96100904D01*
X132767012Y-96101047D01*
X132771492Y-96099257D01*
X132776239Y-96098375D01*
X132776256Y-96098464D01*
X132777446Y-96098187D01*
X132777422Y-96098100D01*
X132782069Y-96096801D01*
X132786882Y-96096434D01*
X132816028Y-96081670D01*
X132819987Y-96079881D01*
X132850319Y-96067763D01*
X132853774Y-96064394D01*
X132857822Y-96061762D01*
X132857871Y-96061838D01*
X132858864Y-96061128D01*
X132858808Y-96061056D01*
X132862604Y-96058078D01*
X132866911Y-96055897D01*
X132870055Y-96052234D01*
X132870057Y-96052232D01*
X132888183Y-96031111D01*
X132891158Y-96027940D01*
X132911093Y-96008501D01*
X132914547Y-96005133D01*
X132916450Y-96000699D01*
X132919181Y-95996720D01*
X132919255Y-95996771D01*
X132919904Y-95995730D01*
X132919824Y-95995685D01*
X132922191Y-95991483D01*
X132925334Y-95987820D01*
X132926836Y-95983235D01*
X132926838Y-95983231D01*
X132935505Y-95956773D01*
X132937040Y-95952706D01*
X132948015Y-95927127D01*
X132948016Y-95927124D01*
X132949918Y-95922690D01*
X132949979Y-95917864D01*
X132950980Y-95913142D01*
X132951070Y-95913161D01*
X132951270Y-95911958D01*
X132951179Y-95911947D01*
X132951758Y-95907154D01*
X132953260Y-95902568D01*
X132950774Y-95869982D01*
X132950636Y-95865645D01*
X132950986Y-95837812D01*
X132951047Y-95832988D01*
X132949257Y-95828508D01*
X132948375Y-95823761D01*
X132948464Y-95823744D01*
X132948187Y-95822554D01*
X132948100Y-95822578D01*
X132946801Y-95817931D01*
X132946434Y-95813118D01*
X132931670Y-95783972D01*
X132929881Y-95780013D01*
X132919553Y-95754162D01*
X132917763Y-95749681D01*
X132914394Y-95746226D01*
X132911762Y-95742178D01*
X132911838Y-95742129D01*
X132911128Y-95741136D01*
X132911056Y-95741192D01*
X132908078Y-95737396D01*
X132905897Y-95733089D01*
X132902234Y-95729945D01*
X132902232Y-95729943D01*
X132881111Y-95711817D01*
X132877940Y-95708842D01*
X132858501Y-95688907D01*
X132855133Y-95685453D01*
X132850699Y-95683550D01*
X132846720Y-95680819D01*
X132846771Y-95680745D01*
X132845731Y-95680097D01*
X132845686Y-95680177D01*
X132841485Y-95677811D01*
X132837820Y-95674666D01*
X132833230Y-95673163D01*
X132833229Y-95673162D01*
X132825229Y-95670541D01*
X132814837Y-95665729D01*
X132570501Y-95515654D01*
X132567411Y-95513591D01*
X132316858Y-95332197D01*
X132313934Y-95329906D01*
X132077847Y-95130055D01*
X132075105Y-95127550D01*
X132060405Y-95113057D01*
X131854823Y-94910374D01*
X131852309Y-94907701D01*
X131784544Y-94829916D01*
X131719758Y-94755551D01*
X131716001Y-93300000D01*
X155994318Y-93300000D01*
X156014956Y-93456762D01*
X156016183Y-93459724D01*
X156016184Y-93459728D01*
X156039549Y-93516135D01*
X156075464Y-93602841D01*
X156171718Y-93728282D01*
X156297159Y-93824536D01*
X156300122Y-93825763D01*
X156300125Y-93825765D01*
X156440272Y-93883816D01*
X156440276Y-93883817D01*
X156443238Y-93885044D01*
X156446419Y-93885463D01*
X156446420Y-93885463D01*
X156596817Y-93905263D01*
X156600000Y-93905682D01*
X156603183Y-93905263D01*
X156753580Y-93885463D01*
X156753581Y-93885463D01*
X156756762Y-93885044D01*
X156759724Y-93883817D01*
X156759728Y-93883816D01*
X156899876Y-93825764D01*
X156902841Y-93824536D01*
X156905387Y-93822582D01*
X156905391Y-93822580D01*
X156920970Y-93810626D01*
X156950799Y-93800500D01*
X157350500Y-93800500D01*
X157385148Y-93814852D01*
X157399500Y-93849500D01*
X157399500Y-94250500D01*
X157385148Y-94285148D01*
X157350500Y-94299500D01*
X156996166Y-94299500D01*
X156995027Y-94299608D01*
X156995020Y-94299608D01*
X156967603Y-94302200D01*
X156964631Y-94302481D01*
X156961812Y-94303471D01*
X156840278Y-94346150D01*
X156840277Y-94346151D01*
X156836816Y-94347366D01*
X156727850Y-94427850D01*
X156647366Y-94536816D01*
X156602481Y-94664631D01*
X156602200Y-94667603D01*
X156599675Y-94694318D01*
X156599500Y-94696166D01*
X156599500Y-95303834D01*
X156599608Y-95304973D01*
X156599608Y-95304980D01*
X156601965Y-95329906D01*
X156602481Y-95335369D01*
X156603471Y-95338188D01*
X156625762Y-95401663D01*
X156647366Y-95463184D01*
X156727850Y-95572150D01*
X156836816Y-95652634D01*
X156840277Y-95653849D01*
X156840278Y-95653850D01*
X156915020Y-95680097D01*
X156964631Y-95697519D01*
X156967603Y-95697800D01*
X156995020Y-95700392D01*
X156995027Y-95700392D01*
X156996166Y-95700500D01*
X159303834Y-95700500D01*
X159304973Y-95700392D01*
X159304980Y-95700392D01*
X159332397Y-95697800D01*
X159335369Y-95697519D01*
X159384980Y-95680097D01*
X159459722Y-95653850D01*
X159459723Y-95653849D01*
X159463184Y-95652634D01*
X159572150Y-95572150D01*
X159652634Y-95463184D01*
X159674239Y-95401663D01*
X159696529Y-95338188D01*
X159697519Y-95335369D01*
X159698035Y-95329906D01*
X159700392Y-95304980D01*
X159700392Y-95304973D01*
X159700500Y-95303834D01*
X159700500Y-94696166D01*
X159700326Y-94694318D01*
X159697800Y-94667603D01*
X159697519Y-94664631D01*
X159652634Y-94536816D01*
X159572150Y-94427850D01*
X159497366Y-94372613D01*
X166624268Y-94372613D01*
X166626006Y-94376809D01*
X166642982Y-94389143D01*
X166647409Y-94391699D01*
X166812672Y-94465278D01*
X166817523Y-94466854D01*
X166994474Y-94504467D01*
X166999547Y-94505000D01*
X167180453Y-94505000D01*
X167185526Y-94504467D01*
X167362477Y-94466854D01*
X167367328Y-94465278D01*
X167532591Y-94391699D01*
X167537018Y-94389143D01*
X167551885Y-94378342D01*
X167555783Y-94371981D01*
X167554722Y-94367565D01*
X167096893Y-93909736D01*
X167090000Y-93906881D01*
X167083107Y-93909736D01*
X166627123Y-94365720D01*
X166624268Y-94372613D01*
X159497366Y-94372613D01*
X159463184Y-94347366D01*
X159459723Y-94346151D01*
X159459722Y-94346150D01*
X159338188Y-94303471D01*
X159335369Y-94302481D01*
X159332397Y-94302200D01*
X159304980Y-94299608D01*
X159304973Y-94299608D01*
X159303834Y-94299500D01*
X158449500Y-94299500D01*
X158414852Y-94285148D01*
X158400500Y-94250500D01*
X158400500Y-93353834D01*
X160499500Y-93353834D01*
X160502481Y-93385369D01*
X160503471Y-93388188D01*
X160520801Y-93437536D01*
X160547366Y-93513184D01*
X160549546Y-93516135D01*
X160624379Y-93617450D01*
X160627850Y-93622150D01*
X160736816Y-93702634D01*
X160740277Y-93703849D01*
X160740278Y-93703850D01*
X160815421Y-93730238D01*
X160864631Y-93747519D01*
X160867603Y-93747800D01*
X160895020Y-93750392D01*
X160895027Y-93750392D01*
X160896166Y-93750500D01*
X164303834Y-93750500D01*
X164304973Y-93750392D01*
X164304980Y-93750392D01*
X164332397Y-93747800D01*
X164335369Y-93747519D01*
X164384579Y-93730238D01*
X164459722Y-93703850D01*
X164459723Y-93703849D01*
X164463184Y-93702634D01*
X164571608Y-93622550D01*
X166200393Y-93622550D01*
X166219303Y-93802464D01*
X166220364Y-93807455D01*
X166276266Y-93979503D01*
X166278344Y-93984171D01*
X166333734Y-94080110D01*
X166339651Y-94084650D01*
X166342940Y-94084217D01*
X166800264Y-93626893D01*
X166803119Y-93620000D01*
X167376881Y-93620000D01*
X167379736Y-93626893D01*
X167834500Y-94081657D01*
X167841393Y-94084512D01*
X167844457Y-94083243D01*
X167901656Y-93984171D01*
X167903734Y-93979503D01*
X167959636Y-93807455D01*
X167960697Y-93802464D01*
X167979607Y-93622550D01*
X167979607Y-93617450D01*
X167960697Y-93437536D01*
X167959636Y-93432545D01*
X167903734Y-93260497D01*
X167901656Y-93255829D01*
X167846266Y-93159890D01*
X167840349Y-93155350D01*
X167837060Y-93155783D01*
X167379736Y-93613107D01*
X167376881Y-93620000D01*
X166803119Y-93620000D01*
X166800264Y-93613107D01*
X166345500Y-93158343D01*
X166338607Y-93155488D01*
X166335543Y-93156757D01*
X166278344Y-93255829D01*
X166276266Y-93260497D01*
X166220364Y-93432545D01*
X166219303Y-93437536D01*
X166200393Y-93617450D01*
X166200393Y-93622550D01*
X164571608Y-93622550D01*
X164572150Y-93622150D01*
X164575622Y-93617450D01*
X164650454Y-93516135D01*
X164652634Y-93513184D01*
X164679200Y-93437536D01*
X164696529Y-93388188D01*
X164697519Y-93385369D01*
X164700500Y-93353834D01*
X164700500Y-92868019D01*
X166624219Y-92868019D01*
X166625279Y-92872436D01*
X167083107Y-93330264D01*
X167090000Y-93333119D01*
X167096893Y-93330264D01*
X167552877Y-92874280D01*
X167555732Y-92867387D01*
X167553994Y-92863191D01*
X167537018Y-92850857D01*
X167532591Y-92848301D01*
X167367328Y-92774722D01*
X167362477Y-92773146D01*
X167185526Y-92735533D01*
X167180453Y-92735000D01*
X166999547Y-92735000D01*
X166994474Y-92735533D01*
X166817523Y-92773146D01*
X166812672Y-92774722D01*
X166647412Y-92848300D01*
X166642980Y-92850859D01*
X166628116Y-92861659D01*
X166624219Y-92868019D01*
X164700500Y-92868019D01*
X164700500Y-91946166D01*
X164697519Y-91914631D01*
X164652634Y-91786816D01*
X164572150Y-91677850D01*
X164463184Y-91597366D01*
X164459723Y-91596151D01*
X164459722Y-91596150D01*
X164338188Y-91553471D01*
X164335369Y-91552481D01*
X164332397Y-91552200D01*
X164304980Y-91549608D01*
X164304973Y-91549608D01*
X164303834Y-91549500D01*
X160896166Y-91549500D01*
X160895027Y-91549608D01*
X160895020Y-91549608D01*
X160867603Y-91552200D01*
X160864631Y-91552481D01*
X160861812Y-91553471D01*
X160740278Y-91596150D01*
X160740277Y-91596151D01*
X160736816Y-91597366D01*
X160627850Y-91677850D01*
X160547366Y-91786816D01*
X160502481Y-91914631D01*
X160499500Y-91946166D01*
X160499500Y-93353834D01*
X158400500Y-93353834D01*
X158400500Y-93308266D01*
X158400501Y-93307967D01*
X158400948Y-93234865D01*
X158400948Y-93234863D01*
X158400969Y-93231376D01*
X158391564Y-93198470D01*
X158390174Y-93191956D01*
X158385818Y-93161539D01*
X158385323Y-93158082D01*
X158377226Y-93140272D01*
X158372555Y-93129998D01*
X158370048Y-93123184D01*
X158362533Y-93096890D01*
X158362532Y-93096888D01*
X158361572Y-93093529D01*
X158343311Y-93064586D01*
X158340148Y-93058724D01*
X158327430Y-93030753D01*
X158325984Y-93027572D01*
X158323705Y-93024927D01*
X158323703Y-93024924D01*
X158305851Y-93004207D01*
X158301530Y-92998368D01*
X158286934Y-92975234D01*
X158286933Y-92975233D01*
X158285070Y-92972280D01*
X158282453Y-92969969D01*
X158282449Y-92969964D01*
X158259420Y-92949626D01*
X158254735Y-92944884D01*
X158234680Y-92921609D01*
X158232400Y-92918963D01*
X158206514Y-92902185D01*
X158200731Y-92897795D01*
X158180232Y-92879691D01*
X158177612Y-92877377D01*
X158146625Y-92862828D01*
X158140813Y-92859599D01*
X158123382Y-92848301D01*
X158112095Y-92840985D01*
X158082543Y-92832147D01*
X158075758Y-92829556D01*
X158050994Y-92817929D01*
X158050993Y-92817929D01*
X158047837Y-92816447D01*
X158044392Y-92815911D01*
X158044390Y-92815910D01*
X158025283Y-92812935D01*
X158014021Y-92811181D01*
X158007526Y-92809712D01*
X157974739Y-92799907D01*
X157941317Y-92799703D01*
X157939919Y-92799644D01*
X157938991Y-92799500D01*
X157908266Y-92799500D01*
X157907967Y-92799499D01*
X157834832Y-92799052D01*
X157834830Y-92799052D01*
X157831376Y-92799031D01*
X157830197Y-92799368D01*
X157828258Y-92799500D01*
X156950799Y-92799500D01*
X156920970Y-92789374D01*
X156905391Y-92777420D01*
X156905387Y-92777418D01*
X156902841Y-92775464D01*
X156870998Y-92762274D01*
X156759728Y-92716184D01*
X156759724Y-92716183D01*
X156756762Y-92714956D01*
X156753581Y-92714537D01*
X156753580Y-92714537D01*
X156603183Y-92694737D01*
X156600000Y-92694318D01*
X156596817Y-92694737D01*
X156446420Y-92714537D01*
X156446419Y-92714537D01*
X156443238Y-92714956D01*
X156440276Y-92716183D01*
X156440272Y-92716184D01*
X156300125Y-92774235D01*
X156300122Y-92774237D01*
X156297159Y-92775464D01*
X156171718Y-92871718D01*
X156075464Y-92997159D01*
X156074237Y-93000122D01*
X156074235Y-93000125D01*
X156016184Y-93140272D01*
X156016183Y-93140276D01*
X156014956Y-93143238D01*
X156014537Y-93146419D01*
X156014537Y-93146420D01*
X156013361Y-93155350D01*
X155994318Y-93300000D01*
X131716001Y-93300000D01*
X131707393Y-89964440D01*
X167394963Y-89964440D01*
X167396169Y-89985347D01*
X167408694Y-90202562D01*
X167409137Y-90204526D01*
X167409137Y-90204529D01*
X167432360Y-90307577D01*
X167461131Y-90435245D01*
X167550867Y-90656239D01*
X167551917Y-90657952D01*
X167669279Y-90849468D01*
X167675493Y-90859609D01*
X167701492Y-90889623D01*
X167830348Y-91038380D01*
X167830352Y-91038383D01*
X167831660Y-91039894D01*
X168015176Y-91192252D01*
X168016906Y-91193263D01*
X168016909Y-91193265D01*
X168112715Y-91249249D01*
X168221112Y-91312591D01*
X168443937Y-91397680D01*
X168445910Y-91398081D01*
X168445912Y-91398082D01*
X168675694Y-91444832D01*
X168675697Y-91444832D01*
X168677666Y-91445233D01*
X168679672Y-91445307D01*
X168679676Y-91445307D01*
X168834993Y-91451002D01*
X168916025Y-91453973D01*
X169152609Y-91423665D01*
X169381068Y-91355125D01*
X169382877Y-91354239D01*
X169593458Y-91251076D01*
X169593460Y-91251075D01*
X169595264Y-91250191D01*
X169598722Y-91247725D01*
X169787809Y-91112850D01*
X169789445Y-91111683D01*
X169801479Y-91099691D01*
X169956973Y-90944740D01*
X169956978Y-90944734D01*
X169958397Y-90943320D01*
X169959569Y-90941688D01*
X169959574Y-90941683D01*
X170096406Y-90751260D01*
X170096408Y-90751257D01*
X170097582Y-90749623D01*
X170203263Y-90535795D01*
X170272600Y-90307577D01*
X170303733Y-90071099D01*
X170305471Y-90000000D01*
X170285927Y-89762284D01*
X170257217Y-89647983D01*
X170228311Y-89532902D01*
X170228310Y-89532900D01*
X170227821Y-89530952D01*
X170132712Y-89312216D01*
X170101656Y-89264211D01*
X170004247Y-89113638D01*
X170004243Y-89113633D01*
X170003155Y-89111951D01*
X169842629Y-88935536D01*
X169841056Y-88934294D01*
X169841052Y-88934290D01*
X169657024Y-88788954D01*
X169655445Y-88787707D01*
X169648135Y-88783672D01*
X169448391Y-88673407D01*
X169448385Y-88673405D01*
X169446631Y-88672436D01*
X169221794Y-88592817D01*
X169219821Y-88592466D01*
X169219819Y-88592465D01*
X168988950Y-88551340D01*
X168988946Y-88551340D01*
X168986972Y-88550988D01*
X168984964Y-88550963D01*
X168984959Y-88550963D01*
X168858166Y-88549414D01*
X168748471Y-88548074D01*
X168746479Y-88548379D01*
X168746477Y-88548379D01*
X168630584Y-88566114D01*
X168512698Y-88584153D01*
X168285982Y-88658255D01*
X168074414Y-88768390D01*
X168072806Y-88769598D01*
X168072805Y-88769598D01*
X168003419Y-88821695D01*
X167883675Y-88911602D01*
X167882281Y-88913061D01*
X167720275Y-89082589D01*
X167720272Y-89082593D01*
X167718887Y-89084042D01*
X167717759Y-89085695D01*
X167717757Y-89085698D01*
X167595984Y-89264211D01*
X167584475Y-89281082D01*
X167583630Y-89282903D01*
X167583628Y-89282906D01*
X167484899Y-89495600D01*
X167484897Y-89495605D01*
X167484051Y-89497428D01*
X167420309Y-89727272D01*
X167394963Y-89964440D01*
X131707393Y-89964440D01*
X131705318Y-89160557D01*
X131729510Y-89150500D01*
X132821462Y-89150500D01*
X132832517Y-89151763D01*
X132846627Y-89155031D01*
X132846630Y-89155031D01*
X132849323Y-89155655D01*
X132850041Y-89155656D01*
X132860648Y-89153234D01*
X132866744Y-89152242D01*
X132886875Y-89150256D01*
X132987345Y-89140342D01*
X133119370Y-89100275D01*
X133241045Y-89035227D01*
X133347696Y-88947696D01*
X133435227Y-88841045D01*
X133500275Y-88719370D01*
X133540342Y-88587345D01*
X133552149Y-88467692D01*
X133553179Y-88461435D01*
X133555028Y-88453464D01*
X133555028Y-88453460D01*
X133555655Y-88450759D01*
X133555656Y-88450041D01*
X133551725Y-88432792D01*
X133550500Y-88421904D01*
X133550500Y-88278317D01*
X133551744Y-88267346D01*
X133551768Y-88267240D01*
X133555656Y-88250318D01*
X133554437Y-88244934D01*
X133554445Y-88239419D01*
X133554452Y-88239419D01*
X133554058Y-88227470D01*
X133554113Y-88227127D01*
X133563930Y-88165080D01*
X133568667Y-88150496D01*
X133604150Y-88080843D01*
X133613163Y-88068437D01*
X133668437Y-88013163D01*
X133680843Y-88004150D01*
X133750496Y-87968667D01*
X133765080Y-87963930D01*
X133827086Y-87954119D01*
X133838706Y-87954522D01*
X133838706Y-87954407D01*
X133844221Y-87954418D01*
X133849600Y-87955656D01*
X133854983Y-87954439D01*
X133855125Y-87954407D01*
X133867073Y-87951706D01*
X133877877Y-87950500D01*
X170121657Y-87950500D01*
X170132638Y-87951746D01*
G37*
%TD.AperFunction*%
%TA.AperFunction,Conductor*%
%TO.N,GND*%
G36*
X133875968Y-87800581D02*
G01*
X133876430Y-87800500D01*
X170139955Y-87800500D01*
X170150000Y-87804661D01*
X170156435Y-87801996D01*
X170157500Y-87802437D01*
X170157623Y-87801504D01*
X170255049Y-87814330D01*
X170276861Y-87820175D01*
X170364228Y-87856364D01*
X170383785Y-87867655D01*
X170458810Y-87925225D01*
X170474775Y-87941190D01*
X170532345Y-88016215D01*
X170543636Y-88035772D01*
X170579825Y-88123139D01*
X170585670Y-88144951D01*
X170598496Y-88242377D01*
X170598284Y-88242405D01*
X170598332Y-88242772D01*
X170595339Y-88250000D01*
X170599500Y-88260045D01*
X170599500Y-88272438D01*
X170599422Y-88276004D01*
X170599500Y-88276445D01*
X170599500Y-90739955D01*
X170595339Y-90750000D01*
X170596270Y-90752248D01*
X170598205Y-90769421D01*
X170609126Y-90866339D01*
X170609907Y-90873273D01*
X170611510Y-90877854D01*
X170641734Y-90964228D01*
X170650879Y-90990364D01*
X170716879Y-91095403D01*
X170804597Y-91183121D01*
X170832751Y-91200811D01*
X170905523Y-91246537D01*
X170905525Y-91246538D01*
X170909636Y-91249121D01*
X170914220Y-91250725D01*
X170914222Y-91250726D01*
X171010261Y-91284331D01*
X171026727Y-91290093D01*
X171031547Y-91290636D01*
X171031551Y-91290637D01*
X171127870Y-91301490D01*
X171127871Y-91301490D01*
X171147752Y-91303730D01*
X171150000Y-91304661D01*
X171160045Y-91300500D01*
X171172439Y-91300500D01*
X171176005Y-91300578D01*
X171176445Y-91300500D01*
X173339955Y-91300500D01*
X173350000Y-91304661D01*
X173356435Y-91301996D01*
X173357500Y-91302437D01*
X173357623Y-91301504D01*
X173455049Y-91314330D01*
X173476861Y-91320175D01*
X173564228Y-91356364D01*
X173583785Y-91367655D01*
X173658810Y-91425225D01*
X173674775Y-91441190D01*
X173732345Y-91516215D01*
X173743636Y-91535772D01*
X173779825Y-91623139D01*
X173785670Y-91644951D01*
X173798496Y-91742377D01*
X173798284Y-91742405D01*
X173798332Y-91742772D01*
X173795339Y-91750000D01*
X173799500Y-91760045D01*
X173799500Y-91772438D01*
X173799422Y-91776004D01*
X173799500Y-91776445D01*
X173799500Y-104239949D01*
X173795339Y-104249989D01*
X173798003Y-104256424D01*
X173797561Y-104257489D01*
X173798495Y-104257612D01*
X173785653Y-104355036D01*
X173779808Y-104376838D01*
X173758486Y-104428300D01*
X173743608Y-104464209D01*
X173732319Y-104483758D01*
X173674746Y-104558783D01*
X173658783Y-104574746D01*
X173583758Y-104632319D01*
X173564212Y-104643606D01*
X173476838Y-104679808D01*
X173455037Y-104685653D01*
X173401104Y-104692762D01*
X173357613Y-104698495D01*
X173357612Y-104698495D01*
X173357584Y-104698284D01*
X173357219Y-104698332D01*
X173349989Y-104695339D01*
X173339949Y-104699500D01*
X173327459Y-104699500D01*
X173323974Y-104699424D01*
X173323543Y-104699500D01*
X171160051Y-104699500D01*
X171150011Y-104695339D01*
X171147762Y-104696270D01*
X171026727Y-104709886D01*
X171022139Y-104711491D01*
X171022138Y-104711491D01*
X170959604Y-104733365D01*
X170909622Y-104750848D01*
X170804572Y-104816847D01*
X170716847Y-104904572D01*
X170650848Y-105009622D01*
X170609886Y-105126727D01*
X170596270Y-105247762D01*
X170595339Y-105250011D01*
X170599500Y-105260051D01*
X170599500Y-105272541D01*
X170599424Y-105276026D01*
X170599500Y-105276457D01*
X170599500Y-107739949D01*
X170595339Y-107749989D01*
X170598003Y-107756424D01*
X170597561Y-107757489D01*
X170598495Y-107757612D01*
X170585653Y-107855036D01*
X170579808Y-107876838D01*
X170543608Y-107964209D01*
X170532319Y-107983758D01*
X170474746Y-108058783D01*
X170458783Y-108074746D01*
X170383758Y-108132319D01*
X170364212Y-108143606D01*
X170276838Y-108179808D01*
X170255037Y-108185653D01*
X170201104Y-108192762D01*
X170157613Y-108198495D01*
X170157612Y-108198495D01*
X170157584Y-108198284D01*
X170157219Y-108198332D01*
X170149989Y-108195339D01*
X170139949Y-108199500D01*
X170127459Y-108199500D01*
X170123974Y-108199424D01*
X170123543Y-108199500D01*
X133860045Y-108199500D01*
X133850000Y-108195339D01*
X133843565Y-108198004D01*
X133842500Y-108197563D01*
X133842377Y-108198496D01*
X133744951Y-108185670D01*
X133723139Y-108179825D01*
X133635772Y-108143636D01*
X133616215Y-108132345D01*
X133541190Y-108074775D01*
X133525225Y-108058810D01*
X133467655Y-107983785D01*
X133456364Y-107964228D01*
X133420175Y-107876861D01*
X133414330Y-107855049D01*
X133401504Y-107757623D01*
X133401716Y-107757595D01*
X133401668Y-107757228D01*
X133404661Y-107750000D01*
X133400500Y-107739955D01*
X133400500Y-107727562D01*
X133400578Y-107723996D01*
X133400500Y-107723555D01*
X133400500Y-107560045D01*
X133404661Y-107550000D01*
X133403730Y-107547752D01*
X133401795Y-107530579D01*
X133390637Y-107431551D01*
X133390636Y-107431547D01*
X133390093Y-107426727D01*
X133384331Y-107410261D01*
X133350726Y-107314222D01*
X133350725Y-107314220D01*
X133349121Y-107309636D01*
X133346296Y-107305139D01*
X133300437Y-107232156D01*
X133283121Y-107204597D01*
X133195403Y-107116879D01*
X133100553Y-107057281D01*
X133094477Y-107053463D01*
X133094475Y-107053462D01*
X133090364Y-107050879D01*
X133085780Y-107049275D01*
X133085778Y-107049274D01*
X132977854Y-107011510D01*
X132973273Y-107009907D01*
X132968453Y-107009364D01*
X132968449Y-107009363D01*
X132872130Y-106998510D01*
X132872129Y-106998510D01*
X132852248Y-106996270D01*
X132850000Y-106995339D01*
X132839955Y-106999500D01*
X132827561Y-106999500D01*
X132823995Y-106999422D01*
X132823555Y-106999500D01*
X131798497Y-106999500D01*
X131742896Y-106979263D01*
X131713311Y-106928021D01*
X131711997Y-106913000D01*
X131711997Y-106000000D01*
X134544532Y-106000000D01*
X134544861Y-106003760D01*
X134560949Y-106187643D01*
X134564365Y-106226692D01*
X134623261Y-106446496D01*
X134719432Y-106652734D01*
X134849953Y-106839139D01*
X135010861Y-107000047D01*
X135116245Y-107073837D01*
X135176198Y-107115816D01*
X135197266Y-107130568D01*
X135200683Y-107132161D01*
X135200684Y-107132162D01*
X135400083Y-107225144D01*
X135400085Y-107225145D01*
X135403504Y-107226739D01*
X135407149Y-107227716D01*
X135407150Y-107227716D01*
X135457436Y-107241190D01*
X135623308Y-107285635D01*
X135627064Y-107285964D01*
X135627066Y-107285964D01*
X135846240Y-107305139D01*
X135850000Y-107305468D01*
X135853760Y-107305139D01*
X136072934Y-107285964D01*
X136072936Y-107285964D01*
X136076692Y-107285635D01*
X136242564Y-107241190D01*
X136292850Y-107227716D01*
X136292851Y-107227716D01*
X136296496Y-107226739D01*
X136299915Y-107225145D01*
X136299917Y-107225144D01*
X136499316Y-107132162D01*
X136499317Y-107132161D01*
X136502734Y-107130568D01*
X136523803Y-107115816D01*
X136583755Y-107073837D01*
X136689139Y-107000047D01*
X136850047Y-106839139D01*
X136980568Y-106652734D01*
X137076739Y-106446496D01*
X137135635Y-106226692D01*
X137139052Y-106187643D01*
X137155139Y-106003760D01*
X137155468Y-106000000D01*
X137135635Y-105773308D01*
X137076739Y-105553504D01*
X136983588Y-105353741D01*
X136982162Y-105350684D01*
X136982161Y-105350683D01*
X136980568Y-105347266D01*
X136850047Y-105160861D01*
X136689139Y-104999953D01*
X136567238Y-104914598D01*
X136505825Y-104871596D01*
X136505822Y-104871594D01*
X136502734Y-104869432D01*
X136499316Y-104867838D01*
X136299917Y-104774856D01*
X136299915Y-104774855D01*
X136296496Y-104773261D01*
X136076692Y-104714365D01*
X136072936Y-104714036D01*
X136072934Y-104714036D01*
X135859044Y-104695323D01*
X135805418Y-104670317D01*
X135780412Y-104616691D01*
X135795726Y-104559538D01*
X135833480Y-104529237D01*
X135862964Y-104517024D01*
X135886407Y-104507314D01*
X135886409Y-104507313D01*
X135891645Y-104505144D01*
X135910924Y-104490351D01*
X136007948Y-104415901D01*
X136012448Y-104412448D01*
X136093918Y-104306275D01*
X136101692Y-104296144D01*
X136101693Y-104296143D01*
X136105144Y-104291645D01*
X136163415Y-104150967D01*
X136183290Y-104000000D01*
X136182550Y-103994379D01*
X136164155Y-103854653D01*
X136164155Y-103854652D01*
X136163415Y-103849033D01*
X136105144Y-103708355D01*
X136096174Y-103696665D01*
X136078300Y-103644008D01*
X136078300Y-102700000D01*
X145616710Y-102700000D01*
X145636585Y-102850967D01*
X145694856Y-102991645D01*
X145698307Y-102996143D01*
X145698308Y-102996144D01*
X145720257Y-103024748D01*
X145787552Y-103112448D01*
X145908355Y-103205144D01*
X146049033Y-103263415D01*
X146054652Y-103264155D01*
X146054653Y-103264155D01*
X146194379Y-103282550D01*
X146200000Y-103283290D01*
X146205621Y-103282550D01*
X146345347Y-103264155D01*
X146345348Y-103264155D01*
X146350967Y-103263415D01*
X146491645Y-103205144D01*
X146612448Y-103112448D01*
X146679743Y-103024748D01*
X146701692Y-102996144D01*
X146701693Y-102996143D01*
X146705144Y-102991645D01*
X146763415Y-102850967D01*
X146783290Y-102700000D01*
X146766175Y-102569999D01*
X153700000Y-102569999D01*
X153700252Y-102574652D01*
X153706057Y-102628083D01*
X153708544Y-102638546D01*
X153754755Y-102761814D01*
X153760611Y-102772510D01*
X153839114Y-102877256D01*
X153847744Y-102885886D01*
X153952490Y-102964389D01*
X153963186Y-102970245D01*
X154086454Y-103016456D01*
X154096917Y-103018943D01*
X154150348Y-103024748D01*
X154155001Y-103025000D01*
X154284749Y-103025000D01*
X154296432Y-103020748D01*
X154300000Y-103014568D01*
X154300000Y-103009749D01*
X154700000Y-103009749D01*
X154704252Y-103021432D01*
X154710432Y-103025000D01*
X154844999Y-103025000D01*
X154849652Y-103024748D01*
X154903083Y-103018943D01*
X154913546Y-103016456D01*
X155036814Y-102970245D01*
X155047510Y-102964389D01*
X155152256Y-102885886D01*
X155160886Y-102877256D01*
X155239389Y-102772510D01*
X155245245Y-102761814D01*
X155287605Y-102648819D01*
X160521700Y-102648819D01*
X160521701Y-104051180D01*
X160524534Y-104081162D01*
X160567208Y-104202678D01*
X160643725Y-104306275D01*
X160747322Y-104382792D01*
X160753420Y-104384934D01*
X160753423Y-104384935D01*
X160841601Y-104415901D01*
X160868838Y-104425466D01*
X160890532Y-104427517D01*
X160896786Y-104428108D01*
X160896790Y-104428108D01*
X160898819Y-104428300D01*
X162598750Y-104428300D01*
X164301180Y-104428299D01*
X164331162Y-104425466D01*
X164358399Y-104415901D01*
X164446577Y-104384935D01*
X164446580Y-104384934D01*
X164452678Y-104382792D01*
X164556275Y-104306275D01*
X164632792Y-104202678D01*
X164675466Y-104081162D01*
X164677517Y-104059468D01*
X164678108Y-104053214D01*
X164678108Y-104053210D01*
X164678300Y-104051181D01*
X164678299Y-103133096D01*
X166625760Y-103133096D01*
X166626936Y-103137485D01*
X166641393Y-103147989D01*
X166649203Y-103152498D01*
X166810873Y-103224477D01*
X166819449Y-103227264D01*
X166992552Y-103264058D01*
X167001514Y-103265000D01*
X167178486Y-103265000D01*
X167187448Y-103264058D01*
X167360551Y-103227264D01*
X167369131Y-103224476D01*
X167468319Y-103180315D01*
X167527344Y-103176188D01*
X167575213Y-103210967D01*
X167590001Y-103259337D01*
X167590001Y-103618084D01*
X167590532Y-103624836D01*
X167603770Y-103708420D01*
X167607927Y-103721217D01*
X167659268Y-103821979D01*
X167667172Y-103832858D01*
X167747142Y-103912828D01*
X167758021Y-103920732D01*
X167858788Y-103972075D01*
X167871575Y-103976230D01*
X167955165Y-103989469D01*
X167961914Y-103990000D01*
X170314749Y-103990000D01*
X170326432Y-103985748D01*
X170330000Y-103979568D01*
X170330000Y-103974748D01*
X170730000Y-103974748D01*
X170734252Y-103986431D01*
X170740432Y-103989999D01*
X173098084Y-103989999D01*
X173104836Y-103989468D01*
X173188420Y-103976230D01*
X173201217Y-103972073D01*
X173301979Y-103920732D01*
X173312858Y-103912828D01*
X173392828Y-103832858D01*
X173400732Y-103821979D01*
X173452075Y-103721212D01*
X173456230Y-103708425D01*
X173469469Y-103624835D01*
X173470000Y-103618086D01*
X173470000Y-102595251D01*
X173465748Y-102583568D01*
X173459568Y-102580000D01*
X170745251Y-102580000D01*
X170733568Y-102584252D01*
X170730000Y-102590432D01*
X170730000Y-103974748D01*
X170330000Y-103974748D01*
X170330000Y-102595251D01*
X170325748Y-102583568D01*
X170319568Y-102580000D01*
X167755251Y-102580000D01*
X167743568Y-102584252D01*
X167740000Y-102590432D01*
X167740000Y-102963500D01*
X167719763Y-103019101D01*
X167668521Y-103048686D01*
X167653500Y-103050000D01*
X167426500Y-103050000D01*
X167370899Y-103029763D01*
X167341314Y-102978521D01*
X167340000Y-102963500D01*
X167340000Y-102428096D01*
X167333839Y-102411168D01*
X167333839Y-102383077D01*
X167321370Y-102429614D01*
X167311678Y-102441165D01*
X166631015Y-103121828D01*
X166625760Y-103133096D01*
X164678299Y-103133096D01*
X164678299Y-102648820D01*
X164675466Y-102618838D01*
X164667183Y-102595251D01*
X164634935Y-102503423D01*
X164634934Y-102503420D01*
X164632792Y-102497322D01*
X164556275Y-102393725D01*
X164543799Y-102384510D01*
X166200599Y-102384510D01*
X166219097Y-102560509D01*
X166220972Y-102569325D01*
X166275657Y-102737631D01*
X166279327Y-102745873D01*
X166330981Y-102835341D01*
X166340506Y-102843334D01*
X166342979Y-102843334D01*
X166345306Y-102841851D01*
X166796372Y-102390785D01*
X166801627Y-102379517D01*
X166799779Y-102372622D01*
X166349392Y-101922235D01*
X166338124Y-101916980D01*
X166335734Y-101917621D01*
X166333870Y-101919654D01*
X166279327Y-102014127D01*
X166275657Y-102022369D01*
X166220972Y-102190675D01*
X166219097Y-102199491D01*
X166200599Y-102375490D01*
X166200599Y-102384510D01*
X164543799Y-102384510D01*
X164452678Y-102317208D01*
X164446580Y-102315066D01*
X164446577Y-102315065D01*
X164336137Y-102276281D01*
X164336136Y-102276281D01*
X164331162Y-102274534D01*
X164309468Y-102272483D01*
X164303214Y-102271892D01*
X164303210Y-102271892D01*
X164301181Y-102271700D01*
X162601250Y-102271700D01*
X160898820Y-102271701D01*
X160868838Y-102274534D01*
X160863867Y-102276280D01*
X160863866Y-102276280D01*
X160753423Y-102315065D01*
X160753420Y-102315066D01*
X160747322Y-102317208D01*
X160643725Y-102393725D01*
X160567208Y-102497322D01*
X160565066Y-102503420D01*
X160565065Y-102503423D01*
X160532817Y-102595251D01*
X160524534Y-102618838D01*
X160524038Y-102624090D01*
X160521893Y-102646781D01*
X160521700Y-102648819D01*
X155287605Y-102648819D01*
X155291456Y-102638546D01*
X155293943Y-102628083D01*
X155299748Y-102574652D01*
X155300000Y-102569999D01*
X155300000Y-102440251D01*
X155295748Y-102428568D01*
X155289568Y-102425000D01*
X154715251Y-102425000D01*
X154703568Y-102429252D01*
X154700000Y-102435432D01*
X154700000Y-103009749D01*
X154300000Y-103009749D01*
X154300000Y-102440251D01*
X154295748Y-102428568D01*
X154289568Y-102425000D01*
X153715251Y-102425000D01*
X153703568Y-102429252D01*
X153700000Y-102435432D01*
X153700000Y-102569999D01*
X146766175Y-102569999D01*
X146764155Y-102554653D01*
X146764155Y-102554652D01*
X146763415Y-102549033D01*
X146705144Y-102408355D01*
X146697911Y-102398928D01*
X146615901Y-102292052D01*
X146612448Y-102287552D01*
X146512142Y-102210584D01*
X146480350Y-102160681D01*
X146478300Y-102141959D01*
X146478300Y-101551106D01*
X146498537Y-101495505D01*
X146503635Y-101489941D01*
X146789940Y-101203635D01*
X146843566Y-101178629D01*
X146851105Y-101178300D01*
X153835201Y-101178300D01*
X153890802Y-101198537D01*
X153920387Y-101249779D01*
X153921701Y-101264800D01*
X153921701Y-101316348D01*
X153924587Y-101340613D01*
X153927221Y-101346544D01*
X153927222Y-101346546D01*
X153951895Y-101402092D01*
X153955971Y-101461121D01*
X153924719Y-101506424D01*
X153847744Y-101564114D01*
X153839114Y-101572744D01*
X153760611Y-101677490D01*
X153754755Y-101688186D01*
X153708544Y-101811454D01*
X153706057Y-101821917D01*
X153700252Y-101875348D01*
X153700000Y-101880001D01*
X153700000Y-102009749D01*
X153704252Y-102021432D01*
X153710432Y-102025000D01*
X155284749Y-102025000D01*
X155296432Y-102020748D01*
X155300000Y-102014568D01*
X155300000Y-101880001D01*
X155299748Y-101875348D01*
X155293943Y-101821917D01*
X155291456Y-101811454D01*
X155245245Y-101688186D01*
X155239389Y-101677490D01*
X155175075Y-101591676D01*
X155157924Y-101535047D01*
X155181186Y-101480642D01*
X155233976Y-101453917D01*
X155244293Y-101453300D01*
X156624020Y-101453300D01*
X156679621Y-101473537D01*
X156693598Y-101488408D01*
X156743725Y-101556275D01*
X156847322Y-101632792D01*
X156853420Y-101634934D01*
X156853423Y-101634935D01*
X156940277Y-101665436D01*
X156968838Y-101675466D01*
X156990250Y-101677490D01*
X156996786Y-101678108D01*
X156996790Y-101678108D01*
X156998819Y-101678300D01*
X158149154Y-101678300D01*
X159301180Y-101678299D01*
X159331162Y-101675466D01*
X159359723Y-101665436D01*
X159446577Y-101634935D01*
X159446580Y-101634934D01*
X159452678Y-101632792D01*
X159458176Y-101628731D01*
X166625618Y-101628731D01*
X166626093Y-101633250D01*
X167311678Y-102318835D01*
X167333840Y-102366361D01*
X167333840Y-102351998D01*
X167340000Y-102340165D01*
X167340000Y-101796500D01*
X167360237Y-101740899D01*
X167411479Y-101711314D01*
X167426500Y-101710000D01*
X167653500Y-101710000D01*
X167709101Y-101730237D01*
X167738686Y-101781479D01*
X167740000Y-101796500D01*
X167740000Y-102164749D01*
X167744252Y-102176432D01*
X167750432Y-102180000D01*
X170314749Y-102180000D01*
X170326432Y-102175748D01*
X170330000Y-102169568D01*
X170330000Y-102164749D01*
X170730000Y-102164749D01*
X170734252Y-102176432D01*
X170740432Y-102180000D01*
X173454748Y-102180000D01*
X173466431Y-102175748D01*
X173469999Y-102169568D01*
X173469999Y-101141916D01*
X173469468Y-101135164D01*
X173456230Y-101051580D01*
X173452073Y-101038783D01*
X173400732Y-100938021D01*
X173392828Y-100927142D01*
X173312858Y-100847172D01*
X173301979Y-100839268D01*
X173201212Y-100787925D01*
X173188425Y-100783770D01*
X173104835Y-100770531D01*
X173098086Y-100770000D01*
X170745251Y-100770000D01*
X170733568Y-100774252D01*
X170730000Y-100780432D01*
X170730000Y-102164749D01*
X170330000Y-102164749D01*
X170330000Y-100785252D01*
X170325748Y-100773569D01*
X170319568Y-100770001D01*
X167961916Y-100770001D01*
X167955164Y-100770532D01*
X167871580Y-100783770D01*
X167858783Y-100787927D01*
X167758021Y-100839268D01*
X167747142Y-100847172D01*
X167667172Y-100927142D01*
X167659268Y-100938021D01*
X167607925Y-101038788D01*
X167603770Y-101051575D01*
X167590531Y-101135165D01*
X167590000Y-101141914D01*
X167590000Y-101500663D01*
X167569763Y-101556264D01*
X167518521Y-101585849D01*
X167468317Y-101579685D01*
X167369127Y-101535523D01*
X167360551Y-101532736D01*
X167187448Y-101495942D01*
X167178486Y-101495000D01*
X167001514Y-101495000D01*
X166992552Y-101495942D01*
X166819449Y-101532736D01*
X166810873Y-101535523D01*
X166649204Y-101607502D01*
X166641393Y-101612013D01*
X166632571Y-101618422D01*
X166625618Y-101628731D01*
X159458176Y-101628731D01*
X159556275Y-101556275D01*
X159560521Y-101550527D01*
X159589181Y-101511723D01*
X159632792Y-101452678D01*
X159642462Y-101425144D01*
X159673719Y-101336137D01*
X159673719Y-101336136D01*
X159675466Y-101331162D01*
X159678300Y-101301181D01*
X159678299Y-100698820D01*
X159675466Y-100668838D01*
X159663885Y-100635861D01*
X159634935Y-100553423D01*
X159634934Y-100553420D01*
X159632792Y-100547322D01*
X159556275Y-100443725D01*
X159452678Y-100367208D01*
X159446580Y-100365066D01*
X159446577Y-100365065D01*
X159336137Y-100326281D01*
X159336136Y-100326281D01*
X159331162Y-100324534D01*
X159309468Y-100322483D01*
X159303214Y-100321892D01*
X159303210Y-100321892D01*
X159301181Y-100321700D01*
X158150846Y-100321700D01*
X156998820Y-100321701D01*
X156968838Y-100324534D01*
X156963867Y-100326280D01*
X156963866Y-100326280D01*
X156853423Y-100365065D01*
X156853420Y-100365066D01*
X156847322Y-100367208D01*
X156743725Y-100443725D01*
X156739882Y-100448928D01*
X156730529Y-100461591D01*
X156681217Y-100494292D01*
X156660950Y-100496700D01*
X155051143Y-100496700D01*
X154995542Y-100476463D01*
X154990040Y-100471426D01*
X154959954Y-100441393D01*
X154865132Y-100399473D01*
X154841349Y-100396700D01*
X154504042Y-100396700D01*
X154158652Y-100396701D01*
X154156117Y-100397003D01*
X154156109Y-100397003D01*
X154148230Y-100397941D01*
X154134387Y-100399587D01*
X154128456Y-100402221D01*
X154128454Y-100402222D01*
X154046940Y-100438429D01*
X154046938Y-100438431D01*
X154039638Y-100441673D01*
X153966393Y-100515046D01*
X153942678Y-100568690D01*
X153942021Y-100570175D01*
X153901030Y-100612846D01*
X153862907Y-100621700D01*
X146749782Y-100621700D01*
X146745677Y-100621398D01*
X146741359Y-100619916D01*
X146695471Y-100621639D01*
X146692225Y-100621700D01*
X146674114Y-100621700D01*
X146670199Y-100622429D01*
X146669648Y-100622480D01*
X146664944Y-100622785D01*
X146645741Y-100623506D01*
X146645740Y-100623506D01*
X146637757Y-100623806D01*
X146630417Y-100626960D01*
X146630415Y-100626960D01*
X146627434Y-100628241D01*
X146609129Y-100633802D01*
X146605931Y-100634398D01*
X146605929Y-100634399D01*
X146598077Y-100635861D01*
X146591279Y-100640051D01*
X146591280Y-100640051D01*
X146576757Y-100649003D01*
X146565514Y-100654843D01*
X146548109Y-100662321D01*
X146548105Y-100662323D01*
X146542501Y-100664731D01*
X146537979Y-100668445D01*
X146533504Y-100672920D01*
X146517731Y-100685388D01*
X146509822Y-100690263D01*
X146504989Y-100696619D01*
X146493251Y-100712055D01*
X146485562Y-100720862D01*
X146038410Y-101168014D01*
X146035296Y-101170702D01*
X146031196Y-101172706D01*
X146025766Y-101178560D01*
X146025763Y-101178562D01*
X145999972Y-101206365D01*
X145997721Y-101208703D01*
X145984908Y-101221516D01*
X145982652Y-101224804D01*
X145982300Y-101225228D01*
X145979190Y-101228769D01*
X145960689Y-101248714D01*
X145957730Y-101256131D01*
X145957728Y-101256134D01*
X145956525Y-101259149D01*
X145947514Y-101276025D01*
X145945672Y-101278709D01*
X145945669Y-101278716D01*
X145941155Y-101285296D01*
X145936967Y-101302946D01*
X145935372Y-101309666D01*
X145931551Y-101321748D01*
X145927936Y-101330810D01*
X145922271Y-101345008D01*
X145921700Y-101350832D01*
X145921700Y-101357154D01*
X145919363Y-101377127D01*
X145917217Y-101386170D01*
X145918294Y-101394083D01*
X145920910Y-101413304D01*
X145921700Y-101424969D01*
X145921700Y-102141959D01*
X145901463Y-102197560D01*
X145887858Y-102210584D01*
X145787552Y-102287552D01*
X145784099Y-102292052D01*
X145702090Y-102398928D01*
X145694856Y-102408355D01*
X145636585Y-102549033D01*
X145635845Y-102554652D01*
X145635845Y-102554653D01*
X145633825Y-102569999D01*
X145616710Y-102700000D01*
X136078300Y-102700000D01*
X136078300Y-99878600D01*
X136422710Y-99878600D01*
X136423450Y-99884221D01*
X136440529Y-100013947D01*
X136442585Y-100029567D01*
X136500856Y-100170245D01*
X136504307Y-100174743D01*
X136504308Y-100174744D01*
X136547054Y-100230451D01*
X136593552Y-100291048D01*
X136598052Y-100294501D01*
X136667858Y-100348065D01*
X136714355Y-100383744D01*
X136855033Y-100442015D01*
X136860652Y-100442755D01*
X136860653Y-100442755D01*
X137000379Y-100461150D01*
X137006000Y-100461890D01*
X137011621Y-100461150D01*
X137100390Y-100449464D01*
X137158157Y-100462271D01*
X137172819Y-100474034D01*
X137233787Y-100534951D01*
X137258816Y-100588566D01*
X137243525Y-100645726D01*
X137233866Y-100657252D01*
X137228137Y-100662991D01*
X137228136Y-100662993D01*
X137222493Y-100668646D01*
X137180573Y-100763468D01*
X137177800Y-100787251D01*
X137177801Y-101469948D01*
X137178103Y-101472483D01*
X137178103Y-101472491D01*
X137179041Y-101480370D01*
X137180687Y-101494213D01*
X137183321Y-101500144D01*
X137183322Y-101500146D01*
X137219529Y-101581660D01*
X137219530Y-101581661D01*
X137222773Y-101588962D01*
X137259064Y-101625190D01*
X137290201Y-101656272D01*
X137296146Y-101662207D01*
X137390968Y-101704127D01*
X137414751Y-101706900D01*
X137752058Y-101706900D01*
X138097448Y-101706899D01*
X138099983Y-101706597D01*
X138099991Y-101706597D01*
X138107870Y-101705659D01*
X138121713Y-101704013D01*
X138127644Y-101701379D01*
X138127646Y-101701378D01*
X138209160Y-101665171D01*
X138209162Y-101665169D01*
X138216462Y-101661927D01*
X138289707Y-101588554D01*
X138296697Y-101572744D01*
X138302006Y-101560734D01*
X138342996Y-101518062D01*
X138401825Y-101511723D01*
X138450966Y-101544680D01*
X138460172Y-101560593D01*
X138472773Y-101588962D01*
X138509064Y-101625190D01*
X138540201Y-101656272D01*
X138546146Y-101662207D01*
X138640968Y-101704127D01*
X138664751Y-101706900D01*
X139002058Y-101706900D01*
X139347448Y-101706899D01*
X139349983Y-101706597D01*
X139349991Y-101706597D01*
X139357870Y-101705659D01*
X139371713Y-101704013D01*
X139403571Y-101689862D01*
X139462598Y-101685785D01*
X139471787Y-101688999D01*
X139480033Y-101692415D01*
X139485652Y-101693155D01*
X139485653Y-101693155D01*
X139625379Y-101711550D01*
X139631000Y-101712290D01*
X139636621Y-101711550D01*
X139776347Y-101693155D01*
X139776348Y-101693155D01*
X139781967Y-101692415D01*
X139922645Y-101634144D01*
X139929700Y-101628731D01*
X140038948Y-101544901D01*
X140043448Y-101541448D01*
X140084638Y-101487769D01*
X140132692Y-101425144D01*
X140132693Y-101425143D01*
X140136144Y-101420645D01*
X140194415Y-101279967D01*
X140198530Y-101248714D01*
X140213550Y-101134621D01*
X140214290Y-101129000D01*
X140204577Y-101055224D01*
X140195155Y-100983653D01*
X140195155Y-100983652D01*
X140194415Y-100978033D01*
X140136144Y-100837355D01*
X140100034Y-100790295D01*
X140046901Y-100721052D01*
X140043448Y-100716552D01*
X139995912Y-100680076D01*
X139927144Y-100627308D01*
X139927143Y-100627307D01*
X139922645Y-100623856D01*
X139781967Y-100565585D01*
X139776348Y-100564845D01*
X139776347Y-100564845D01*
X139636621Y-100546450D01*
X139631000Y-100545710D01*
X139625379Y-100546450D01*
X139485653Y-100564845D01*
X139485652Y-100564845D01*
X139480033Y-100565585D01*
X139472682Y-100568630D01*
X139471304Y-100568690D01*
X139469319Y-100569222D01*
X139469201Y-100568782D01*
X139413569Y-100571210D01*
X139404619Y-100567833D01*
X139371232Y-100553073D01*
X139364772Y-100552320D01*
X139364769Y-100552319D01*
X139349936Y-100550590D01*
X139347449Y-100550300D01*
X139341095Y-100550300D01*
X138931265Y-100550301D01*
X138875665Y-100530064D01*
X138846080Y-100478822D01*
X138856355Y-100420551D01*
X138898162Y-100383886D01*
X138917404Y-100375915D01*
X138917406Y-100375914D01*
X138922645Y-100373744D01*
X138956111Y-100348065D01*
X139038948Y-100284501D01*
X139043448Y-100281048D01*
X139124977Y-100174798D01*
X139132692Y-100164744D01*
X139132693Y-100164743D01*
X139136144Y-100160245D01*
X139194415Y-100019567D01*
X139212974Y-99878600D01*
X139213550Y-99874221D01*
X139214290Y-99868600D01*
X139196562Y-99733941D01*
X139195155Y-99723253D01*
X139195155Y-99723252D01*
X139194415Y-99717633D01*
X139136144Y-99576955D01*
X139127174Y-99565265D01*
X139109300Y-99512608D01*
X139109300Y-99302569D01*
X139129537Y-99246968D01*
X139134639Y-99241400D01*
X139145956Y-99230085D01*
X140497611Y-97878600D01*
X146672710Y-97878600D01*
X146692585Y-98029567D01*
X146750856Y-98170245D01*
X146843552Y-98291048D01*
X146848052Y-98294501D01*
X146887192Y-98324534D01*
X146964355Y-98383744D01*
X147105033Y-98442015D01*
X147110652Y-98442755D01*
X147110653Y-98442755D01*
X147250379Y-98461150D01*
X147256000Y-98461890D01*
X147330011Y-98452146D01*
X147387776Y-98464952D01*
X147423796Y-98511895D01*
X147427800Y-98537906D01*
X147427801Y-98692475D01*
X147427801Y-98844948D01*
X147430687Y-98869213D01*
X147433321Y-98875144D01*
X147433322Y-98875146D01*
X147469529Y-98956660D01*
X147469530Y-98956661D01*
X147472773Y-98963962D01*
X147478428Y-98969607D01*
X147540201Y-99031272D01*
X147546146Y-99037207D01*
X147640968Y-99079127D01*
X147664751Y-99081900D01*
X148002058Y-99081900D01*
X148347448Y-99081899D01*
X148349983Y-99081597D01*
X148349991Y-99081597D01*
X148357870Y-99080659D01*
X148371713Y-99079013D01*
X148377644Y-99076379D01*
X148377646Y-99076378D01*
X148459160Y-99040171D01*
X148459162Y-99040169D01*
X148466462Y-99036927D01*
X148525653Y-98977633D01*
X148534064Y-98969207D01*
X148539707Y-98963554D01*
X148543548Y-98954867D01*
X148552006Y-98935734D01*
X148592996Y-98893062D01*
X148651825Y-98886723D01*
X148700966Y-98919680D01*
X148710172Y-98935593D01*
X148722773Y-98963962D01*
X148728428Y-98969607D01*
X148790201Y-99031272D01*
X148796146Y-99037207D01*
X148890968Y-99079127D01*
X148914751Y-99081900D01*
X148925939Y-99081900D01*
X149215704Y-99081899D01*
X149271304Y-99102136D01*
X149301463Y-99157108D01*
X149316057Y-99267957D01*
X149317585Y-99279567D01*
X149375856Y-99420245D01*
X149379307Y-99424743D01*
X149379308Y-99424744D01*
X149425510Y-99484955D01*
X149468552Y-99541048D01*
X149473052Y-99544501D01*
X149522516Y-99582456D01*
X149589355Y-99633744D01*
X149730033Y-99692015D01*
X149735652Y-99692755D01*
X149735653Y-99692755D01*
X149875379Y-99711150D01*
X149881000Y-99711890D01*
X149886621Y-99711150D01*
X150026347Y-99692755D01*
X150026348Y-99692755D01*
X150031967Y-99692015D01*
X150172645Y-99633744D01*
X150239485Y-99582456D01*
X150288948Y-99544501D01*
X150293448Y-99541048D01*
X150336490Y-99484955D01*
X150382692Y-99424744D01*
X150382693Y-99424743D01*
X150386144Y-99420245D01*
X150444415Y-99279567D01*
X150445944Y-99267957D01*
X150463550Y-99134221D01*
X150464290Y-99128600D01*
X150449652Y-99017410D01*
X150445155Y-98983253D01*
X150445155Y-98983252D01*
X150444415Y-98977633D01*
X150386144Y-98836955D01*
X150379297Y-98828031D01*
X150296901Y-98720652D01*
X150293448Y-98716152D01*
X150270860Y-98698819D01*
X156621700Y-98698819D01*
X156621701Y-99301180D01*
X156624534Y-99331162D01*
X156626280Y-99336133D01*
X156626280Y-99336134D01*
X156664651Y-99445396D01*
X156667208Y-99452678D01*
X156743725Y-99556275D01*
X156847322Y-99632792D01*
X156853420Y-99634934D01*
X156853423Y-99634935D01*
X156963863Y-99673719D01*
X156968838Y-99675466D01*
X156990532Y-99677517D01*
X156996786Y-99678108D01*
X156996790Y-99678108D01*
X156998819Y-99678300D01*
X158149154Y-99678300D01*
X159301180Y-99678299D01*
X159331162Y-99675466D01*
X159338816Y-99672778D01*
X159446577Y-99634935D01*
X159446580Y-99634934D01*
X159452678Y-99632792D01*
X159556275Y-99556275D01*
X159587936Y-99513409D01*
X159637248Y-99480708D01*
X159657515Y-99478300D01*
X160636729Y-99478300D01*
X160653104Y-99480130D01*
X160655239Y-99480302D01*
X160661246Y-99481661D01*
X160667392Y-99481280D01*
X160667395Y-99481280D01*
X160712749Y-99478466D01*
X160718105Y-99478300D01*
X160734340Y-99478300D01*
X160745358Y-99476722D01*
X160752252Y-99476016D01*
X160767954Y-99475041D01*
X160791838Y-99473560D01*
X160791840Y-99473560D01*
X160797990Y-99473178D01*
X160807996Y-99469566D01*
X160825095Y-99465303D01*
X160825331Y-99465269D01*
X160835623Y-99463795D01*
X160841228Y-99461246D01*
X160841233Y-99461245D01*
X160877333Y-99444831D01*
X160883764Y-99442213D01*
X160921063Y-99428748D01*
X160926858Y-99426656D01*
X160935445Y-99420383D01*
X160950660Y-99411491D01*
X160960344Y-99407088D01*
X160995050Y-99377183D01*
X161000475Y-99372875D01*
X161011864Y-99364555D01*
X161023040Y-99353379D01*
X161027741Y-99349015D01*
X161059467Y-99321678D01*
X161064135Y-99317656D01*
X161069065Y-99310050D01*
X161080486Y-99295933D01*
X161693469Y-98682949D01*
X161706341Y-98672664D01*
X161707968Y-98671280D01*
X161713183Y-98667989D01*
X161747346Y-98629307D01*
X161751015Y-98625403D01*
X161762491Y-98613927D01*
X161764332Y-98611470D01*
X161764336Y-98611466D01*
X161769158Y-98605031D01*
X161773541Y-98599647D01*
X161799801Y-98569913D01*
X161803877Y-98565298D01*
X161808398Y-98555669D01*
X161817476Y-98540562D01*
X161820153Y-98536990D01*
X161820156Y-98536985D01*
X161823852Y-98532053D01*
X161839940Y-98489138D01*
X161842619Y-98482782D01*
X161862104Y-98441279D01*
X161863741Y-98430767D01*
X161868215Y-98413715D01*
X161871945Y-98403764D01*
X161873690Y-98380292D01*
X161875341Y-98358073D01*
X161876130Y-98351195D01*
X161878300Y-98337258D01*
X161878300Y-98321462D01*
X161878538Y-98315051D01*
X161881642Y-98273283D01*
X161882099Y-98267135D01*
X161880206Y-98258266D01*
X161878300Y-98240208D01*
X161878300Y-97455992D01*
X161896174Y-97403335D01*
X161901692Y-97396144D01*
X161901693Y-97396143D01*
X161905144Y-97391645D01*
X161963415Y-97250967D01*
X161968752Y-97210432D01*
X161982550Y-97105621D01*
X161983290Y-97100000D01*
X161971130Y-97007633D01*
X161964155Y-96954653D01*
X161964155Y-96954652D01*
X161963415Y-96949033D01*
X161905144Y-96808355D01*
X161900272Y-96802005D01*
X161815901Y-96692052D01*
X161812448Y-96687552D01*
X161691645Y-96594856D01*
X161550967Y-96536585D01*
X161545348Y-96535845D01*
X161545347Y-96535845D01*
X161405621Y-96517450D01*
X161400000Y-96516710D01*
X161394379Y-96517450D01*
X161254653Y-96535845D01*
X161254652Y-96535845D01*
X161249033Y-96536585D01*
X161108355Y-96594856D01*
X160987552Y-96687552D01*
X160984099Y-96692052D01*
X160899729Y-96802005D01*
X160894856Y-96808355D01*
X160836585Y-96949033D01*
X160835845Y-96954652D01*
X160835845Y-96954653D01*
X160828870Y-97007633D01*
X160816710Y-97100000D01*
X160817450Y-97105621D01*
X160831249Y-97210432D01*
X160836585Y-97250967D01*
X160894856Y-97391645D01*
X160898307Y-97396143D01*
X160898308Y-97396144D01*
X160903826Y-97403335D01*
X160921700Y-97455992D01*
X160921700Y-98066052D01*
X160901463Y-98121653D01*
X160896365Y-98127217D01*
X160527217Y-98496365D01*
X160473591Y-98521371D01*
X160466052Y-98521700D01*
X159657515Y-98521700D01*
X159601914Y-98501463D01*
X159587936Y-98486591D01*
X159560118Y-98448928D01*
X159556275Y-98443725D01*
X159452678Y-98367208D01*
X159446580Y-98365066D01*
X159446577Y-98365065D01*
X159336137Y-98326281D01*
X159336136Y-98326281D01*
X159331162Y-98324534D01*
X159309468Y-98322483D01*
X159303214Y-98321892D01*
X159303210Y-98321892D01*
X159301181Y-98321700D01*
X158150846Y-98321700D01*
X156998820Y-98321701D01*
X156968838Y-98324534D01*
X156963867Y-98326280D01*
X156963866Y-98326280D01*
X156853423Y-98365065D01*
X156853420Y-98365066D01*
X156847322Y-98367208D01*
X156743725Y-98443725D01*
X156667208Y-98547322D01*
X156665066Y-98553420D01*
X156665065Y-98553423D01*
X156638416Y-98629308D01*
X156624534Y-98668838D01*
X156621700Y-98698819D01*
X150270860Y-98698819D01*
X150262592Y-98692475D01*
X150177144Y-98626908D01*
X150177143Y-98626907D01*
X150172645Y-98623456D01*
X150031967Y-98565185D01*
X150026348Y-98564445D01*
X150026347Y-98564445D01*
X150002092Y-98561252D01*
X149909609Y-98549076D01*
X149857126Y-98521756D01*
X149834400Y-98463317D01*
X149834399Y-98164816D01*
X149834399Y-98162252D01*
X149831513Y-98137987D01*
X149824258Y-98121653D01*
X149792671Y-98050540D01*
X149792669Y-98050538D01*
X149789427Y-98043238D01*
X149753136Y-98007010D01*
X149721707Y-97975636D01*
X149716054Y-97969993D01*
X149621232Y-97928073D01*
X149597449Y-97925300D01*
X149260142Y-97925300D01*
X148914752Y-97925301D01*
X148912217Y-97925603D01*
X148912209Y-97925603D01*
X148904330Y-97926541D01*
X148890487Y-97928187D01*
X148884556Y-97930821D01*
X148884554Y-97930822D01*
X148803040Y-97967029D01*
X148803038Y-97967031D01*
X148795738Y-97970273D01*
X148790093Y-97975928D01*
X148731321Y-98034803D01*
X148722493Y-98043646D01*
X148719263Y-98050952D01*
X148710194Y-98071466D01*
X148669204Y-98114138D01*
X148610375Y-98120477D01*
X148561234Y-98087520D01*
X148552028Y-98071607D01*
X148542670Y-98050539D01*
X148539427Y-98043238D01*
X148503136Y-98007010D01*
X148471707Y-97975636D01*
X148466054Y-97969993D01*
X148371232Y-97928073D01*
X148347449Y-97925300D01*
X148328458Y-97925300D01*
X147921297Y-97925301D01*
X147865696Y-97905064D01*
X147835537Y-97850092D01*
X147820155Y-97733252D01*
X147820155Y-97733250D01*
X147819415Y-97727633D01*
X147761144Y-97586955D01*
X147668448Y-97466152D01*
X147586584Y-97403335D01*
X147552144Y-97376908D01*
X147552143Y-97376907D01*
X147547645Y-97373456D01*
X147406967Y-97315185D01*
X147401348Y-97314445D01*
X147401347Y-97314445D01*
X147397549Y-97313945D01*
X156400000Y-97313945D01*
X156400133Y-97317338D01*
X156402553Y-97348086D01*
X156404133Y-97356734D01*
X156447199Y-97504969D01*
X156451490Y-97514884D01*
X156529545Y-97646869D01*
X156536166Y-97655405D01*
X156644595Y-97763834D01*
X156653131Y-97770455D01*
X156785116Y-97848510D01*
X156795031Y-97852801D01*
X156943266Y-97895867D01*
X156951914Y-97897447D01*
X156982662Y-97899867D01*
X156986055Y-97900000D01*
X157934749Y-97900000D01*
X157946432Y-97895748D01*
X157950000Y-97889568D01*
X157950000Y-97884749D01*
X158350000Y-97884749D01*
X158354252Y-97896432D01*
X158360432Y-97900000D01*
X159313945Y-97900000D01*
X159317338Y-97899867D01*
X159348086Y-97897447D01*
X159356734Y-97895867D01*
X159504969Y-97852801D01*
X159514884Y-97848510D01*
X159646869Y-97770455D01*
X159655405Y-97763834D01*
X159763834Y-97655405D01*
X159770455Y-97646869D01*
X159848510Y-97514884D01*
X159852801Y-97504969D01*
X159895867Y-97356734D01*
X159897447Y-97348086D01*
X159899867Y-97317338D01*
X159900000Y-97313945D01*
X159900000Y-97215251D01*
X159895748Y-97203568D01*
X159889568Y-97200000D01*
X158365251Y-97200000D01*
X158353568Y-97204252D01*
X158350000Y-97210432D01*
X158350000Y-97884749D01*
X157950000Y-97884749D01*
X157950000Y-97215251D01*
X157945748Y-97203568D01*
X157939568Y-97200000D01*
X156415251Y-97200000D01*
X156403568Y-97204252D01*
X156400000Y-97210432D01*
X156400000Y-97313945D01*
X147397549Y-97313945D01*
X147261621Y-97296050D01*
X147256000Y-97295310D01*
X147250379Y-97296050D01*
X147110653Y-97314445D01*
X147110652Y-97314445D01*
X147105033Y-97315185D01*
X146964355Y-97373456D01*
X146959857Y-97376907D01*
X146959856Y-97376908D01*
X146925416Y-97403335D01*
X146843552Y-97466152D01*
X146750856Y-97586955D01*
X146692585Y-97727633D01*
X146672710Y-97878600D01*
X140497611Y-97878600D01*
X141080234Y-97296050D01*
X141591600Y-96784749D01*
X156400000Y-96784749D01*
X156404252Y-96796432D01*
X156410432Y-96800000D01*
X157934749Y-96800000D01*
X157946432Y-96795748D01*
X157950000Y-96789568D01*
X157950000Y-96784749D01*
X158350000Y-96784749D01*
X158354252Y-96796432D01*
X158360432Y-96800000D01*
X159884749Y-96800000D01*
X159896432Y-96795748D01*
X159900000Y-96789568D01*
X159900000Y-96686055D01*
X159899867Y-96682662D01*
X159897447Y-96651914D01*
X159895867Y-96643266D01*
X159852801Y-96495031D01*
X159848510Y-96485116D01*
X159770455Y-96353131D01*
X159763834Y-96344595D01*
X159655405Y-96236166D01*
X159646869Y-96229545D01*
X159514884Y-96151490D01*
X159504969Y-96147199D01*
X159356734Y-96104133D01*
X159348086Y-96102553D01*
X159317338Y-96100133D01*
X159313945Y-96100000D01*
X158365251Y-96100000D01*
X158353568Y-96104252D01*
X158350000Y-96110432D01*
X158350000Y-96784749D01*
X157950000Y-96784749D01*
X157950000Y-96115251D01*
X157945748Y-96103568D01*
X157939568Y-96100000D01*
X156986055Y-96100000D01*
X156982662Y-96100133D01*
X156951914Y-96102553D01*
X156943266Y-96104133D01*
X156795031Y-96147199D01*
X156785116Y-96151490D01*
X156653131Y-96229545D01*
X156644595Y-96236166D01*
X156536166Y-96344595D01*
X156529545Y-96353131D01*
X156451490Y-96485116D01*
X156447199Y-96495031D01*
X156404133Y-96643266D01*
X156402553Y-96651914D01*
X156400133Y-96682662D01*
X156400000Y-96686055D01*
X156400000Y-96784749D01*
X141591600Y-96784749D01*
X141972766Y-96403631D01*
X142026393Y-96378629D01*
X142033927Y-96378300D01*
X144736729Y-96378300D01*
X144753104Y-96380130D01*
X144755239Y-96380302D01*
X144761246Y-96381661D01*
X144767392Y-96381280D01*
X144767395Y-96381280D01*
X144812749Y-96378466D01*
X144818105Y-96378300D01*
X144834340Y-96378300D01*
X144845358Y-96376722D01*
X144852252Y-96376016D01*
X144867954Y-96375041D01*
X144891838Y-96373560D01*
X144891840Y-96373560D01*
X144897990Y-96373178D01*
X144907996Y-96369566D01*
X144925095Y-96365303D01*
X144925331Y-96365269D01*
X144935623Y-96363795D01*
X144941228Y-96361246D01*
X144941233Y-96361245D01*
X144977333Y-96344831D01*
X144983764Y-96342213D01*
X145021063Y-96328748D01*
X145026858Y-96326656D01*
X145035445Y-96320383D01*
X145050660Y-96311491D01*
X145060344Y-96307088D01*
X145095050Y-96277183D01*
X145100475Y-96272875D01*
X145111864Y-96264555D01*
X145123034Y-96253384D01*
X145127733Y-96249022D01*
X145159466Y-96221679D01*
X145164135Y-96217656D01*
X145169065Y-96210050D01*
X145180486Y-96195933D01*
X145486486Y-95889933D01*
X145536361Y-95865338D01*
X145550967Y-95863415D01*
X145556202Y-95861246D01*
X145556204Y-95861246D01*
X145686406Y-95807314D01*
X145691645Y-95805144D01*
X145740511Y-95767648D01*
X145807948Y-95715901D01*
X145812448Y-95712448D01*
X145840445Y-95675962D01*
X145901692Y-95596144D01*
X145901693Y-95596143D01*
X145905144Y-95591645D01*
X145963415Y-95450967D01*
X145965359Y-95436205D01*
X145982550Y-95305621D01*
X145983290Y-95300000D01*
X145972262Y-95216230D01*
X145964155Y-95154653D01*
X145964155Y-95154652D01*
X145963415Y-95149033D01*
X145905144Y-95008355D01*
X145812448Y-94887552D01*
X145781790Y-94864027D01*
X145696144Y-94798308D01*
X145696143Y-94798307D01*
X145691645Y-94794856D01*
X145550967Y-94736585D01*
X145545348Y-94735845D01*
X145545347Y-94735845D01*
X145405621Y-94717450D01*
X145400000Y-94716710D01*
X145394379Y-94717450D01*
X145254653Y-94735845D01*
X145254652Y-94735845D01*
X145249033Y-94736585D01*
X145108355Y-94794856D01*
X145103857Y-94798307D01*
X145103856Y-94798308D01*
X145018210Y-94864027D01*
X144987552Y-94887552D01*
X144894856Y-95008355D01*
X144892686Y-95013594D01*
X144839586Y-95141789D01*
X144836585Y-95149033D01*
X144835845Y-95154655D01*
X144834662Y-95163639D01*
X144810067Y-95213515D01*
X144627217Y-95396365D01*
X144573591Y-95421371D01*
X144566052Y-95421700D01*
X141863291Y-95421700D01*
X141846984Y-95419878D01*
X141844796Y-95419702D01*
X141838784Y-95418341D01*
X141832634Y-95418722D01*
X141832632Y-95418722D01*
X141787265Y-95421534D01*
X141781914Y-95421700D01*
X141765660Y-95421700D01*
X141758671Y-95422701D01*
X141754661Y-95423275D01*
X141747750Y-95423983D01*
X141736954Y-95424652D01*
X141702040Y-95426816D01*
X141692021Y-95430432D01*
X141674920Y-95434695D01*
X141670477Y-95435331D01*
X141670475Y-95435332D01*
X141664377Y-95436205D01*
X141658771Y-95438754D01*
X141658767Y-95438755D01*
X141622694Y-95455157D01*
X141616258Y-95457777D01*
X141603794Y-95462276D01*
X141573169Y-95473329D01*
X141568190Y-95476966D01*
X141564569Y-95479611D01*
X141549351Y-95488504D01*
X141539656Y-95492912D01*
X141534987Y-95496935D01*
X141504963Y-95522806D01*
X141499519Y-95527128D01*
X141490864Y-95533449D01*
X141490855Y-95533457D01*
X141488159Y-95535426D01*
X141476975Y-95546609D01*
X141472296Y-95550953D01*
X141435865Y-95582344D01*
X141432513Y-95587515D01*
X141432511Y-95587518D01*
X141430944Y-95589936D01*
X141419518Y-95604059D01*
X138337543Y-98685644D01*
X138324588Y-98695995D01*
X138323026Y-98697324D01*
X138317817Y-98700611D01*
X138283659Y-98739288D01*
X138279987Y-98743193D01*
X138268529Y-98754650D01*
X138266686Y-98757109D01*
X138266685Y-98757110D01*
X138261851Y-98763560D01*
X138257469Y-98768941D01*
X138231206Y-98798678D01*
X138231204Y-98798682D01*
X138227123Y-98803302D01*
X138224504Y-98808881D01*
X138224501Y-98808885D01*
X138222610Y-98812913D01*
X138213527Y-98828030D01*
X138207162Y-98836521D01*
X138205000Y-98842287D01*
X138204999Y-98842289D01*
X138204002Y-98844948D01*
X138192680Y-98875146D01*
X138191073Y-98879431D01*
X138188379Y-98885823D01*
X138168896Y-98927321D01*
X138167608Y-98935593D01*
X138167263Y-98937810D01*
X138162787Y-98954867D01*
X138161225Y-98959033D01*
X138161224Y-98959039D01*
X138159061Y-98964807D01*
X138158604Y-98970951D01*
X138155661Y-99010519D01*
X138154869Y-99017410D01*
X138153214Y-99028037D01*
X138153213Y-99028044D01*
X138152700Y-99031342D01*
X138152700Y-99047115D01*
X138152462Y-99053531D01*
X138150375Y-99081597D01*
X138148899Y-99101435D01*
X138150185Y-99107460D01*
X138150795Y-99110318D01*
X138152700Y-99128372D01*
X138152700Y-99512608D01*
X138134826Y-99565265D01*
X138125856Y-99576955D01*
X138067585Y-99717633D01*
X138066845Y-99723252D01*
X138066845Y-99723253D01*
X138065438Y-99733941D01*
X138047710Y-99868600D01*
X138048450Y-99874221D01*
X138049027Y-99878600D01*
X138067585Y-100019567D01*
X138125856Y-100160245D01*
X138129307Y-100164743D01*
X138129308Y-100164744D01*
X138137023Y-100174798D01*
X138218552Y-100281048D01*
X138223052Y-100284501D01*
X138305890Y-100348065D01*
X138339355Y-100373744D01*
X138480033Y-100432015D01*
X138513284Y-100436393D01*
X138565767Y-100463712D01*
X138588412Y-100518377D01*
X138570620Y-100574809D01*
X138551974Y-100592503D01*
X138545738Y-100595273D01*
X138518431Y-100622628D01*
X138488773Y-100652338D01*
X138472493Y-100668646D01*
X138469264Y-100675951D01*
X138469263Y-100675952D01*
X138460194Y-100696466D01*
X138419204Y-100739138D01*
X138360375Y-100745477D01*
X138311234Y-100712520D01*
X138302028Y-100696607D01*
X138292670Y-100675539D01*
X138289427Y-100668238D01*
X138230955Y-100609868D01*
X138221707Y-100600636D01*
X138216054Y-100594993D01*
X138121232Y-100553073D01*
X138097449Y-100550300D01*
X138094944Y-100550300D01*
X138092931Y-100550183D01*
X138038597Y-100526756D01*
X138018022Y-100496123D01*
X138016867Y-100489922D01*
X138012676Y-100483123D01*
X138012675Y-100483120D01*
X138002205Y-100466135D01*
X137996379Y-100454926D01*
X137987745Y-100434854D01*
X137985333Y-100429246D01*
X137981284Y-100424322D01*
X137975821Y-100418864D01*
X137963328Y-100403066D01*
X137957578Y-100393738D01*
X137951223Y-100388906D01*
X137951220Y-100388902D01*
X137933333Y-100375301D01*
X137924556Y-100367641D01*
X137601558Y-100044912D01*
X137576529Y-99991297D01*
X137576937Y-99972432D01*
X137588550Y-99884222D01*
X137588550Y-99884221D01*
X137589290Y-99878600D01*
X137588550Y-99872979D01*
X137570155Y-99733253D01*
X137570155Y-99733252D01*
X137569415Y-99727633D01*
X137511144Y-99586955D01*
X137500019Y-99572456D01*
X137421901Y-99470652D01*
X137418448Y-99466152D01*
X137409706Y-99459444D01*
X137302144Y-99376908D01*
X137302143Y-99376907D01*
X137297645Y-99373456D01*
X137156967Y-99315185D01*
X137151348Y-99314445D01*
X137151347Y-99314445D01*
X137011621Y-99296050D01*
X137006000Y-99295310D01*
X137000379Y-99296050D01*
X136860653Y-99314445D01*
X136860652Y-99314445D01*
X136855033Y-99315185D01*
X136714355Y-99373456D01*
X136709857Y-99376907D01*
X136709856Y-99376908D01*
X136602294Y-99459444D01*
X136593552Y-99466152D01*
X136590099Y-99470652D01*
X136511982Y-99572456D01*
X136500856Y-99586955D01*
X136442585Y-99727633D01*
X136441845Y-99733252D01*
X136441845Y-99733253D01*
X136423450Y-99872979D01*
X136422710Y-99878600D01*
X136078300Y-99878600D01*
X136078300Y-99733941D01*
X136098537Y-99678340D01*
X136103634Y-99672778D01*
X138079150Y-97697173D01*
X138107214Y-97678420D01*
X138137406Y-97665914D01*
X138142645Y-97663744D01*
X138263448Y-97571048D01*
X138266901Y-97566548D01*
X138352692Y-97454744D01*
X138352693Y-97454743D01*
X138356144Y-97450245D01*
X138414415Y-97309567D01*
X138421441Y-97256203D01*
X138433550Y-97164221D01*
X138434290Y-97158600D01*
X138414415Y-97007633D01*
X138356144Y-96866955D01*
X138315199Y-96813594D01*
X138266901Y-96750652D01*
X138263448Y-96746152D01*
X138192944Y-96692052D01*
X138147144Y-96656908D01*
X138147143Y-96656907D01*
X138142645Y-96653456D01*
X138137409Y-96651287D01*
X138137400Y-96651282D01*
X138069186Y-96623027D01*
X138025561Y-96583053D01*
X138017838Y-96524390D01*
X138049630Y-96474487D01*
X138096815Y-96456899D01*
X138097448Y-96456899D01*
X138099986Y-96456597D01*
X138099988Y-96456597D01*
X138102864Y-96456255D01*
X138121713Y-96454013D01*
X138127644Y-96451379D01*
X138127646Y-96451378D01*
X138209160Y-96415171D01*
X138209162Y-96415169D01*
X138216462Y-96411927D01*
X138267056Y-96361245D01*
X138284064Y-96344207D01*
X138289707Y-96338554D01*
X138295693Y-96325015D01*
X138302006Y-96310734D01*
X138342996Y-96268062D01*
X138401825Y-96261723D01*
X138450966Y-96294680D01*
X138460172Y-96310593D01*
X138472773Y-96338962D01*
X138504953Y-96371086D01*
X138540201Y-96406272D01*
X138546146Y-96412207D01*
X138640968Y-96454127D01*
X138664751Y-96456900D01*
X139002058Y-96456900D01*
X139347448Y-96456899D01*
X139349983Y-96456597D01*
X139349991Y-96456597D01*
X139357870Y-96455659D01*
X139371713Y-96454013D01*
X139404037Y-96439655D01*
X139463064Y-96435578D01*
X139472247Y-96438790D01*
X139480033Y-96442015D01*
X139485652Y-96442755D01*
X139485653Y-96442755D01*
X139625379Y-96461150D01*
X139631000Y-96461890D01*
X139636621Y-96461150D01*
X139776347Y-96442755D01*
X139776348Y-96442755D01*
X139781967Y-96442015D01*
X139922645Y-96383744D01*
X139929524Y-96378466D01*
X140038948Y-96294501D01*
X140043448Y-96291048D01*
X140103732Y-96212485D01*
X140132692Y-96174744D01*
X140132693Y-96174743D01*
X140136144Y-96170245D01*
X140194415Y-96029567D01*
X140204905Y-95949891D01*
X140213550Y-95884221D01*
X140214290Y-95878600D01*
X140204905Y-95807314D01*
X140195155Y-95733253D01*
X140195155Y-95733252D01*
X140194415Y-95727633D01*
X140136144Y-95586955D01*
X140086921Y-95522806D01*
X140046901Y-95470652D01*
X140043448Y-95466152D01*
X140038715Y-95462520D01*
X139927144Y-95376908D01*
X139927143Y-95376907D01*
X139922645Y-95373456D01*
X139781967Y-95315185D01*
X139776348Y-95314445D01*
X139776347Y-95314445D01*
X139636621Y-95296050D01*
X139631000Y-95295310D01*
X139625379Y-95296050D01*
X139485653Y-95314445D01*
X139485652Y-95314445D01*
X139480033Y-95315185D01*
X139474794Y-95317355D01*
X139472217Y-95318422D01*
X139470536Y-95318495D01*
X139469317Y-95318822D01*
X139469245Y-95318552D01*
X139413104Y-95321004D01*
X139404148Y-95317625D01*
X139371232Y-95303073D01*
X139347449Y-95300300D01*
X139010142Y-95300300D01*
X138664752Y-95300301D01*
X138662217Y-95300603D01*
X138662209Y-95300603D01*
X138654330Y-95301541D01*
X138640487Y-95303187D01*
X138634556Y-95305821D01*
X138634554Y-95305822D01*
X138553040Y-95342029D01*
X138553038Y-95342031D01*
X138545738Y-95345273D01*
X138472493Y-95418646D01*
X138469264Y-95425950D01*
X138469263Y-95425952D01*
X138460194Y-95446466D01*
X138419204Y-95489138D01*
X138360375Y-95495477D01*
X138311234Y-95462520D01*
X138302028Y-95446607D01*
X138292670Y-95425539D01*
X138289427Y-95418238D01*
X138223307Y-95352233D01*
X138221707Y-95350636D01*
X138216054Y-95344993D01*
X138121232Y-95303073D01*
X138121402Y-95302689D01*
X138076394Y-95270883D01*
X138061332Y-95229533D01*
X138061300Y-95229187D01*
X138061300Y-95225207D01*
X138060570Y-95221289D01*
X138060398Y-95219423D01*
X138060092Y-95214710D01*
X138060048Y-95213515D01*
X138059708Y-95204469D01*
X138059289Y-95193299D01*
X138059289Y-95193297D01*
X138058989Y-95185318D01*
X138053755Y-95173135D01*
X138048193Y-95154830D01*
X138047226Y-95149638D01*
X138045764Y-95141789D01*
X138031021Y-95117871D01*
X138025182Y-95106629D01*
X138024400Y-95104808D01*
X138014094Y-95080821D01*
X138010015Y-95075856D01*
X138004417Y-95070258D01*
X137991947Y-95054482D01*
X137986085Y-95044972D01*
X137961726Y-95026449D01*
X137952919Y-95018760D01*
X137726825Y-94792665D01*
X137701819Y-94739039D01*
X137702230Y-94720210D01*
X137713550Y-94634221D01*
X137714290Y-94628600D01*
X137697894Y-94504058D01*
X137695155Y-94483253D01*
X137695155Y-94483252D01*
X137694415Y-94477633D01*
X137636144Y-94336955D01*
X137627954Y-94326281D01*
X137546901Y-94220652D01*
X137543448Y-94216152D01*
X137422645Y-94123456D01*
X137281967Y-94065185D01*
X137276348Y-94064445D01*
X137276347Y-94064445D01*
X137136621Y-94046050D01*
X137131000Y-94045310D01*
X137125379Y-94046050D01*
X136985653Y-94064445D01*
X136985652Y-94064445D01*
X136980033Y-94065185D01*
X136839355Y-94123456D01*
X136718552Y-94216152D01*
X136715099Y-94220652D01*
X136634047Y-94326281D01*
X136625856Y-94336955D01*
X136567585Y-94477633D01*
X136566845Y-94483252D01*
X136566845Y-94483253D01*
X136564106Y-94504058D01*
X136547710Y-94628600D01*
X136548450Y-94634221D01*
X136559771Y-94720210D01*
X136567585Y-94779567D01*
X136625856Y-94920245D01*
X136629307Y-94924743D01*
X136629308Y-94924744D01*
X136647479Y-94948425D01*
X136718552Y-95041048D01*
X136839355Y-95133744D01*
X136980033Y-95192015D01*
X136985652Y-95192755D01*
X136985653Y-95192755D01*
X137125379Y-95211150D01*
X137131000Y-95211890D01*
X137136621Y-95211150D01*
X137221683Y-95199952D01*
X137279450Y-95212759D01*
X137315470Y-95259702D01*
X137312888Y-95318815D01*
X137294192Y-95346822D01*
X137222493Y-95418646D01*
X137180573Y-95513468D01*
X137177800Y-95537251D01*
X137177801Y-96219948D01*
X137180687Y-96244213D01*
X137183321Y-96250144D01*
X137183322Y-96250146D01*
X137219529Y-96331660D01*
X137219530Y-96331661D01*
X137222773Y-96338962D01*
X137254953Y-96371086D01*
X137290201Y-96406272D01*
X137296146Y-96412207D01*
X137390968Y-96454127D01*
X137414751Y-96456900D01*
X137599018Y-96456900D01*
X137654619Y-96477137D01*
X137684204Y-96528379D01*
X137673929Y-96586650D01*
X137632121Y-96623315D01*
X137559355Y-96653456D01*
X137554857Y-96656907D01*
X137554856Y-96656908D01*
X137509056Y-96692052D01*
X137438552Y-96746152D01*
X137435099Y-96750652D01*
X137386802Y-96813594D01*
X137345856Y-96866955D01*
X137287585Y-97007633D01*
X137286845Y-97013252D01*
X137286845Y-97013253D01*
X137271969Y-97126246D01*
X137247375Y-97176118D01*
X135823910Y-98599647D01*
X135313262Y-99110318D01*
X135306530Y-99117050D01*
X135293657Y-99127335D01*
X135292021Y-99128727D01*
X135286817Y-99132011D01*
X135282741Y-99136626D01*
X135252643Y-99170705D01*
X135248976Y-99174606D01*
X135237502Y-99186081D01*
X135230822Y-99194995D01*
X135226458Y-99200354D01*
X135196123Y-99234702D01*
X135193505Y-99240278D01*
X135193502Y-99240283D01*
X135191602Y-99244330D01*
X135182523Y-99259442D01*
X135179838Y-99263025D01*
X135176142Y-99267957D01*
X135162924Y-99303219D01*
X135160064Y-99310848D01*
X135157368Y-99317246D01*
X135153299Y-99325913D01*
X135137896Y-99358721D01*
X135136948Y-99364812D01*
X135136947Y-99364814D01*
X135136259Y-99369234D01*
X135131787Y-99386282D01*
X135128052Y-99396247D01*
X135127596Y-99402388D01*
X135127595Y-99402392D01*
X135124659Y-99441925D01*
X135123868Y-99448818D01*
X135121700Y-99462742D01*
X135121700Y-99478547D01*
X135121462Y-99484954D01*
X135117902Y-99532876D01*
X135119189Y-99538903D01*
X135119794Y-99541738D01*
X135121700Y-99559798D01*
X135121700Y-103644008D01*
X135103826Y-103696665D01*
X135094856Y-103708355D01*
X135036585Y-103849033D01*
X135035845Y-103854652D01*
X135035845Y-103854653D01*
X135017450Y-103994379D01*
X135016710Y-104000000D01*
X135036585Y-104150967D01*
X135094856Y-104291645D01*
X135098307Y-104296143D01*
X135098308Y-104296144D01*
X135106082Y-104306275D01*
X135187552Y-104412448D01*
X135192052Y-104415901D01*
X135289077Y-104490351D01*
X135308355Y-104505144D01*
X135449033Y-104563415D01*
X135454652Y-104564155D01*
X135454653Y-104564155D01*
X135512496Y-104571770D01*
X135564980Y-104599091D01*
X135587624Y-104653757D01*
X135569831Y-104710188D01*
X135523594Y-104741083D01*
X135477503Y-104753433D01*
X135403504Y-104773261D01*
X135400085Y-104774855D01*
X135400083Y-104774856D01*
X135200684Y-104867838D01*
X135197266Y-104869432D01*
X135194178Y-104871594D01*
X135194175Y-104871596D01*
X135132762Y-104914598D01*
X135010861Y-104999953D01*
X134849953Y-105160861D01*
X134719432Y-105347266D01*
X134717839Y-105350683D01*
X134717838Y-105350684D01*
X134716413Y-105353741D01*
X134623261Y-105553504D01*
X134564365Y-105773308D01*
X134547279Y-105968601D01*
X134544532Y-106000000D01*
X131711997Y-106000000D01*
X131711997Y-101688175D01*
X131732234Y-101632574D01*
X131738782Y-101625594D01*
X131905085Y-101466906D01*
X131912719Y-101460423D01*
X132000690Y-101394083D01*
X132121549Y-101302942D01*
X132129876Y-101297389D01*
X132355517Y-101165098D01*
X132364435Y-101160542D01*
X132603839Y-101055224D01*
X132613224Y-101051729D01*
X132678119Y-101031754D01*
X132858249Y-100976311D01*
X132868922Y-100977097D01*
X132910624Y-100951251D01*
X132929171Y-100905828D01*
X132925905Y-100892520D01*
X132926071Y-100890264D01*
X132925496Y-100869287D01*
X132928018Y-100864671D01*
X132921740Y-100816011D01*
X132912336Y-100806049D01*
X132897465Y-100790295D01*
X132897463Y-100790294D01*
X132888061Y-100780334D01*
X132877991Y-100778440D01*
X132877446Y-100777821D01*
X132877166Y-100778285D01*
X132623176Y-100624813D01*
X132616914Y-100620647D01*
X132371747Y-100441686D01*
X132365868Y-100436990D01*
X132137173Y-100237395D01*
X132131725Y-100232206D01*
X131921244Y-100013496D01*
X131916267Y-100007853D01*
X131726856Y-99773248D01*
X131707659Y-99719133D01*
X131699359Y-96503019D01*
X131719453Y-96447366D01*
X131730949Y-96435959D01*
X131859031Y-96330733D01*
X131866845Y-96325015D01*
X132060391Y-96199382D01*
X132068795Y-96194573D01*
X132171775Y-96143070D01*
X132275170Y-96091359D01*
X132284058Y-96087519D01*
X132500690Y-96008012D01*
X132509931Y-96005196D01*
X132641377Y-95973063D01*
X132717723Y-95954400D01*
X132717728Y-95954398D01*
X132726357Y-95952289D01*
X132734142Y-95953857D01*
X132736708Y-95952681D01*
X132739506Y-95953048D01*
X132749041Y-95947864D01*
X132749045Y-95947864D01*
X132756194Y-95943977D01*
X132761482Y-95941332D01*
X132768885Y-95937941D01*
X132768886Y-95937940D01*
X132778748Y-95933422D01*
X132780133Y-95930963D01*
X132782611Y-95929616D01*
X132790778Y-95912472D01*
X132793500Y-95907228D01*
X132797503Y-95900120D01*
X132797503Y-95900119D01*
X132802823Y-95890673D01*
X132802498Y-95887869D01*
X132803711Y-95885322D01*
X132800240Y-95866645D01*
X132799360Y-95860804D01*
X132798422Y-95852717D01*
X132797172Y-95841936D01*
X132795261Y-95839859D01*
X132794746Y-95837086D01*
X132780953Y-95824010D01*
X132776810Y-95819804D01*
X132763954Y-95805830D01*
X132761189Y-95805273D01*
X132759140Y-95803331D01*
X132751114Y-95802279D01*
X132750827Y-95801944D01*
X132750658Y-95802219D01*
X132488404Y-95641138D01*
X132482968Y-95637508D01*
X132310972Y-95512987D01*
X132225507Y-95451112D01*
X132220345Y-95447068D01*
X131977755Y-95241713D01*
X131972914Y-95237290D01*
X131954939Y-95219568D01*
X131746567Y-95014136D01*
X131742075Y-95009358D01*
X131716561Y-94980072D01*
X131695282Y-94923475D01*
X131695181Y-94884099D01*
X131691092Y-93300000D01*
X156016710Y-93300000D01*
X156017450Y-93305621D01*
X156033914Y-93430675D01*
X156036585Y-93450967D01*
X156094856Y-93591645D01*
X156098307Y-93596143D01*
X156098308Y-93596144D01*
X156164796Y-93682792D01*
X156187552Y-93712448D01*
X156192052Y-93715901D01*
X156302315Y-93800509D01*
X156308355Y-93805144D01*
X156449033Y-93863415D01*
X156454652Y-93864155D01*
X156454653Y-93864155D01*
X156594379Y-93882550D01*
X156600000Y-93883290D01*
X156605621Y-93882550D01*
X156745347Y-93864155D01*
X156745348Y-93864155D01*
X156750967Y-93863415D01*
X156891645Y-93805144D01*
X156897686Y-93800509D01*
X156903335Y-93796174D01*
X156955992Y-93778300D01*
X157335200Y-93778300D01*
X157390801Y-93798537D01*
X157420386Y-93849779D01*
X157421700Y-93864800D01*
X157421700Y-94235201D01*
X157401463Y-94290802D01*
X157350221Y-94320387D01*
X157335200Y-94321701D01*
X156998820Y-94321701D01*
X156968838Y-94324534D01*
X156963867Y-94326280D01*
X156963866Y-94326280D01*
X156853423Y-94365065D01*
X156853420Y-94365066D01*
X156847322Y-94367208D01*
X156743725Y-94443725D01*
X156667208Y-94547322D01*
X156665066Y-94553420D01*
X156665065Y-94553423D01*
X156640639Y-94622979D01*
X156624534Y-94668838D01*
X156624038Y-94674090D01*
X156621893Y-94696781D01*
X156621700Y-94698819D01*
X156621701Y-95301180D01*
X156624534Y-95331162D01*
X156626280Y-95336133D01*
X156626280Y-95336134D01*
X156662319Y-95438755D01*
X156667208Y-95452678D01*
X156712108Y-95513468D01*
X156739802Y-95550963D01*
X156743725Y-95556275D01*
X156847322Y-95632792D01*
X156853420Y-95634934D01*
X156853423Y-95634935D01*
X156963863Y-95673719D01*
X156968838Y-95675466D01*
X156990532Y-95677517D01*
X156996786Y-95678108D01*
X156996790Y-95678108D01*
X156998819Y-95678300D01*
X158149154Y-95678300D01*
X159301180Y-95678299D01*
X159331162Y-95675466D01*
X159336137Y-95673719D01*
X159446577Y-95634935D01*
X159446580Y-95634934D01*
X159452678Y-95632792D01*
X159556275Y-95556275D01*
X159560199Y-95550963D01*
X159587892Y-95513468D01*
X159632792Y-95452678D01*
X159637682Y-95438755D01*
X159673719Y-95336137D01*
X159673720Y-95336134D01*
X159675466Y-95331162D01*
X159678042Y-95303915D01*
X159678108Y-95303214D01*
X159678108Y-95303210D01*
X159678300Y-95301181D01*
X159678299Y-94698820D01*
X159675466Y-94668838D01*
X159659361Y-94622979D01*
X159634935Y-94553423D01*
X159634934Y-94553420D01*
X159632792Y-94547322D01*
X159556275Y-94443725D01*
X159460650Y-94373096D01*
X166625760Y-94373096D01*
X166626936Y-94377485D01*
X166641393Y-94387989D01*
X166649203Y-94392498D01*
X166810873Y-94464477D01*
X166819449Y-94467264D01*
X166992552Y-94504058D01*
X167001514Y-94505000D01*
X167178486Y-94505000D01*
X167187448Y-94504058D01*
X167360551Y-94467264D01*
X167369131Y-94464476D01*
X167468319Y-94420315D01*
X167527344Y-94416188D01*
X167575213Y-94450967D01*
X167590001Y-94499337D01*
X167590001Y-94858084D01*
X167590532Y-94864836D01*
X167603770Y-94948420D01*
X167607927Y-94961217D01*
X167659268Y-95061979D01*
X167667172Y-95072858D01*
X167747142Y-95152828D01*
X167758021Y-95160732D01*
X167858788Y-95212075D01*
X167871575Y-95216230D01*
X167955165Y-95229469D01*
X167961914Y-95230000D01*
X170314749Y-95230000D01*
X170326432Y-95225748D01*
X170330000Y-95219568D01*
X170330000Y-95214748D01*
X170730000Y-95214748D01*
X170734252Y-95226431D01*
X170740432Y-95229999D01*
X173098084Y-95229999D01*
X173104836Y-95229468D01*
X173188420Y-95216230D01*
X173201217Y-95212073D01*
X173301979Y-95160732D01*
X173312858Y-95152828D01*
X173392828Y-95072858D01*
X173400732Y-95061979D01*
X173452075Y-94961212D01*
X173456230Y-94948425D01*
X173469469Y-94864835D01*
X173470000Y-94858086D01*
X173470000Y-93835251D01*
X173465748Y-93823568D01*
X173459568Y-93820000D01*
X170745251Y-93820000D01*
X170733568Y-93824252D01*
X170730000Y-93830432D01*
X170730000Y-95214748D01*
X170330000Y-95214748D01*
X170330000Y-93835251D01*
X170325748Y-93823568D01*
X170319568Y-93820000D01*
X167755251Y-93820000D01*
X167743568Y-93824252D01*
X167740000Y-93830432D01*
X167740000Y-94203500D01*
X167719763Y-94259101D01*
X167668521Y-94288686D01*
X167653500Y-94290000D01*
X167426500Y-94290000D01*
X167370899Y-94269763D01*
X167341314Y-94218521D01*
X167340000Y-94203500D01*
X167340000Y-93668096D01*
X167333839Y-93651168D01*
X167333839Y-93623077D01*
X167321370Y-93669614D01*
X167311678Y-93681165D01*
X166631015Y-94361828D01*
X166625760Y-94373096D01*
X159460650Y-94373096D01*
X159452678Y-94367208D01*
X159446580Y-94365066D01*
X159446577Y-94365065D01*
X159336137Y-94326281D01*
X159336136Y-94326281D01*
X159331162Y-94324534D01*
X159309468Y-94322483D01*
X159303214Y-94321892D01*
X159303210Y-94321892D01*
X159301181Y-94321700D01*
X158464800Y-94321700D01*
X158409199Y-94301463D01*
X158379614Y-94250221D01*
X158378300Y-94235200D01*
X158378300Y-93307788D01*
X158378302Y-93307260D01*
X158378576Y-93262369D01*
X158378747Y-93234420D01*
X158370504Y-93205578D01*
X158368047Y-93194070D01*
X158364669Y-93170477D01*
X158364668Y-93170474D01*
X158363795Y-93164377D01*
X158361243Y-93158763D01*
X158352816Y-93140228D01*
X158348389Y-93128198D01*
X158342790Y-93108607D01*
X158341098Y-93102687D01*
X158337813Y-93097481D01*
X158337812Y-93097478D01*
X158325088Y-93077312D01*
X158319502Y-93066959D01*
X158307088Y-93039656D01*
X158303065Y-93034987D01*
X158303063Y-93034984D01*
X158289770Y-93019557D01*
X158282145Y-93009253D01*
X158267989Y-92986817D01*
X158245508Y-92966962D01*
X158237240Y-92958592D01*
X158221681Y-92940535D01*
X158221677Y-92940531D01*
X158217656Y-92935865D01*
X158212488Y-92932515D01*
X158212483Y-92932511D01*
X158195397Y-92921437D01*
X158185183Y-92913685D01*
X158169918Y-92900203D01*
X158169917Y-92900202D01*
X158165298Y-92896123D01*
X158138135Y-92883370D01*
X158127857Y-92877661D01*
X158107858Y-92864698D01*
X158102687Y-92861346D01*
X158077269Y-92853744D01*
X158065302Y-92849174D01*
X158046861Y-92840516D01*
X158046856Y-92840515D01*
X158041279Y-92837896D01*
X158011639Y-92833281D01*
X158000166Y-92830685D01*
X157977326Y-92823855D01*
X157971424Y-92822090D01*
X157965267Y-92822052D01*
X157965264Y-92822052D01*
X157947538Y-92821944D01*
X157939251Y-92821894D01*
X157938227Y-92821851D01*
X157937258Y-92821700D01*
X157907788Y-92821700D01*
X157907260Y-92821698D01*
X157906938Y-92821696D01*
X157834420Y-92821253D01*
X157833218Y-92821597D01*
X157831699Y-92821700D01*
X156955992Y-92821700D01*
X156903335Y-92803826D01*
X156896144Y-92798308D01*
X156896143Y-92798307D01*
X156891645Y-92794856D01*
X156750967Y-92736585D01*
X156745348Y-92735845D01*
X156745347Y-92735845D01*
X156605621Y-92717450D01*
X156600000Y-92716710D01*
X156594379Y-92717450D01*
X156454653Y-92735845D01*
X156454652Y-92735845D01*
X156449033Y-92736585D01*
X156308355Y-92794856D01*
X156303857Y-92798307D01*
X156303856Y-92798308D01*
X156248850Y-92840516D01*
X156187552Y-92887552D01*
X156184099Y-92892052D01*
X156107383Y-92992030D01*
X156094856Y-93008355D01*
X156036585Y-93149033D01*
X156035845Y-93154652D01*
X156035845Y-93154653D01*
X156026124Y-93228496D01*
X156016710Y-93300000D01*
X131691092Y-93300000D01*
X131689881Y-92830685D01*
X131687605Y-91948819D01*
X160521700Y-91948819D01*
X160521701Y-93351180D01*
X160524534Y-93381162D01*
X160526280Y-93386133D01*
X160526280Y-93386134D01*
X160534510Y-93409568D01*
X160567208Y-93502678D01*
X160643725Y-93606275D01*
X160747322Y-93682792D01*
X160753420Y-93684934D01*
X160753423Y-93684935D01*
X160841601Y-93715901D01*
X160868838Y-93725466D01*
X160890532Y-93727517D01*
X160896786Y-93728108D01*
X160896790Y-93728108D01*
X160898819Y-93728300D01*
X162598750Y-93728300D01*
X164301180Y-93728299D01*
X164331162Y-93725466D01*
X164358399Y-93715901D01*
X164446577Y-93684935D01*
X164446580Y-93684934D01*
X164452678Y-93682792D01*
X164531586Y-93624510D01*
X166200599Y-93624510D01*
X166219097Y-93800509D01*
X166220972Y-93809325D01*
X166275657Y-93977631D01*
X166279327Y-93985873D01*
X166330981Y-94075341D01*
X166340506Y-94083334D01*
X166342979Y-94083334D01*
X166345306Y-94081851D01*
X166796372Y-93630785D01*
X166801627Y-93619517D01*
X166799779Y-93612622D01*
X166349392Y-93162235D01*
X166338124Y-93156980D01*
X166335734Y-93157621D01*
X166333870Y-93159654D01*
X166279327Y-93254127D01*
X166275657Y-93262369D01*
X166220972Y-93430675D01*
X166219097Y-93439491D01*
X166200599Y-93615490D01*
X166200599Y-93624510D01*
X164531586Y-93624510D01*
X164556275Y-93606275D01*
X164632792Y-93502678D01*
X164665491Y-93409568D01*
X164673719Y-93386137D01*
X164673720Y-93386134D01*
X164675466Y-93381162D01*
X164677517Y-93359468D01*
X164678108Y-93353214D01*
X164678108Y-93353210D01*
X164678300Y-93351181D01*
X164678300Y-92868731D01*
X166625618Y-92868731D01*
X166626093Y-92873250D01*
X167311678Y-93558835D01*
X167333840Y-93606361D01*
X167333840Y-93591998D01*
X167340000Y-93580165D01*
X167340000Y-93036500D01*
X167360237Y-92980899D01*
X167411479Y-92951314D01*
X167426500Y-92950000D01*
X167653500Y-92950000D01*
X167709101Y-92970237D01*
X167738686Y-93021479D01*
X167740000Y-93036500D01*
X167740000Y-93404749D01*
X167744252Y-93416432D01*
X167750432Y-93420000D01*
X170314749Y-93420000D01*
X170326432Y-93415748D01*
X170330000Y-93409568D01*
X170330000Y-93404749D01*
X170730000Y-93404749D01*
X170734252Y-93416432D01*
X170740432Y-93420000D01*
X173454748Y-93420000D01*
X173466431Y-93415748D01*
X173469999Y-93409568D01*
X173469999Y-92381916D01*
X173469468Y-92375164D01*
X173456230Y-92291580D01*
X173452073Y-92278783D01*
X173400732Y-92178021D01*
X173392828Y-92167142D01*
X173312858Y-92087172D01*
X173301979Y-92079268D01*
X173201212Y-92027925D01*
X173188425Y-92023770D01*
X173104835Y-92010531D01*
X173098086Y-92010000D01*
X170745251Y-92010000D01*
X170733568Y-92014252D01*
X170730000Y-92020432D01*
X170730000Y-93404749D01*
X170330000Y-93404749D01*
X170330000Y-92025252D01*
X170325748Y-92013569D01*
X170319568Y-92010001D01*
X167961916Y-92010001D01*
X167955164Y-92010532D01*
X167871580Y-92023770D01*
X167858783Y-92027927D01*
X167758021Y-92079268D01*
X167747142Y-92087172D01*
X167667172Y-92167142D01*
X167659268Y-92178021D01*
X167607925Y-92278788D01*
X167603770Y-92291575D01*
X167590531Y-92375165D01*
X167590000Y-92381914D01*
X167590000Y-92740663D01*
X167569763Y-92796264D01*
X167518521Y-92825849D01*
X167468317Y-92819685D01*
X167369127Y-92775523D01*
X167360551Y-92772736D01*
X167187448Y-92735942D01*
X167178486Y-92735000D01*
X167001514Y-92735000D01*
X166992552Y-92735942D01*
X166819449Y-92772736D01*
X166810873Y-92775523D01*
X166649204Y-92847502D01*
X166641393Y-92852013D01*
X166632571Y-92858422D01*
X166625618Y-92868731D01*
X164678300Y-92868731D01*
X164678299Y-91948820D01*
X164675466Y-91918838D01*
X164632792Y-91797322D01*
X164556275Y-91693725D01*
X164452678Y-91617208D01*
X164446580Y-91615066D01*
X164446577Y-91615065D01*
X164336137Y-91576281D01*
X164336136Y-91576281D01*
X164331162Y-91574534D01*
X164309468Y-91572483D01*
X164303214Y-91571892D01*
X164303210Y-91571892D01*
X164301181Y-91571700D01*
X162601250Y-91571700D01*
X160898820Y-91571701D01*
X160868838Y-91574534D01*
X160863867Y-91576280D01*
X160863866Y-91576280D01*
X160753423Y-91615065D01*
X160753420Y-91615066D01*
X160747322Y-91617208D01*
X160643725Y-91693725D01*
X160567208Y-91797322D01*
X160524534Y-91918838D01*
X160524038Y-91924090D01*
X160521893Y-91946781D01*
X160521700Y-91948819D01*
X131687605Y-91948819D01*
X131682576Y-90000000D01*
X167544532Y-90000000D01*
X167544861Y-90003760D01*
X167560949Y-90187643D01*
X167564365Y-90226692D01*
X167623261Y-90446496D01*
X167719432Y-90652734D01*
X167721594Y-90655822D01*
X167721596Y-90655825D01*
X167771827Y-90727562D01*
X167849953Y-90839139D01*
X168010861Y-91000047D01*
X168094784Y-91058810D01*
X168151261Y-91098355D01*
X168197266Y-91130568D01*
X168200683Y-91132161D01*
X168200684Y-91132162D01*
X168400083Y-91225144D01*
X168400085Y-91225145D01*
X168403504Y-91226739D01*
X168623308Y-91285635D01*
X168627064Y-91285964D01*
X168627066Y-91285964D01*
X168846240Y-91305139D01*
X168850000Y-91305468D01*
X168853760Y-91305139D01*
X169072934Y-91285964D01*
X169072936Y-91285964D01*
X169076692Y-91285635D01*
X169296496Y-91226739D01*
X169299915Y-91225145D01*
X169299917Y-91225144D01*
X169499316Y-91132162D01*
X169499317Y-91132161D01*
X169502734Y-91130568D01*
X169548740Y-91098355D01*
X169605216Y-91058810D01*
X169689139Y-91000047D01*
X169850047Y-90839139D01*
X169928173Y-90727562D01*
X169978404Y-90655825D01*
X169978406Y-90655822D01*
X169980568Y-90652734D01*
X170076739Y-90446496D01*
X170135635Y-90226692D01*
X170139052Y-90187643D01*
X170155139Y-90003760D01*
X170155468Y-90000000D01*
X170135635Y-89773308D01*
X170076739Y-89553504D01*
X169983588Y-89353741D01*
X169982162Y-89350684D01*
X169982161Y-89350683D01*
X169980568Y-89347266D01*
X169850047Y-89160861D01*
X169689139Y-88999953D01*
X169562598Y-88911349D01*
X169505825Y-88871596D01*
X169505822Y-88871594D01*
X169502734Y-88869432D01*
X169467155Y-88852841D01*
X169299917Y-88774856D01*
X169299915Y-88774855D01*
X169296496Y-88773261D01*
X169076692Y-88714365D01*
X169072936Y-88714036D01*
X169072934Y-88714036D01*
X168853760Y-88694861D01*
X168850000Y-88694532D01*
X168846240Y-88694861D01*
X168627066Y-88714036D01*
X168627064Y-88714036D01*
X168623308Y-88714365D01*
X168403504Y-88773261D01*
X168400085Y-88774855D01*
X168400083Y-88774856D01*
X168232845Y-88852841D01*
X168197266Y-88869432D01*
X168194178Y-88871594D01*
X168194175Y-88871596D01*
X168137402Y-88911349D01*
X168010861Y-88999953D01*
X167849953Y-89160861D01*
X167719432Y-89347266D01*
X167717839Y-89350683D01*
X167717838Y-89350684D01*
X167716413Y-89353741D01*
X167623261Y-89553504D01*
X167564365Y-89773308D01*
X167547279Y-89968601D01*
X167544532Y-90000000D01*
X131682576Y-90000000D01*
X131680220Y-89087223D01*
X131700314Y-89031570D01*
X131751480Y-89001853D01*
X131766720Y-89000500D01*
X132839960Y-89000500D01*
X132850011Y-89004661D01*
X132852256Y-89003731D01*
X132869429Y-89001793D01*
X132968446Y-88990619D01*
X132968449Y-88990618D01*
X132973272Y-88990074D01*
X133090351Y-88949092D01*
X133112012Y-88935480D01*
X133171200Y-88898284D01*
X133195378Y-88883090D01*
X133283090Y-88795378D01*
X133349092Y-88690351D01*
X133390074Y-88573272D01*
X133390619Y-88568446D01*
X133401488Y-88472135D01*
X133401488Y-88472134D01*
X133403731Y-88452256D01*
X133404661Y-88450011D01*
X133400500Y-88439960D01*
X133400500Y-88427619D01*
X133400578Y-88424013D01*
X133400500Y-88423569D01*
X133400500Y-88260040D01*
X133404661Y-88249989D01*
X133401994Y-88243555D01*
X133402435Y-88242491D01*
X133401502Y-88242368D01*
X133414312Y-88144939D01*
X133420155Y-88123121D01*
X133423175Y-88115829D01*
X133456337Y-88035746D01*
X133467628Y-88016187D01*
X133469147Y-88014208D01*
X133485285Y-87993175D01*
X133525193Y-87941163D01*
X133541163Y-87925193D01*
X133616187Y-87867628D01*
X133635746Y-87856337D01*
X133723121Y-87820155D01*
X133744939Y-87814312D01*
X133745046Y-87814298D01*
X133842368Y-87801502D01*
X133842397Y-87801719D01*
X133842772Y-87801670D01*
X133849989Y-87804661D01*
X133860040Y-87800500D01*
X133872245Y-87800500D01*
X133875968Y-87800581D01*
G37*
%TD.AperFunction*%
%TD*%
M02*
