%TF.GenerationSoftware,KiCad,Pcbnew,(6.0.7)*%
%TF.CreationDate,2022-08-24T15:08:17+02:00*%
%TF.ProjectId,diff-probe,64696666-2d70-4726-9f62-652e6b696361,rev?*%
%TF.SameCoordinates,Original*%
%TF.FileFunction,Legend,Top*%
%TF.FilePolarity,Positive*%
%FSLAX46Y46*%
G04 Gerber Fmt 4.6, Leading zero omitted, Abs format (unit mm)*
G04 Created by KiCad (PCBNEW (6.0.7)) date 2022-08-24 15:08:17*
%MOMM*%
%LPD*%
G01*
G04 APERTURE LIST*
%ADD10C,0.127000*%
%ADD11C,0.150000*%
%ADD12C,0.200000*%
%ADD13C,0.152400*%
%ADD14C,0.050800*%
%ADD15C,0.120000*%
G04 APERTURE END LIST*
D10*
%TO.C,IC3*%
X137304692Y-102625571D02*
X137304692Y-101482571D01*
X138502121Y-102516714D02*
X138447692Y-102571142D01*
X138284407Y-102625571D01*
X138175550Y-102625571D01*
X138012264Y-102571142D01*
X137903407Y-102462285D01*
X137848978Y-102353428D01*
X137794550Y-102135714D01*
X137794550Y-101972428D01*
X137848978Y-101754714D01*
X137903407Y-101645857D01*
X138012264Y-101537000D01*
X138175550Y-101482571D01*
X138284407Y-101482571D01*
X138447692Y-101537000D01*
X138502121Y-101591428D01*
X138883121Y-101482571D02*
X139590692Y-101482571D01*
X139209692Y-101918000D01*
X139372978Y-101918000D01*
X139481835Y-101972428D01*
X139536264Y-102026857D01*
X139590692Y-102135714D01*
X139590692Y-102407857D01*
X139536264Y-102516714D01*
X139481835Y-102571142D01*
X139372978Y-102625571D01*
X139046407Y-102625571D01*
X138937550Y-102571142D01*
X138883121Y-102516714D01*
%TO.C,IC5*%
X137304692Y-97375571D02*
X137304692Y-96232571D01*
X138502121Y-97266714D02*
X138447692Y-97321142D01*
X138284407Y-97375571D01*
X138175550Y-97375571D01*
X138012264Y-97321142D01*
X137903407Y-97212285D01*
X137848978Y-97103428D01*
X137794550Y-96885714D01*
X137794550Y-96722428D01*
X137848978Y-96504714D01*
X137903407Y-96395857D01*
X138012264Y-96287000D01*
X138175550Y-96232571D01*
X138284407Y-96232571D01*
X138447692Y-96287000D01*
X138502121Y-96341428D01*
X139536264Y-96232571D02*
X138991978Y-96232571D01*
X138937550Y-96776857D01*
X138991978Y-96722428D01*
X139100835Y-96668000D01*
X139372978Y-96668000D01*
X139481835Y-96722428D01*
X139536264Y-96776857D01*
X139590692Y-96885714D01*
X139590692Y-97157857D01*
X139536264Y-97266714D01*
X139481835Y-97321142D01*
X139372978Y-97375571D01*
X139100835Y-97375571D01*
X138991978Y-97321142D01*
X138937550Y-97266714D01*
D11*
%TO.C,X2*%
X165740476Y-90652380D02*
X166407142Y-91652380D01*
X166407142Y-90652380D02*
X165740476Y-91652380D01*
X166740476Y-90747619D02*
X166788095Y-90700000D01*
X166883333Y-90652380D01*
X167121428Y-90652380D01*
X167216666Y-90700000D01*
X167264285Y-90747619D01*
X167311904Y-90842857D01*
X167311904Y-90938095D01*
X167264285Y-91080952D01*
X166692857Y-91652380D01*
X167311904Y-91652380D01*
D10*
%TO.C,IC4*%
X147554692Y-100625571D02*
X147554692Y-99482571D01*
X148752121Y-100516714D02*
X148697692Y-100571142D01*
X148534407Y-100625571D01*
X148425550Y-100625571D01*
X148262264Y-100571142D01*
X148153407Y-100462285D01*
X148098978Y-100353428D01*
X148044550Y-100135714D01*
X148044550Y-99972428D01*
X148098978Y-99754714D01*
X148153407Y-99645857D01*
X148262264Y-99537000D01*
X148425550Y-99482571D01*
X148534407Y-99482571D01*
X148697692Y-99537000D01*
X148752121Y-99591428D01*
X149731835Y-99863571D02*
X149731835Y-100625571D01*
X149459692Y-99428142D02*
X149187550Y-100244571D01*
X149895121Y-100244571D01*
D12*
%TO.C,R28*%
X129436008Y-97624125D02*
X131203775Y-95856358D01*
X128552125Y-96740242D02*
X129436008Y-97624125D01*
X131203775Y-95856358D02*
X130319892Y-94972475D01*
X130319892Y-94972475D02*
X128552125Y-96740242D01*
%TO.C,C19*%
X134506100Y-97503600D02*
X134506100Y-96253600D01*
X134506100Y-96253600D02*
X132006100Y-96253600D01*
X132006100Y-96253600D02*
X132006100Y-97503600D01*
X132006100Y-97503600D02*
X134506100Y-97503600D01*
%TO.C,C20*%
X132006100Y-98753600D02*
X134506100Y-98753600D01*
X134506100Y-98753600D02*
X134506100Y-97503600D01*
X134506100Y-97503600D02*
X132006100Y-97503600D01*
X132006100Y-97503600D02*
X132006100Y-98753600D01*
%TO.C,C24*%
X152200000Y-101253600D02*
X149700000Y-101253600D01*
X152200000Y-102503600D02*
X152200000Y-101253600D01*
X149700000Y-101253600D02*
X149700000Y-102503600D01*
X149700000Y-102503600D02*
X152200000Y-102503600D01*
%TO.C,R20*%
X130419892Y-101052225D02*
X131303775Y-100168342D01*
X129536008Y-98400575D02*
X128652125Y-99284458D01*
X131303775Y-100168342D02*
X129536008Y-98400575D01*
X128652125Y-99284458D02*
X130419892Y-101052225D01*
D13*
%TO.C,IC3*%
X140184100Y-98141600D02*
X136578100Y-98141600D01*
X136578100Y-102865600D02*
X140184100Y-102865600D01*
D14*
X137746100Y-98700200D02*
G75*
G03*
X137746100Y-98700200I-355600J0D01*
G01*
D12*
%TO.C,R26*%
X146006100Y-103003600D02*
X146006100Y-101753600D01*
X143506100Y-101753600D02*
X143506100Y-103003600D01*
X143506100Y-103003600D02*
X146006100Y-103003600D01*
X146006100Y-101753600D02*
X143506100Y-101753600D01*
%TO.C,R30*%
X155150000Y-99825000D02*
X155150000Y-98575000D01*
X152650000Y-98575000D02*
X152650000Y-99825000D01*
X155150000Y-98575000D02*
X152650000Y-98575000D01*
X152650000Y-99825000D02*
X155150000Y-99825000D01*
%TO.C,C22*%
X132006100Y-103753600D02*
X134506100Y-103753600D01*
X134506100Y-103753600D02*
X134506100Y-102503600D01*
X134506100Y-102503600D02*
X132006100Y-102503600D01*
X132006100Y-102503600D02*
X132006100Y-103753600D01*
%TO.C,C18*%
X155150000Y-97128600D02*
X152650000Y-97128600D01*
X152650000Y-97128600D02*
X152650000Y-98378600D01*
X155150000Y-98378600D02*
X155150000Y-97128600D01*
X152650000Y-98378600D02*
X155150000Y-98378600D01*
%TO.C,C17*%
X152650000Y-95675000D02*
X152650000Y-96925000D01*
X152650000Y-96925000D02*
X155150000Y-96925000D01*
X155150000Y-96925000D02*
X155150000Y-95675000D01*
X155150000Y-95675000D02*
X152650000Y-95675000D01*
%TO.C,C16*%
X143506100Y-98003600D02*
X142256100Y-98003600D01*
X142256100Y-98003600D02*
X142256100Y-100503600D01*
X143506100Y-100503600D02*
X143506100Y-98003600D01*
X142256100Y-100503600D02*
X143506100Y-100503600D01*
%TO.C,R22*%
X142256100Y-101753600D02*
X144756100Y-101753600D01*
X144756100Y-101753600D02*
X144756100Y-100503600D01*
X144756100Y-100503600D02*
X142256100Y-100503600D01*
X142256100Y-100503600D02*
X142256100Y-101753600D01*
%TO.C,C21*%
X134506100Y-102503600D02*
X134506100Y-101253600D01*
X134506100Y-101253600D02*
X132006100Y-101253600D01*
X132006100Y-101253600D02*
X132006100Y-102503600D01*
X132006100Y-102503600D02*
X134506100Y-102503600D01*
%TO.C,C13*%
X143506100Y-95253600D02*
X143506100Y-92753600D01*
X142256100Y-92753600D02*
X142256100Y-95253600D01*
X142256100Y-95253600D02*
X143506100Y-95253600D01*
X143506100Y-92753600D02*
X142256100Y-92753600D01*
D13*
%TO.C,IC5*%
X140184100Y-92891600D02*
X136578100Y-92891600D01*
X136578100Y-97615600D02*
X140184100Y-97615600D01*
D14*
X137746100Y-93450200D02*
G75*
G03*
X137746100Y-93450200I-355600J0D01*
G01*
D12*
%TO.C,C14*%
X144756100Y-95253600D02*
X144756100Y-92753600D01*
X144756100Y-92753600D02*
X143506100Y-92753600D01*
X143506100Y-95253600D02*
X144756100Y-95253600D01*
X143506100Y-92753600D02*
X143506100Y-95253600D01*
D15*
%TO.C,X2*%
X166310000Y-97750000D02*
X166810000Y-98000000D01*
X166810000Y-98000000D02*
X166310000Y-98250000D01*
X166310000Y-98250000D02*
X166310000Y-97750000D01*
D12*
%TO.C,C54*%
X146750000Y-93350000D02*
X146750000Y-92850000D01*
X145850000Y-93350000D02*
X145850000Y-92850000D01*
%TO.C,C52*%
X153850000Y-95050000D02*
X154350000Y-95050000D01*
X153850000Y-94150000D02*
X154350000Y-94150000D01*
D13*
%TO.C,IC4*%
X150434100Y-96141600D02*
X146828100Y-96141600D01*
X146828100Y-100865600D02*
X150434100Y-100865600D01*
D14*
X147996100Y-96700200D02*
G75*
G03*
X147996100Y-96700200I-355600J0D01*
G01*
D12*
%TO.C,C15*%
X144756100Y-97253600D02*
X143506100Y-97253600D01*
X143506100Y-99753600D02*
X144756100Y-99753600D01*
X144756100Y-99753600D02*
X144756100Y-97253600D01*
X143506100Y-97253600D02*
X143506100Y-99753600D01*
%TO.C,C23*%
X147200000Y-101253600D02*
X147200000Y-102503600D01*
X147200000Y-102503600D02*
X149700000Y-102503600D01*
X149700000Y-102503600D02*
X149700000Y-101253600D01*
X149700000Y-101253600D02*
X147200000Y-101253600D01*
%TO.C,R32*%
X142256100Y-96503600D02*
X144756100Y-96503600D01*
X142256100Y-95253600D02*
X142256100Y-96503600D01*
X144756100Y-96503600D02*
X144756100Y-95253600D01*
X144756100Y-95253600D02*
X142256100Y-95253600D01*
%TD*%
M02*
