%TF.GenerationSoftware,KiCad,Pcbnew,(6.0.7)*%
%TF.CreationDate,2022-08-24T15:08:17+02:00*%
%TF.ProjectId,diff-probe,64696666-2d70-4726-9f62-652e6b696361,rev?*%
%TF.SameCoordinates,Original*%
%TF.FileFunction,Profile,NP*%
%FSLAX46Y46*%
G04 Gerber Fmt 4.6, Leading zero omitted, Abs format (unit mm)*
G04 Created by KiCad (PCBNEW (6.0.7)) date 2022-08-24 15:08:17*
%MOMM*%
%LPD*%
G01*
G04 APERTURE LIST*
%TA.AperFunction,Profile*%
%ADD10C,0.200000*%
%TD*%
G04 APERTURE END LIST*
D10*
X170650000Y-90750000D02*
G75*
G03*
X171150000Y-91250000I500000J0D01*
G01*
X124679050Y-100030000D02*
X124679050Y-96030000D01*
X171150000Y-104750000D02*
X173350000Y-104750000D01*
X128264837Y-95529971D02*
G75*
G03*
X129850000Y-94200000I63J1609571D01*
G01*
X171150000Y-104750000D02*
G75*
G03*
X170650000Y-105250000I-100J-499900D01*
G01*
X133350000Y-107750000D02*
G75*
G03*
X133850000Y-108250000I500000J0D01*
G01*
X130350000Y-88950000D02*
G75*
G03*
X129850000Y-89450000I-100J-499900D01*
G01*
X137100000Y-106000000D02*
G75*
G03*
X137100000Y-106000000I-1250000J0D01*
G01*
X133850000Y-108250000D02*
X170150000Y-108250000D01*
X130350000Y-107050000D02*
X132850000Y-107050000D01*
X173850000Y-91750000D02*
G75*
G03*
X173350000Y-91250000I-500000J0D01*
G01*
X124679100Y-100030000D02*
G75*
G03*
X125179050Y-100530000I500000J0D01*
G01*
X133350000Y-88250000D02*
X133350000Y-88450000D01*
X170650000Y-90750000D02*
X170650000Y-88250000D01*
X133350000Y-107550000D02*
G75*
G03*
X132850000Y-107050000I-500000J0D01*
G01*
X170100000Y-90000000D02*
G75*
G03*
X170100000Y-90000000I-1250000J0D01*
G01*
X170650000Y-107750000D02*
X170650000Y-105250000D01*
X129850000Y-106550000D02*
G75*
G03*
X130350000Y-107050000I500000J0D01*
G01*
X170150000Y-87750000D02*
X133850000Y-87750000D01*
X129850000Y-89450000D02*
X129850000Y-94200000D01*
X125179050Y-100530000D02*
X128264837Y-100530000D01*
X129850000Y-101800000D02*
X129850000Y-106550000D01*
X170150000Y-108250000D02*
G75*
G03*
X170650000Y-107750000I-100J500100D01*
G01*
X132850000Y-88950000D02*
G75*
G03*
X133350000Y-88450000I-100J500100D01*
G01*
X133850000Y-87750000D02*
G75*
G03*
X133350000Y-88250000I-100J-499900D01*
G01*
X133350000Y-107550000D02*
X133350000Y-107750000D01*
X170650000Y-88250000D02*
G75*
G03*
X170150000Y-87750000I-500000J0D01*
G01*
X173350000Y-104750000D02*
G75*
G03*
X173850000Y-104250000I-100J500100D01*
G01*
X125179050Y-95529950D02*
G75*
G03*
X124679050Y-96030000I50J-500050D01*
G01*
X173850000Y-104250000D02*
X173850000Y-91750000D01*
X129849943Y-101825011D02*
G75*
G03*
X128264837Y-100530000I-1555043J-285789D01*
G01*
X128264837Y-95530000D02*
X125179050Y-95530000D01*
X173350000Y-91250000D02*
X171150000Y-91250000D01*
X132850000Y-88950000D02*
X130350000Y-88950000D01*
M02*
