%TF.GenerationSoftware,KiCad,Pcbnew,(6.0.7)*%
%TF.CreationDate,2022-09-05T16:04:27+02:00*%
%TF.ProjectId,autoprobe,6175746f-7072-46f6-9265-2e6b69636164,rev?*%
%TF.SameCoordinates,Original*%
%TF.FileFunction,Copper,L2,Bot*%
%TF.FilePolarity,Positive*%
%FSLAX46Y46*%
G04 Gerber Fmt 4.6, Leading zero omitted, Abs format (unit mm)*
G04 Created by KiCad (PCBNEW (6.0.7)) date 2022-09-05 16:04:27*
%MOMM*%
%LPD*%
G01*
G04 APERTURE LIST*
%TA.AperFunction,ComponentPad*%
%ADD10R,1.700000X1.700000*%
%TD*%
%TA.AperFunction,ComponentPad*%
%ADD11O,1.700000X1.700000*%
%TD*%
%TA.AperFunction,ViaPad*%
%ADD12C,0.800000*%
%TD*%
%TA.AperFunction,Conductor*%
%ADD13C,0.300000*%
%TD*%
G04 APERTURE END LIST*
D10*
%TO.P,J1,1,Pin_1*%
%TO.N,+5V*%
X140705000Y-99655000D03*
D11*
%TO.P,J1,2,Pin_2*%
%TO.N,-5V*%
X140705000Y-97115000D03*
%TO.P,J1,3,Pin_3*%
%TO.N,Offset*%
X140705000Y-94575000D03*
%TO.P,J1,4,Pin_4*%
%TO.N,SDA*%
X140705000Y-92035000D03*
%TO.P,J1,5,Pin_5*%
%TO.N,Net-(J1-Pad5)*%
X140705000Y-89495000D03*
%TO.P,J1,6,Pin_6*%
%TO.N,SCL*%
X140705000Y-86955000D03*
%TO.P,J1,7,Pin_7*%
%TO.N,Net-(J1-Pad7)*%
X140705000Y-84415000D03*
%TO.P,J1,8,Pin_8*%
%TO.N,-12V*%
X140705000Y-81875000D03*
%TO.P,J1,9,Pin_9*%
%TO.N,+12V*%
X140705000Y-79335000D03*
%TD*%
D10*
%TO.P,J2,1,Pin_1*%
%TO.N,+5V*%
X145280000Y-99655000D03*
D11*
%TO.P,J2,2,Pin_2*%
%TO.N,Offset*%
X145280000Y-97115000D03*
%TO.P,J2,3,Pin_3*%
%TO.N,SDA*%
X145280000Y-94575000D03*
%TO.P,J2,4,Pin_4*%
%TO.N,SCL*%
X145280000Y-92035000D03*
%TO.P,J2,5,Pin_5*%
%TO.N,GND*%
X145280000Y-89495000D03*
%TD*%
D12*
%TO.N,GND*%
X153970000Y-85260000D03*
X162270000Y-96530000D03*
X156280000Y-90580000D03*
X166860000Y-86970000D03*
X147750000Y-85260000D03*
X158800000Y-90580000D03*
X158800000Y-93250000D03*
X148880000Y-100050000D03*
X147820000Y-95150000D03*
X148570000Y-79970000D03*
X151290000Y-99080000D03*
X151250000Y-79990000D03*
X166860000Y-91670000D03*
X151290000Y-90580000D03*
X151250000Y-85260000D03*
X147820000Y-90580000D03*
X161530000Y-83100000D03*
X153500000Y-90580000D03*
X156280000Y-83100000D03*
X148520000Y-83100000D03*
X153500000Y-93710000D03*
X158800000Y-83100000D03*
X153970000Y-83100000D03*
X156280000Y-85260000D03*
X153500000Y-98090000D03*
%TD*%
D13*
%TO.N,Offset*%
X144445100Y-97115000D02*
X145280000Y-97115000D01*
X140705000Y-94575000D02*
X141905100Y-94575000D01*
X141905100Y-94575000D02*
X144445100Y-97115000D01*
%TO.N,SDA*%
X144445100Y-94575000D02*
X145280000Y-94575000D01*
X140705000Y-92035000D02*
X141905100Y-92035000D01*
X141905100Y-92035000D02*
X144445100Y-94575000D01*
%TO.N,SCL*%
X142830000Y-90505000D02*
X142830000Y-87605000D01*
X145280000Y-92035000D02*
X144360000Y-92035000D01*
X142180000Y-86955000D02*
X140705000Y-86955000D01*
X142830000Y-87605000D02*
X142180000Y-86955000D01*
X144360000Y-92035000D02*
X142830000Y-90505000D01*
%TD*%
%TA.AperFunction,Conductor*%
%TO.N,GND*%
G36*
X150569959Y-78031793D02*
G01*
X150570020Y-78031006D01*
X150580599Y-78031825D01*
X150590960Y-78034137D01*
X150602497Y-78033387D01*
X150607603Y-78033055D01*
X150634443Y-78033734D01*
X150825087Y-78055853D01*
X150893692Y-78063812D01*
X150908509Y-78066294D01*
X151192423Y-78128707D01*
X151206916Y-78132668D01*
X151483114Y-78223360D01*
X151497135Y-78228761D01*
X151762796Y-78346808D01*
X151776196Y-78353592D01*
X151996249Y-78479302D01*
X152014086Y-78492075D01*
X152019231Y-78495458D01*
X152027183Y-78502488D01*
X152036787Y-78507003D01*
X152036789Y-78507004D01*
X152059089Y-78517487D01*
X152073906Y-78525505D01*
X152287418Y-78657171D01*
X154989209Y-80323276D01*
X155011839Y-80340406D01*
X155019015Y-80347003D01*
X155029288Y-80353866D01*
X155034513Y-80356290D01*
X155039530Y-80359108D01*
X155039513Y-80359139D01*
X155045056Y-80362070D01*
X155397026Y-80572302D01*
X155397042Y-80572311D01*
X155399470Y-80573761D01*
X155784884Y-80765620D01*
X156183840Y-80927443D01*
X156186563Y-80928312D01*
X156186564Y-80928312D01*
X156530232Y-81037942D01*
X156594003Y-81058285D01*
X156596758Y-81058937D01*
X156596763Y-81058938D01*
X157010200Y-81156722D01*
X157010210Y-81156724D01*
X157012971Y-81157377D01*
X157015773Y-81157817D01*
X157015784Y-81157819D01*
X157435484Y-81223700D01*
X157435492Y-81223701D01*
X157438289Y-81224140D01*
X157657119Y-81241498D01*
X157864601Y-81257956D01*
X157864612Y-81257956D01*
X157867468Y-81258183D01*
X157870331Y-81258190D01*
X157870344Y-81258191D01*
X158265724Y-81259223D01*
X158274212Y-81259790D01*
X158274225Y-81259553D01*
X158279962Y-81259862D01*
X158285678Y-81260615D01*
X158291436Y-81260480D01*
X158291440Y-81260480D01*
X158292193Y-81260462D01*
X158298029Y-81260325D01*
X158311794Y-81257850D01*
X158338156Y-81255499D01*
X163887769Y-81255392D01*
X168704481Y-81255299D01*
X168727403Y-81257073D01*
X168733076Y-81257956D01*
X168738335Y-81258775D01*
X168738336Y-81258775D01*
X168748823Y-81260408D01*
X168759353Y-81259031D01*
X168760331Y-81259043D01*
X168790942Y-81258349D01*
X168932174Y-81270333D01*
X168957009Y-81274578D01*
X169116880Y-81316073D01*
X169140644Y-81324442D01*
X169291240Y-81392281D01*
X169313249Y-81404530D01*
X169450269Y-81496780D01*
X169469896Y-81512560D01*
X169589414Y-81626577D01*
X169606104Y-81645443D01*
X169704700Y-81777963D01*
X169717971Y-81799369D01*
X169792827Y-81946606D01*
X169802305Y-81969947D01*
X169851284Y-82127694D01*
X169856691Y-82152290D01*
X169874375Y-82285729D01*
X169874566Y-82301505D01*
X169875427Y-82301475D01*
X169875797Y-82312090D01*
X169874661Y-82322637D01*
X169877173Y-82336670D01*
X169879503Y-82362905D01*
X169879848Y-88789423D01*
X169880266Y-96571051D01*
X169877912Y-96597438D01*
X169875446Y-96611146D01*
X169876575Y-96621706D01*
X169876539Y-96622701D01*
X169876513Y-96653299D01*
X169876044Y-96657620D01*
X169860499Y-96800720D01*
X169855670Y-96825447D01*
X169838403Y-96886068D01*
X169808631Y-96990587D01*
X169799706Y-97014145D01*
X169754492Y-97108519D01*
X169725513Y-97169004D01*
X169712745Y-97190724D01*
X169613522Y-97330866D01*
X169597278Y-97350123D01*
X169536569Y-97410835D01*
X169503255Y-97444151D01*
X169475861Y-97471546D01*
X169456613Y-97487784D01*
X169316455Y-97587027D01*
X169294752Y-97599785D01*
X169139888Y-97673989D01*
X169116338Y-97682912D01*
X168951192Y-97729961D01*
X168926474Y-97734789D01*
X168786439Y-97750007D01*
X168770373Y-97749824D01*
X168770382Y-97750650D01*
X168759767Y-97750771D01*
X168749244Y-97749386D01*
X168738756Y-97751010D01*
X168738755Y-97751010D01*
X168727551Y-97752745D01*
X168704751Y-97754500D01*
X158341106Y-97754500D01*
X158313414Y-97751904D01*
X158308254Y-97750928D01*
X158308251Y-97750928D01*
X158302596Y-97749858D01*
X158296851Y-97749671D01*
X158296847Y-97749671D01*
X158296314Y-97749654D01*
X158290247Y-97749457D01*
X158284528Y-97750158D01*
X158278790Y-97750415D01*
X158278787Y-97750350D01*
X158273102Y-97750749D01*
X157858001Y-97758232D01*
X157855169Y-97758501D01*
X157855164Y-97758501D01*
X157616034Y-97781192D01*
X157427638Y-97799068D01*
X157228766Y-97833449D01*
X157004480Y-97872222D01*
X157004468Y-97872225D01*
X157001660Y-97872710D01*
X156582565Y-97978726D01*
X156579862Y-97979635D01*
X156579858Y-97979636D01*
X156175509Y-98115587D01*
X156175504Y-98115589D01*
X156172809Y-98116495D01*
X156170192Y-98117605D01*
X156170185Y-98117607D01*
X156131968Y-98133807D01*
X155774794Y-98285210D01*
X155390854Y-98483880D01*
X155050582Y-98694423D01*
X155043181Y-98698371D01*
X155043298Y-98698584D01*
X155038256Y-98701358D01*
X155033011Y-98703736D01*
X155028196Y-98706892D01*
X155028192Y-98706894D01*
X155027486Y-98707357D01*
X155022677Y-98710509D01*
X155013315Y-98718966D01*
X154991645Y-98735223D01*
X152097024Y-100520238D01*
X152078970Y-100529052D01*
X152073384Y-100532090D01*
X152063434Y-100535788D01*
X152049913Y-100545862D01*
X152027143Y-100559839D01*
X151797787Y-100673681D01*
X151784272Y-100679573D01*
X151688555Y-100715776D01*
X151516816Y-100780731D01*
X151502764Y-100785263D01*
X151226632Y-100859448D01*
X151212200Y-100862568D01*
X150930071Y-100909061D01*
X150915402Y-100910737D01*
X150667444Y-100926675D01*
X150644856Y-100925821D01*
X150639293Y-100925834D01*
X150628782Y-100924355D01*
X150618279Y-100925885D01*
X150618276Y-100925885D01*
X150604144Y-100927944D01*
X150582666Y-100929500D01*
X146720402Y-100929500D01*
X146645902Y-100909538D01*
X146591364Y-100855000D01*
X146571402Y-100780500D01*
X146580882Y-100728201D01*
X146623851Y-100613580D01*
X146630500Y-100552377D01*
X146630499Y-98757624D01*
X146626300Y-98718966D01*
X146624860Y-98705706D01*
X146624859Y-98705703D01*
X146623851Y-98696420D01*
X146573526Y-98562176D01*
X146487546Y-98447454D01*
X146372824Y-98361474D01*
X146277203Y-98325628D01*
X146214451Y-98280785D01*
X146182527Y-98210573D01*
X146189986Y-98133807D01*
X146224146Y-98080750D01*
X146318495Y-97986401D01*
X146454035Y-97792829D01*
X146553903Y-97578663D01*
X146615063Y-97350408D01*
X146635659Y-97115000D01*
X146635092Y-97108519D01*
X146615630Y-96886068D01*
X146615629Y-96886063D01*
X146615063Y-96879592D01*
X146553903Y-96651337D01*
X146454035Y-96437171D01*
X146318495Y-96243599D01*
X146151401Y-96076505D01*
X145995089Y-95967054D01*
X145945512Y-95907970D01*
X145932119Y-95832014D01*
X145958498Y-95759537D01*
X145995089Y-95722946D01*
X146146075Y-95617224D01*
X146151401Y-95613495D01*
X146318495Y-95446401D01*
X146454035Y-95252829D01*
X146553903Y-95038663D01*
X146615063Y-94810408D01*
X146635659Y-94575000D01*
X146615063Y-94339592D01*
X146553903Y-94111337D01*
X146454035Y-93897171D01*
X146318495Y-93703599D01*
X146151401Y-93536505D01*
X145995089Y-93427054D01*
X145945512Y-93367970D01*
X145932119Y-93292014D01*
X145958498Y-93219537D01*
X145995089Y-93182946D01*
X146146075Y-93077224D01*
X146151401Y-93073495D01*
X146318495Y-92906401D01*
X146454035Y-92712829D01*
X146553903Y-92498663D01*
X146615063Y-92270408D01*
X146635659Y-92035000D01*
X146615063Y-91799592D01*
X146553903Y-91571337D01*
X146454035Y-91357171D01*
X146318495Y-91163599D01*
X146151401Y-90996505D01*
X145994652Y-90886748D01*
X145945075Y-90827664D01*
X145931682Y-90751708D01*
X145958061Y-90679231D01*
X145994652Y-90642640D01*
X146145751Y-90536839D01*
X146155681Y-90528507D01*
X146313512Y-90370676D01*
X146321839Y-90360752D01*
X146449867Y-90177910D01*
X146456351Y-90166678D01*
X146550683Y-89964384D01*
X146555114Y-89952210D01*
X146605559Y-89763948D01*
X146605559Y-89747931D01*
X146600482Y-89745000D01*
X143968980Y-89745000D01*
X143953509Y-89749145D01*
X143951992Y-89754808D01*
X144004886Y-89952210D01*
X144009317Y-89964384D01*
X144103649Y-90166678D01*
X144110133Y-90177910D01*
X144238161Y-90360752D01*
X144246488Y-90370676D01*
X144404319Y-90528507D01*
X144414249Y-90536839D01*
X144565348Y-90642640D01*
X144614925Y-90701724D01*
X144628318Y-90777680D01*
X144601939Y-90850157D01*
X144565348Y-90886747D01*
X144412704Y-90993630D01*
X144340228Y-91020010D01*
X144264271Y-91006617D01*
X144221882Y-90976936D01*
X143524141Y-90279195D01*
X143485577Y-90212400D01*
X143480500Y-90173836D01*
X143480500Y-89242069D01*
X143954441Y-89242069D01*
X143959518Y-89245000D01*
X145010384Y-89245000D01*
X145025855Y-89240855D01*
X145030000Y-89225384D01*
X145530000Y-89225384D01*
X145534145Y-89240855D01*
X145549616Y-89245000D01*
X146591020Y-89245000D01*
X146606491Y-89240855D01*
X146608008Y-89235192D01*
X146555114Y-89037790D01*
X146550683Y-89025616D01*
X146456351Y-88823322D01*
X146449867Y-88812090D01*
X146321839Y-88629248D01*
X146313512Y-88619324D01*
X146155681Y-88461493D01*
X146145743Y-88453155D01*
X145962911Y-88325133D01*
X145951683Y-88318650D01*
X145749384Y-88224317D01*
X145737210Y-88219886D01*
X145548948Y-88169441D01*
X145532931Y-88169441D01*
X145530000Y-88174518D01*
X145530000Y-89225384D01*
X145030000Y-89225384D01*
X145030000Y-88183980D01*
X145025855Y-88168509D01*
X145020192Y-88166992D01*
X144822790Y-88219886D01*
X144810616Y-88224317D01*
X144608322Y-88318649D01*
X144597090Y-88325133D01*
X144414248Y-88453161D01*
X144404324Y-88461488D01*
X144246488Y-88619324D01*
X144238161Y-88629248D01*
X144110133Y-88812090D01*
X144103649Y-88823322D01*
X144009317Y-89025616D01*
X144004886Y-89037790D01*
X143954441Y-89226052D01*
X143954441Y-89242069D01*
X143480500Y-89242069D01*
X143480500Y-87685154D01*
X143480998Y-87674586D01*
X143482760Y-87666704D01*
X143481511Y-87626940D01*
X143480574Y-87597138D01*
X143480500Y-87592458D01*
X143480500Y-87564075D01*
X143479914Y-87559437D01*
X143479641Y-87555092D01*
X143478995Y-87546881D01*
X143477893Y-87511804D01*
X143477893Y-87511801D01*
X143477598Y-87502431D01*
X143472224Y-87483934D01*
X143467484Y-87461043D01*
X143466246Y-87451241D01*
X143466246Y-87451239D01*
X143465071Y-87441942D01*
X143461621Y-87433229D01*
X143461620Y-87433224D01*
X143448698Y-87400586D01*
X143444152Y-87387309D01*
X143442512Y-87381665D01*
X143431744Y-87344602D01*
X143421940Y-87328024D01*
X143411657Y-87307034D01*
X143408019Y-87297845D01*
X143404568Y-87289129D01*
X143378425Y-87253146D01*
X143370725Y-87241424D01*
X143352854Y-87211205D01*
X143352852Y-87211202D01*
X143348081Y-87203135D01*
X143334466Y-87189520D01*
X143319281Y-87171741D01*
X143313472Y-87163745D01*
X143313470Y-87163743D01*
X143307963Y-87156163D01*
X143273696Y-87127815D01*
X143263313Y-87118367D01*
X142696647Y-86551701D01*
X142689529Y-86543879D01*
X142685202Y-86537060D01*
X142678368Y-86530643D01*
X142678366Y-86530640D01*
X142634479Y-86489428D01*
X142631117Y-86486171D01*
X142611035Y-86466089D01*
X142607341Y-86463223D01*
X142604084Y-86460352D01*
X142597812Y-86454995D01*
X142572227Y-86430969D01*
X142572225Y-86430967D01*
X142565393Y-86424552D01*
X142548515Y-86415274D01*
X142528983Y-86402443D01*
X142513764Y-86390638D01*
X142505159Y-86386914D01*
X142505155Y-86386912D01*
X142472951Y-86372977D01*
X142460352Y-86366805D01*
X142421368Y-86345373D01*
X142411959Y-86342957D01*
X142402712Y-86340583D01*
X142380594Y-86333011D01*
X142362926Y-86325365D01*
X142353670Y-86323899D01*
X142353667Y-86323898D01*
X142319010Y-86318409D01*
X142305266Y-86315563D01*
X142271257Y-86306831D01*
X142271254Y-86306831D01*
X142262177Y-86304500D01*
X142242921Y-86304500D01*
X142219611Y-86302665D01*
X142209853Y-86301119D01*
X142209850Y-86301119D01*
X142200595Y-86299653D01*
X142168733Y-86302665D01*
X142156314Y-86303839D01*
X142142291Y-86304500D01*
X141975736Y-86304500D01*
X141901236Y-86284538D01*
X141853682Y-86240963D01*
X141747224Y-86088925D01*
X141743495Y-86083599D01*
X141576401Y-85916505D01*
X141420089Y-85807054D01*
X141370512Y-85747970D01*
X141357119Y-85672014D01*
X141383498Y-85599537D01*
X141420089Y-85562946D01*
X141571075Y-85457224D01*
X141576401Y-85453495D01*
X141743495Y-85286401D01*
X141879035Y-85092829D01*
X141978903Y-84878663D01*
X142040063Y-84650408D01*
X142060659Y-84415000D01*
X142040063Y-84179592D01*
X141978903Y-83951337D01*
X141879035Y-83737171D01*
X141743495Y-83543599D01*
X141576401Y-83376505D01*
X141420089Y-83267054D01*
X141370512Y-83207970D01*
X141357119Y-83132014D01*
X141383498Y-83059537D01*
X141420089Y-83022946D01*
X141571075Y-82917224D01*
X141576401Y-82913495D01*
X141743495Y-82746401D01*
X141879035Y-82552829D01*
X141978903Y-82338663D01*
X142028840Y-82152294D01*
X142038381Y-82116687D01*
X142038382Y-82116682D01*
X142040063Y-82110408D01*
X142048639Y-82012393D01*
X142060092Y-81881481D01*
X142060659Y-81875000D01*
X142053056Y-81788102D01*
X142040630Y-81646068D01*
X142040629Y-81646063D01*
X142040063Y-81639592D01*
X141978903Y-81411337D01*
X141879035Y-81197171D01*
X141743495Y-81003599D01*
X141576401Y-80836505D01*
X141420089Y-80727054D01*
X141370512Y-80667970D01*
X141357119Y-80592014D01*
X141383498Y-80519537D01*
X141420089Y-80482946D01*
X141571075Y-80377224D01*
X141576401Y-80373495D01*
X141743495Y-80206401D01*
X141879035Y-80012829D01*
X141978903Y-79798663D01*
X142040063Y-79570408D01*
X142060659Y-79335000D01*
X142040063Y-79099592D01*
X141978903Y-78871337D01*
X141879035Y-78657171D01*
X141743495Y-78463599D01*
X141576401Y-78296505D01*
X141571908Y-78293359D01*
X141527867Y-78230460D01*
X141521145Y-78153626D01*
X141553741Y-78083724D01*
X141616921Y-78039486D01*
X141667881Y-78030500D01*
X150558241Y-78030500D01*
X150569959Y-78031793D01*
G37*
%TD.AperFunction*%
%TD*%
M02*
