%TF.GenerationSoftware,KiCad,Pcbnew,(6.0.7)*%
%TF.CreationDate,2022-09-05T16:04:27+02:00*%
%TF.ProjectId,autoprobe,6175746f-7072-46f6-9265-2e6b69636164,rev?*%
%TF.SameCoordinates,Original*%
%TF.FileFunction,Legend,Top*%
%TF.FilePolarity,Positive*%
%FSLAX46Y46*%
G04 Gerber Fmt 4.6, Leading zero omitted, Abs format (unit mm)*
G04 Created by KiCad (PCBNEW (6.0.7)) date 2022-09-05 16:04:27*
%MOMM*%
%LPD*%
G01*
G04 APERTURE LIST*
%ADD10C,0.150000*%
%ADD11C,0.120000*%
G04 APERTURE END LIST*
D10*
%TO.C,H1*%
X150818095Y-78792380D02*
X150818095Y-77792380D01*
X150818095Y-78268571D02*
X151389523Y-78268571D01*
X151389523Y-78792380D02*
X151389523Y-77792380D01*
X152389523Y-78792380D02*
X151818095Y-78792380D01*
X152103809Y-78792380D02*
X152103809Y-77792380D01*
X152008571Y-77935238D01*
X151913333Y-78030476D01*
X151818095Y-78078095D01*
%TO.C,R1*%
X144888333Y-84612380D02*
X144555000Y-84136190D01*
X144316904Y-84612380D02*
X144316904Y-83612380D01*
X144697857Y-83612380D01*
X144793095Y-83660000D01*
X144840714Y-83707619D01*
X144888333Y-83802857D01*
X144888333Y-83945714D01*
X144840714Y-84040952D01*
X144793095Y-84088571D01*
X144697857Y-84136190D01*
X144316904Y-84136190D01*
X145840714Y-84612380D02*
X145269285Y-84612380D01*
X145555000Y-84612380D02*
X145555000Y-83612380D01*
X145459761Y-83755238D01*
X145364523Y-83850476D01*
X145269285Y-83898095D01*
%TO.C,R3*%
X144888333Y-81037380D02*
X144555000Y-80561190D01*
X144316904Y-81037380D02*
X144316904Y-80037380D01*
X144697857Y-80037380D01*
X144793095Y-80085000D01*
X144840714Y-80132619D01*
X144888333Y-80227857D01*
X144888333Y-80370714D01*
X144840714Y-80465952D01*
X144793095Y-80513571D01*
X144697857Y-80561190D01*
X144316904Y-80561190D01*
X145221666Y-80037380D02*
X145840714Y-80037380D01*
X145507380Y-80418333D01*
X145650238Y-80418333D01*
X145745476Y-80465952D01*
X145793095Y-80513571D01*
X145840714Y-80608809D01*
X145840714Y-80846904D01*
X145793095Y-80942142D01*
X145745476Y-80989761D01*
X145650238Y-81037380D01*
X145364523Y-81037380D01*
X145269285Y-80989761D01*
X145221666Y-80942142D01*
%TO.C,J3*%
X159157380Y-89838333D02*
X159871666Y-89838333D01*
X160014523Y-89885952D01*
X160109761Y-89981190D01*
X160157380Y-90124047D01*
X160157380Y-90219285D01*
X159157380Y-89457380D02*
X159157380Y-88838333D01*
X159538333Y-89171666D01*
X159538333Y-89028809D01*
X159585952Y-88933571D01*
X159633571Y-88885952D01*
X159728809Y-88838333D01*
X159966904Y-88838333D01*
X160062142Y-88885952D01*
X160109761Y-88933571D01*
X160157380Y-89028809D01*
X160157380Y-89314523D01*
X160109761Y-89409761D01*
X160062142Y-89457380D01*
%TO.C,U1*%
X152593095Y-97132380D02*
X152593095Y-97941904D01*
X152640714Y-98037142D01*
X152688333Y-98084761D01*
X152783571Y-98132380D01*
X152974047Y-98132380D01*
X153069285Y-98084761D01*
X153116904Y-98037142D01*
X153164523Y-97941904D01*
X153164523Y-97132380D01*
X154164523Y-98132380D02*
X153593095Y-98132380D01*
X153878809Y-98132380D02*
X153878809Y-97132380D01*
X153783571Y-97275238D01*
X153688333Y-97370476D01*
X153593095Y-97418095D01*
%TO.C,R2*%
X159802380Y-85946666D02*
X159326190Y-86280000D01*
X159802380Y-86518095D02*
X158802380Y-86518095D01*
X158802380Y-86137142D01*
X158850000Y-86041904D01*
X158897619Y-85994285D01*
X158992857Y-85946666D01*
X159135714Y-85946666D01*
X159230952Y-85994285D01*
X159278571Y-86041904D01*
X159326190Y-86137142D01*
X159326190Y-86518095D01*
X158897619Y-85565714D02*
X158850000Y-85518095D01*
X158802380Y-85422857D01*
X158802380Y-85184761D01*
X158850000Y-85089523D01*
X158897619Y-85041904D01*
X158992857Y-84994285D01*
X159088095Y-84994285D01*
X159230952Y-85041904D01*
X159802380Y-85613333D01*
X159802380Y-84994285D01*
%TO.C,C1*%
X148702142Y-87021666D02*
X148749761Y-87069285D01*
X148797380Y-87212142D01*
X148797380Y-87307380D01*
X148749761Y-87450238D01*
X148654523Y-87545476D01*
X148559285Y-87593095D01*
X148368809Y-87640714D01*
X148225952Y-87640714D01*
X148035476Y-87593095D01*
X147940238Y-87545476D01*
X147845000Y-87450238D01*
X147797380Y-87307380D01*
X147797380Y-87212142D01*
X147845000Y-87069285D01*
X147892619Y-87021666D01*
X148797380Y-86069285D02*
X148797380Y-86640714D01*
X148797380Y-86355000D02*
X147797380Y-86355000D01*
X147940238Y-86450238D01*
X148035476Y-86545476D01*
X148083095Y-86640714D01*
%TO.C,J1*%
X142671666Y-99057380D02*
X142671666Y-99771666D01*
X142624047Y-99914523D01*
X142528809Y-100009761D01*
X142385952Y-100057380D01*
X142290714Y-100057380D01*
X143671666Y-100057380D02*
X143100238Y-100057380D01*
X143385952Y-100057380D02*
X143385952Y-99057380D01*
X143290714Y-99200238D01*
X143195476Y-99295476D01*
X143100238Y-99343095D01*
D11*
%TO.C,R1*%
X144887379Y-85710000D02*
X145222621Y-85710000D01*
X144887379Y-84950000D02*
X145222621Y-84950000D01*
%TO.C,R3*%
X144887379Y-82135000D02*
X145222621Y-82135000D01*
X144887379Y-81375000D02*
X145222621Y-81375000D01*
%TO.C,J3*%
X162845000Y-83395000D02*
X162845000Y-85745000D01*
X164545000Y-83395000D02*
X162845000Y-83395000D01*
X170015000Y-93695000D02*
X170015000Y-85315000D01*
X162845000Y-93265000D02*
X160905000Y-93265000D01*
X162845000Y-95615000D02*
X162845000Y-93265000D01*
X164545000Y-95615000D02*
X162845000Y-95615000D01*
%TO.C,U1*%
X153355000Y-96840000D02*
X156805000Y-96840000D01*
X153355000Y-91720000D02*
X155305000Y-91720000D01*
X153355000Y-91720000D02*
X151405000Y-91720000D01*
X153355000Y-96840000D02*
X151405000Y-96840000D01*
%TO.C,R2*%
X157800000Y-85612379D02*
X157800000Y-85947621D01*
X158560000Y-85612379D02*
X158560000Y-85947621D01*
%TO.C,C1*%
X149145000Y-86970835D02*
X149145000Y-86739165D01*
X149865000Y-86970835D02*
X149865000Y-86739165D01*
%TO.C,J1*%
X139265000Y-85685000D02*
X136605000Y-85685000D01*
X141975000Y-99655000D02*
X141975000Y-100925000D01*
X136605000Y-87335000D02*
X130605000Y-87335000D01*
X139662071Y-92415000D02*
X139265000Y-92415000D01*
X130605000Y-86575000D02*
X136605000Y-86575000D01*
X130605000Y-81495000D02*
X136605000Y-81495000D01*
X130605000Y-99275000D02*
X136605000Y-99275000D01*
X136605000Y-99855000D02*
X130605000Y-99855000D01*
X136605000Y-99735000D02*
X130605000Y-99735000D01*
X139265000Y-100985000D02*
X139265000Y-78005000D01*
X136605000Y-100035000D02*
X130605000Y-100035000D01*
X136605000Y-99975000D02*
X130605000Y-99975000D01*
X136605000Y-100985000D02*
X139265000Y-100985000D01*
X130605000Y-82255000D02*
X130605000Y-81495000D01*
X139662071Y-78955000D02*
X139265000Y-78955000D01*
X139265000Y-98385000D02*
X136605000Y-98385000D01*
X139662071Y-96735000D02*
X139265000Y-96735000D01*
X139265000Y-80605000D02*
X136605000Y-80605000D01*
X130605000Y-100035000D02*
X130605000Y-99275000D01*
X136605000Y-79715000D02*
X130605000Y-79715000D01*
X139662071Y-89875000D02*
X139265000Y-89875000D01*
X139662071Y-91655000D02*
X139265000Y-91655000D01*
X139595000Y-99275000D02*
X139265000Y-99275000D01*
X130605000Y-96735000D02*
X136605000Y-96735000D01*
X130605000Y-89115000D02*
X136605000Y-89115000D01*
X136605000Y-97495000D02*
X130605000Y-97495000D01*
X130605000Y-84035000D02*
X136605000Y-84035000D01*
X136605000Y-99615000D02*
X130605000Y-99615000D01*
X130605000Y-94195000D02*
X136605000Y-94195000D01*
X139662071Y-84035000D02*
X139265000Y-84035000D01*
X141975000Y-100925000D02*
X140705000Y-100925000D01*
X136605000Y-94955000D02*
X130605000Y-94955000D01*
X139662071Y-79715000D02*
X139265000Y-79715000D01*
X139662071Y-94955000D02*
X139265000Y-94955000D01*
X130605000Y-89875000D02*
X130605000Y-89115000D01*
X139662071Y-94195000D02*
X139265000Y-94195000D01*
X139662071Y-86575000D02*
X139265000Y-86575000D01*
X130605000Y-78955000D02*
X136605000Y-78955000D01*
X130605000Y-87335000D02*
X130605000Y-86575000D01*
X136605000Y-92415000D02*
X130605000Y-92415000D01*
X139265000Y-78005000D02*
X136605000Y-78005000D01*
X139662071Y-82255000D02*
X139265000Y-82255000D01*
X136605000Y-82255000D02*
X130605000Y-82255000D01*
X139265000Y-88225000D02*
X136605000Y-88225000D01*
X130605000Y-79715000D02*
X130605000Y-78955000D01*
X130605000Y-92415000D02*
X130605000Y-91655000D01*
X139265000Y-90765000D02*
X136605000Y-90765000D01*
X139662071Y-87335000D02*
X139265000Y-87335000D01*
X139265000Y-93305000D02*
X136605000Y-93305000D01*
X136605000Y-78005000D02*
X136605000Y-100985000D01*
X139595000Y-100035000D02*
X139265000Y-100035000D01*
X136605000Y-89875000D02*
X130605000Y-89875000D01*
X139265000Y-95845000D02*
X136605000Y-95845000D01*
X130605000Y-84795000D02*
X130605000Y-84035000D01*
X136605000Y-84795000D02*
X130605000Y-84795000D01*
X139265000Y-83145000D02*
X136605000Y-83145000D01*
X139662071Y-81495000D02*
X139265000Y-81495000D01*
X130605000Y-94955000D02*
X130605000Y-94195000D01*
X130605000Y-91655000D02*
X136605000Y-91655000D01*
X139662071Y-89115000D02*
X139265000Y-89115000D01*
X139662071Y-97495000D02*
X139265000Y-97495000D01*
X130605000Y-97495000D02*
X130605000Y-96735000D01*
X136605000Y-99375000D02*
X130605000Y-99375000D01*
X139662071Y-84795000D02*
X139265000Y-84795000D01*
X136605000Y-99495000D02*
X130605000Y-99495000D01*
%TO.C,kibuzzard-63088F52*%
G36*
X154601375Y-88035994D02*
G01*
X154666463Y-88109812D01*
X154699800Y-88216175D01*
X154709325Y-88340000D01*
X154706348Y-88410048D01*
X154697419Y-88474144D01*
X154657731Y-88579712D01*
X154584706Y-88649562D01*
X154472788Y-88674962D01*
X154455325Y-88674962D01*
X154437863Y-88673375D01*
X154437863Y-88012975D01*
X154466438Y-88009006D01*
X154495013Y-88008212D01*
X154601375Y-88035994D01*
G37*
G36*
X152198832Y-89179430D02*
G01*
X152116951Y-89167284D01*
X152036656Y-89147171D01*
X151958718Y-89119285D01*
X151883889Y-89083893D01*
X151812889Y-89041338D01*
X151746403Y-88992028D01*
X151685070Y-88936439D01*
X151629480Y-88875105D01*
X151580171Y-88808619D01*
X151537615Y-88737619D01*
X151502224Y-88662790D01*
X151474337Y-88584853D01*
X151454224Y-88504557D01*
X151442078Y-88422677D01*
X151438017Y-88340000D01*
X152612238Y-88340000D01*
X152619381Y-88459261D01*
X152640813Y-88563044D01*
X152675341Y-88651150D01*
X152721775Y-88723381D01*
X152779520Y-88779737D01*
X152847981Y-88820219D01*
X152926364Y-88844627D01*
X153013875Y-88852762D01*
X153110911Y-88848794D01*
X153192469Y-88836887D01*
X153210591Y-88832125D01*
X153436150Y-88832125D01*
X153612363Y-88832125D01*
X153612363Y-88179662D01*
X153671365Y-88288583D01*
X153727721Y-88397326D01*
X153781431Y-88505894D01*
X153832496Y-88614461D01*
X153880915Y-88723205D01*
X153926688Y-88832125D01*
X154083850Y-88832125D01*
X154083850Y-88821012D01*
X154242600Y-88821012D01*
X154349756Y-88839269D01*
X154452150Y-88844825D01*
X154547995Y-88837880D01*
X154635506Y-88817044D01*
X154713095Y-88781127D01*
X154779175Y-88728937D01*
X154832952Y-88659683D01*
X154873631Y-88572569D01*
X154899230Y-88466405D01*
X154907763Y-88340000D01*
X154900023Y-88216373D01*
X154876806Y-88112194D01*
X154839698Y-88026072D01*
X154790288Y-87956619D01*
X154728573Y-87903636D01*
X154654556Y-87866925D01*
X154570220Y-87845494D01*
X154477550Y-87838350D01*
X154368013Y-87843112D01*
X154242600Y-87862162D01*
X154242600Y-88821012D01*
X154083850Y-88821012D01*
X154083850Y-87849462D01*
X153907638Y-87849462D01*
X153907638Y-88454300D01*
X153879658Y-88392387D01*
X153846519Y-88320950D01*
X153809213Y-88243559D01*
X153768731Y-88163787D01*
X153726067Y-88082627D01*
X153682213Y-88001069D01*
X153637763Y-87922289D01*
X153593313Y-87849462D01*
X153436150Y-87849462D01*
X153436150Y-88832125D01*
X153210591Y-88832125D01*
X153301213Y-88808312D01*
X153301213Y-88317775D01*
X153105950Y-88317775D01*
X153105950Y-88676550D01*
X153067850Y-88681312D01*
X153029750Y-88682900D01*
X152934897Y-88662064D01*
X152866238Y-88599556D01*
X152835369Y-88533675D01*
X152816849Y-88447156D01*
X152810675Y-88340000D01*
X152814048Y-88267173D01*
X152824169Y-88201094D01*
X152868619Y-88093144D01*
X152947200Y-88022500D01*
X153064675Y-87997100D01*
X153169450Y-88014562D01*
X153255175Y-88054250D01*
X153305975Y-87898675D01*
X153273431Y-87879625D01*
X153218663Y-87855812D01*
X153140081Y-87835969D01*
X153037688Y-87827237D01*
X152951566Y-87835373D01*
X152871000Y-87859781D01*
X152798372Y-87900461D01*
X152736063Y-87957412D01*
X152684866Y-88030239D01*
X152645575Y-88118544D01*
X152620572Y-88221930D01*
X152612238Y-88340000D01*
X151438017Y-88340000D01*
X151442078Y-88257323D01*
X151454224Y-88175443D01*
X151474337Y-88095147D01*
X151502224Y-88017210D01*
X151537615Y-87942381D01*
X151580171Y-87871381D01*
X151629480Y-87804895D01*
X151685070Y-87743561D01*
X151746403Y-87687972D01*
X151812889Y-87638662D01*
X151883889Y-87596107D01*
X151958718Y-87560715D01*
X152036656Y-87532829D01*
X152116951Y-87512716D01*
X152198832Y-87500570D01*
X152281508Y-87496508D01*
X155238492Y-87496508D01*
X155321168Y-87500570D01*
X155403049Y-87512716D01*
X155483344Y-87532829D01*
X155561282Y-87560715D01*
X155636111Y-87596107D01*
X155707111Y-87638662D01*
X155773597Y-87687972D01*
X155834930Y-87743561D01*
X155890520Y-87804895D01*
X155939829Y-87871381D01*
X155982385Y-87942381D01*
X156017776Y-88017210D01*
X156045663Y-88095147D01*
X156065776Y-88175443D01*
X156077922Y-88257323D01*
X156081983Y-88340000D01*
X156077922Y-88422677D01*
X156065776Y-88504557D01*
X156045663Y-88584853D01*
X156017776Y-88662790D01*
X155982385Y-88737619D01*
X155939829Y-88808619D01*
X155890520Y-88875105D01*
X155834930Y-88936439D01*
X155773597Y-88992028D01*
X155707111Y-89041338D01*
X155636111Y-89083893D01*
X155561282Y-89119285D01*
X155483344Y-89147171D01*
X155403049Y-89167284D01*
X155321168Y-89179430D01*
X155238492Y-89183492D01*
X152281508Y-89183492D01*
X152198832Y-89179430D01*
G37*
%TD*%
M02*
