M48
INCH
T1C0.0157
T2C0.0394
%
G90
G05
T1
X5.8169Y-3.3567
X5.8197Y-3.5661
X5.8197Y-3.7461
X5.8472Y-3.2717
X5.8492Y-3.1484
X5.8614Y-3.939
X5.9547Y-3.1492
X5.9547Y-3.3567
X5.9563Y-3.5661
X5.9563Y-3.9008
X6.0433Y-3.5661
X6.0433Y-3.6894
X6.0433Y-3.8618
X6.0618Y-3.2717
X6.0618Y-3.3567
X6.1528Y-3.2717
X6.1528Y-3.3567
X6.1528Y-3.5661
X6.252Y-3.2717
X6.252Y-3.5661
X6.252Y-3.6713
X6.3594Y-3.2717
X6.3886Y-3.8004
X6.5693Y-3.424
X6.5693Y-3.6091
T2
X5.5396Y-3.1234
X5.5396Y-3.2234
X5.5396Y-3.3234
X5.5396Y-3.4234
X5.5396Y-3.5234
X5.5396Y-3.6234
X5.5396Y-3.7234
X5.5396Y-3.8234
X5.5396Y-3.9234
X5.7197Y-3.5234
X5.7197Y-3.6234
X5.7197Y-3.7234
X5.7197Y-3.8234
X5.7197Y-3.9234
T0
M30
