%TF.GenerationSoftware,KiCad,Pcbnew,(6.0.7)*%
%TF.CreationDate,2022-09-05T16:04:27+02:00*%
%TF.ProjectId,autoprobe,6175746f-7072-46f6-9265-2e6b69636164,rev?*%
%TF.SameCoordinates,Original*%
%TF.FileFunction,Copper,L1,Top*%
%TF.FilePolarity,Positive*%
%FSLAX46Y46*%
G04 Gerber Fmt 4.6, Leading zero omitted, Abs format (unit mm)*
G04 Created by KiCad (PCBNEW (6.0.7)) date 2022-09-05 16:04:27*
%MOMM*%
%LPD*%
G01*
G04 APERTURE LIST*
G04 Aperture macros list*
%AMRoundRect*
0 Rectangle with rounded corners*
0 $1 Rounding radius*
0 $2 $3 $4 $5 $6 $7 $8 $9 X,Y pos of 4 corners*
0 Add a 4 corners polygon primitive as box body*
4,1,4,$2,$3,$4,$5,$6,$7,$8,$9,$2,$3,0*
0 Add four circle primitives for the rounded corners*
1,1,$1+$1,$2,$3*
1,1,$1+$1,$4,$5*
1,1,$1+$1,$6,$7*
1,1,$1+$1,$8,$9*
0 Add four rect primitives between the rounded corners*
20,1,$1+$1,$2,$3,$4,$5,0*
20,1,$1+$1,$4,$5,$6,$7,0*
20,1,$1+$1,$6,$7,$8,$9,0*
20,1,$1+$1,$8,$9,$2,$3,0*%
G04 Aperture macros list end*
%TA.AperFunction,SMDPad,CuDef*%
%ADD10RoundRect,0.160000X-0.197500X-0.160000X0.197500X-0.160000X0.197500X0.160000X-0.197500X0.160000X0*%
%TD*%
%TA.AperFunction,SMDPad,CuDef*%
%ADD11RoundRect,0.250000X1.100000X-0.250000X1.100000X0.250000X-1.100000X0.250000X-1.100000X-0.250000X0*%
%TD*%
%TA.AperFunction,SMDPad,CuDef*%
%ADD12RoundRect,0.250000X1.650000X-0.650000X1.650000X0.650000X-1.650000X0.650000X-1.650000X-0.650000X0*%
%TD*%
%TA.AperFunction,SMDPad,CuDef*%
%ADD13RoundRect,0.150000X0.825000X0.150000X-0.825000X0.150000X-0.825000X-0.150000X0.825000X-0.150000X0*%
%TD*%
%TA.AperFunction,SMDPad,CuDef*%
%ADD14RoundRect,0.160000X-0.160000X0.197500X-0.160000X-0.197500X0.160000X-0.197500X0.160000X0.197500X0*%
%TD*%
%TA.AperFunction,SMDPad,CuDef*%
%ADD15RoundRect,0.155000X0.155000X-0.212500X0.155000X0.212500X-0.155000X0.212500X-0.155000X-0.212500X0*%
%TD*%
%TA.AperFunction,ComponentPad*%
%ADD16R,1.700000X1.700000*%
%TD*%
%TA.AperFunction,ComponentPad*%
%ADD17O,1.700000X1.700000*%
%TD*%
%TA.AperFunction,ViaPad*%
%ADD18C,0.800000*%
%TD*%
%TA.AperFunction,Conductor*%
%ADD19C,0.300000*%
%TD*%
%TA.AperFunction,Conductor*%
%ADD20C,0.500000*%
%TD*%
G04 APERTURE END LIST*
D10*
%TO.P,R1,1*%
%TO.N,Net-(J1-Pad5)*%
X144457500Y-85330000D03*
%TO.P,R1,2*%
%TO.N,GND*%
X145652500Y-85330000D03*
%TD*%
%TO.P,R3,1*%
%TO.N,Net-(J1-Pad7)*%
X144457500Y-81755000D03*
%TO.P,R3,2*%
%TO.N,GND*%
X145652500Y-81755000D03*
%TD*%
D11*
%TO.P,J3,1,Pin_1*%
%TO.N,+5V*%
X162255000Y-92505000D03*
%TO.P,J3,2,Pin_2*%
%TO.N,GND*%
X162255000Y-90505000D03*
%TO.P,J3,3,Pin_3*%
%TO.N,-5V*%
X162255000Y-88505000D03*
%TO.P,J3,4,Pin_4*%
%TO.N,Offset*%
X162255000Y-86505000D03*
D12*
%TO.P,J3,MP*%
%TO.N,N/C*%
X166705000Y-84155000D03*
X166705000Y-94855000D03*
%TD*%
D13*
%TO.P,U1,1,E0*%
%TO.N,+5V*%
X155830000Y-96185000D03*
%TO.P,U1,2,E1*%
%TO.N,GND*%
X155830000Y-94915000D03*
%TO.P,U1,3,E2*%
X155830000Y-93645000D03*
%TO.P,U1,4,VSS*%
X155830000Y-92375000D03*
%TO.P,U1,5,SDA*%
%TO.N,SDA*%
X150880000Y-92375000D03*
%TO.P,U1,6,SCL*%
%TO.N,SCL*%
X150880000Y-93645000D03*
%TO.P,U1,7,~{WC}*%
%TO.N,GND*%
X150880000Y-94915000D03*
%TO.P,U1,8,VCC*%
%TO.N,+5V*%
X150880000Y-96185000D03*
%TD*%
D14*
%TO.P,R2,1*%
%TO.N,GND*%
X158180000Y-85182500D03*
%TO.P,R2,2*%
%TO.N,Offset*%
X158180000Y-86377500D03*
%TD*%
D15*
%TO.P,C1,1*%
%TO.N,Offset*%
X149505000Y-87422500D03*
%TO.P,C1,2*%
%TO.N,GND*%
X149505000Y-86287500D03*
%TD*%
D16*
%TO.P,J1,1,Pin_1*%
%TO.N,+5V*%
X140705000Y-99655000D03*
D17*
%TO.P,J1,2,Pin_2*%
%TO.N,-5V*%
X140705000Y-97115000D03*
%TO.P,J1,3,Pin_3*%
%TO.N,Offset*%
X140705000Y-94575000D03*
%TO.P,J1,4,Pin_4*%
%TO.N,SDA*%
X140705000Y-92035000D03*
%TO.P,J1,5,Pin_5*%
%TO.N,Net-(J1-Pad5)*%
X140705000Y-89495000D03*
%TO.P,J1,6,Pin_6*%
%TO.N,SCL*%
X140705000Y-86955000D03*
%TO.P,J1,7,Pin_7*%
%TO.N,Net-(J1-Pad7)*%
X140705000Y-84415000D03*
%TO.P,J1,8,Pin_8*%
%TO.N,-12V*%
X140705000Y-81875000D03*
%TO.P,J1,9,Pin_9*%
%TO.N,+12V*%
X140705000Y-79335000D03*
%TD*%
D16*
%TO.P,J2,1,Pin_1*%
%TO.N,+5V*%
X145280000Y-99655000D03*
D17*
%TO.P,J2,2,Pin_2*%
%TO.N,Offset*%
X145280000Y-97115000D03*
%TO.P,J2,3,Pin_3*%
%TO.N,SDA*%
X145280000Y-94575000D03*
%TO.P,J2,4,Pin_4*%
%TO.N,SCL*%
X145280000Y-92035000D03*
%TO.P,J2,5,Pin_5*%
%TO.N,GND*%
X145280000Y-89495000D03*
%TD*%
D18*
%TO.N,GND*%
X153970000Y-85260000D03*
X162270000Y-96530000D03*
X156280000Y-90580000D03*
X166860000Y-86970000D03*
X147750000Y-85260000D03*
X158800000Y-90580000D03*
X158800000Y-93250000D03*
X148880000Y-100050000D03*
X147820000Y-95150000D03*
X148570000Y-79970000D03*
X151290000Y-99080000D03*
X151250000Y-79990000D03*
X166860000Y-91670000D03*
X151290000Y-90580000D03*
X151250000Y-85260000D03*
X147820000Y-90580000D03*
X161530000Y-83100000D03*
X153500000Y-90580000D03*
X156280000Y-83100000D03*
X148520000Y-83100000D03*
X153500000Y-93710000D03*
X158800000Y-83100000D03*
X153970000Y-83100000D03*
X156280000Y-85260000D03*
X153500000Y-98090000D03*
%TD*%
D19*
%TO.N,Offset*%
X162255000Y-86505000D02*
X158307500Y-86505000D01*
X149505000Y-87422500D02*
X157135000Y-87422500D01*
X142501900Y-88908100D02*
X142501900Y-92778100D01*
X143987500Y-87422500D02*
X142501900Y-88908100D01*
X158307500Y-86505000D02*
X158180000Y-86377500D01*
X149505000Y-87422500D02*
X143987500Y-87422500D01*
X157135000Y-87422500D02*
X158180000Y-86377500D01*
X142501900Y-92778100D02*
X140705000Y-94575000D01*
D20*
%TO.N,+5V*%
X146680000Y-99655000D02*
X145280000Y-99655000D01*
X158575000Y-96185000D02*
X155830000Y-96185000D01*
X150880000Y-96185000D02*
X148675000Y-96185000D01*
X148255000Y-96605000D02*
X148255000Y-98080000D01*
X162255000Y-92505000D02*
X158575000Y-96185000D01*
X148675000Y-96185000D02*
X148255000Y-96605000D01*
X150880000Y-96185000D02*
X155830000Y-96185000D01*
X148255000Y-98080000D02*
X146680000Y-99655000D01*
X140705000Y-99655000D02*
X145280000Y-99655000D01*
%TO.N,-5V*%
X148810900Y-88505000D02*
X148453300Y-88147400D01*
X148453300Y-88147400D02*
X144312600Y-88147400D01*
X143241300Y-94578700D02*
X140705000Y-97115000D01*
X143241300Y-89218700D02*
X143241300Y-94578700D01*
X144312600Y-88147400D02*
X143241300Y-89218700D01*
X162255000Y-88505000D02*
X148810900Y-88505000D01*
D19*
%TO.N,SDA*%
X148680100Y-92375000D02*
X150880000Y-92375000D01*
X145280000Y-94575000D02*
X146480100Y-94575000D01*
X146480100Y-94575000D02*
X148680100Y-92375000D01*
%TO.N,Net-(J1-Pad5)*%
X144457500Y-85742500D02*
X144457500Y-85330000D01*
X140705000Y-89495000D02*
X144457500Y-85742500D01*
%TO.N,SCL*%
X152229700Y-92002600D02*
X152229700Y-92789600D01*
X152229700Y-92789600D02*
X151374300Y-93645000D01*
X146811800Y-91703300D02*
X151930400Y-91703300D01*
X151374300Y-93645000D02*
X150880000Y-93645000D01*
X146480100Y-92035000D02*
X146811800Y-91703300D01*
X145280000Y-92035000D02*
X146480100Y-92035000D01*
X151930400Y-91703300D02*
X152229700Y-92002600D01*
%TO.N,Net-(J1-Pad7)*%
X141905100Y-84415000D02*
X141905100Y-84307400D01*
X140705000Y-84415000D02*
X141905100Y-84415000D01*
X141905100Y-84307400D02*
X144457500Y-81755000D01*
%TD*%
%TA.AperFunction,Conductor*%
%TO.N,GND*%
G36*
X150569959Y-78031793D02*
G01*
X150570020Y-78031006D01*
X150580599Y-78031825D01*
X150590960Y-78034137D01*
X150602497Y-78033387D01*
X150607603Y-78033055D01*
X150634443Y-78033734D01*
X150825087Y-78055853D01*
X150893692Y-78063812D01*
X150908509Y-78066294D01*
X151192423Y-78128707D01*
X151206916Y-78132668D01*
X151483114Y-78223360D01*
X151497135Y-78228761D01*
X151762796Y-78346808D01*
X151776196Y-78353592D01*
X151996249Y-78479302D01*
X152014086Y-78492075D01*
X152019231Y-78495458D01*
X152027183Y-78502488D01*
X152036787Y-78507003D01*
X152036789Y-78507004D01*
X152059089Y-78517487D01*
X152073906Y-78525505D01*
X152287418Y-78657171D01*
X154989209Y-80323276D01*
X155011839Y-80340406D01*
X155019015Y-80347003D01*
X155029288Y-80353866D01*
X155034513Y-80356290D01*
X155039530Y-80359108D01*
X155039513Y-80359139D01*
X155045056Y-80362070D01*
X155397026Y-80572302D01*
X155397042Y-80572311D01*
X155399470Y-80573761D01*
X155784884Y-80765620D01*
X156183840Y-80927443D01*
X156186563Y-80928312D01*
X156186564Y-80928312D01*
X156536969Y-81040091D01*
X156594003Y-81058285D01*
X156596758Y-81058937D01*
X156596763Y-81058938D01*
X157010200Y-81156722D01*
X157010210Y-81156724D01*
X157012971Y-81157377D01*
X157015773Y-81157817D01*
X157015784Y-81157819D01*
X157435484Y-81223700D01*
X157435492Y-81223701D01*
X157438289Y-81224140D01*
X157657119Y-81241498D01*
X157864601Y-81257956D01*
X157864612Y-81257956D01*
X157867468Y-81258183D01*
X157870331Y-81258190D01*
X157870344Y-81258191D01*
X158265724Y-81259223D01*
X158274212Y-81259790D01*
X158274225Y-81259553D01*
X158279962Y-81259862D01*
X158285678Y-81260615D01*
X158291436Y-81260480D01*
X158291440Y-81260480D01*
X158292193Y-81260462D01*
X158298029Y-81260325D01*
X158311794Y-81257850D01*
X158338156Y-81255499D01*
X163887769Y-81255392D01*
X168704481Y-81255299D01*
X168727403Y-81257073D01*
X168733076Y-81257956D01*
X168738335Y-81258775D01*
X168738336Y-81258775D01*
X168748823Y-81260408D01*
X168759353Y-81259031D01*
X168760331Y-81259043D01*
X168790942Y-81258349D01*
X168932174Y-81270333D01*
X168957009Y-81274578D01*
X169116880Y-81316073D01*
X169140644Y-81324442D01*
X169291240Y-81392281D01*
X169313249Y-81404530D01*
X169450269Y-81496780D01*
X169469896Y-81512560D01*
X169589414Y-81626577D01*
X169606104Y-81645443D01*
X169704700Y-81777963D01*
X169717971Y-81799369D01*
X169792827Y-81946606D01*
X169802305Y-81969947D01*
X169851284Y-82127694D01*
X169856691Y-82152290D01*
X169874375Y-82285729D01*
X169874566Y-82301505D01*
X169875427Y-82301475D01*
X169875797Y-82312090D01*
X169874661Y-82322637D01*
X169877173Y-82336670D01*
X169879503Y-82362905D01*
X169879863Y-89061719D01*
X169880266Y-96571051D01*
X169877912Y-96597438D01*
X169875446Y-96611146D01*
X169876575Y-96621706D01*
X169876539Y-96622701D01*
X169876513Y-96653299D01*
X169863245Y-96775438D01*
X169860499Y-96800720D01*
X169855670Y-96825447D01*
X169810737Y-96983195D01*
X169808631Y-96990587D01*
X169799706Y-97014145D01*
X169754492Y-97108519D01*
X169725513Y-97169004D01*
X169712745Y-97190724D01*
X169613522Y-97330866D01*
X169597278Y-97350123D01*
X169536569Y-97410835D01*
X169503255Y-97444151D01*
X169475861Y-97471546D01*
X169456613Y-97487784D01*
X169316455Y-97587027D01*
X169294752Y-97599785D01*
X169139888Y-97673989D01*
X169116338Y-97682912D01*
X168951192Y-97729961D01*
X168926474Y-97734789D01*
X168786439Y-97750007D01*
X168770373Y-97749824D01*
X168770382Y-97750650D01*
X168759767Y-97750771D01*
X168749244Y-97749386D01*
X168738756Y-97751010D01*
X168738755Y-97751010D01*
X168727551Y-97752745D01*
X168704751Y-97754500D01*
X158341106Y-97754500D01*
X158313414Y-97751904D01*
X158308254Y-97750928D01*
X158308251Y-97750928D01*
X158302596Y-97749858D01*
X158296851Y-97749671D01*
X158296847Y-97749671D01*
X158296314Y-97749654D01*
X158290247Y-97749457D01*
X158284528Y-97750158D01*
X158278790Y-97750415D01*
X158278787Y-97750350D01*
X158273102Y-97750749D01*
X157858001Y-97758232D01*
X157855169Y-97758501D01*
X157855164Y-97758501D01*
X157616034Y-97781192D01*
X157427638Y-97799068D01*
X157228766Y-97833449D01*
X157004480Y-97872222D01*
X157004468Y-97872225D01*
X157001660Y-97872710D01*
X156582565Y-97978726D01*
X156579862Y-97979635D01*
X156579858Y-97979636D01*
X156175509Y-98115587D01*
X156175504Y-98115589D01*
X156172809Y-98116495D01*
X156170192Y-98117605D01*
X156170185Y-98117607D01*
X156099559Y-98147545D01*
X155774794Y-98285210D01*
X155390854Y-98483880D01*
X155050582Y-98694423D01*
X155043181Y-98698371D01*
X155043298Y-98698584D01*
X155038256Y-98701358D01*
X155033011Y-98703736D01*
X155028196Y-98706892D01*
X155028192Y-98706894D01*
X155027486Y-98707357D01*
X155022677Y-98710509D01*
X155013315Y-98718966D01*
X154991645Y-98735223D01*
X152097024Y-100520238D01*
X152078970Y-100529052D01*
X152073384Y-100532090D01*
X152063434Y-100535788D01*
X152049913Y-100545862D01*
X152027143Y-100559839D01*
X151797787Y-100673681D01*
X151784272Y-100679573D01*
X151688555Y-100715776D01*
X151516816Y-100780731D01*
X151502764Y-100785263D01*
X151226632Y-100859448D01*
X151212200Y-100862568D01*
X150930071Y-100909061D01*
X150915402Y-100910737D01*
X150667444Y-100926675D01*
X150644856Y-100925821D01*
X150639293Y-100925834D01*
X150628782Y-100924355D01*
X150618279Y-100925885D01*
X150618276Y-100925885D01*
X150604144Y-100927944D01*
X150582666Y-100929500D01*
X146720402Y-100929500D01*
X146645902Y-100909538D01*
X146591364Y-100855000D01*
X146571402Y-100780500D01*
X146580882Y-100728201D01*
X146623851Y-100613580D01*
X146630500Y-100552377D01*
X146630500Y-100548336D01*
X146630718Y-100544315D01*
X146631847Y-100544376D01*
X146650462Y-100474903D01*
X146705000Y-100420365D01*
X146767421Y-100400893D01*
X146819433Y-100396663D01*
X146819437Y-100396662D01*
X146828059Y-100395961D01*
X146836294Y-100393293D01*
X146840789Y-100392395D01*
X146845229Y-100391346D01*
X146853828Y-100390343D01*
X146861959Y-100387392D01*
X146861966Y-100387390D01*
X146921326Y-100365843D01*
X146926244Y-100364155D01*
X146986303Y-100344698D01*
X146986308Y-100344696D01*
X146994546Y-100342027D01*
X147001953Y-100337532D01*
X147006120Y-100335624D01*
X147010192Y-100333585D01*
X147018331Y-100330631D01*
X147078391Y-100291254D01*
X147082757Y-100288500D01*
X147138485Y-100254683D01*
X147138487Y-100254681D01*
X147144160Y-100251239D01*
X147149126Y-100246852D01*
X147149131Y-100246849D01*
X147150728Y-100245438D01*
X147150732Y-100245434D01*
X147152452Y-100243915D01*
X147152816Y-100243551D01*
X147157542Y-100239360D01*
X147164685Y-100234677D01*
X147217150Y-100179294D01*
X147219961Y-100176406D01*
X148737463Y-98658904D01*
X148754507Y-98644257D01*
X148763354Y-98637746D01*
X148770324Y-98632617D01*
X148803531Y-98593530D01*
X148811725Y-98584642D01*
X148816670Y-98579697D01*
X148833869Y-98557958D01*
X148837151Y-98553956D01*
X148878029Y-98505840D01*
X148883632Y-98499245D01*
X148887566Y-98491539D01*
X148890097Y-98487745D01*
X148892507Y-98483843D01*
X148897881Y-98477051D01*
X148905341Y-98461090D01*
X148928286Y-98411996D01*
X148930570Y-98407324D01*
X148959280Y-98351098D01*
X148963219Y-98343384D01*
X148965276Y-98334975D01*
X148966868Y-98330696D01*
X148968315Y-98326346D01*
X148971979Y-98318507D01*
X148974893Y-98304501D01*
X148986602Y-98248206D01*
X148987750Y-98243136D01*
X149003238Y-98179841D01*
X149003239Y-98179835D01*
X149004815Y-98173394D01*
X149005500Y-98162352D01*
X149005500Y-98161821D01*
X149005878Y-98155531D01*
X149007617Y-98147170D01*
X149007256Y-98133807D01*
X149005555Y-98070955D01*
X149005500Y-98066925D01*
X149005500Y-97084500D01*
X149025462Y-97010000D01*
X149080000Y-96955462D01*
X149154500Y-96935500D01*
X149769113Y-96935500D01*
X149810683Y-96941416D01*
X149952431Y-96982598D01*
X149989306Y-96985500D01*
X151770694Y-96985500D01*
X151807569Y-96982598D01*
X151949317Y-96941416D01*
X151990887Y-96935500D01*
X154719113Y-96935500D01*
X154760683Y-96941416D01*
X154902431Y-96982598D01*
X154939306Y-96985500D01*
X156720694Y-96985500D01*
X156757569Y-96982598D01*
X156899317Y-96941416D01*
X156940887Y-96935500D01*
X158506809Y-96935500D01*
X158529217Y-96937195D01*
X158540071Y-96938846D01*
X158548630Y-96940148D01*
X158557251Y-96939447D01*
X158557255Y-96939447D01*
X158599752Y-96935990D01*
X158611831Y-96935500D01*
X158618822Y-96935500D01*
X158623100Y-96935001D01*
X158623121Y-96935000D01*
X158646337Y-96932293D01*
X158651513Y-96931780D01*
X158714433Y-96926663D01*
X158714437Y-96926662D01*
X158723059Y-96925961D01*
X158731294Y-96923293D01*
X158735789Y-96922395D01*
X158740229Y-96921346D01*
X158748828Y-96920343D01*
X158756959Y-96917392D01*
X158756966Y-96917390D01*
X158816326Y-96895843D01*
X158821244Y-96894155D01*
X158881303Y-96874698D01*
X158881308Y-96874696D01*
X158889546Y-96872027D01*
X158896953Y-96867532D01*
X158901120Y-96865624D01*
X158905192Y-96863585D01*
X158913331Y-96860631D01*
X158973391Y-96821254D01*
X158977757Y-96818500D01*
X159033485Y-96784683D01*
X159033487Y-96784681D01*
X159039160Y-96781239D01*
X159044126Y-96776852D01*
X159044131Y-96776849D01*
X159045728Y-96775438D01*
X159045732Y-96775434D01*
X159047452Y-96773915D01*
X159047816Y-96773551D01*
X159052542Y-96769360D01*
X159059685Y-96764677D01*
X159112149Y-96709295D01*
X159114960Y-96706407D01*
X160266501Y-95554866D01*
X164304500Y-95554866D01*
X164304898Y-95558697D01*
X164304898Y-95558706D01*
X164314517Y-95651407D01*
X164315359Y-95659519D01*
X164317940Y-95667254D01*
X164317940Y-95667256D01*
X164367605Y-95816119D01*
X164370744Y-95825529D01*
X164462834Y-95974345D01*
X164468953Y-95980454D01*
X164468956Y-95980457D01*
X164580564Y-96091870D01*
X164586689Y-96097984D01*
X164640323Y-96131044D01*
X164718382Y-96179160D01*
X164735666Y-96189814D01*
X164743880Y-96192538D01*
X164743881Y-96192539D01*
X164894044Y-96242347D01*
X164894047Y-96242348D01*
X164901772Y-96244910D01*
X164909869Y-96245740D01*
X164909871Y-96245740D01*
X165001345Y-96255112D01*
X165001349Y-96255112D01*
X165005134Y-96255500D01*
X168404866Y-96255500D01*
X168408697Y-96255102D01*
X168408706Y-96255102D01*
X168501407Y-96245483D01*
X168501410Y-96245482D01*
X168509519Y-96244641D01*
X168517254Y-96242060D01*
X168517256Y-96242060D01*
X168667320Y-96191995D01*
X168667322Y-96191994D01*
X168675529Y-96189256D01*
X168824345Y-96097166D01*
X168830454Y-96091047D01*
X168830457Y-96091044D01*
X168941870Y-95979436D01*
X168941871Y-95979434D01*
X168947984Y-95973311D01*
X169019071Y-95857986D01*
X169035272Y-95831703D01*
X169035273Y-95831701D01*
X169039814Y-95824334D01*
X169073444Y-95722946D01*
X169092347Y-95665956D01*
X169092348Y-95665953D01*
X169094910Y-95658228D01*
X169099687Y-95611609D01*
X169105112Y-95558655D01*
X169105112Y-95558651D01*
X169105500Y-95554866D01*
X169105500Y-94155134D01*
X169101608Y-94117620D01*
X169095483Y-94058593D01*
X169095482Y-94058590D01*
X169094641Y-94050481D01*
X169042769Y-93895000D01*
X169041995Y-93892680D01*
X169041994Y-93892678D01*
X169039256Y-93884471D01*
X168947166Y-93735655D01*
X168941047Y-93729546D01*
X168941044Y-93729543D01*
X168829436Y-93618130D01*
X168829434Y-93618129D01*
X168823311Y-93612016D01*
X168674334Y-93520186D01*
X168666119Y-93517461D01*
X168515956Y-93467653D01*
X168515953Y-93467652D01*
X168508228Y-93465090D01*
X168500131Y-93464260D01*
X168500129Y-93464260D01*
X168408655Y-93454888D01*
X168408651Y-93454888D01*
X168404866Y-93454500D01*
X165005134Y-93454500D01*
X165001303Y-93454898D01*
X165001294Y-93454898D01*
X164908593Y-93464517D01*
X164908590Y-93464518D01*
X164900481Y-93465359D01*
X164892746Y-93467940D01*
X164892744Y-93467940D01*
X164742680Y-93518005D01*
X164742678Y-93518006D01*
X164734471Y-93520744D01*
X164585655Y-93612834D01*
X164579546Y-93618953D01*
X164579543Y-93618956D01*
X164468130Y-93730564D01*
X164462016Y-93736689D01*
X164370186Y-93885666D01*
X164367462Y-93893880D01*
X164367461Y-93893881D01*
X164318085Y-94042744D01*
X164315090Y-94051772D01*
X164314260Y-94059869D01*
X164314260Y-94059871D01*
X164306355Y-94137031D01*
X164304500Y-94155134D01*
X164304500Y-95554866D01*
X160266501Y-95554866D01*
X162272227Y-93549141D01*
X162339022Y-93510577D01*
X162377586Y-93505500D01*
X163404866Y-93505500D01*
X163408697Y-93505102D01*
X163408706Y-93505102D01*
X163501407Y-93495483D01*
X163501410Y-93495482D01*
X163509519Y-93494641D01*
X163517254Y-93492060D01*
X163517256Y-93492060D01*
X163667320Y-93441995D01*
X163667322Y-93441994D01*
X163675529Y-93439256D01*
X163824345Y-93347166D01*
X163830454Y-93341047D01*
X163830457Y-93341044D01*
X163941870Y-93229436D01*
X163941871Y-93229434D01*
X163947984Y-93223311D01*
X164023177Y-93101325D01*
X164035272Y-93081703D01*
X164035273Y-93081701D01*
X164039814Y-93074334D01*
X164088150Y-92928608D01*
X164092347Y-92915956D01*
X164092348Y-92915953D01*
X164094910Y-92908228D01*
X164097047Y-92887376D01*
X164105112Y-92808655D01*
X164105112Y-92808651D01*
X164105500Y-92804866D01*
X164105500Y-92205134D01*
X164095945Y-92113042D01*
X164095483Y-92108593D01*
X164095482Y-92108590D01*
X164094641Y-92100481D01*
X164088727Y-92082753D01*
X164041995Y-91942680D01*
X164041994Y-91942678D01*
X164039256Y-91934471D01*
X163947166Y-91785655D01*
X163941047Y-91779546D01*
X163941044Y-91779543D01*
X163829436Y-91668130D01*
X163829434Y-91668129D01*
X163823311Y-91662016D01*
X163773829Y-91631515D01*
X163720885Y-91575430D01*
X163703077Y-91500386D01*
X163725176Y-91426492D01*
X163773610Y-91377974D01*
X163816674Y-91351326D01*
X163830144Y-91340650D01*
X163941473Y-91229126D01*
X163952132Y-91215630D01*
X164034817Y-91081489D01*
X164042083Y-91065907D01*
X164091856Y-90915847D01*
X164095246Y-90900036D01*
X164104612Y-90808622D01*
X164105000Y-90801029D01*
X164105000Y-90774616D01*
X164100855Y-90759145D01*
X164085384Y-90755000D01*
X160424617Y-90755000D01*
X160409146Y-90759145D01*
X160405001Y-90774616D01*
X160405001Y-90800989D01*
X160405397Y-90808654D01*
X160415010Y-90901308D01*
X160418432Y-90917152D01*
X160468460Y-91067102D01*
X160475755Y-91082677D01*
X160558677Y-91216677D01*
X160569350Y-91230144D01*
X160680874Y-91341473D01*
X160694368Y-91352129D01*
X160736168Y-91377895D01*
X160789113Y-91433980D01*
X160806922Y-91509024D01*
X160784824Y-91582919D01*
X160736390Y-91631437D01*
X160693016Y-91658278D01*
X160693011Y-91658282D01*
X160685655Y-91662834D01*
X160679546Y-91668953D01*
X160679543Y-91668956D01*
X160568130Y-91780564D01*
X160562016Y-91786689D01*
X160557474Y-91794058D01*
X160492152Y-91900031D01*
X160470186Y-91935666D01*
X160467462Y-91943880D01*
X160467461Y-91943881D01*
X160418085Y-92092744D01*
X160415090Y-92101772D01*
X160404500Y-92205134D01*
X160404500Y-92804866D01*
X160404898Y-92808697D01*
X160404898Y-92808706D01*
X160414483Y-92901075D01*
X160415359Y-92909519D01*
X160417940Y-92917254D01*
X160417940Y-92917256D01*
X160442135Y-92989776D01*
X160470744Y-93075529D01*
X160475298Y-93082887D01*
X160475762Y-93083879D01*
X160489287Y-93159812D01*
X160463034Y-93232334D01*
X160446191Y-93252442D01*
X158307774Y-95390859D01*
X158240979Y-95429423D01*
X158202415Y-95434500D01*
X157422976Y-95434500D01*
X157348476Y-95414538D01*
X157293938Y-95360000D01*
X157273976Y-95285500D01*
X157279892Y-95243930D01*
X157299349Y-95176958D01*
X157297839Y-95168808D01*
X157287086Y-95165000D01*
X154377320Y-95165000D01*
X154361849Y-95169145D01*
X154360185Y-95175356D01*
X154380108Y-95243930D01*
X154381723Y-95321041D01*
X154344567Y-95388629D01*
X154278594Y-95428584D01*
X154237024Y-95434500D01*
X152472976Y-95434500D01*
X152398476Y-95414538D01*
X152343938Y-95360000D01*
X152323976Y-95285500D01*
X152329892Y-95243930D01*
X152349349Y-95176958D01*
X152347839Y-95168808D01*
X152337086Y-95165000D01*
X149427320Y-95165000D01*
X149411849Y-95169145D01*
X149410185Y-95175356D01*
X149430108Y-95243930D01*
X149431723Y-95321041D01*
X149394567Y-95388629D01*
X149328594Y-95428584D01*
X149287024Y-95434500D01*
X148743197Y-95434500D01*
X148720788Y-95432805D01*
X148720637Y-95432782D01*
X148701370Y-95429851D01*
X148650765Y-95433967D01*
X148650239Y-95434010D01*
X148638159Y-95434500D01*
X148631178Y-95434500D01*
X148626891Y-95435000D01*
X148626887Y-95435000D01*
X148603655Y-95437708D01*
X148598485Y-95438219D01*
X148535569Y-95443337D01*
X148535568Y-95443337D01*
X148526941Y-95444039D01*
X148518711Y-95446705D01*
X148514217Y-95447603D01*
X148509767Y-95448655D01*
X148501172Y-95449657D01*
X148493041Y-95452608D01*
X148493034Y-95452610D01*
X148433674Y-95474157D01*
X148428756Y-95475845D01*
X148368697Y-95495302D01*
X148368692Y-95495304D01*
X148360454Y-95497973D01*
X148353047Y-95502468D01*
X148348880Y-95504376D01*
X148344808Y-95506415D01*
X148336669Y-95509369D01*
X148276609Y-95548746D01*
X148272243Y-95551500D01*
X148216509Y-95585320D01*
X148216502Y-95585325D01*
X148210840Y-95588761D01*
X148205873Y-95593147D01*
X148205871Y-95593149D01*
X148204274Y-95594559D01*
X148204262Y-95594570D01*
X148202548Y-95596084D01*
X148202168Y-95596464D01*
X148197461Y-95600638D01*
X148190315Y-95605323D01*
X148184361Y-95611608D01*
X148184360Y-95611609D01*
X148137866Y-95660689D01*
X148135055Y-95663577D01*
X147953633Y-95845000D01*
X147772537Y-96026096D01*
X147755493Y-96040743D01*
X147739676Y-96052383D01*
X147734075Y-96058976D01*
X147706465Y-96091475D01*
X147698270Y-96100363D01*
X147693330Y-96105303D01*
X147676131Y-96127042D01*
X147672860Y-96131031D01*
X147626368Y-96185755D01*
X147622434Y-96193461D01*
X147619903Y-96197255D01*
X147617493Y-96201157D01*
X147612119Y-96207949D01*
X147608453Y-96215793D01*
X147581714Y-96273004D01*
X147579430Y-96277676D01*
X147546781Y-96341616D01*
X147544724Y-96350025D01*
X147543132Y-96354304D01*
X147541685Y-96358654D01*
X147538021Y-96366493D01*
X147536259Y-96374964D01*
X147523398Y-96436796D01*
X147522257Y-96441839D01*
X147505185Y-96511606D01*
X147504500Y-96522648D01*
X147504500Y-96523180D01*
X147504122Y-96529466D01*
X147502382Y-96537831D01*
X147502616Y-96546484D01*
X147502616Y-96546486D01*
X147504445Y-96614068D01*
X147504500Y-96618099D01*
X147504500Y-97707415D01*
X147484538Y-97781915D01*
X147460859Y-97812774D01*
X146754137Y-98519496D01*
X146687342Y-98558060D01*
X146610214Y-98558060D01*
X146543419Y-98519496D01*
X146529547Y-98503495D01*
X146493915Y-98455951D01*
X146493912Y-98455948D01*
X146487546Y-98447454D01*
X146372824Y-98361474D01*
X146277203Y-98325628D01*
X146214451Y-98280785D01*
X146182527Y-98210573D01*
X146189986Y-98133807D01*
X146224146Y-98080750D01*
X146318495Y-97986401D01*
X146454035Y-97792829D01*
X146553903Y-97578663D01*
X146615063Y-97350408D01*
X146635659Y-97115000D01*
X146632991Y-97084500D01*
X146615630Y-96886068D01*
X146615629Y-96886063D01*
X146615063Y-96879592D01*
X146611321Y-96865624D01*
X146582589Y-96758396D01*
X146553903Y-96651337D01*
X146454035Y-96437171D01*
X146318495Y-96243599D01*
X146151401Y-96076505D01*
X145995089Y-95967054D01*
X145945512Y-95907970D01*
X145932119Y-95832014D01*
X145958498Y-95759537D01*
X145995089Y-95722946D01*
X146076479Y-95665956D01*
X146151401Y-95613495D01*
X146318495Y-95446401D01*
X146429990Y-95287169D01*
X146489072Y-95237593D01*
X146547361Y-95223707D01*
X146573299Y-95222892D01*
X146573302Y-95222891D01*
X146582669Y-95222597D01*
X146601158Y-95217225D01*
X146624053Y-95212484D01*
X146627622Y-95212033D01*
X146633857Y-95211246D01*
X146633858Y-95211246D01*
X146643158Y-95210071D01*
X146684511Y-95193698D01*
X146697794Y-95189150D01*
X146731493Y-95179360D01*
X146740498Y-95176744D01*
X146757076Y-95166940D01*
X146778063Y-95156658D01*
X146795971Y-95149568D01*
X146831954Y-95123425D01*
X146843676Y-95115725D01*
X146873895Y-95097854D01*
X146873898Y-95097852D01*
X146881965Y-95093081D01*
X146895580Y-95079466D01*
X146913359Y-95064281D01*
X146921355Y-95058472D01*
X146921357Y-95058470D01*
X146928937Y-95052963D01*
X146957285Y-95018696D01*
X146966733Y-95008313D01*
X148905905Y-93069141D01*
X148972700Y-93030577D01*
X149011264Y-93025500D01*
X149318192Y-93025500D01*
X149392692Y-93045462D01*
X149447230Y-93100000D01*
X149467192Y-93174500D01*
X149455547Y-93230728D01*
X149453256Y-93234602D01*
X149450642Y-93243600D01*
X149450641Y-93243602D01*
X149448073Y-93252442D01*
X149407402Y-93392431D01*
X149404500Y-93429306D01*
X149404500Y-93860694D01*
X149407402Y-93897569D01*
X149409526Y-93904879D01*
X149409526Y-93904880D01*
X149449580Y-94042744D01*
X149453256Y-94055398D01*
X149458025Y-94063462D01*
X149531964Y-94188486D01*
X149532504Y-94189400D01*
X149532505Y-94189402D01*
X149536919Y-94196865D01*
X149535897Y-94197470D01*
X149562261Y-94260189D01*
X149552595Y-94336709D01*
X149537199Y-94363374D01*
X149537317Y-94363444D01*
X149458487Y-94496738D01*
X149451104Y-94513798D01*
X149410650Y-94653042D01*
X149412161Y-94661192D01*
X149422914Y-94665000D01*
X152332680Y-94665000D01*
X152348151Y-94660855D01*
X152349815Y-94654644D01*
X152308896Y-94513798D01*
X152301513Y-94496738D01*
X152222683Y-94363444D01*
X152223852Y-94362753D01*
X152197739Y-94300632D01*
X152207405Y-94224112D01*
X152223122Y-94196889D01*
X152223081Y-94196865D01*
X152225411Y-94192925D01*
X152228037Y-94188486D01*
X152301975Y-94063462D01*
X152306744Y-94055398D01*
X152310421Y-94042744D01*
X152350336Y-93905356D01*
X154360185Y-93905356D01*
X154401104Y-94046202D01*
X154408487Y-94063262D01*
X154482544Y-94188486D01*
X154482691Y-94188675D01*
X154482777Y-94188879D01*
X154487317Y-94196556D01*
X154486265Y-94197178D01*
X154512580Y-94259776D01*
X154502914Y-94336296D01*
X154487260Y-94363410D01*
X154487317Y-94363444D01*
X154484119Y-94368852D01*
X154482691Y-94371325D01*
X154482544Y-94371514D01*
X154408487Y-94496738D01*
X154401104Y-94513798D01*
X154360650Y-94653042D01*
X154362161Y-94661192D01*
X154372914Y-94665000D01*
X155560384Y-94665000D01*
X155575855Y-94660855D01*
X155580000Y-94645384D01*
X156080000Y-94645384D01*
X156084145Y-94660855D01*
X156099616Y-94665000D01*
X157282680Y-94665000D01*
X157298151Y-94660855D01*
X157299815Y-94654644D01*
X157258896Y-94513798D01*
X157251513Y-94496738D01*
X157177456Y-94371514D01*
X157177309Y-94371325D01*
X157177223Y-94371121D01*
X157172683Y-94363444D01*
X157173735Y-94362822D01*
X157147420Y-94300224D01*
X157157086Y-94223704D01*
X157172740Y-94196590D01*
X157172683Y-94196556D01*
X157175881Y-94191148D01*
X157177309Y-94188675D01*
X157177456Y-94188486D01*
X157251513Y-94063262D01*
X157258896Y-94046202D01*
X157299350Y-93906958D01*
X157297839Y-93898808D01*
X157287086Y-93895000D01*
X156099616Y-93895000D01*
X156084145Y-93899145D01*
X156080000Y-93914616D01*
X156080000Y-94645384D01*
X155580000Y-94645384D01*
X155580000Y-93914616D01*
X155575855Y-93899145D01*
X155560384Y-93895000D01*
X154377320Y-93895000D01*
X154361849Y-93899145D01*
X154360185Y-93905356D01*
X152350336Y-93905356D01*
X152350474Y-93904880D01*
X152350474Y-93904879D01*
X152352598Y-93897569D01*
X152355500Y-93860694D01*
X152355500Y-93645464D01*
X152375462Y-93570964D01*
X152399141Y-93540105D01*
X152632999Y-93306247D01*
X152640821Y-93299129D01*
X152647640Y-93294802D01*
X152654057Y-93287968D01*
X152654060Y-93287966D01*
X152695272Y-93244079D01*
X152698529Y-93240717D01*
X152718611Y-93220635D01*
X152721477Y-93216941D01*
X152724348Y-93213684D01*
X152729705Y-93207412D01*
X152753731Y-93181827D01*
X152753733Y-93181825D01*
X152760148Y-93174993D01*
X152769426Y-93158115D01*
X152782257Y-93138583D01*
X152794062Y-93123364D01*
X152797785Y-93114761D01*
X152811723Y-93082553D01*
X152817891Y-93069960D01*
X152839327Y-93030968D01*
X152841657Y-93021892D01*
X152841659Y-93021888D01*
X152844117Y-93012314D01*
X152851688Y-92990198D01*
X152859335Y-92972527D01*
X152866291Y-92928608D01*
X152869138Y-92914862D01*
X152877869Y-92880856D01*
X152877869Y-92880855D01*
X152880200Y-92871777D01*
X152880200Y-92852521D01*
X152882034Y-92829212D01*
X152883581Y-92819447D01*
X152883581Y-92819444D01*
X152885046Y-92810195D01*
X152880861Y-92765922D01*
X152880200Y-92751901D01*
X152880200Y-92635356D01*
X154360185Y-92635356D01*
X154401104Y-92776202D01*
X154408487Y-92793262D01*
X154482544Y-92918486D01*
X154482691Y-92918675D01*
X154482777Y-92918879D01*
X154487317Y-92926556D01*
X154486265Y-92927178D01*
X154512580Y-92989776D01*
X154502914Y-93066296D01*
X154487260Y-93093410D01*
X154487317Y-93093444D01*
X154484119Y-93098852D01*
X154482691Y-93101325D01*
X154482544Y-93101514D01*
X154408487Y-93226738D01*
X154401104Y-93243798D01*
X154360650Y-93383042D01*
X154362161Y-93391192D01*
X154372914Y-93395000D01*
X155560384Y-93395000D01*
X155575855Y-93390855D01*
X155580000Y-93375384D01*
X156080000Y-93375384D01*
X156084145Y-93390855D01*
X156099616Y-93395000D01*
X157282680Y-93395000D01*
X157298151Y-93390855D01*
X157299815Y-93384644D01*
X157258896Y-93243798D01*
X157251513Y-93226738D01*
X157177456Y-93101514D01*
X157177309Y-93101325D01*
X157177223Y-93101121D01*
X157172683Y-93093444D01*
X157173735Y-93092822D01*
X157147420Y-93030224D01*
X157157086Y-92953704D01*
X157172740Y-92926590D01*
X157172683Y-92926556D01*
X157175881Y-92921148D01*
X157177309Y-92918675D01*
X157177456Y-92918486D01*
X157251513Y-92793262D01*
X157258896Y-92776202D01*
X157299350Y-92636958D01*
X157297839Y-92628808D01*
X157287086Y-92625000D01*
X156099616Y-92625000D01*
X156084145Y-92629145D01*
X156080000Y-92644616D01*
X156080000Y-93375384D01*
X155580000Y-93375384D01*
X155580000Y-92644616D01*
X155575855Y-92629145D01*
X155560384Y-92625000D01*
X154377320Y-92625000D01*
X154361849Y-92629145D01*
X154360185Y-92635356D01*
X152880200Y-92635356D01*
X152880200Y-92113042D01*
X154360650Y-92113042D01*
X154362161Y-92121192D01*
X154372914Y-92125000D01*
X155560384Y-92125000D01*
X155575855Y-92120855D01*
X155580000Y-92105384D01*
X156080000Y-92105384D01*
X156084145Y-92120855D01*
X156099616Y-92125000D01*
X157282680Y-92125000D01*
X157298151Y-92120855D01*
X157299815Y-92114644D01*
X157258896Y-91973798D01*
X157251513Y-91956738D01*
X157177456Y-91831514D01*
X157166053Y-91816814D01*
X157063186Y-91713947D01*
X157048486Y-91702544D01*
X156923262Y-91628487D01*
X156906202Y-91621104D01*
X156764803Y-91580024D01*
X156749901Y-91577303D01*
X156723546Y-91575229D01*
X156717725Y-91575000D01*
X156099616Y-91575000D01*
X156084145Y-91579145D01*
X156080000Y-91594616D01*
X156080000Y-92105384D01*
X155580000Y-92105384D01*
X155580000Y-91594616D01*
X155575855Y-91579145D01*
X155560384Y-91575000D01*
X154942275Y-91575000D01*
X154936454Y-91575229D01*
X154910099Y-91577303D01*
X154895197Y-91580024D01*
X154753798Y-91621104D01*
X154736738Y-91628487D01*
X154611514Y-91702544D01*
X154596814Y-91713947D01*
X154493947Y-91816814D01*
X154482544Y-91831514D01*
X154408487Y-91956738D01*
X154401104Y-91973798D01*
X154360650Y-92113042D01*
X152880200Y-92113042D01*
X152880200Y-92082753D01*
X152880698Y-92072185D01*
X152882460Y-92064303D01*
X152880274Y-91994750D01*
X152880200Y-91990069D01*
X152880200Y-91961675D01*
X152879615Y-91957042D01*
X152879343Y-91952718D01*
X152878694Y-91944471D01*
X152877592Y-91909401D01*
X152877591Y-91909397D01*
X152877297Y-91900031D01*
X152871925Y-91881542D01*
X152867184Y-91858646D01*
X152865946Y-91848843D01*
X152865946Y-91848842D01*
X152864771Y-91839542D01*
X152848399Y-91798191D01*
X152843851Y-91784908D01*
X152834060Y-91751206D01*
X152831444Y-91742201D01*
X152826673Y-91734134D01*
X152826671Y-91734129D01*
X152821641Y-91725624D01*
X152811358Y-91704633D01*
X152807723Y-91695453D01*
X152807720Y-91695447D01*
X152804268Y-91686729D01*
X152798759Y-91679147D01*
X152798755Y-91679139D01*
X152778123Y-91650742D01*
X152770417Y-91639011D01*
X152747781Y-91600735D01*
X152734166Y-91587120D01*
X152718981Y-91569341D01*
X152713172Y-91561345D01*
X152713170Y-91561343D01*
X152707663Y-91553763D01*
X152673396Y-91525415D01*
X152663013Y-91515967D01*
X152447047Y-91300001D01*
X152439929Y-91292179D01*
X152435602Y-91285360D01*
X152428768Y-91278943D01*
X152428766Y-91278940D01*
X152384879Y-91237728D01*
X152381517Y-91234471D01*
X152361435Y-91214389D01*
X152357741Y-91211523D01*
X152354484Y-91208652D01*
X152348212Y-91203295D01*
X152322627Y-91179269D01*
X152322625Y-91179267D01*
X152315793Y-91172852D01*
X152298915Y-91163574D01*
X152279383Y-91150743D01*
X152264164Y-91138938D01*
X152255559Y-91135214D01*
X152255555Y-91135212D01*
X152223351Y-91121277D01*
X152210752Y-91115105D01*
X152171768Y-91093673D01*
X152154140Y-91089147D01*
X152153112Y-91088883D01*
X152130994Y-91081311D01*
X152113326Y-91073665D01*
X152104070Y-91072199D01*
X152104067Y-91072198D01*
X152069410Y-91066709D01*
X152055666Y-91063863D01*
X152021657Y-91055131D01*
X152021654Y-91055131D01*
X152012577Y-91052800D01*
X151993321Y-91052800D01*
X151970011Y-91050965D01*
X151960253Y-91049419D01*
X151960250Y-91049419D01*
X151950995Y-91047953D01*
X151923629Y-91050540D01*
X151906714Y-91052139D01*
X151892691Y-91052800D01*
X146891954Y-91052800D01*
X146881386Y-91052302D01*
X146873504Y-91050540D01*
X146864136Y-91050834D01*
X146864132Y-91050834D01*
X146803938Y-91052726D01*
X146799258Y-91052800D01*
X146770875Y-91052800D01*
X146766237Y-91053386D01*
X146761892Y-91053659D01*
X146753684Y-91054305D01*
X146744914Y-91054580D01*
X146718604Y-91055407D01*
X146718601Y-91055407D01*
X146709231Y-91055702D01*
X146700228Y-91058318D01*
X146700225Y-91058318D01*
X146690735Y-91061075D01*
X146667848Y-91065815D01*
X146648742Y-91068229D01*
X146640033Y-91071677D01*
X146640026Y-91071679D01*
X146607396Y-91084599D01*
X146594112Y-91089147D01*
X146560406Y-91098939D01*
X146560405Y-91098939D01*
X146551402Y-91101555D01*
X146543333Y-91106327D01*
X146543331Y-91106328D01*
X146534826Y-91111358D01*
X146513830Y-91121645D01*
X146495929Y-91128732D01*
X146475918Y-91143271D01*
X146403914Y-91170910D01*
X146327736Y-91158844D01*
X146282981Y-91128085D01*
X146151401Y-90996505D01*
X145994652Y-90886748D01*
X145945075Y-90827664D01*
X145931682Y-90751708D01*
X145958061Y-90679231D01*
X145994652Y-90642640D01*
X146145751Y-90536839D01*
X146155681Y-90528507D01*
X146313512Y-90370676D01*
X146321839Y-90360752D01*
X146449867Y-90177910D01*
X146456351Y-90166678D01*
X146550683Y-89964384D01*
X146555114Y-89952210D01*
X146605559Y-89763948D01*
X146605559Y-89747931D01*
X146600482Y-89745000D01*
X145179000Y-89745000D01*
X145104500Y-89725038D01*
X145049962Y-89670500D01*
X145030000Y-89596000D01*
X145030000Y-89394000D01*
X145049962Y-89319500D01*
X145104500Y-89264962D01*
X145179000Y-89245000D01*
X146591020Y-89245000D01*
X146606491Y-89240855D01*
X146608008Y-89235192D01*
X146567888Y-89085464D01*
X146567888Y-89008336D01*
X146606452Y-88941541D01*
X146673247Y-88902977D01*
X146711811Y-88897900D01*
X148080714Y-88897900D01*
X148155214Y-88917862D01*
X148186073Y-88941541D01*
X148231995Y-88987463D01*
X148246641Y-89004506D01*
X148253151Y-89013353D01*
X148253160Y-89013362D01*
X148258283Y-89020324D01*
X148264877Y-89025926D01*
X148297363Y-89053525D01*
X148306251Y-89061719D01*
X148311203Y-89066671D01*
X148320889Y-89074334D01*
X148332938Y-89083867D01*
X148336957Y-89087163D01*
X148385056Y-89128026D01*
X148391655Y-89133632D01*
X148399367Y-89137570D01*
X148403192Y-89140121D01*
X148407061Y-89142510D01*
X148413849Y-89147881D01*
X148421688Y-89151545D01*
X148421690Y-89151546D01*
X148478902Y-89178285D01*
X148483572Y-89180568D01*
X148547516Y-89213219D01*
X148555924Y-89215276D01*
X148560236Y-89216880D01*
X148564556Y-89218317D01*
X148572393Y-89221980D01*
X148580864Y-89223742D01*
X148580867Y-89223743D01*
X148642718Y-89236608D01*
X148647789Y-89237756D01*
X148711059Y-89253238D01*
X148711065Y-89253239D01*
X148717506Y-89254815D01*
X148724127Y-89255226D01*
X148724129Y-89255226D01*
X148724620Y-89255256D01*
X148728548Y-89255500D01*
X148729075Y-89255500D01*
X148735363Y-89255877D01*
X148743731Y-89257618D01*
X148752385Y-89257384D01*
X148752387Y-89257384D01*
X148819968Y-89255555D01*
X148823999Y-89255500D01*
X160532401Y-89255500D01*
X160606901Y-89275462D01*
X160637667Y-89299049D01*
X160680559Y-89341866D01*
X160680565Y-89341871D01*
X160686689Y-89347984D01*
X160736170Y-89378484D01*
X160789115Y-89434570D01*
X160806923Y-89509614D01*
X160784824Y-89583508D01*
X160736390Y-89632026D01*
X160693326Y-89658674D01*
X160679856Y-89669350D01*
X160568527Y-89780874D01*
X160557868Y-89794370D01*
X160475183Y-89928511D01*
X160467917Y-89944093D01*
X160418144Y-90094153D01*
X160414754Y-90109964D01*
X160405388Y-90201378D01*
X160405000Y-90208971D01*
X160405000Y-90235384D01*
X160409145Y-90250855D01*
X160424616Y-90255000D01*
X164085383Y-90255000D01*
X164100854Y-90250855D01*
X164104999Y-90235384D01*
X164104999Y-90209011D01*
X164104603Y-90201346D01*
X164094990Y-90108692D01*
X164091568Y-90092848D01*
X164041540Y-89942898D01*
X164034245Y-89927323D01*
X163951323Y-89793323D01*
X163940650Y-89779856D01*
X163829126Y-89668527D01*
X163815632Y-89657871D01*
X163773832Y-89632105D01*
X163720887Y-89576020D01*
X163703078Y-89500976D01*
X163725176Y-89427081D01*
X163773610Y-89378563D01*
X163816984Y-89351722D01*
X163816989Y-89351718D01*
X163824345Y-89347166D01*
X163830454Y-89341047D01*
X163830457Y-89341044D01*
X163941870Y-89229436D01*
X163941871Y-89229434D01*
X163947984Y-89223311D01*
X163999549Y-89139657D01*
X164035272Y-89081703D01*
X164035273Y-89081701D01*
X164039814Y-89074334D01*
X164055871Y-89025926D01*
X164092347Y-88915956D01*
X164092348Y-88915953D01*
X164094910Y-88908228D01*
X164105500Y-88804866D01*
X164105500Y-88205134D01*
X164101028Y-88162030D01*
X164095483Y-88108593D01*
X164095482Y-88108590D01*
X164094641Y-88100481D01*
X164039256Y-87934471D01*
X163947166Y-87785655D01*
X163941047Y-87779546D01*
X163941044Y-87779543D01*
X163829436Y-87668130D01*
X163829434Y-87668129D01*
X163823311Y-87662016D01*
X163774304Y-87631808D01*
X163721362Y-87575725D01*
X163703553Y-87500682D01*
X163725651Y-87426787D01*
X163774085Y-87378269D01*
X163816984Y-87351722D01*
X163816989Y-87351718D01*
X163824345Y-87347166D01*
X163830454Y-87341047D01*
X163830457Y-87341044D01*
X163941870Y-87229436D01*
X163941871Y-87229434D01*
X163947984Y-87223311D01*
X164039814Y-87074334D01*
X164073697Y-86972182D01*
X164092347Y-86915956D01*
X164092348Y-86915953D01*
X164094910Y-86908228D01*
X164105500Y-86804866D01*
X164105500Y-86205134D01*
X164102565Y-86176842D01*
X164095483Y-86108593D01*
X164095482Y-86108590D01*
X164094641Y-86100481D01*
X164080718Y-86058749D01*
X164041995Y-85942680D01*
X164041994Y-85942678D01*
X164039256Y-85934471D01*
X163947166Y-85785655D01*
X163941047Y-85779546D01*
X163941044Y-85779543D01*
X163829436Y-85668130D01*
X163829434Y-85668129D01*
X163823311Y-85662016D01*
X163696980Y-85584145D01*
X163681703Y-85574728D01*
X163681701Y-85574727D01*
X163674334Y-85570186D01*
X163652507Y-85562946D01*
X163515956Y-85517653D01*
X163515953Y-85517652D01*
X163508228Y-85515090D01*
X163500131Y-85514260D01*
X163500129Y-85514260D01*
X163408655Y-85504888D01*
X163408651Y-85504888D01*
X163404866Y-85504500D01*
X161105134Y-85504500D01*
X161101303Y-85504898D01*
X161101294Y-85504898D01*
X161008593Y-85514517D01*
X161008590Y-85514518D01*
X161000481Y-85515359D01*
X160992746Y-85517940D01*
X160992744Y-85517940D01*
X160842680Y-85568005D01*
X160842678Y-85568006D01*
X160834471Y-85570744D01*
X160685655Y-85662834D01*
X160679546Y-85668953D01*
X160679543Y-85668956D01*
X160568693Y-85780000D01*
X160562016Y-85786689D01*
X160557474Y-85794058D01*
X160554483Y-85797845D01*
X160492645Y-85843940D01*
X160437550Y-85854500D01*
X159084808Y-85854500D01*
X159010308Y-85834538D01*
X158955770Y-85780000D01*
X158935808Y-85705500D01*
X158946917Y-85653899D01*
X158945944Y-85653594D01*
X158991350Y-85508703D01*
X158994437Y-85493287D01*
X158998675Y-85447171D01*
X158995855Y-85436645D01*
X158980384Y-85432500D01*
X157379617Y-85432500D01*
X157364146Y-85436645D01*
X157361326Y-85447171D01*
X157365563Y-85493287D01*
X157368649Y-85508700D01*
X157411371Y-85645026D01*
X157418707Y-85661273D01*
X157443572Y-85702329D01*
X157465091Y-85776395D01*
X157443573Y-85856703D01*
X157421863Y-85892551D01*
X157413597Y-85906199D01*
X157395355Y-85964410D01*
X157378597Y-86017884D01*
X157365790Y-86058749D01*
X157359500Y-86127205D01*
X157359500Y-86216336D01*
X157339538Y-86290836D01*
X157315859Y-86321695D01*
X156909195Y-86728359D01*
X156842400Y-86766923D01*
X156803836Y-86772000D01*
X150459152Y-86772000D01*
X150384652Y-86752038D01*
X150330114Y-86697500D01*
X150310152Y-86623000D01*
X150312577Y-86596226D01*
X150312675Y-86595687D01*
X150314771Y-86569055D01*
X150315000Y-86563233D01*
X150315000Y-86557116D01*
X150310855Y-86541645D01*
X150295384Y-86537500D01*
X148714616Y-86537500D01*
X148699145Y-86541645D01*
X148695000Y-86557116D01*
X148695000Y-86563233D01*
X148695229Y-86569055D01*
X148697325Y-86595687D01*
X148697423Y-86596226D01*
X148697395Y-86596576D01*
X148697922Y-86603279D01*
X148696843Y-86603364D01*
X148691173Y-86673100D01*
X148647323Y-86736550D01*
X148577622Y-86769575D01*
X148550848Y-86772000D01*
X144707664Y-86772000D01*
X144633164Y-86752038D01*
X144578626Y-86697500D01*
X144558664Y-86623000D01*
X144578626Y-86548500D01*
X144602305Y-86517641D01*
X144860799Y-86259147D01*
X144868621Y-86252029D01*
X144875440Y-86247702D01*
X144881857Y-86240868D01*
X144881860Y-86240866D01*
X144923072Y-86196979D01*
X144926329Y-86193617D01*
X144946411Y-86173535D01*
X144949277Y-86169841D01*
X144952148Y-86166584D01*
X144957505Y-86160312D01*
X144964077Y-86153313D01*
X144987948Y-86127893D01*
X144988849Y-86128739D01*
X145041579Y-86086040D01*
X145117758Y-86073975D01*
X145164574Y-86089729D01*
X145165537Y-86087595D01*
X145189974Y-86098629D01*
X145326297Y-86141350D01*
X145341713Y-86144437D01*
X145387829Y-86148675D01*
X145398355Y-86145855D01*
X145402500Y-86130384D01*
X145402500Y-86130383D01*
X145902500Y-86130383D01*
X145906645Y-86145854D01*
X145917171Y-86148674D01*
X145963287Y-86144437D01*
X145978700Y-86141351D01*
X146115023Y-86098630D01*
X146131277Y-86091291D01*
X146252485Y-86017884D01*
X148695000Y-86017884D01*
X148699145Y-86033355D01*
X148714616Y-86037500D01*
X149235384Y-86037500D01*
X149250855Y-86033355D01*
X149255000Y-86017884D01*
X149755000Y-86017884D01*
X149759145Y-86033355D01*
X149774616Y-86037500D01*
X150295384Y-86037500D01*
X150310855Y-86033355D01*
X150315000Y-86017884D01*
X150315000Y-86011767D01*
X150314771Y-86005945D01*
X150312675Y-85979311D01*
X150309954Y-85964410D01*
X150268521Y-85821797D01*
X150261138Y-85804737D01*
X150186438Y-85678425D01*
X150175035Y-85663725D01*
X150071275Y-85559965D01*
X150056575Y-85548562D01*
X149930263Y-85473862D01*
X149913203Y-85466479D01*
X149770583Y-85425044D01*
X149769231Y-85424797D01*
X149758807Y-85426728D01*
X149755000Y-85437478D01*
X149755000Y-86017884D01*
X149255000Y-86017884D01*
X149255000Y-85441886D01*
X149250855Y-85426415D01*
X149243175Y-85424358D01*
X149239417Y-85425044D01*
X149096797Y-85466479D01*
X149079737Y-85473862D01*
X148953425Y-85548562D01*
X148938725Y-85559965D01*
X148834965Y-85663725D01*
X148823562Y-85678425D01*
X148748862Y-85804737D01*
X148741479Y-85821797D01*
X148700046Y-85964410D01*
X148697325Y-85979311D01*
X148695229Y-86005945D01*
X148695000Y-86011767D01*
X148695000Y-86017884D01*
X146252485Y-86017884D01*
X146252551Y-86017844D01*
X146266586Y-86006839D01*
X146366839Y-85906586D01*
X146377844Y-85892551D01*
X146451291Y-85771277D01*
X146458630Y-85755023D01*
X146501350Y-85618703D01*
X146504437Y-85603285D01*
X146504782Y-85599535D01*
X146502069Y-85583749D01*
X146491907Y-85580000D01*
X145922116Y-85580000D01*
X145906645Y-85584145D01*
X145902500Y-85599616D01*
X145902500Y-86130383D01*
X145402500Y-86130383D01*
X145402500Y-85060384D01*
X145902500Y-85060384D01*
X145906645Y-85075855D01*
X145922116Y-85080000D01*
X146486961Y-85080000D01*
X146502432Y-85075855D01*
X146505235Y-85065393D01*
X146504437Y-85056715D01*
X146501350Y-85041297D01*
X146462658Y-84917829D01*
X157361325Y-84917829D01*
X157364145Y-84928355D01*
X157379616Y-84932500D01*
X157910384Y-84932500D01*
X157925855Y-84928355D01*
X157930000Y-84912884D01*
X158430000Y-84912884D01*
X158434145Y-84928355D01*
X158449616Y-84932500D01*
X158980383Y-84932500D01*
X158995854Y-84928355D01*
X158998674Y-84917829D01*
X158994437Y-84871713D01*
X158991351Y-84856300D01*
X158990902Y-84854866D01*
X164304500Y-84854866D01*
X164304898Y-84858697D01*
X164304898Y-84858706D01*
X164314451Y-84950773D01*
X164315359Y-84959519D01*
X164317940Y-84967254D01*
X164317940Y-84967256D01*
X164367605Y-85116119D01*
X164370744Y-85125529D01*
X164462834Y-85274345D01*
X164468953Y-85280454D01*
X164468956Y-85280457D01*
X164579737Y-85391044D01*
X164586689Y-85397984D01*
X164735666Y-85489814D01*
X164743880Y-85492538D01*
X164743881Y-85492539D01*
X164894044Y-85542347D01*
X164894047Y-85542348D01*
X164901772Y-85544910D01*
X164909869Y-85545740D01*
X164909871Y-85545740D01*
X165001345Y-85555112D01*
X165001349Y-85555112D01*
X165005134Y-85555500D01*
X168404866Y-85555500D01*
X168408697Y-85555102D01*
X168408706Y-85555102D01*
X168501407Y-85545483D01*
X168501410Y-85545482D01*
X168509519Y-85544641D01*
X168517254Y-85542060D01*
X168517256Y-85542060D01*
X168667320Y-85491995D01*
X168667322Y-85491994D01*
X168675529Y-85489256D01*
X168824345Y-85397166D01*
X168830454Y-85391047D01*
X168830457Y-85391044D01*
X168941870Y-85279436D01*
X168941871Y-85279434D01*
X168947984Y-85273311D01*
X169039814Y-85124334D01*
X169054519Y-85080000D01*
X169092347Y-84965956D01*
X169092348Y-84965953D01*
X169094910Y-84958228D01*
X169098292Y-84925225D01*
X169105112Y-84858655D01*
X169105112Y-84858651D01*
X169105500Y-84854866D01*
X169105500Y-83455134D01*
X169104031Y-83440970D01*
X169095483Y-83358593D01*
X169095482Y-83358590D01*
X169094641Y-83350481D01*
X169047096Y-83207970D01*
X169041995Y-83192680D01*
X169041994Y-83192678D01*
X169039256Y-83184471D01*
X168947166Y-83035655D01*
X168941047Y-83029546D01*
X168941044Y-83029543D01*
X168829436Y-82918130D01*
X168829434Y-82918129D01*
X168823311Y-82912016D01*
X168674334Y-82820186D01*
X168666119Y-82817461D01*
X168515956Y-82767653D01*
X168515953Y-82767652D01*
X168508228Y-82765090D01*
X168500131Y-82764260D01*
X168500129Y-82764260D01*
X168408655Y-82754888D01*
X168408651Y-82754888D01*
X168404866Y-82754500D01*
X165005134Y-82754500D01*
X165001303Y-82754898D01*
X165001294Y-82754898D01*
X164908593Y-82764517D01*
X164908590Y-82764518D01*
X164900481Y-82765359D01*
X164892746Y-82767940D01*
X164892744Y-82767940D01*
X164742680Y-82818005D01*
X164742678Y-82818006D01*
X164734471Y-82820744D01*
X164585655Y-82912834D01*
X164579546Y-82918953D01*
X164579543Y-82918956D01*
X164468130Y-83030564D01*
X164462016Y-83036689D01*
X164370186Y-83185666D01*
X164367462Y-83193880D01*
X164367461Y-83193881D01*
X164318085Y-83342744D01*
X164315090Y-83351772D01*
X164304500Y-83455134D01*
X164304500Y-84854866D01*
X158990902Y-84854866D01*
X158948630Y-84719977D01*
X158941291Y-84703723D01*
X158867844Y-84582449D01*
X158856839Y-84568414D01*
X158756586Y-84468161D01*
X158742551Y-84457156D01*
X158621277Y-84383709D01*
X158605023Y-84376370D01*
X158468703Y-84333650D01*
X158453285Y-84330563D01*
X158449535Y-84330218D01*
X158433749Y-84332931D01*
X158430000Y-84343093D01*
X158430000Y-84912884D01*
X157930000Y-84912884D01*
X157930000Y-84348039D01*
X157925855Y-84332568D01*
X157915393Y-84329765D01*
X157906715Y-84330563D01*
X157891297Y-84333650D01*
X157754977Y-84376370D01*
X157738723Y-84383709D01*
X157617449Y-84457156D01*
X157603414Y-84468161D01*
X157503161Y-84568414D01*
X157492156Y-84582449D01*
X157418709Y-84703723D01*
X157411370Y-84719977D01*
X157368650Y-84856297D01*
X157365563Y-84871713D01*
X157361325Y-84917829D01*
X146462658Y-84917829D01*
X146458630Y-84904977D01*
X146451291Y-84888723D01*
X146377844Y-84767449D01*
X146366839Y-84753414D01*
X146266586Y-84653161D01*
X146252551Y-84642156D01*
X146131277Y-84568709D01*
X146115023Y-84561370D01*
X145978703Y-84518650D01*
X145963287Y-84515563D01*
X145917171Y-84511325D01*
X145906645Y-84514145D01*
X145902500Y-84529616D01*
X145902500Y-85060384D01*
X145402500Y-85060384D01*
X145402500Y-84529617D01*
X145398355Y-84514146D01*
X145387829Y-84511326D01*
X145341713Y-84515563D01*
X145326300Y-84518649D01*
X145189974Y-84561371D01*
X145173727Y-84568707D01*
X145132671Y-84593572D01*
X145058605Y-84615091D01*
X144978297Y-84593573D01*
X144978296Y-84593572D01*
X144964661Y-84585314D01*
X144936488Y-84568252D01*
X144936485Y-84568251D01*
X144928801Y-84563597D01*
X144840264Y-84535851D01*
X144783792Y-84518153D01*
X144783790Y-84518153D01*
X144776251Y-84515790D01*
X144721573Y-84510766D01*
X144711202Y-84509813D01*
X144711201Y-84509813D01*
X144707795Y-84509500D01*
X144457574Y-84509500D01*
X144207206Y-84509501D01*
X144203802Y-84509814D01*
X144203796Y-84509814D01*
X144146627Y-84515066D01*
X144146625Y-84515066D01*
X144138749Y-84515790D01*
X144131203Y-84518155D01*
X144131202Y-84518155D01*
X144095301Y-84529406D01*
X143986199Y-84563597D01*
X143978515Y-84568251D01*
X143978512Y-84568252D01*
X143857137Y-84641759D01*
X143857134Y-84641762D01*
X143849455Y-84646412D01*
X143736412Y-84759455D01*
X143731762Y-84767134D01*
X143731759Y-84767137D01*
X143668426Y-84871713D01*
X143653597Y-84896199D01*
X143605790Y-85048749D01*
X143599500Y-85117205D01*
X143599501Y-85542794D01*
X143599813Y-85546195D01*
X143599814Y-85546207D01*
X143604699Y-85599382D01*
X143591636Y-85675396D01*
X143561683Y-85718371D01*
X142307872Y-86972182D01*
X142241077Y-87010746D01*
X142163949Y-87010746D01*
X142097154Y-86972182D01*
X142058590Y-86905387D01*
X142054080Y-86879809D01*
X142040630Y-86726068D01*
X142040629Y-86726063D01*
X142040063Y-86719592D01*
X141978903Y-86491337D01*
X141879035Y-86277171D01*
X141743495Y-86083599D01*
X141576401Y-85916505D01*
X141420089Y-85807054D01*
X141370512Y-85747970D01*
X141357119Y-85672014D01*
X141383498Y-85599537D01*
X141420089Y-85562946D01*
X141446231Y-85544641D01*
X141576401Y-85453495D01*
X141743495Y-85286401D01*
X141855656Y-85126218D01*
X141914740Y-85076641D01*
X141959051Y-85063854D01*
X141961111Y-85063594D01*
X141961722Y-85063517D01*
X141971022Y-85062638D01*
X142027960Y-85059056D01*
X142036872Y-85056160D01*
X142045048Y-85054601D01*
X142050798Y-85053316D01*
X142058863Y-85051245D01*
X142068158Y-85050071D01*
X142076869Y-85046622D01*
X142076873Y-85046621D01*
X142121205Y-85029069D01*
X142130011Y-85025899D01*
X142175352Y-85011167D01*
X142175359Y-85011163D01*
X142184271Y-85008268D01*
X142192186Y-85003245D01*
X142199690Y-84999714D01*
X142204980Y-84997019D01*
X142212257Y-84993018D01*
X142220971Y-84989568D01*
X142228554Y-84984059D01*
X142267129Y-84956033D01*
X142274868Y-84950773D01*
X142303662Y-84932500D01*
X142323040Y-84920202D01*
X142329458Y-84913368D01*
X142335859Y-84908072D01*
X142340299Y-84904157D01*
X142346350Y-84898475D01*
X142353937Y-84892963D01*
X142359910Y-84885743D01*
X142359913Y-84885740D01*
X142390307Y-84848999D01*
X142396498Y-84841977D01*
X142429132Y-84807225D01*
X142435548Y-84800393D01*
X142440061Y-84792184D01*
X142444935Y-84785476D01*
X142448266Y-84780574D01*
X142452723Y-84773551D01*
X142458700Y-84766326D01*
X142482991Y-84714705D01*
X142487236Y-84706376D01*
X142510209Y-84664587D01*
X142510210Y-84664584D01*
X142514727Y-84656368D01*
X142517058Y-84647288D01*
X142520114Y-84639570D01*
X142522112Y-84634022D01*
X142522465Y-84632935D01*
X142522557Y-84632785D01*
X142525872Y-84623578D01*
X142528679Y-84617613D01*
X142531145Y-84618773D01*
X142558807Y-84573639D01*
X144513306Y-82619140D01*
X144580101Y-82580576D01*
X144618665Y-82575499D01*
X144707794Y-82575499D01*
X144711198Y-82575186D01*
X144711204Y-82575186D01*
X144768373Y-82569934D01*
X144768375Y-82569934D01*
X144776251Y-82569210D01*
X144785378Y-82566350D01*
X144828522Y-82552829D01*
X144928801Y-82521403D01*
X144936485Y-82516749D01*
X144936488Y-82516748D01*
X144964661Y-82499686D01*
X144978298Y-82491427D01*
X145052362Y-82469909D01*
X145132671Y-82491428D01*
X145173727Y-82516293D01*
X145189974Y-82523629D01*
X145326297Y-82566350D01*
X145341713Y-82569437D01*
X145387829Y-82573675D01*
X145398355Y-82570855D01*
X145402500Y-82555384D01*
X145402500Y-82555383D01*
X145902500Y-82555383D01*
X145906645Y-82570854D01*
X145917171Y-82573674D01*
X145963287Y-82569437D01*
X145978700Y-82566351D01*
X146115023Y-82523630D01*
X146131277Y-82516291D01*
X146252551Y-82442844D01*
X146266586Y-82431839D01*
X146366839Y-82331586D01*
X146377844Y-82317551D01*
X146451291Y-82196277D01*
X146458630Y-82180023D01*
X146501350Y-82043703D01*
X146504437Y-82028285D01*
X146504782Y-82024535D01*
X146502069Y-82008749D01*
X146491907Y-82005000D01*
X145922116Y-82005000D01*
X145906645Y-82009145D01*
X145902500Y-82024616D01*
X145902500Y-82555383D01*
X145402500Y-82555383D01*
X145402500Y-81485384D01*
X145902500Y-81485384D01*
X145906645Y-81500855D01*
X145922116Y-81505000D01*
X146486961Y-81505000D01*
X146502432Y-81500855D01*
X146505235Y-81490393D01*
X146504437Y-81481715D01*
X146501350Y-81466297D01*
X146458630Y-81329977D01*
X146451291Y-81313723D01*
X146377844Y-81192449D01*
X146366839Y-81178414D01*
X146266586Y-81078161D01*
X146252551Y-81067156D01*
X146131277Y-80993709D01*
X146115023Y-80986370D01*
X145978703Y-80943650D01*
X145963287Y-80940563D01*
X145917171Y-80936325D01*
X145906645Y-80939145D01*
X145902500Y-80954616D01*
X145902500Y-81485384D01*
X145402500Y-81485384D01*
X145402500Y-80954617D01*
X145398355Y-80939146D01*
X145387829Y-80936326D01*
X145341713Y-80940563D01*
X145326300Y-80943649D01*
X145189974Y-80986371D01*
X145173727Y-80993707D01*
X145132671Y-81018572D01*
X145058605Y-81040091D01*
X144978297Y-81018573D01*
X144978296Y-81018572D01*
X144962367Y-81008925D01*
X144936488Y-80993252D01*
X144936485Y-80993251D01*
X144928801Y-80988597D01*
X144840264Y-80960851D01*
X144783792Y-80943153D01*
X144783790Y-80943153D01*
X144776251Y-80940790D01*
X144721573Y-80935766D01*
X144711202Y-80934813D01*
X144711201Y-80934813D01*
X144707795Y-80934500D01*
X144457574Y-80934500D01*
X144207206Y-80934501D01*
X144203802Y-80934814D01*
X144203796Y-80934814D01*
X144146627Y-80940066D01*
X144146625Y-80940066D01*
X144138749Y-80940790D01*
X144131203Y-80943155D01*
X144131202Y-80943155D01*
X144095301Y-80954406D01*
X143986199Y-80988597D01*
X143978515Y-80993251D01*
X143978512Y-80993252D01*
X143857137Y-81066759D01*
X143857134Y-81066762D01*
X143849455Y-81071412D01*
X143736412Y-81184455D01*
X143731762Y-81192134D01*
X143731759Y-81192137D01*
X143658252Y-81313512D01*
X143653597Y-81321199D01*
X143605790Y-81473749D01*
X143599500Y-81542205D01*
X143599500Y-81631336D01*
X143579538Y-81705836D01*
X143555859Y-81736695D01*
X141851584Y-83440970D01*
X141784789Y-83479534D01*
X141707661Y-83479534D01*
X141640866Y-83440970D01*
X141576401Y-83376505D01*
X141420089Y-83267054D01*
X141370512Y-83207970D01*
X141357119Y-83132014D01*
X141383498Y-83059537D01*
X141420089Y-83022946D01*
X141443627Y-83006464D01*
X141576401Y-82913495D01*
X141743495Y-82746401D01*
X141879035Y-82552829D01*
X141978903Y-82338663D01*
X142028840Y-82152294D01*
X142038381Y-82116687D01*
X142038382Y-82116682D01*
X142040063Y-82110408D01*
X142048639Y-82012393D01*
X142060092Y-81881481D01*
X142060659Y-81875000D01*
X142053056Y-81788102D01*
X142040630Y-81646068D01*
X142040629Y-81646063D01*
X142040063Y-81639592D01*
X141978903Y-81411337D01*
X141879035Y-81197171D01*
X141743495Y-81003599D01*
X141576401Y-80836505D01*
X141420089Y-80727054D01*
X141370512Y-80667970D01*
X141357119Y-80592014D01*
X141383498Y-80519537D01*
X141420089Y-80482946D01*
X141571075Y-80377224D01*
X141576401Y-80373495D01*
X141743495Y-80206401D01*
X141879035Y-80012829D01*
X141978903Y-79798663D01*
X142040063Y-79570408D01*
X142060659Y-79335000D01*
X142040063Y-79099592D01*
X141978903Y-78871337D01*
X141879035Y-78657171D01*
X141743495Y-78463599D01*
X141576401Y-78296505D01*
X141571908Y-78293359D01*
X141527867Y-78230460D01*
X141521145Y-78153626D01*
X141553741Y-78083724D01*
X141616921Y-78039486D01*
X141667881Y-78030500D01*
X150558241Y-78030500D01*
X150569959Y-78031793D01*
G37*
%TD.AperFunction*%
%TD*%
M02*
