%TF.GenerationSoftware,KiCad,Pcbnew,(6.0.7)*%
%TF.CreationDate,2022-09-05T16:04:27+02:00*%
%TF.ProjectId,autoprobe,6175746f-7072-46f6-9265-2e6b69636164,rev?*%
%TF.SameCoordinates,Original*%
%TF.FileFunction,Legend,Bot*%
%TF.FilePolarity,Positive*%
%FSLAX46Y46*%
G04 Gerber Fmt 4.6, Leading zero omitted, Abs format (unit mm)*
G04 Created by KiCad (PCBNEW (6.0.7)) date 2022-09-05 16:04:27*
%MOMM*%
%LPD*%
G01*
G04 APERTURE LIST*
%ADD10C,0.150000*%
%ADD11C,0.120000*%
G04 APERTURE END LIST*
D10*
%TO.C,J2*%
X138019524Y-99182380D02*
X138019524Y-99896666D01*
X138067143Y-100039523D01*
X138162381Y-100134761D01*
X138305238Y-100182380D01*
X138400476Y-100182380D01*
X137590952Y-99277619D02*
X137543333Y-99230000D01*
X137448095Y-99182380D01*
X137210000Y-99182380D01*
X137114762Y-99230000D01*
X137067143Y-99277619D01*
X137019524Y-99372857D01*
X137019524Y-99468095D01*
X137067143Y-99610952D01*
X137638571Y-100182380D01*
X137019524Y-100182380D01*
%TO.C,kibuzzard-63088F9B*%
G36*
X148548562Y-89149006D02*
G01*
X148577137Y-89152975D01*
X148577137Y-89813375D01*
X148559675Y-89814962D01*
X148542212Y-89814962D01*
X148430294Y-89789562D01*
X148357269Y-89719712D01*
X148317581Y-89614144D01*
X148308652Y-89550048D01*
X148305675Y-89480000D01*
X148315200Y-89356175D01*
X148348537Y-89249812D01*
X148413625Y-89175994D01*
X148519987Y-89148212D01*
X148548562Y-89149006D01*
G37*
G36*
X147693832Y-90319430D02*
G01*
X147611951Y-90307284D01*
X147531656Y-90287171D01*
X147453718Y-90259285D01*
X147378889Y-90223893D01*
X147307889Y-90181338D01*
X147241403Y-90132028D01*
X147180070Y-90076439D01*
X147124480Y-90015105D01*
X147075171Y-89948619D01*
X147032615Y-89877619D01*
X146997224Y-89802790D01*
X146969337Y-89724853D01*
X146949224Y-89644557D01*
X146937078Y-89562677D01*
X146933017Y-89480000D01*
X148107237Y-89480000D01*
X148115770Y-89606405D01*
X148141369Y-89712569D01*
X148182048Y-89799683D01*
X148235825Y-89868937D01*
X148301905Y-89921127D01*
X148379494Y-89957044D01*
X148467005Y-89977880D01*
X148562850Y-89984825D01*
X148665244Y-89979269D01*
X148707174Y-89972125D01*
X148931150Y-89972125D01*
X149088312Y-89972125D01*
X149134085Y-89863205D01*
X149182504Y-89754461D01*
X149233569Y-89645894D01*
X149287279Y-89537326D01*
X149343635Y-89428583D01*
X149402637Y-89319662D01*
X149402637Y-89972125D01*
X149578850Y-89972125D01*
X149578850Y-89038675D01*
X149709025Y-89038675D01*
X149759825Y-89194250D01*
X149845550Y-89154562D01*
X149950325Y-89137100D01*
X150067800Y-89162500D01*
X150146381Y-89233144D01*
X150190831Y-89341094D01*
X150200952Y-89407173D01*
X150204325Y-89480000D01*
X150198151Y-89587156D01*
X150179631Y-89673675D01*
X150148762Y-89739556D01*
X150080103Y-89802064D01*
X149985250Y-89822900D01*
X149947150Y-89821312D01*
X149909050Y-89816550D01*
X149909050Y-89457775D01*
X149713787Y-89457775D01*
X149713787Y-89948312D01*
X149822531Y-89976887D01*
X149904089Y-89988794D01*
X150001125Y-89992762D01*
X150088636Y-89984627D01*
X150167019Y-89960219D01*
X150235480Y-89919737D01*
X150293225Y-89863381D01*
X150339659Y-89791150D01*
X150374187Y-89703044D01*
X150395619Y-89599261D01*
X150402762Y-89480000D01*
X150394428Y-89361930D01*
X150369425Y-89258544D01*
X150330134Y-89170239D01*
X150278937Y-89097412D01*
X150216628Y-89040461D01*
X150144000Y-88999781D01*
X150063434Y-88975373D01*
X149977312Y-88967237D01*
X149874919Y-88975969D01*
X149796337Y-88995812D01*
X149741569Y-89019625D01*
X149709025Y-89038675D01*
X149578850Y-89038675D01*
X149578850Y-88989462D01*
X149421687Y-88989462D01*
X149377237Y-89062289D01*
X149332787Y-89141069D01*
X149288933Y-89222627D01*
X149246269Y-89303787D01*
X149205787Y-89383559D01*
X149168481Y-89460950D01*
X149135342Y-89532387D01*
X149107362Y-89594300D01*
X149107362Y-88989462D01*
X148931150Y-88989462D01*
X148931150Y-89972125D01*
X148707174Y-89972125D01*
X148772400Y-89961012D01*
X148772400Y-89002162D01*
X148646987Y-88983112D01*
X148537450Y-88978350D01*
X148444780Y-88985494D01*
X148360444Y-89006925D01*
X148286427Y-89043636D01*
X148224712Y-89096619D01*
X148175302Y-89166072D01*
X148138194Y-89252194D01*
X148114977Y-89356373D01*
X148107237Y-89480000D01*
X146933017Y-89480000D01*
X146937078Y-89397323D01*
X146949224Y-89315443D01*
X146969337Y-89235147D01*
X146997224Y-89157210D01*
X147032615Y-89082381D01*
X147075171Y-89011381D01*
X147124480Y-88944895D01*
X147180070Y-88883561D01*
X147241403Y-88827972D01*
X147307889Y-88778662D01*
X147378889Y-88736107D01*
X147453718Y-88700715D01*
X147531656Y-88672829D01*
X147611951Y-88652716D01*
X147693832Y-88640570D01*
X147776508Y-88636508D01*
X150733492Y-88636508D01*
X150816168Y-88640570D01*
X150898049Y-88652716D01*
X150978344Y-88672829D01*
X151056282Y-88700715D01*
X151131111Y-88736107D01*
X151202111Y-88778662D01*
X151268597Y-88827972D01*
X151329930Y-88883561D01*
X151385520Y-88944895D01*
X151434829Y-89011381D01*
X151477385Y-89082381D01*
X151512776Y-89157210D01*
X151540663Y-89235147D01*
X151560776Y-89315443D01*
X151572922Y-89397323D01*
X151576983Y-89480000D01*
X151572922Y-89562677D01*
X151560776Y-89644557D01*
X151540663Y-89724853D01*
X151512776Y-89802790D01*
X151477385Y-89877619D01*
X151434829Y-89948619D01*
X151385520Y-90015105D01*
X151329930Y-90076439D01*
X151268597Y-90132028D01*
X151202111Y-90181338D01*
X151131111Y-90223893D01*
X151056282Y-90259285D01*
X150978344Y-90287171D01*
X150898049Y-90307284D01*
X150816168Y-90319430D01*
X150733492Y-90323492D01*
X147776508Y-90323492D01*
X147693832Y-90319430D01*
G37*
%TO.C,kibuzzard-63088BD7*%
G36*
X149341525Y-94169436D02*
G01*
X149370100Y-94173405D01*
X149370100Y-94833805D01*
X149352637Y-94835392D01*
X149335175Y-94835392D01*
X149223256Y-94809992D01*
X149150231Y-94740142D01*
X149110543Y-94634574D01*
X149101614Y-94570478D01*
X149098637Y-94500430D01*
X149108162Y-94376605D01*
X149141500Y-94270242D01*
X149206587Y-94196424D01*
X149312950Y-94168642D01*
X149341525Y-94169436D01*
G37*
G36*
X148491418Y-94305961D02*
G01*
X148516818Y-94404386D01*
X148539043Y-94502017D01*
X148558887Y-94603617D01*
X148366800Y-94603617D01*
X148385850Y-94502017D01*
X148407281Y-94404386D01*
X148432681Y-94305961D01*
X148462050Y-94200392D01*
X148491418Y-94305961D01*
G37*
G36*
X147664469Y-95339860D02*
G01*
X147582589Y-95327714D01*
X147502293Y-95307601D01*
X147424355Y-95279715D01*
X147349526Y-95244323D01*
X147278527Y-95201768D01*
X147212040Y-95152458D01*
X147150707Y-95096869D01*
X147095118Y-95035535D01*
X147063241Y-94992555D01*
X148077875Y-94992555D01*
X148287425Y-94992555D01*
X148333462Y-94765543D01*
X148595400Y-94765543D01*
X148639850Y-94992555D01*
X148843050Y-94992555D01*
X148815046Y-94878414D01*
X148786916Y-94768400D01*
X148758658Y-94662514D01*
X148730274Y-94560755D01*
X148712657Y-94500430D01*
X148900200Y-94500430D01*
X148908733Y-94626835D01*
X148934331Y-94732999D01*
X148975011Y-94820113D01*
X149028787Y-94889367D01*
X149094867Y-94941557D01*
X149172456Y-94977474D01*
X149259967Y-94998310D01*
X149355812Y-95005255D01*
X149458206Y-94999699D01*
X149565362Y-94981442D01*
X149565362Y-94724267D01*
X149714587Y-94724267D01*
X149737011Y-94846703D01*
X149804281Y-94937786D01*
X149874396Y-94979679D01*
X149965148Y-95004814D01*
X150076537Y-95013192D01*
X150186472Y-95006644D01*
X150271800Y-94986999D01*
X150381337Y-94938580D01*
X150324187Y-94779830D01*
X150221793Y-94827455D01*
X150155714Y-94844124D01*
X150076537Y-94849680D01*
X149994781Y-94839361D01*
X149943187Y-94810786D01*
X149916993Y-94769511D01*
X149909850Y-94722680D01*
X149927312Y-94668705D01*
X149971762Y-94626636D01*
X150032087Y-94593299D01*
X150098762Y-94565517D01*
X150190837Y-94529005D01*
X150277356Y-94476617D01*
X150341650Y-94398036D01*
X150367050Y-94281355D01*
X150344626Y-94158324D01*
X150277356Y-94065455D01*
X150210064Y-94022240D01*
X150127778Y-93996311D01*
X150030500Y-93987667D01*
X149945767Y-93992827D01*
X149872543Y-94008305D01*
X149759037Y-94054342D01*
X149816187Y-94205155D01*
X149904293Y-94167055D01*
X150016212Y-94151180D01*
X150102643Y-94163704D01*
X150154501Y-94201274D01*
X150171787Y-94263892D01*
X150155912Y-94313899D01*
X150115431Y-94351999D01*
X150059868Y-94381367D01*
X149998750Y-94405180D01*
X149902706Y-94444074D01*
X149810631Y-94501224D01*
X149741575Y-94590124D01*
X149721334Y-94650250D01*
X149714587Y-94724267D01*
X149565362Y-94724267D01*
X149565362Y-94022592D01*
X149439950Y-94003542D01*
X149330412Y-93998780D01*
X149237742Y-94005924D01*
X149153406Y-94027355D01*
X149079389Y-94064066D01*
X149017675Y-94117049D01*
X148968264Y-94186502D01*
X148931156Y-94272624D01*
X148907939Y-94376803D01*
X148900200Y-94500430D01*
X148712657Y-94500430D01*
X148701762Y-94463124D01*
X148666341Y-94345202D01*
X148631515Y-94230357D01*
X148597285Y-94118587D01*
X148563650Y-94009892D01*
X148350925Y-94009892D01*
X148316049Y-94119480D01*
X148281273Y-94232341D01*
X148246596Y-94348476D01*
X148212018Y-94467886D01*
X148184555Y-94566343D01*
X148157408Y-94668038D01*
X148130580Y-94772972D01*
X148104068Y-94881144D01*
X148077875Y-94992555D01*
X147063241Y-94992555D01*
X147045808Y-94969049D01*
X147003252Y-94898049D01*
X146967861Y-94823220D01*
X146939974Y-94745283D01*
X146919861Y-94664987D01*
X146907716Y-94583107D01*
X146903654Y-94500430D01*
X146907716Y-94417753D01*
X146919861Y-94335873D01*
X146939974Y-94255577D01*
X146967861Y-94177640D01*
X147003252Y-94102811D01*
X147045808Y-94031811D01*
X147095118Y-93965325D01*
X147150707Y-93903991D01*
X147212040Y-93848402D01*
X147278527Y-93799092D01*
X147349526Y-93756537D01*
X147424355Y-93721145D01*
X147502293Y-93693259D01*
X147582589Y-93673146D01*
X147664469Y-93661000D01*
X147747146Y-93656938D01*
X150712066Y-93656938D01*
X150794743Y-93661000D01*
X150876623Y-93673146D01*
X150956919Y-93693259D01*
X151034857Y-93721145D01*
X151109686Y-93756537D01*
X151180685Y-93799092D01*
X151247172Y-93848402D01*
X151308505Y-93903991D01*
X151364094Y-93965325D01*
X151413404Y-94031811D01*
X151455960Y-94102811D01*
X151491351Y-94177640D01*
X151519238Y-94255577D01*
X151539351Y-94335873D01*
X151551496Y-94417753D01*
X151555558Y-94500430D01*
X151551496Y-94583107D01*
X151539351Y-94664987D01*
X151519238Y-94745283D01*
X151491351Y-94823220D01*
X151455960Y-94898049D01*
X151413404Y-94969049D01*
X151364094Y-95035535D01*
X151308505Y-95096869D01*
X151247172Y-95152458D01*
X151180685Y-95201768D01*
X151109686Y-95244323D01*
X151034857Y-95279715D01*
X150956919Y-95307601D01*
X150876623Y-95327714D01*
X150794743Y-95339860D01*
X150712066Y-95343922D01*
X147747146Y-95343922D01*
X147664469Y-95339860D01*
G37*
D11*
%TO.C,J2*%
X143950000Y-98385000D02*
X143950000Y-88165000D01*
X143950000Y-98385000D02*
X146610000Y-98385000D01*
X143950000Y-88165000D02*
X146610000Y-88165000D01*
X146610000Y-98385000D02*
X146610000Y-88165000D01*
X143950000Y-99655000D02*
X143950000Y-100985000D01*
X143950000Y-100985000D02*
X145280000Y-100985000D01*
%TO.C,kibuzzard-63088BFC*%
G36*
X147664469Y-92829645D02*
G01*
X147582589Y-92817499D01*
X147502293Y-92797386D01*
X147424356Y-92769500D01*
X147349527Y-92734108D01*
X147278527Y-92691553D01*
X147212040Y-92642243D01*
X147150707Y-92586654D01*
X147095118Y-92525320D01*
X147063241Y-92482340D01*
X148077875Y-92482340D01*
X148695412Y-92482340D01*
X148695412Y-92434715D01*
X148857337Y-92434715D01*
X148969256Y-92481546D01*
X149045258Y-92497620D01*
X149131975Y-92502977D01*
X149259681Y-92488161D01*
X149365514Y-92443711D01*
X149449475Y-92369627D01*
X149497398Y-92295908D01*
X149529307Y-92214052D01*
X149665375Y-92214052D01*
X149687798Y-92336488D01*
X149755069Y-92427571D01*
X149825183Y-92469464D01*
X149915935Y-92494599D01*
X150027325Y-92502977D01*
X150137259Y-92496429D01*
X150222587Y-92476784D01*
X150332125Y-92428365D01*
X150274975Y-92269615D01*
X150172581Y-92317240D01*
X150106502Y-92333909D01*
X150027325Y-92339465D01*
X149945569Y-92329146D01*
X149893975Y-92300571D01*
X149867781Y-92259296D01*
X149860637Y-92212465D01*
X149878100Y-92158490D01*
X149922550Y-92116421D01*
X149982875Y-92083084D01*
X150049550Y-92055302D01*
X150141625Y-92018790D01*
X150228144Y-91966402D01*
X150292437Y-91887821D01*
X150317837Y-91771140D01*
X150295414Y-91648109D01*
X150228144Y-91555240D01*
X150160851Y-91512025D01*
X150078566Y-91486096D01*
X149981287Y-91477452D01*
X149896555Y-91482612D01*
X149823331Y-91498090D01*
X149709825Y-91544127D01*
X149766975Y-91694940D01*
X149855081Y-91656840D01*
X149967000Y-91640965D01*
X150053431Y-91653489D01*
X150105289Y-91691059D01*
X150122575Y-91753677D01*
X150106700Y-91803684D01*
X150066219Y-91841784D01*
X150010656Y-91871152D01*
X149949537Y-91894965D01*
X149853494Y-91933859D01*
X149761419Y-91991009D01*
X149692362Y-92079909D01*
X149672122Y-92140035D01*
X149665375Y-92214052D01*
X149529307Y-92214052D01*
X149531628Y-92208099D01*
X149552166Y-92106202D01*
X149559012Y-91990215D01*
X149550678Y-91874724D01*
X149525675Y-91772727D01*
X149485789Y-91684820D01*
X149432806Y-91611596D01*
X149367719Y-91553652D01*
X149291519Y-91511584D01*
X149205992Y-91485985D01*
X149112925Y-91477452D01*
X149018469Y-91486184D01*
X148944650Y-91506027D01*
X148891469Y-91529840D01*
X148858925Y-91548890D01*
X148909725Y-91704465D01*
X148997831Y-91663984D01*
X149116100Y-91647315D01*
X149205794Y-91663984D01*
X149283581Y-91719546D01*
X149339144Y-91823527D01*
X149355217Y-91896552D01*
X149360575Y-91985452D01*
X149354137Y-92088905D01*
X149334822Y-92174894D01*
X149302631Y-92243421D01*
X149226233Y-92310692D01*
X149112925Y-92333115D01*
X148986719Y-92315652D01*
X148906550Y-92280727D01*
X148857337Y-92434715D01*
X148695412Y-92434715D01*
X148695412Y-91499677D01*
X148498562Y-91499677D01*
X148498562Y-92320415D01*
X148077875Y-92320415D01*
X148077875Y-92482340D01*
X147063241Y-92482340D01*
X147045808Y-92458834D01*
X147003253Y-92387834D01*
X146967861Y-92313005D01*
X146939975Y-92235068D01*
X146919862Y-92154772D01*
X146907716Y-92072892D01*
X146903654Y-91990215D01*
X146907716Y-91907538D01*
X146919862Y-91825658D01*
X146939975Y-91745362D01*
X146967861Y-91667425D01*
X147003253Y-91592596D01*
X147045808Y-91521596D01*
X147095118Y-91455110D01*
X147150707Y-91393776D01*
X147212040Y-91338187D01*
X147278527Y-91288877D01*
X147349527Y-91246322D01*
X147424356Y-91210930D01*
X147502293Y-91183044D01*
X147582589Y-91162931D01*
X147664469Y-91150785D01*
X147747146Y-91146723D01*
X150662854Y-91146723D01*
X150745531Y-91150785D01*
X150827411Y-91162931D01*
X150907707Y-91183044D01*
X150985644Y-91210930D01*
X151060473Y-91246322D01*
X151131473Y-91288877D01*
X151197960Y-91338187D01*
X151259293Y-91393776D01*
X151314882Y-91455110D01*
X151364192Y-91521596D01*
X151406747Y-91592596D01*
X151442139Y-91667425D01*
X151470025Y-91745362D01*
X151490138Y-91825658D01*
X151502284Y-91907538D01*
X151506346Y-91990215D01*
X151502284Y-92072892D01*
X151490138Y-92154772D01*
X151470025Y-92235068D01*
X151442139Y-92313005D01*
X151406747Y-92387834D01*
X151364192Y-92458834D01*
X151314882Y-92525320D01*
X151259293Y-92586654D01*
X151197960Y-92642243D01*
X151131473Y-92691553D01*
X151060473Y-92734108D01*
X150985644Y-92769500D01*
X150907707Y-92797386D01*
X150827411Y-92817499D01*
X150745531Y-92829645D01*
X150662854Y-92833707D01*
X147747146Y-92833707D01*
X147664469Y-92829645D01*
G37*
%TO.C,kibuzzard-63088C13*%
G36*
X152527638Y-96789982D02*
G01*
X152574469Y-96863801D01*
X152596694Y-96972545D01*
X152600861Y-97036839D01*
X152602250Y-97105895D01*
X152600861Y-97175150D01*
X152596694Y-97240039D01*
X152574469Y-97348782D01*
X152527638Y-97421807D01*
X152446675Y-97448795D01*
X152366507Y-97421807D01*
X152318882Y-97347989D01*
X152296657Y-97239245D01*
X152292489Y-97174951D01*
X152291100Y-97105895D01*
X152292489Y-97036640D01*
X152296657Y-96971751D01*
X152318882Y-96863007D01*
X152365713Y-96789982D01*
X152446675Y-96762995D01*
X152527638Y-96789982D01*
G37*
G36*
X149329619Y-97009058D02*
G01*
X149375657Y-97043983D01*
X149404232Y-97094782D01*
X149417725Y-97153520D01*
X149119275Y-97153520D01*
X149127213Y-97095576D01*
X149152613Y-97045570D01*
X149197063Y-97009851D01*
X149263738Y-96996358D01*
X149329619Y-97009058D01*
G37*
G36*
X147707426Y-97945096D02*
G01*
X147620923Y-97932264D01*
X147536094Y-97911015D01*
X147453756Y-97881554D01*
X147374702Y-97844165D01*
X147299693Y-97799206D01*
X147229453Y-97747112D01*
X147164656Y-97688385D01*
X147105929Y-97623588D01*
X147069306Y-97574208D01*
X148125500Y-97574208D01*
X148242182Y-97605958D01*
X148363625Y-97615483D01*
X148484275Y-97604370D01*
X148573175Y-97561508D01*
X148628738Y-97471814D01*
X148643025Y-97404940D01*
X148647788Y-97320208D01*
X148647788Y-97215433D01*
X148930363Y-97215433D01*
X148931157Y-97255120D01*
X148933538Y-97288458D01*
X149417725Y-97288458D01*
X149402644Y-97353743D01*
X149357400Y-97403551D01*
X149288344Y-97435103D01*
X149201825Y-97445620D01*
X149089907Y-97432920D01*
X149000213Y-97407520D01*
X148973225Y-97574208D01*
X149081175Y-97603576D01*
X149209763Y-97615483D01*
X149300052Y-97609331D01*
X149380419Y-97590876D01*
X149450269Y-97560317D01*
X149509007Y-97517851D01*
X149556036Y-97463678D01*
X149590763Y-97397995D01*
X149592521Y-97391645D01*
X149760625Y-97391645D01*
X149778088Y-97478958D01*
X149836032Y-97550395D01*
X149941600Y-97598020D01*
X150014228Y-97611117D01*
X150101938Y-97615483D01*
X150191632Y-97609926D01*
X150267038Y-97593258D01*
X150376575Y-97553570D01*
X150346413Y-97390058D01*
X150228144Y-97431333D01*
X150100350Y-97450383D01*
X149990813Y-97440064D01*
X149952713Y-97397995D01*
X149964619Y-97363070D01*
X149997957Y-97338464D01*
X150047169Y-97318620D01*
X150105113Y-97299570D01*
X150192425Y-97270201D01*
X150273388Y-97228133D01*
X150333713Y-97163839D01*
X150357525Y-97066207D01*
X150339269Y-96976514D01*
X150282119Y-96901901D01*
X150182900Y-96851101D01*
X150116622Y-96837409D01*
X150038438Y-96832845D01*
X149967992Y-96835623D01*
X149902707Y-96843957D01*
X149793963Y-96875707D01*
X149824125Y-97040808D01*
X149908263Y-97014614D01*
X150036850Y-96996358D01*
X150137657Y-97014614D01*
X150163850Y-97053508D01*
X150151944Y-97084464D01*
X150120194Y-97109070D01*
X150074157Y-97130501D01*
X150017800Y-97150345D01*
X149928900Y-97182095D01*
X149845557Y-97225751D01*
X149784438Y-97292426D01*
X149760625Y-97391645D01*
X149592521Y-97391645D01*
X149612194Y-97320604D01*
X149619338Y-97231307D01*
X149611797Y-97138836D01*
X149589175Y-97058270D01*
X149554250Y-96989809D01*
X149509800Y-96933651D01*
X149457016Y-96889797D01*
X149397088Y-96858245D01*
X149332794Y-96839195D01*
X149266913Y-96832845D01*
X149165666Y-96843693D01*
X149082057Y-96876237D01*
X149016088Y-96930476D01*
X148968463Y-97005530D01*
X148939888Y-97100515D01*
X148930363Y-97215433D01*
X148647788Y-97215433D01*
X148647788Y-97013820D01*
X148817650Y-97013820D01*
X148817650Y-96851895D01*
X148647788Y-96851895D01*
X148647788Y-96664570D01*
X148452525Y-96632820D01*
X148452525Y-96851895D01*
X148139788Y-96851895D01*
X148139788Y-97013820D01*
X148452525Y-97013820D01*
X148452525Y-97315445D01*
X148444588Y-97382120D01*
X148422363Y-97421807D01*
X148387438Y-97440857D01*
X148341400Y-97445620D01*
X148291394Y-97444033D01*
X148246944Y-97438476D01*
X148202494Y-97426570D01*
X148152488Y-97405933D01*
X148125500Y-97574208D01*
X147069306Y-97574208D01*
X147053835Y-97553348D01*
X147008876Y-97478339D01*
X146971487Y-97399286D01*
X146942026Y-97316948D01*
X146920777Y-97232118D01*
X146907945Y-97145615D01*
X146903654Y-97058270D01*
X146907945Y-96970925D01*
X146920777Y-96884422D01*
X146942026Y-96799592D01*
X146971487Y-96717254D01*
X147008876Y-96638201D01*
X147053835Y-96563192D01*
X147066951Y-96545507D01*
X150475000Y-96545507D01*
X150508338Y-96704257D01*
X150599619Y-96678064D01*
X150703600Y-96664570D01*
X150755194Y-96669332D01*
X150798057Y-96689970D01*
X150827425Y-96735214D01*
X150838538Y-96812207D01*
X150838538Y-96851895D01*
X150532150Y-96851895D01*
X150532150Y-97013820D01*
X150838538Y-97013820D01*
X150838538Y-97598020D01*
X151035388Y-97598020D01*
X151035388Y-97013820D01*
X151198900Y-97013820D01*
X151198900Y-96851895D01*
X151035388Y-96851895D01*
X151035388Y-96809032D01*
X151028839Y-96726284D01*
X151009194Y-96659014D01*
X150938550Y-96563764D01*
X150902036Y-96545507D01*
X151268750Y-96545507D01*
X151302088Y-96704257D01*
X151393369Y-96678064D01*
X151497350Y-96664570D01*
X151548944Y-96669332D01*
X151591807Y-96689970D01*
X151621175Y-96735214D01*
X151632288Y-96812207D01*
X151632288Y-96851895D01*
X151325900Y-96851895D01*
X151325900Y-97013820D01*
X151632288Y-97013820D01*
X151632288Y-97598020D01*
X151829138Y-97598020D01*
X151829138Y-97105895D01*
X152092663Y-97105895D01*
X152098417Y-97225106D01*
X152115682Y-97328740D01*
X152144455Y-97416797D01*
X152184738Y-97489276D01*
X152254588Y-97561155D01*
X152341371Y-97604282D01*
X152445088Y-97618658D01*
X152551362Y-97604282D01*
X152639468Y-97561155D01*
X152709407Y-97489276D01*
X152749342Y-97416797D01*
X152777867Y-97328740D01*
X152794983Y-97225106D01*
X152800688Y-97105895D01*
X152794834Y-96986684D01*
X152777272Y-96883050D01*
X152748003Y-96794993D01*
X152707025Y-96722514D01*
X152636470Y-96650635D01*
X152549686Y-96607508D01*
X152446675Y-96593132D01*
X152340489Y-96607508D01*
X152252647Y-96650635D01*
X152183150Y-96722514D01*
X152143562Y-96794993D01*
X152115285Y-96883050D01*
X152098318Y-96986684D01*
X152092663Y-97105895D01*
X151829138Y-97105895D01*
X151829138Y-97013820D01*
X151992650Y-97013820D01*
X151992650Y-96851895D01*
X151829138Y-96851895D01*
X151829138Y-96809032D01*
X151822589Y-96726284D01*
X151802944Y-96659014D01*
X151732300Y-96563764D01*
X151630700Y-96512964D01*
X151513225Y-96497882D01*
X151386225Y-96508995D01*
X151268750Y-96545507D01*
X150902036Y-96545507D01*
X150836950Y-96512964D01*
X150719475Y-96497882D01*
X150592475Y-96508995D01*
X150475000Y-96545507D01*
X147066951Y-96545507D01*
X147105929Y-96492952D01*
X147164656Y-96428155D01*
X147229453Y-96369428D01*
X147299693Y-96317334D01*
X147374702Y-96272375D01*
X147453756Y-96234986D01*
X147536094Y-96205525D01*
X147620923Y-96184276D01*
X147707426Y-96171444D01*
X147794771Y-96167153D01*
X153131417Y-96167153D01*
X153218762Y-96171444D01*
X153305265Y-96184276D01*
X153390094Y-96205525D01*
X153472433Y-96234986D01*
X153551486Y-96272375D01*
X153626495Y-96317334D01*
X153696735Y-96369428D01*
X153761532Y-96428155D01*
X153820259Y-96492952D01*
X153872353Y-96563192D01*
X153917312Y-96638201D01*
X153954701Y-96717254D01*
X153984162Y-96799592D01*
X154005411Y-96884422D01*
X154018243Y-96970925D01*
X154022534Y-97058270D01*
X154018243Y-97145615D01*
X154005411Y-97232118D01*
X153984162Y-97316948D01*
X153954701Y-97399286D01*
X153917312Y-97478339D01*
X153872353Y-97553348D01*
X153820259Y-97623588D01*
X153761532Y-97688385D01*
X153696735Y-97747112D01*
X153626495Y-97799206D01*
X153551486Y-97844165D01*
X153472433Y-97881554D01*
X153390094Y-97911015D01*
X153305265Y-97932264D01*
X153218762Y-97945096D01*
X153131417Y-97949387D01*
X147794771Y-97949387D01*
X147707426Y-97945096D01*
G37*
%TO.C,kibuzzard-63088C22*%
G36*
X147711240Y-100433371D02*
G01*
X147630438Y-100421385D01*
X147551200Y-100401537D01*
X147474289Y-100374018D01*
X147400446Y-100339093D01*
X147330382Y-100297098D01*
X147264771Y-100248438D01*
X147204246Y-100193581D01*
X147149389Y-100133056D01*
X147100729Y-100067445D01*
X147058734Y-99997381D01*
X147023809Y-99923538D01*
X146996290Y-99846627D01*
X146976442Y-99767389D01*
X146964456Y-99686587D01*
X146960448Y-99605000D01*
X146964456Y-99523413D01*
X146976442Y-99442611D01*
X146996290Y-99363373D01*
X147023809Y-99286462D01*
X147058734Y-99212619D01*
X147100729Y-99142555D01*
X147129805Y-99103350D01*
X148123556Y-99103350D01*
X148144789Y-99204156D01*
X148170388Y-99316075D01*
X148200153Y-99436527D01*
X148233887Y-99562931D01*
X148258494Y-99649715D01*
X148284687Y-99737556D01*
X148312469Y-99826456D01*
X148341397Y-99914915D01*
X148371030Y-100001434D01*
X148401369Y-100086012D01*
X148602981Y-100086012D01*
X148642272Y-99969331D01*
X148683944Y-99838362D01*
X148698948Y-99789150D01*
X148982394Y-99789150D01*
X149006206Y-99915356D01*
X149079231Y-100016162D01*
X149134397Y-100054262D01*
X149201469Y-100082838D01*
X149280447Y-100100697D01*
X149371331Y-100106650D01*
X149449119Y-100101887D01*
X149525319Y-100089981D01*
X149591200Y-100073312D01*
X149636444Y-100055850D01*
X149596756Y-99893925D01*
X149507856Y-99925675D01*
X149447134Y-99936391D01*
X149372919Y-99939963D01*
X149278463Y-99927263D01*
X149219725Y-99894719D01*
X149190356Y-99849475D01*
X149182419Y-99797087D01*
X149195913Y-99721681D01*
X149249888Y-99662944D01*
X149364981Y-99624844D01*
X149451103Y-99614723D01*
X149560244Y-99611350D01*
X149545956Y-99479389D01*
X149534844Y-99350206D01*
X149526509Y-99224595D01*
X149520556Y-99103350D01*
X149018906Y-99103350D01*
X149018906Y-99265275D01*
X149357044Y-99265275D01*
X149364981Y-99371637D01*
X149372919Y-99462125D01*
X149252798Y-99478353D01*
X149154902Y-99510103D01*
X149079231Y-99557375D01*
X149025433Y-99619817D01*
X148993153Y-99697075D01*
X148982394Y-99789150D01*
X148698948Y-99789150D01*
X148711990Y-99746376D01*
X148738977Y-99654565D01*
X148764906Y-99562931D01*
X148789424Y-99473061D01*
X148812178Y-99386542D01*
X148833169Y-99303375D01*
X148859362Y-99192250D01*
X148877619Y-99103350D01*
X148671244Y-99103350D01*
X148659337Y-99185702D01*
X148642669Y-99280356D01*
X148622627Y-99382750D01*
X148600600Y-99488319D01*
X148576787Y-99594681D01*
X148551387Y-99699456D01*
X148525392Y-99798080D01*
X148499794Y-99885987D01*
X148474394Y-99799270D01*
X148448994Y-99701044D01*
X148424387Y-99596269D01*
X148401369Y-99489906D01*
X148379938Y-99384139D01*
X148360094Y-99281150D01*
X148342631Y-99185900D01*
X148328344Y-99103350D01*
X148123556Y-99103350D01*
X147129805Y-99103350D01*
X147149389Y-99076944D01*
X147204246Y-99016419D01*
X147264771Y-98961562D01*
X147330382Y-98912902D01*
X147400446Y-98870907D01*
X147474289Y-98835982D01*
X147551200Y-98808463D01*
X147630438Y-98788615D01*
X147711240Y-98776629D01*
X147792827Y-98772621D01*
X149967173Y-98772621D01*
X150048760Y-98776629D01*
X150129562Y-98788615D01*
X150208800Y-98808463D01*
X150285711Y-98835982D01*
X150359554Y-98870907D01*
X150429618Y-98912902D01*
X150495229Y-98961562D01*
X150555754Y-99016419D01*
X150610611Y-99076944D01*
X150659271Y-99142555D01*
X150701266Y-99212619D01*
X150736191Y-99286462D01*
X150763710Y-99363373D01*
X150783558Y-99442611D01*
X150795544Y-99523413D01*
X150799552Y-99605000D01*
X150795544Y-99686587D01*
X150783558Y-99767389D01*
X150763710Y-99846627D01*
X150736191Y-99923538D01*
X150701266Y-99997381D01*
X150659271Y-100067445D01*
X150610611Y-100133056D01*
X150555754Y-100193581D01*
X150495229Y-100248438D01*
X150429618Y-100297098D01*
X150359554Y-100339093D01*
X150285711Y-100374018D01*
X150208800Y-100401537D01*
X150129562Y-100421385D01*
X150048760Y-100433371D01*
X149967173Y-100437379D01*
X147792827Y-100437379D01*
X147711240Y-100433371D01*
G37*
%TD*%
M02*
