  0
SECTION
  2
HEADER
  9
$ANGBASE
  50
0.0
  9
$ANGDIR
  70
1
  9
$MEASUREMENT
  70
1
  0
ENDSEC
  0
SECTION
  2
TABLES
  0
TABLE
  2
LTYPE
  70
4
  0
LTYPE
  5
40F
  2
CONTINUOUS
  70
0
  3
Solid line
  72
65
  73
0
  40
0.0
  0
LTYPE
  5
410
  2
DASHDOT
 70
0
  3
Dash Dot ____ _ ____ _
 72
65
 73
4
 40
2.0
 49
1.25
 49
-0.25
 49
0.25
 49
-0.25
  0
LTYPE
  5
411
  2
DASHED
 70
0
  3
Dashed __ __ __ __ __
 72
65
 73
2
 40
0.75
 49
0.5
 49
-0.25
  0
LTYPE
  5
43B
  2
DOTTED
 70
0
  3
Dotted .  .  .  .
 72
65
 73
2
 40
0.2
 49
0.0
 49
-0.2
  0
ENDTAB
  0
TABLE
  2
STYLE
  70
4
  0
STYLE
  2
KICAD
  70
0
  40
0
  41
1
  42
1
  50
0
  71
0
  3
isocp.shx
  0
STYLE
  2
KICADB
  70
0
  40
0
  41
1
  42
1
  50
0
  71
0
  3
isocp.shx
  0
STYLE
  2
KICADI
  70
0
  40
0
  41
1
  42
1
  50
15
  71
0
  3
isocp.shx
  0
STYLE
  2
KICADBI
  70
0
  40
0
  41
1
  42
1
  50
15
  71
0
  3
isocp.shx
  0
ENDTAB
  0
TABLE
  2
LAYER
  70
1
  0
LAYER
  2
BLACK
  70
0
  62
7
  6
CONTINUOUS
  0
ENDTAB
  0
ENDSEC
  0
SECTION
  2
ENTITIES
0
ARC
8
BLACK
10
171.15
20
-90.75
40
0.5
50
-180
51
-90
0
LINE
8
BLACK
6
CONTINUOUS
10
124.679
20
-100.03
11
124.679
21
-96.03
0
LINE
8
BLACK
6
CONTINUOUS
10
171.15
20
-104.75
11
173.35
21
-104.75
0
ARC
8
BLACK
10
128.265
20
-93.9204
40
1.60957
50
-90.0022
51
-10.0036
0
ARC
8
BLACK
10
171.15
20
-105.25
40
0.4999
50
-270.011
51
-179.989
0
ARC
8
BLACK
10
133.85
20
-107.75
40
0.5
50
-180
51
-90
0
ARC
8
BLACK
10
130.35
20
-89.4499
40
0.4999
50
-270.011
51
-179.989
0
CIRCLE
8
BLACK
10
135.85
20
-106
40
1.25
0
LINE
8
BLACK
6
CONTINUOUS
10
133.85
20
-108.25
11
170.15
21
-108.25
0
LINE
8
BLACK
6
CONTINUOUS
10
130.35
20
-107.05
11
132.85
21
-107.05
0
ARC
8
BLACK
10
173.35
20
-91.75
40
0.5
50
-0
51
90
0
ARC
8
BLACK
10
125.179
20
-100.03
40
0.5
50
-180
51
-90.0057
0
LINE
8
BLACK
6
CONTINUOUS
10
133.35
20
-88.25
11
133.35
21
-88.45
0
LINE
8
BLACK
6
CONTINUOUS
10
170.65
20
-90.75
11
170.65
21
-88.25
0
ARC
8
BLACK
10
132.85
20
-107.55
40
0.5
50
-0
51
90
0
CIRCLE
8
BLACK
10
168.85
20
-90
40
1.25
0
LINE
8
BLACK
6
CONTINUOUS
10
170.65
20
-107.75
11
170.65
21
-105.25
0
ARC
8
BLACK
10
130.35
20
-106.55
40
0.5
50
-180
51
-90
0
LINE
8
BLACK
6
CONTINUOUS
10
170.15
20
-87.75
11
133.85
21
-87.75
0
LINE
8
BLACK
6
CONTINUOUS
10
129.85
20
-89.45
11
129.85
21
-94.2
0
LINE
8
BLACK
6
CONTINUOUS
10
125.179
20
-100.53
11
128.265
21
-100.53
0
LINE
8
BLACK
6
CONTINUOUS
10
129.85
20
-101.8
11
129.85
21
-106.55
0
ARC
8
BLACK
10
170.15
20
-107.75
40
0.5001
50
-89.9885
51
-0.0114569
0
ARC
8
BLACK
10
132.85
20
-88.4499
40
0.5001
50
-89.9885
51
-0.0114569
0
ARC
8
BLACK
10
133.85
20
-88.2499
40
0.4999
50
-270.011
51
-179.989
0
LINE
8
BLACK
6
CONTINUOUS
10
133.35
20
-107.55
11
133.35
21
-107.75
0
ARC
8
BLACK
10
170.15
20
-88.25
40
0.5
50
-0
51
90
0
ARC
8
BLACK
10
173.35
20
-104.25
40
0.5001
50
-89.9885
51
-0.0114569
0
ARC
8
BLACK
10
125.179
20
-96.03
40
0.50005
50
90.0057
51
180
0
LINE
8
BLACK
6
CONTINUOUS
10
173.85
20
-104.25
11
173.85
21
-91.75
0
ARC
8
BLACK
10
128.295
20
-102.111
40
1.58109
50
10.4137
51
91.0895
0
LINE
8
BLACK
6
CONTINUOUS
10
128.265
20
-95.53
11
125.179
21
-95.53
0
LINE
8
BLACK
6
CONTINUOUS
10
173.35
20
-91.25
11
171.15
21
-91.25
0
LINE
8
BLACK
6
CONTINUOUS
10
132.85
20
-88.95
11
130.35
21
-88.95
0
LINE
8
BLACK
6
CONTINUOUS
10
155.125
20
-102.85
11
153.875
21
-102.85
0
LINE
8
BLACK
6
CONTINUOUS
10
155.125
20
-100.35
11
155.125
21
-102.85
0
LINE
8
BLACK
6
CONTINUOUS
10
153.875
20
-102.85
11
153.875
21
-100.35
0
LINE
8
BLACK
6
CONTINUOUS
10
153.875
20
-100.35
11
155.125
21
-100.35
0
LINE
8
BLACK
6
CONTINUOUS
10
158.74
20
-91.89
11
158.74
21
-94.24
0
LINE
8
BLACK
6
CONTINUOUS
10
160.44
20
-91.89
11
158.74
21
-91.89
0
LINE
8
BLACK
6
CONTINUOUS
10
165.91
20
-93.81
11
165.91
21
-102.19
0
LINE
8
BLACK
6
CONTINUOUS
10
158.74
20
-104.11
11
158.74
21
-101.76
0
LINE
8
BLACK
6
CONTINUOUS
10
160.44
20
-104.11
11
158.74
21
-104.11
0
LINE
8
BLACK
6
CONTINUOUS
10
158.74
20
-94.24
11
156.8
21
-94.24
0
LINE
8
BLACK
6
CONTINUOUS
10
137.131
20
-100.504
11
139.631
21
-100.504
0
LINE
8
BLACK
6
CONTINUOUS
10
139.631
20
-100.504
11
139.631
21
-101.754
0
LINE
8
BLACK
6
CONTINUOUS
10
137.131
20
-101.754
11
137.131
21
-100.504
0
LINE
8
BLACK
6
CONTINUOUS
10
139.631
20
-101.754
11
137.131
21
-101.754
0
LINE
8
BLACK
6
CONTINUOUS
10
137.131
20
-95.2536
11
139.631
21
-95.2536
0
LINE
8
BLACK
6
CONTINUOUS
10
137.131
20
-96.5036
11
137.131
21
-95.2536
0
LINE
8
BLACK
6
CONTINUOUS
10
139.631
20
-95.2536
11
139.631
21
-96.5036
0
LINE
8
BLACK
6
CONTINUOUS
10
139.631
20
-96.5036
11
137.131
21
-96.5036
0
LINE
8
BLACK
6
CONTINUOUS
10
147.381
20
-97.8786
11
149.881
21
-97.8786
0
LINE
8
BLACK
6
CONTINUOUS
10
147.381
20
-99.1286
11
147.381
21
-97.8786
0
LINE
8
BLACK
6
CONTINUOUS
10
149.881
20
-99.1286
11
147.381
21
-99.1286
0
LINE
8
BLACK
6
CONTINUOUS
10
149.881
20
-97.8786
11
149.881
21
-99.1286
  0
ENDSEC
  0
EOF
