M48
; DRILL file {KiCad (6.0.10)} date Mon Jan  2 16:18:39 2023
; FORMAT={-:-/ absolute / metric / decimal}
; #@! TF.CreationDate,2023-01-02T16:18:39+01:00
; #@! TF.GenerationSoftware,Kicad,Pcbnew,(6.0.10)
; #@! TF.FileFunction,MixedPlating,1,2
FMAT,2
METRIC
; #@! TA.AperFunction,Plated,PTH,ViaDrill
T1C0.400
; #@! TA.AperFunction,Plated,PTH,ComponentDrill
T2C0.460
%
G90
G05
T1
X132.3Y-91.8
X132.525Y-94.55
X132.6Y-99.6
X132.6Y-105.0
X132.631Y-97.504
X132.631Y-102.504
X133.175Y-93.225
X133.7Y-91.8
X133.7Y-95.0
X133.7Y-99.6
X133.9Y-105.0
X135.6Y-104.0
X135.7Y-91.8
X135.8Y-89.8
X137.006Y-99.879
X137.131Y-94.629
X137.7Y-91.8
X137.851Y-97.159
X138.5Y-102.4
X138.631Y-99.869
X139.631Y-95.879
X139.631Y-101.129
X140.9Y-89.8
X140.9Y-106.0
X142.881Y-98.004
X143.0Y-102.4
X143.506Y-93.379
X143.6Y-97.4
X145.4Y-95.3
X146.1Y-89.8
X146.1Y-106.0
X146.2Y-102.7
X147.1Y-94.0
X147.2Y-101.879
X147.256Y-97.879
X148.6Y-96.8
X149.0Y-93.6
X149.881Y-99.129
X150.8Y-89.8
X150.8Y-106.0
X151.3Y-93.4
X152.2Y-101.879
X153.3Y-100.2
X153.5Y-104.2
X155.146Y-97.754
X155.2Y-96.3
X155.6Y-94.6
X156.2Y-89.8
X156.2Y-106.0
X156.6Y-93.3
X158.7Y-103.6
X160.8Y-101.2
X161.4Y-97.1
X161.6Y-89.8
X161.7Y-106.0
X162.7Y-98.7
X162.8Y-101.2
X164.0Y-95.1
X164.3Y-97.7
X164.9Y-100.2
X166.1Y-89.8
X166.4Y-96.9
X166.4Y-99.3
X166.7Y-106.0
T2
X167.09Y-93.62
X167.09Y-102.38
T0
M30
