  0
SECTION
  2
HEADER
  9
$ANGBASE
  50
0.0
  9
$ANGDIR
  70
1
  9
$MEASUREMENT
  70
1
  0
ENDSEC
  0
SECTION
  2
TABLES
  0
TABLE
  2
LTYPE
  70
4
  0
LTYPE
  5
40F
  2
CONTINUOUS
  70
0
  3
Solid line
  72
65
  73
0
  40
0.0
  0
LTYPE
  5
410
  2
DASHDOT
 70
0
  3
Dash Dot ____ _ ____ _
 72
65
 73
4
 40
2.0
 49
1.25
 49
-0.25
 49
0.25
 49
-0.25
  0
LTYPE
  5
411
  2
DASHED
 70
0
  3
Dashed __ __ __ __ __
 72
65
 73
2
 40
0.75
 49
0.5
 49
-0.25
  0
LTYPE
  5
43B
  2
DOTTED
 70
0
  3
Dotted .  .  .  .
 72
65
 73
2
 40
0.2
 49
0.0
 49
-0.2
  0
ENDTAB
  0
TABLE
  2
STYLE
  70
4
  0
STYLE
  2
KICAD
  70
0
  40
0
  41
1
  42
1
  50
0
  71
0
  3
isocp.shx
  0
STYLE
  2
KICADB
  70
0
  40
0
  41
1
  42
1
  50
0
  71
0
  3
isocp.shx
  0
STYLE
  2
KICADI
  70
0
  40
0
  41
1
  42
1
  50
15
  71
0
  3
isocp.shx
  0
STYLE
  2
KICADBI
  70
0
  40
0
  41
1
  42
1
  50
15
  71
0
  3
isocp.shx
  0
ENDTAB
  0
TABLE
  2
LAYER
  70
1
  0
LAYER
  2
BLACK
  70
0
  62
7
  6
CONTINUOUS
  0
ENDTAB
  0
ENDSEC
  0
SECTION
  2
ENTITIES
0
ARC
8
BLACK
10
171.15
20
-90.75
40
0.5
50
-180
51
-90
0
LINE
8
BLACK
6
CONTINUOUS
10
124.679
20
-100.03
11
124.679
21
-96.03
0
LINE
8
BLACK
6
CONTINUOUS
10
171.15
20
-104.75
11
173.35
21
-104.75
0
ARC
8
BLACK
10
128.265
20
-93.9204
40
1.60957
50
-90.0022
51
-10.0036
0
ARC
8
BLACK
10
171.15
20
-105.25
40
0.4999
50
-270.011
51
-179.989
0
ARC
8
BLACK
10
133.85
20
-107.75
40
0.5
50
-180
51
-90
0
ARC
8
BLACK
10
130.35
20
-89.4499
40
0.4999
50
-270.011
51
-179.989
0
CIRCLE
8
BLACK
10
135.85
20
-106
40
1.25
0
LINE
8
BLACK
6
CONTINUOUS
10
133.85
20
-108.25
11
170.15
21
-108.25
0
LINE
8
BLACK
6
CONTINUOUS
10
130.35
20
-107.05
11
132.85
21
-107.05
0
ARC
8
BLACK
10
173.35
20
-91.75
40
0.5
50
-0
51
90
0
ARC
8
BLACK
10
125.179
20
-100.03
40
0.5
50
-180
51
-90.0057
0
LINE
8
BLACK
6
CONTINUOUS
10
133.35
20
-88.25
11
133.35
21
-88.45
0
LINE
8
BLACK
6
CONTINUOUS
10
170.65
20
-90.75
11
170.65
21
-88.25
0
ARC
8
BLACK
10
132.85
20
-107.55
40
0.5
50
-0
51
90
0
CIRCLE
8
BLACK
10
168.85
20
-90
40
1.25
0
LINE
8
BLACK
6
CONTINUOUS
10
170.65
20
-107.75
11
170.65
21
-105.25
0
ARC
8
BLACK
10
130.35
20
-106.55
40
0.5
50
-180
51
-90
0
LINE
8
BLACK
6
CONTINUOUS
10
170.15
20
-87.75
11
133.85
21
-87.75
0
LINE
8
BLACK
6
CONTINUOUS
10
129.85
20
-89.45
11
129.85
21
-94.2
0
LINE
8
BLACK
6
CONTINUOUS
10
125.179
20
-100.53
11
128.265
21
-100.53
0
LINE
8
BLACK
6
CONTINUOUS
10
129.85
20
-101.8
11
129.85
21
-106.55
0
ARC
8
BLACK
10
170.15
20
-107.75
40
0.5001
50
-89.9885
51
-0.0114569
0
ARC
8
BLACK
10
132.85
20
-88.4499
40
0.5001
50
-89.9885
51
-0.0114569
0
ARC
8
BLACK
10
133.85
20
-88.2499
40
0.4999
50
-270.011
51
-179.989
0
LINE
8
BLACK
6
CONTINUOUS
10
133.35
20
-107.55
11
133.35
21
-107.75
0
ARC
8
BLACK
10
170.15
20
-88.25
40
0.5
50
-0
51
90
0
ARC
8
BLACK
10
173.35
20
-104.25
40
0.5001
50
-89.9885
51
-0.0114569
0
ARC
8
BLACK
10
125.179
20
-96.03
40
0.50005
50
90.0057
51
180
0
LINE
8
BLACK
6
CONTINUOUS
10
173.85
20
-104.25
11
173.85
21
-91.75
0
ARC
8
BLACK
10
128.295
20
-102.111
40
1.58109
50
10.4137
51
91.0895
0
LINE
8
BLACK
6
CONTINUOUS
10
128.265
20
-95.53
11
125.179
21
-95.53
0
LINE
8
BLACK
6
CONTINUOUS
10
173.35
20
-91.25
11
171.15
21
-91.25
0
LINE
8
BLACK
6
CONTINUOUS
10
132.85
20
-88.95
11
130.35
21
-88.95
0
LINE
8
BLACK
6
CONTINUOUS
10
128.552
20
-96.7402
11
129.436
21
-97.6241
0
LINE
8
BLACK
6
CONTINUOUS
10
131.204
20
-95.8564
11
130.32
21
-94.9725
0
LINE
8
BLACK
6
CONTINUOUS
10
130.32
20
-94.9725
11
128.552
21
-96.7402
0
LINE
8
BLACK
6
CONTINUOUS
10
129.436
20
-97.6241
11
131.204
21
-95.8564
0
LINE
8
BLACK
6
CONTINUOUS
10
134.506
20
-96.2536
11
132.006
21
-96.2536
0
LINE
8
BLACK
6
CONTINUOUS
10
134.506
20
-97.5036
11
134.506
21
-96.2536
0
LINE
8
BLACK
6
CONTINUOUS
10
132.006
20
-96.2536
11
132.006
21
-97.5036
0
LINE
8
BLACK
6
CONTINUOUS
10
132.006
20
-97.5036
11
134.506
21
-97.5036
0
LINE
8
BLACK
6
CONTINUOUS
10
132.006
20
-98.7536
11
134.506
21
-98.7536
0
LINE
8
BLACK
6
CONTINUOUS
10
134.506
20
-97.5036
11
132.006
21
-97.5036
0
LINE
8
BLACK
6
CONTINUOUS
10
132.006
20
-97.5036
11
132.006
21
-98.7536
0
LINE
8
BLACK
6
CONTINUOUS
10
134.506
20
-98.7536
11
134.506
21
-97.5036
0
LINE
8
BLACK
6
CONTINUOUS
10
149.7
20
-102.504
11
152.2
21
-102.504
0
LINE
8
BLACK
6
CONTINUOUS
10
149.7
20
-101.254
11
149.7
21
-102.504
0
LINE
8
BLACK
6
CONTINUOUS
10
152.2
20
-101.254
11
149.7
21
-101.254
0
LINE
8
BLACK
6
CONTINUOUS
10
152.2
20
-102.504
11
152.2
21
-101.254
0
LINE
8
BLACK
6
CONTINUOUS
10
128.652
20
-99.2845
11
130.42
21
-101.052
0
LINE
8
BLACK
6
CONTINUOUS
10
130.42
20
-101.052
11
131.304
21
-100.168
0
LINE
8
BLACK
6
CONTINUOUS
10
131.304
20
-100.168
11
129.536
21
-98.4006
0
LINE
8
BLACK
6
CONTINUOUS
10
129.536
20
-98.4006
11
128.652
21
-99.2845
0
LINE
8
BLACK
6
CONTINUOUS
10
140.184
20
-102.866
11
140.184
21
-98.1416
0
LINE
8
BLACK
6
CONTINUOUS
10
136.578
20
-98.1416
11
136.578
21
-102.866
0
LINE
8
BLACK
6
CONTINUOUS
10
136.527
20
-102.586
11
135.511
21
-102.586
0
LINE
8
BLACK
6
CONTINUOUS
10
135.511
20
-102.586
11
135.511
21
-102.231
0
LINE
8
BLACK
6
CONTINUOUS
10
135.511
20
-102.231
11
136.527
21
-102.231
0
LINE
8
BLACK
6
CONTINUOUS
10
136.527
20
-102.231
11
136.527
21
-102.586
0
LINE
8
BLACK
6
CONTINUOUS
10
141.251
20
-98.7764
11
140.235
21
-98.7764
0
LINE
8
BLACK
6
CONTINUOUS
10
140.235
20
-98.7764
11
140.235
21
-98.4208
0
LINE
8
BLACK
6
CONTINUOUS
10
140.235
20
-98.4208
11
141.251
21
-98.4208
0
LINE
8
BLACK
6
CONTINUOUS
10
141.251
20
-98.4208
11
141.251
21
-98.7764
0
LINE
8
BLACK
6
CONTINUOUS
10
136.527
20
-101.316
11
135.511
21
-101.316
0
LINE
8
BLACK
6
CONTINUOUS
10
135.511
20
-101.316
11
135.511
21
-100.961
0
LINE
8
BLACK
6
CONTINUOUS
10
135.511
20
-100.961
11
136.527
21
-100.961
0
LINE
8
BLACK
6
CONTINUOUS
10
136.527
20
-100.961
11
136.527
21
-101.316
0
LINE
8
BLACK
6
CONTINUOUS
10
141.251
20
-102.586
11
140.235
21
-102.586
0
LINE
8
BLACK
6
CONTINUOUS
10
140.235
20
-102.586
11
140.235
21
-102.231
0
LINE
8
BLACK
6
CONTINUOUS
10
140.235
20
-102.231
11
141.251
21
-102.231
0
LINE
8
BLACK
6
CONTINUOUS
10
141.251
20
-102.231
11
141.251
21
-102.586
0
LINE
8
BLACK
6
CONTINUOUS
10
136.527
20
-100.046
11
135.511
21
-100.046
0
LINE
8
BLACK
6
CONTINUOUS
10
135.511
20
-100.046
11
135.511
21
-99.6908
0
LINE
8
BLACK
6
CONTINUOUS
10
135.511
20
-99.6908
11
136.527
21
-99.6908
0
LINE
8
BLACK
6
CONTINUOUS
10
136.527
20
-99.6908
11
136.527
21
-100.046
0
LINE
8
BLACK
6
CONTINUOUS
10
136.527
20
-98.7764
11
135.511
21
-98.7764
0
LINE
8
BLACK
6
CONTINUOUS
10
135.511
20
-98.7764
11
135.511
21
-98.4208
0
LINE
8
BLACK
6
CONTINUOUS
10
135.511
20
-98.4208
11
136.527
21
-98.4208
0
LINE
8
BLACK
6
CONTINUOUS
10
136.527
20
-98.4208
11
136.527
21
-98.7764
0
LINE
8
BLACK
6
CONTINUOUS
10
141.251
20
-101.316
11
140.235
21
-101.316
0
LINE
8
BLACK
6
CONTINUOUS
10
140.235
20
-101.316
11
140.235
21
-100.961
0
LINE
8
BLACK
6
CONTINUOUS
10
140.235
20
-100.961
11
141.251
21
-100.961
0
LINE
8
BLACK
6
CONTINUOUS
10
141.251
20
-100.961
11
141.251
21
-101.316
0
LINE
8
BLACK
6
CONTINUOUS
10
141.251
20
-100.046
11
140.235
21
-100.046
0
LINE
8
BLACK
6
CONTINUOUS
10
140.235
20
-100.046
11
140.235
21
-99.6908
0
LINE
8
BLACK
6
CONTINUOUS
10
140.235
20
-99.6908
11
141.251
21
-99.6908
0
LINE
8
BLACK
6
CONTINUOUS
10
141.251
20
-99.6908
11
141.251
21
-100.046
0
LINE
8
BLACK
6
CONTINUOUS
10
146.006
20
-103.004
11
146.006
21
-101.754
0
LINE
8
BLACK
6
CONTINUOUS
10
143.506
20
-103.004
11
146.006
21
-103.004
0
LINE
8
BLACK
6
CONTINUOUS
10
143.506
20
-101.754
11
143.506
21
-103.004
0
LINE
8
BLACK
6
CONTINUOUS
10
146.006
20
-101.754
11
143.506
21
-101.754
0
LINE
8
BLACK
6
CONTINUOUS
10
152.65
20
-99.825
11
155.15
21
-99.825
0
LINE
8
BLACK
6
CONTINUOUS
10
152.65
20
-98.575
11
152.65
21
-99.825
0
LINE
8
BLACK
6
CONTINUOUS
10
155.15
20
-98.575
11
152.65
21
-98.575
0
LINE
8
BLACK
6
CONTINUOUS
10
155.15
20
-99.825
11
155.15
21
-98.575
0
LINE
8
BLACK
6
CONTINUOUS
10
134.506
20
-102.504
11
132.006
21
-102.504
0
LINE
8
BLACK
6
CONTINUOUS
10
132.006
20
-102.504
11
132.006
21
-103.754
0
LINE
8
BLACK
6
CONTINUOUS
10
132.006
20
-103.754
11
134.506
21
-103.754
0
LINE
8
BLACK
6
CONTINUOUS
10
134.506
20
-103.754
11
134.506
21
-102.504
0
LINE
8
BLACK
6
CONTINUOUS
10
152.65
20
-97.1286
11
152.65
21
-98.3786
0
LINE
8
BLACK
6
CONTINUOUS
10
155.15
20
-98.3786
11
155.15
21
-97.1286
0
LINE
8
BLACK
6
CONTINUOUS
10
155.15
20
-97.1286
11
152.65
21
-97.1286
0
LINE
8
BLACK
6
CONTINUOUS
10
152.65
20
-98.3786
11
155.15
21
-98.3786
0
LINE
8
BLACK
6
CONTINUOUS
10
155.15
20
-96.925
11
155.15
21
-95.675
0
LINE
8
BLACK
6
CONTINUOUS
10
152.65
20
-95.675
11
152.65
21
-96.925
0
LINE
8
BLACK
6
CONTINUOUS
10
155.15
20
-95.675
11
152.65
21
-95.675
0
LINE
8
BLACK
6
CONTINUOUS
10
152.65
20
-96.925
11
155.15
21
-96.925
0
LINE
8
BLACK
6
CONTINUOUS
10
143.506
20
-100.504
11
143.506
21
-98.0036
0
LINE
8
BLACK
6
CONTINUOUS
10
142.256
20
-100.504
11
143.506
21
-100.504
0
LINE
8
BLACK
6
CONTINUOUS
10
143.506
20
-98.0036
11
142.256
21
-98.0036
0
LINE
8
BLACK
6
CONTINUOUS
10
142.256
20
-98.0036
11
142.256
21
-100.504
0
LINE
8
BLACK
6
CONTINUOUS
10
142.256
20
-100.504
11
142.256
21
-101.754
0
LINE
8
BLACK
6
CONTINUOUS
10
142.256
20
-101.754
11
144.756
21
-101.754
0
LINE
8
BLACK
6
CONTINUOUS
10
144.756
20
-100.504
11
142.256
21
-100.504
0
LINE
8
BLACK
6
CONTINUOUS
10
144.756
20
-101.754
11
144.756
21
-100.504
0
LINE
8
BLACK
6
CONTINUOUS
10
132.006
20
-101.254
11
132.006
21
-102.504
0
LINE
8
BLACK
6
CONTINUOUS
10
132.006
20
-102.504
11
134.506
21
-102.504
0
LINE
8
BLACK
6
CONTINUOUS
10
134.506
20
-102.504
11
134.506
21
-101.254
0
LINE
8
BLACK
6
CONTINUOUS
10
134.506
20
-101.254
11
132.006
21
-101.254
0
LINE
8
BLACK
6
CONTINUOUS
10
143.506
20
-95.2536
11
143.506
21
-92.7536
0
LINE
8
BLACK
6
CONTINUOUS
10
142.256
20
-95.2536
11
143.506
21
-95.2536
0
LINE
8
BLACK
6
CONTINUOUS
10
142.256
20
-92.7536
11
142.256
21
-95.2536
0
LINE
8
BLACK
6
CONTINUOUS
10
143.506
20
-92.7536
11
142.256
21
-92.7536
0
LINE
8
BLACK
6
CONTINUOUS
10
136.578
20
-92.8916
11
136.578
21
-97.6156
0
LINE
8
BLACK
6
CONTINUOUS
10
140.184
20
-97.6156
11
140.184
21
-92.8916
0
LINE
8
BLACK
6
CONTINUOUS
10
136.527
20
-93.5264
11
135.511
21
-93.5264
0
LINE
8
BLACK
6
CONTINUOUS
10
135.511
20
-93.5264
11
135.511
21
-93.1708
0
LINE
8
BLACK
6
CONTINUOUS
10
135.511
20
-93.1708
11
136.527
21
-93.1708
0
LINE
8
BLACK
6
CONTINUOUS
10
136.527
20
-93.1708
11
136.527
21
-93.5264
0
LINE
8
BLACK
6
CONTINUOUS
10
141.251
20
-93.5264
11
140.235
21
-93.5264
0
LINE
8
BLACK
6
CONTINUOUS
10
140.235
20
-93.5264
11
140.235
21
-93.1708
0
LINE
8
BLACK
6
CONTINUOUS
10
140.235
20
-93.1708
11
141.251
21
-93.1708
0
LINE
8
BLACK
6
CONTINUOUS
10
141.251
20
-93.1708
11
141.251
21
-93.5264
0
LINE
8
BLACK
6
CONTINUOUS
10
141.251
20
-96.0664
11
140.235
21
-96.0664
0
LINE
8
BLACK
6
CONTINUOUS
10
140.235
20
-96.0664
11
140.235
21
-95.7108
0
LINE
8
BLACK
6
CONTINUOUS
10
140.235
20
-95.7108
11
141.251
21
-95.7108
0
LINE
8
BLACK
6
CONTINUOUS
10
141.251
20
-95.7108
11
141.251
21
-96.0664
0
LINE
8
BLACK
6
CONTINUOUS
10
136.527
20
-97.3364
11
135.511
21
-97.3364
0
LINE
8
BLACK
6
CONTINUOUS
10
135.511
20
-97.3364
11
135.511
21
-96.9808
0
LINE
8
BLACK
6
CONTINUOUS
10
135.511
20
-96.9808
11
136.527
21
-96.9808
0
LINE
8
BLACK
6
CONTINUOUS
10
136.527
20
-96.9808
11
136.527
21
-97.3364
0
LINE
8
BLACK
6
CONTINUOUS
10
141.251
20
-97.3364
11
140.235
21
-97.3364
0
LINE
8
BLACK
6
CONTINUOUS
10
140.235
20
-97.3364
11
140.235
21
-96.9808
0
LINE
8
BLACK
6
CONTINUOUS
10
140.235
20
-96.9808
11
141.251
21
-96.9808
0
LINE
8
BLACK
6
CONTINUOUS
10
141.251
20
-96.9808
11
141.251
21
-97.3364
0
LINE
8
BLACK
6
CONTINUOUS
10
136.527
20
-96.0664
11
135.511
21
-96.0664
0
LINE
8
BLACK
6
CONTINUOUS
10
135.511
20
-96.0664
11
135.511
21
-95.7108
0
LINE
8
BLACK
6
CONTINUOUS
10
135.511
20
-95.7108
11
136.527
21
-95.7108
0
LINE
8
BLACK
6
CONTINUOUS
10
136.527
20
-95.7108
11
136.527
21
-96.0664
0
LINE
8
BLACK
6
CONTINUOUS
10
141.251
20
-94.7964
11
140.235
21
-94.7964
0
LINE
8
BLACK
6
CONTINUOUS
10
140.235
20
-94.7964
11
140.235
21
-94.4408
0
LINE
8
BLACK
6
CONTINUOUS
10
140.235
20
-94.4408
11
141.251
21
-94.4408
0
LINE
8
BLACK
6
CONTINUOUS
10
141.251
20
-94.4408
11
141.251
21
-94.7964
0
LINE
8
BLACK
6
CONTINUOUS
10
136.527
20
-94.7964
11
135.511
21
-94.7964
0
LINE
8
BLACK
6
CONTINUOUS
10
135.511
20
-94.7964
11
135.511
21
-94.4408
0
LINE
8
BLACK
6
CONTINUOUS
10
135.511
20
-94.4408
11
136.527
21
-94.4408
0
LINE
8
BLACK
6
CONTINUOUS
10
136.527
20
-94.4408
11
136.527
21
-94.7964
0
LINE
8
BLACK
6
CONTINUOUS
10
144.756
20
-95.2536
11
144.756
21
-92.7536
0
LINE
8
BLACK
6
CONTINUOUS
10
143.506
20
-92.7536
11
143.506
21
-95.2536
0
LINE
8
BLACK
6
CONTINUOUS
10
143.506
20
-95.2536
11
144.756
21
-95.2536
0
LINE
8
BLACK
6
CONTINUOUS
10
144.756
20
-92.7536
11
143.506
21
-92.7536
0
LINE
8
BLACK
6
CONTINUOUS
10
168.32
20
-102.76
11
174.72
21
-102.76
0
LINE
8
BLACK
6
CONTINUOUS
10
168.32
20
-98.38
11
168.32
21
-97.62
0
LINE
8
BLACK
6
CONTINUOUS
10
173.57
20
-97.62
11
168.32
21
-97.62
0
LINE
8
BLACK
6
CONTINUOUS
10
173.57
20
-101.75
11
173.57
21
-94.25
0
LINE
8
BLACK
6
CONTINUOUS
10
182.6
20
-100.65
11
174.72
21
-100.65
0
LINE
8
BLACK
6
CONTINUOUS
10
168.32
20
-94.25
11
168.32
21
-93.24
0
LINE
8
BLACK
6
CONTINUOUS
10
166.31
20
-98.25
11
166.81
21
-98
0
LINE
8
BLACK
6
CONTINUOUS
10
166.31
20
-97.75
11
166.31
21
-98.25
0
LINE
8
BLACK
6
CONTINUOUS
10
173.57
20
-101.75
11
168.32
21
-101.75
0
LINE
8
BLACK
6
CONTINUOUS
10
173.57
20
-94.25
11
168.32
21
-94.25
0
LINE
8
BLACK
6
CONTINUOUS
10
166.81
20
-98
11
166.31
21
-97.75
0
LINE
8
BLACK
6
CONTINUOUS
10
182.6
20
-95.35
11
174.72
21
-95.35
0
LINE
8
BLACK
6
CONTINUOUS
10
168.32
20
-102.76
11
168.32
21
-101.75
0
LINE
8
BLACK
6
CONTINUOUS
10
182.6
20
-100.65
11
182.6
21
-95.35
0
LINE
8
BLACK
6
CONTINUOUS
10
174.72
20
-93.24
11
168.32
21
-93.24
0
LINE
8
BLACK
6
CONTINUOUS
10
173.57
20
-98.38
11
168.32
21
-98.38
0
LINE
8
BLACK
6
CONTINUOUS
10
174.72
20
-102.76
11
174.72
21
-93.24
0
LINE
8
BLACK
6
CONTINUOUS
10
145.85
20
-92
11
146.75
21
-92
0
LINE
8
BLACK
6
CONTINUOUS
10
146.75
20
-92
11
146.75
21
-94.2
0
LINE
8
BLACK
6
CONTINUOUS
10
146.75
20
-94.2
11
145.85
21
-94.2
0
LINE
8
BLACK
6
CONTINUOUS
10
145.85
20
-94.2
11
145.85
21
-92
0
LINE
8
BLACK
6
CONTINUOUS
10
153
20
-94.15
11
155.2
21
-94.15
0
LINE
8
BLACK
6
CONTINUOUS
10
155.2
20
-94.15
11
155.2
21
-95.05
0
LINE
8
BLACK
6
CONTINUOUS
10
153
20
-95.05
11
153
21
-94.15
0
LINE
8
BLACK
6
CONTINUOUS
10
155.2
20
-95.05
11
153
21
-95.05
0
LINE
8
BLACK
6
CONTINUOUS
10
150.434
20
-100.866
11
150.434
21
-96.1416
0
LINE
8
BLACK
6
CONTINUOUS
10
146.828
20
-96.1416
11
146.828
21
-100.866
0
LINE
8
BLACK
6
CONTINUOUS
10
151.501
20
-96.7764
11
150.485
21
-96.7764
0
LINE
8
BLACK
6
CONTINUOUS
10
150.485
20
-96.7764
11
150.485
21
-96.4208
0
LINE
8
BLACK
6
CONTINUOUS
10
150.485
20
-96.4208
11
151.501
21
-96.4208
0
LINE
8
BLACK
6
CONTINUOUS
10
151.501
20
-96.4208
11
151.501
21
-96.7764
0
LINE
8
BLACK
6
CONTINUOUS
10
146.777
20
-96.7764
11
145.761
21
-96.7764
0
LINE
8
BLACK
6
CONTINUOUS
10
145.761
20
-96.7764
11
145.761
21
-96.4208
0
LINE
8
BLACK
6
CONTINUOUS
10
145.761
20
-96.4208
11
146.777
21
-96.4208
0
LINE
8
BLACK
6
CONTINUOUS
10
146.777
20
-96.4208
11
146.777
21
-96.7764
0
LINE
8
BLACK
6
CONTINUOUS
10
151.501
20
-100.586
11
150.485
21
-100.586
0
LINE
8
BLACK
6
CONTINUOUS
10
150.485
20
-100.586
11
150.485
21
-100.231
0
LINE
8
BLACK
6
CONTINUOUS
10
150.485
20
-100.231
11
151.501
21
-100.231
0
LINE
8
BLACK
6
CONTINUOUS
10
151.501
20
-100.231
11
151.501
21
-100.586
0
LINE
8
BLACK
6
CONTINUOUS
10
146.777
20
-99.3164
11
145.761
21
-99.3164
0
LINE
8
BLACK
6
CONTINUOUS
10
145.761
20
-99.3164
11
145.761
21
-98.9608
0
LINE
8
BLACK
6
CONTINUOUS
10
145.761
20
-98.9608
11
146.777
21
-98.9608
0
LINE
8
BLACK
6
CONTINUOUS
10
146.777
20
-98.9608
11
146.777
21
-99.3164
0
LINE
8
BLACK
6
CONTINUOUS
10
151.501
20
-99.3164
11
150.485
21
-99.3164
0
LINE
8
BLACK
6
CONTINUOUS
10
150.485
20
-99.3164
11
150.485
21
-98.9608
0
LINE
8
BLACK
6
CONTINUOUS
10
150.485
20
-98.9608
11
151.501
21
-98.9608
0
LINE
8
BLACK
6
CONTINUOUS
10
151.501
20
-98.9608
11
151.501
21
-99.3164
0
LINE
8
BLACK
6
CONTINUOUS
10
151.501
20
-98.0464
11
150.485
21
-98.0464
0
LINE
8
BLACK
6
CONTINUOUS
10
150.485
20
-98.0464
11
150.485
21
-97.6908
0
LINE
8
BLACK
6
CONTINUOUS
10
150.485
20
-97.6908
11
151.501
21
-97.6908
0
LINE
8
BLACK
6
CONTINUOUS
10
151.501
20
-97.6908
11
151.501
21
-98.0464
0
LINE
8
BLACK
6
CONTINUOUS
10
146.777
20
-98.0464
11
145.761
21
-98.0464
0
LINE
8
BLACK
6
CONTINUOUS
10
145.761
20
-98.0464
11
145.761
21
-97.6908
0
LINE
8
BLACK
6
CONTINUOUS
10
145.761
20
-97.6908
11
146.777
21
-97.6908
0
LINE
8
BLACK
6
CONTINUOUS
10
146.777
20
-97.6908
11
146.777
21
-98.0464
0
LINE
8
BLACK
6
CONTINUOUS
10
146.777
20
-100.586
11
145.761
21
-100.586
0
LINE
8
BLACK
6
CONTINUOUS
10
145.761
20
-100.586
11
145.761
21
-100.231
0
LINE
8
BLACK
6
CONTINUOUS
10
145.761
20
-100.231
11
146.777
21
-100.231
0
LINE
8
BLACK
6
CONTINUOUS
10
146.777
20
-100.231
11
146.777
21
-100.586
0
LINE
8
BLACK
6
CONTINUOUS
10
143.506
20
-97.2536
11
143.506
21
-99.7536
0
LINE
8
BLACK
6
CONTINUOUS
10
144.756
20
-97.2536
11
143.506
21
-97.2536
0
LINE
8
BLACK
6
CONTINUOUS
10
144.756
20
-99.7536
11
144.756
21
-97.2536
0
LINE
8
BLACK
6
CONTINUOUS
10
143.506
20
-99.7536
11
144.756
21
-99.7536
0
LINE
8
BLACK
6
CONTINUOUS
10
147.2
20
-101.254
11
147.2
21
-102.504
0
LINE
8
BLACK
6
CONTINUOUS
10
149.7
20
-102.504
11
149.7
21
-101.254
0
LINE
8
BLACK
6
CONTINUOUS
10
147.2
20
-102.504
11
149.7
21
-102.504
0
LINE
8
BLACK
6
CONTINUOUS
10
149.7
20
-101.254
11
147.2
21
-101.254
0
LINE
8
BLACK
6
CONTINUOUS
10
144.756
20
-96.5036
11
144.756
21
-95.2536
0
LINE
8
BLACK
6
CONTINUOUS
10
142.256
20
-96.5036
11
144.756
21
-96.5036
0
LINE
8
BLACK
6
CONTINUOUS
10
144.756
20
-95.2536
11
142.256
21
-95.2536
0
LINE
8
BLACK
6
CONTINUOUS
10
142.256
20
-95.2536
11
142.256
21
-96.5036
  0
ENDSEC
  0
EOF
